<svg xmlns="http://www.w3.org/2000/svg" width="22" height="22" version="1">
 <path d="M21 19.5V9.506c0-.554-.45-1.061-1-1H2c-1 0-1 .958-1 .958V19.5c0 .554.446 1 1 1h18c.554 0 1-.446 1-1z" opacity=".2"/>
 <path d="M1 17V3.004C1 2.45 1.45 2 2 2h6c1 0 1 .801 1 2h11s1 0 1 1v12c0 .554-.446 1-1 1H2c-.554 0-1-.446-1-1z" fill="#6c9b9a"/>
 <path d="M2 2c-.55 0-1 .45-1 1.004v.5C1 2.95 1.45 2.5 2 2.5h6c1 0 1 .801 1 2h11s1 0 1 1V5c0-1-1-1-1-1H9c0-1.199 0-2-1-2z" opacity=".1" fill="#fff"/>
 <path d="M21 18.5V8.506c0-.554-.45-1.005-1-1.005H2c-1 0-1 .963-1 .963V18.5c0 .554.446 1 1 1h18c.554 0 1-.446 1-1z" opacity=".2"/>
 <rect width="16" height="8" x="3" y="6" rx=".889" ry="1" fill="#dcdcdc"/>
 <path d="M21 19V9.006C21 8.45 20.55 8 20 8H2c-1 0-1 .963-1 .963V19c0 .554.446 1 1 1h18c.554 0 1-.446 1-1z" fill="#82abaa"/>
 <circle cx="16" cy="16" r="6" fill="#5db41e"/>
 <path d="M16 13a3 3 0 0 0-3 3 3 3 0 0 0 3 3 3 3 0 0 0 3-3 3 3 0 0 0-3-3zm0 1a2 2 0 0 1 2 2 2 2 0 0 1-2 2 2 2 0 0 1-2-2 2 2 0 0 1 2-2z" fill="#fff"/>
 <path d="M16 12v3l2-1.5zM16 17v3l-2-1.5z" fill="#fff"/>
</svg>
