<svg xmlns="http://www.w3.org/2000/svg" width="22" height="22" version="1"><rect width="18" height="12" x="2" y="1" rx=".75" ry=".75" fill="#82abaa"/><rect width="18" height="12" x="2" y="2.5" rx=".75" ry=".75" opacity=".1"/><rect width="18" height="12" x="2" y="3" rx=".75" ry=".75" fill="#a3be8c"/><rect width="18" height="12" x="2" y="4.5" rx=".75" ry=".75" opacity=".1"/><rect width="18" height="12" x="2" y="5" rx=".75" ry=".75" fill="#ebcb8b"/><rect width="20" height="14" x="1" y="7.5" rx="1" ry="1" opacity=".2"/><rect width="20" height="14" x="1" y="7" rx="1" ry="1" fill="#718382"/><rect width="6" height="2" x="8" y="12.5" rx=".5" ry=".5" opacity=".2"/><rect width="6" height="2" x="8" y="12" rx=".5" ry=".5" fill="#ececec"/><path d="M2.75 1a.748.748 0 0 0-.75.75v.5c0-.415.334-.75.75-.75h16.5c.416 0 .75.335.75.75v-.5a.748.748 0 0 0-.75-.75H2.75zM2.75 3a.748.748 0 0 0-.75.75v.5c0-.416.334-.75.75-.75h16.5c.416 0 .75.334.75.75v-.5a.748.748 0 0 0-.75-.75zM2.75 5a.748.748 0 0 0-.75.75v.5c0-.415.334-.75.75-.75h16.5c.416 0 .75.335.75.75v-.5a.748.748 0 0 0-.75-.75z" fill="#fff" opacity=".1"/></svg>