<svg xmlns="http://www.w3.org/2000/svg" style="isolation:isolate" width="48" height="48">
 <defs>
 <clipPath clipPathUnits="userSpaceOnUse" id="a">
 <path fill="none" d="M0 0h48v48H0z"/>
 </clipPath>
 </defs>
 <g clip-path="url(#a)">
 <linearGradient id="b" x1="-.046" y1=".16" x2=".852" y2=".71" gradientTransform="matrix(45 0 0 30.763 1.229 15.445)" gradientUnits="userSpaceOnUse">
 <stop offset="3.043%" stop-color="#82abaa"/>
 <stop offset="98.261%" stop-color="#82abaa"/>
 </linearGradient>
 <path d="M1.545 46.208l44.378-.01a.306.306 0 0 0 .306-.306v-30.12a.307.307 0 0 0-.306-.307l-25.816-.02-4.221 3.206a.535.535 0 0 1-.276.092l-14.381-.055.009 27.214c0 .169.138.306.307.306z" stroke-miterlimit="3" vector-effect="non-scaling-stroke" fill="url(#b)" stroke="#698989" stroke-linecap="square"/>
 <linearGradient id="c" x1="0" y1=".5" x2="1" y2=".5" gradientTransform="matrix(18.873 0 0 6.535 1.243 12.208)" gradientUnits="userSpaceOnUse">
 <stop offset="3.043%" stop-color="#82abaa"/>
 <stop offset="98.261%" stop-color="#82abaa"/>
 </linearGradient>
 <path d="M20.116 15.456L15.887 12.3a.538.538 0 0 0-.277-.092H1.554a.308.308 0 0 0-.307.307l-.004 6.168 14.557.06z" stroke-miterlimit="3" vector-effect="non-scaling-stroke" fill="url(#c)" stroke="#698989" stroke-linecap="square"/>
 <path d="M20.904 28.653c.152 0 .3.022.438.066a12.022 12.022 0 0 1 1.737-1.598 1.487 1.487 0 0 1 .037-.819 10.949 10.949 0 0 0-2.291-1.258 7.036 7.036 0 0 0-1.965 1.812c.395.7.864 1.352 1.399 1.945.195-.094.413-.148.645-.148m-1.49 1.49c0-.21.044-.41.121-.589a12.102 12.102 0 0 1-1.29-1.696 6.973 6.973 0 0 0-.745 3.143c0 1.308.36 2.532.985 3.58.224-1.258.648-2.45 1.233-3.54a1.481 1.481 0 0 1-.304-.899m5.113-4.856c.393 0 .75.153 1.017.403.776-.334 1.594-.591 2.445-.755a6.96 6.96 0 0 0-3.49-.933c-.866 0-1.695.16-2.461.448.607.3 1.187.65 1.732 1.046.222-.133.48-.209.757-.209m2.226 7.014c.093-.193.225-.364.388-.499a10.907 10.907 0 0 0-2.033-3.654 1.488 1.488 0 0 1-1.446-.16c-.54.41-1.041.87-1.495 1.371a1.468 1.468 0 0 1 .158 1.23 10.844 10.844 0 0 0 4.428 1.712m1.932 2.011a12.075 12.075 0 0 1-.062 2.345 7.013 7.013 0 0 0 2.546-3.53c-.54.132-1.094.225-1.659.278a1.49 1.49 0 0 1-.825.907m-2.28-1.01a11.897 11.897 0 0 1-4.725-1.89 1.486 1.486 0 0 1-1.083.19 10.817 10.817 0 0 0-1.216 4.172 7.002 7.002 0 0 0 2.393 1.677 11.917 11.917 0 0 1 4.63-4.149m2.794-7.489a10.888 10.888 0 0 0-3.19.813c.004.05.008.1.008.15 0 .235-.056.456-.153.653a11.933 11.933 0 0 1 2.259 4.026 1.493 1.493 0 0 1 1.347.909 10.83 10.83 0 0 0 1.961-.384 6.984 6.984 0 0 0-2.232-6.167m-2.044 8.284a10.874 10.874 0 0 0-4.354 3.695 6.989 6.989 0 0 0 4.653-.445c.144-.706.22-1.435.22-2.182 0-.27-.012-.538-.032-.803a1.462 1.462 0 0 1-.487-.265" fill="#4e6766"/>
 </g>
</svg>
