<svg xmlns="http://www.w3.org/2000/svg" width="24" height="24" version="1">
 <rect width="20" height="12" x="2" y="9.5" rx="1" ry="1" opacity=".2"/>
 <path d="M2 17c0 .554.446 1 1 1h18c.554 0 1-.446 1-1V6c0-.554-.446-1-1-1H11V4c0-.554-.446-1-1-1H3c-.554 0-1 .446-1 1" fill="#6c9b9a"/>
 <rect width="20" height="12" x="2" y="8.5" rx="1" ry="1" opacity=".2"/>
 <rect width="16" height="8" x="4" y="7" rx="1" ry="1" fill="#e4e4e4"/>
 <rect width="20" height="12" x="2" y="9" rx="1" ry="1" fill="#82abaa"/>
 <path d="M3 3c-.554 0-1 .446-1 1v.5c0-.554.446-1 1-1h7c.554 0 1 .446 1 1V4c0-.554-.446-1-1-1zm8 2v.5h10c.554 0 1 .446 1 1V6c0-.554-.446-1-1-1z" opacity=".1" fill="#fff"/>
 <path d="M5 15.255l3.05 1.761A2.5 2.5 0 0 0 8 17.5a2.5 2.5 0 1 0 4.978-.314l2.598-2.219c.14.021.282.032.424.033a3 3 0 1 0-2.99-3.234l-2.098 3.269a2.473 2.473 0 0 0-1.713.334L5 12.945M16 10a2 2 0 1 1 .001 3.999A2 2 0 0 1 16 10zm0 1a1 1 0 1 0 0 2 1 1 0 0 0 0-2zm-5.539 5h.039a1.5 1.5 0 1 1-1.498 1.566l.498.288c.495.286 1.117.13 1.394-.35.277-.48.101-1.097-.394-1.383l-.188-.107c.049-.007.099-.012.149-.014z" fill="#4e6766"/>
</svg>
