<svg xmlns="http://www.w3.org/2000/svg" width="24" height="24" version="1"><rect width="20" height="12" x="2" y="9.5" rx="1" ry="1" opacity=".2"/><path d="M2 17c0 .554.446 1 1 1h18c.554 0 1-.446 1-1V6c0-.554-.446-1-1-1H11V4c0-.554-.446-1-1-1H3c-.554 0-1 .446-1 1" fill="#6c9b9a"/><rect width="20" height="10" x="2" y="10.5" rx="1" ry="1" opacity=".2"/><rect width="16" height="8" x="4" y="7" rx="1" ry="1" fill="#e4e4e4"/><rect width="20" height="10" x="2" y="11" rx="1" ry="1" fill="#82abaa"/><path d="M3 3c-.554 0-1 .446-1 1v.5c0-.554.446-1 1-1h7c.554 0 1 .446 1 1V4c0-.554-.446-1-1-1zm8 2v.5h10c.554 0 1 .446 1 1V6c0-.554-.446-1-1-1z" opacity=".1" fill="#fff"/><path d="M9.5 12c-.277 0-.5.223-.5.5v5h.5V17h.5v-4h2.5v2H14v4.5h.5V19h.5v-5l-2-2zm5 7.5v.5h.5v-.5zm-.5 0h-.5v.5h.5zm-.5 0V19H13v.5zm-.5 0h-.5v.5h.5zm-.5 0V19H12v.5zm-.5 0h-.5v.5h.5zm-.5 0V19H11v.5zm-.5 0h-.5v.5h.5zm-.5 0V19H10v.5zm-.5 0h-.5v.5h.5zm-.5 0V19H9v.5zm0-.5h.5v-.5h-.5zm0-.5V18H9v.5zm0-.5h.5v-.5h-.5z" fill="#4e6766"/></svg>