<svg xmlns="http://www.w3.org/2000/svg" width="24" height="24" version="1"><rect width="20" height="12" x="2" y="9.5" rx="1" ry="1" opacity=".2"/><path d="M2 17c0 .554.446 1 1 1h18c.554 0 1-.446 1-1V6c0-.554-.446-1-1-1H11V4c0-.554-.446-1-1-1H3c-.554 0-1 .446-1 1" fill="#6c9b9a"/><rect width="20" height="12" x="2" y="8.5" rx="1" ry="1" opacity=".2"/><rect width="16" height="8" x="4" y="7" rx="1" ry="1" fill="#e4e4e4"/><rect width="20" height="12" x="2" y="9" rx="1" ry="1" fill="#82abaa"/><path d="M3 3c-.554 0-1 .446-1 1v.5c0-.554.446-1 1-1h7c.554 0 1 .446 1 1V4c0-.554-.446-1-1-1zm8 2v.5h10c.554 0 1 .446 1 1V6c0-.554-.446-1-1-1z" opacity=".1" fill="#fff"/><path d="M12 11a4 4 0 1 0 0 8 4 4 0 0 0 0-8zm-.286 1.107c.038-.004.087.002.125 0 .005.018-.028.083-.071.179-.278.606-.294 1.316-.036 1.696.047.069.089.134.089.143 0 .008-.05.018-.107.018-.133 0-.26-.082-.518-.286a1.053 1.053 0 0 0-.321-.179c-.091-.018-.115-.01-.232.108-.109.109-.143.168-.143.267 0 .379.45.68 1.286.858 1.135.24 1.415.456 1.446 1.053.039.749-.359 1.313-1.232 1.75-.104.052-.171.072-.214.089-.02-.001-.035.002-.054 0a.643.643 0 0 1-.018-.178c0-.398-.156-.807-.393-1.036a2.987 2.987 0 0 0-.392-.286c-.152-.094-.306-.203-.34-.25-.056-.077-.061-.125-.018-.267.08-.262.174-.407.358-.572a.986.986 0 0 1 .214-.161c.021-.001-.123-.045-.339-.089a6.061 6.061 0 0 1-.697-.196c-.3-.109-.703-.336-.857-.5l-.018-.018c.22-.879.84-1.599 1.661-1.947.172-.072.349-.122.536-.16.093-.019.189-.026.285-.036zm2.679 1.339c.067.042.32.59.393.857.093.346.086.943 0 1.286a1.28 1.28 0 0 1-.09.268c-.014.015-.065-.072-.125-.179-.06-.106-.251-.332-.41-.5-.46-.484-.532-.738-.34-1.125.097-.195.52-.639.572-.607z" fill="#4e6766"/></svg>