<svg xmlns="http://www.w3.org/2000/svg" width="24" height="24" version="1">
 <rect width="20" height="12" x="2" y="9.5" rx="1" ry="1" opacity=".2"/>
 <path d="M2 17c0 .554.446 1 1 1h18c.554 0 1-.446 1-1V6c0-.554-.446-1-1-1H11V4c0-.554-.446-1-1-1H3c-.554 0-1 .446-1 1" fill="#6c9b9a"/>
 <rect width="20" height="12" x="2" y="8.5" rx="1" ry="1" opacity=".2"/>
 <rect width="16" height="8" x="4" y="7" rx="1" ry="1" fill="#e4e4e4"/>
 <rect width="20" height="12" x="2" y="9" rx="1" ry="1" fill="#82abaa"/>
 <path d="M3 3c-.554 0-1 .446-1 1v.5c0-.554.446-1 1-1h7c.554 0 1 .446 1 1V4c0-.554-.446-1-1-1zm8 2v.5h10c.554 0 1 .446 1 1V6c0-.554-.446-1-1-1z" opacity=".1" fill="#fff"/>
 <path d="M11.546 12.023c-1.778 0-1.364 1.624-2.274 2.113-.032.018-.05.035-.078.052.6-.357 1.341-.656 2.126-.858a8.748 8.748 0 0 1 1.963-.28h.048c-.6-.17-.666-1.027-1.785-1.027zm1.938 1.478a8.672 8.672 0 0 0-1.963.279c-2.194.564-3.757 1.792-3.492 2.741.153.543.89.901 1.986.966l-.002-.012c-.06-.513.266-.96.648-1.262.382-.303.873-.523 1.425-.64.552-.117 1.068-.111 1.5.019.406.122.788.388.882.846 1.099-.616 1.669-1.359 1.504-1.96-.175-.629-1.129-1.004-2.488-.977zM12.831 16a.93 1.788 76.001 0 0-.688.071.93 1.788 76.001 0 0-1.64 1.3.93 1.788 76.001 0 0 1.855.558.93 1.788 76.001 0 0 1.638-1.3.93 1.788 76.001 0 0-1.165-.629z" fill="#4e6766"/>
</svg>
