<svg xmlns="http://www.w3.org/2000/svg" width="24" height="24" version="1"><rect width="20" height="12" x="2" y="9.5" rx="1" ry="1" opacity=".2"/><path d="M2 17c0 .554.446 1 1 1h18c.554 0 1-.446 1-1V6c0-.554-.446-1-1-1H11V4c0-.554-.446-1-1-1H3c-.554 0-1 .446-1 1" fill="#ae4f58"/><rect width="20" height="12" x="2" y="8.5" rx="1" ry="1" opacity=".2"/><rect width="16" height="8" x="4" y="7" rx="1" ry="1" fill="#e4e4e4"/><rect width="20" height="12" x="2" y="9" rx="1" ry="1" fill="#bf616a"/><path d="M3 3c-.554 0-1 .446-1 1v.5c0-.554.446-1 1-1h7c.554 0 1 .446 1 1V4c0-.554-.446-1-1-1zm8 2v.5h10c.554 0 1 .446 1 1V6c0-.554-.446-1-1-1z" opacity=".1" fill="#fff"/><path d="M9.495 11a.15.15 0 0 0-.145.1L8.462 14h2.065l-.887-2.9a.15.15 0 0 0-.145-.1zm1.032 3L12 18l1.473-4zm2.946 0h2.065l-.888-2.9c-.045-.133-.244-.133-.29 0zm2.065 0L12 18l3.874-2.674a.282.282 0 0 0 .111-.324zM12 18l-3.538-4-.447 1.002c-.04.12.004.25.11.324z" fill="#974a4d" fill-rule="evenodd"/></svg>