<svg xmlns="http://www.w3.org/2000/svg" width="24" height="24" version="1">
 <rect width="20" height="12" x="2" y="9.5" rx="1" ry="1" opacity=".2"/>
 <path d="M2 17c0 .554.446 1 1 1h18c.554 0 1-.446 1-1V6c0-.554-.446-1-1-1H11V4c0-.554-.446-1-1-1H3c-.554 0-1 .446-1 1" fill="#ae4f58"/>
 <rect width="20" height="12" x="2" y="8.5" rx="1" ry="1" opacity=".2"/>
 <rect width="16" height="8" x="4" y="7" rx="1" ry="1" fill="#e4e4e4"/>
 <rect width="20" height="12" x="2" y="9" rx="1" ry="1" fill="#bf616a"/>
 <path d="M3 3c-.554 0-1 .446-1 1v.5c0-.554.446-1 1-1h7c.554 0 1 .446 1 1V4c0-.554-.446-1-1-1zm8 2v.5h10c.554 0 1 .446 1 1V6c0-.554-.446-1-1-1z" opacity=".1" fill="#fff"/>
 <path d="M11.818 11a3.636 3.636 0 0 0-3.347 2.217A2.91 2.91 0 0 0 6 16.092a2.91 2.91 0 0 0 2.77 2.9V19h7.066a1.8 1.8 0 0 0 .205-.014 1.75 1.75 0 0 0 .209.014A1.75 1.75 0 0 0 18 17.25a1.75 1.75 0 0 0-1.195-1.658 1.818 1.818 0 0 0 .103-.592 1.818 1.818 0 0 0-1.76-1.814A3.636 3.636 0 0 0 11.818 11zM10 13h2.91v3H11v1.5h-1V13zm1 1v1h1v-1h-1z" fill="#974a4d"/>
</svg>
