<svg xmlns="http://www.w3.org/2000/svg" width="24" height="24" version="1"><rect width="20" height="12" x="2" y="9.5" rx="1" ry="1" opacity=".2"/><path d="M2 17c0 .554.446 1 1 1h18c.554 0 1-.446 1-1V6c0-.554-.446-1-1-1H11V4c0-.554-.446-1-1-1H3c-.554 0-1 .446-1 1" fill="#ae4f58"/><rect width="20" height="12" x="2" y="8.5" rx="1" ry="1" opacity=".2"/><rect width="16" height="8" x="4" y="7" rx="1" ry="1" fill="#e4e4e4"/><rect width="20" height="12" x="2" y="9" rx="1" ry="1" fill="#bf616a"/><path d="M3 3c-.554 0-1 .446-1 1v.5c0-.554.446-1 1-1h7c.554 0 1 .446 1 1V4c0-.554-.446-1-1-1zm8 2v.5h10c.554 0 1 .446 1 1V6c0-.554-.446-1-1-1z" opacity=".1" fill="#fff"/><path d="M11 11v1.174a3 3 0 0 0-.291.121l-.83-.83-1.414 1.414.83.83a3 3 0 0 0-.12.291H8v2h1.174a3 3 0 0 0 .12.291l-.83.83 1.415 1.414.83-.83a3 3 0 0 0 .291.119V19h2v-1.174a3 3 0 0 0 .291-.121l.83.83 1.414-1.414-.83-.83a3 3 0 0 0 .119-.291H16v-2h-1.174a3 3 0 0 0-.121-.291l.83-.83-1.414-1.414-.83.83a3 3 0 0 0-.291-.119V11zm1 2a2 2 0 0 1 2 2 2 2 0 0 1-2 2 2 2 0 0 1-2-2 2 2 0 0 1 2-2z" fill="#974a4d"/></svg>