<svg xmlns="http://www.w3.org/2000/svg" width="24" height="24" version="1"><rect width="20" height="12" x="2" y="9.5" rx="1" ry="1" opacity=".2"/><path d="M2 17c0 .554.446 1 1 1h18c.554 0 1-.446 1-1V6c0-.554-.446-1-1-1H11V4c0-.554-.446-1-1-1H3c-.554 0-1 .446-1 1" fill="#ae4f58"/><rect width="20" height="12" x="2" y="8.5" rx="1" ry="1" opacity=".2"/><rect width="16" height="8" x="4" y="7" rx="1" ry="1" fill="#e4e4e4"/><rect width="20" height="12" x="2" y="9" rx="1" ry="1" fill="#bf616a"/><path d="M3 3c-.554 0-1 .446-1 1v.5c0-.554.446-1 1-1h7c.554 0 1 .446 1 1V4c0-.554-.446-1-1-1zm8 2v.5h10c.554 0 1 .446 1 1V6c0-.554-.446-1-1-1z" opacity=".1" fill="#fff"/><path d="M12.5 11a3.5 3.5 0 1 0 0 7h2.188s.41 0 .437-.438c0-.437-.437-.437-.437-.437H12.5a2.625 2.625 0 1 1 2.625-2.625v.438a.437.437 0 0 1-.875 0V14.5a1.75 1.75 0 1 0-1.75 1.75c.458 0 .871-.181 1.183-.468A1.312 1.312 0 0 0 16 14.937V14.5a3.5 3.5 0 0 0-3.5-3.5zm0 2.625a.875.875 0 1 1 0 1.75.875.875 0 0 1 0-1.75z" fill="#974a4d"/></svg>