<svg xmlns="http://www.w3.org/2000/svg" width="24" height="24" version="1">
 <rect width="20" height="12" x="2" y="9.5" rx="1" ry="1" opacity=".2"/>
 <path d="M2 17c0 .554.446 1 1 1h18c.554 0 1-.446 1-1V6c0-.554-.446-1-1-1H11V4c0-.554-.446-1-1-1H3c-.554 0-1 .446-1 1" fill="#ae4f58"/>
 <rect width="20" height="12" x="2" y="8.5" rx="1" ry="1" opacity=".2"/>
 <rect width="16" height="8" x="4" y="7" rx="1" ry="1" fill="#e4e4e4"/>
 <rect width="20" height="12" x="2" y="9" rx="1" ry="1" fill="#bf616a"/>
 <path d="M3 3c-.554 0-1 .446-1 1v.5c0-.554.446-1 1-1h7c.554 0 1 .446 1 1V4c0-.554-.446-1-1-1zm8 2v.5h10c.554 0 1 .446 1 1V6c0-.554-.446-1-1-1z" opacity=".1" fill="#fff"/>
 <path d="M11.733 12a2.667 2.727 0 0 0-2.523 1.853A2.133 2.182 0 0 0 8 15.818 2.133 2.182 0 0 0 10.133 18a2.133 2.182 0 0 0 1.418-.555 2.667 2.727 0 0 0 .182.01 2.667 2.727 0 0 0 1.127-.26 2.133 2.182 0 0 0 1.007.26A2.133 2.182 0 0 0 16 15.273a2.133 2.182 0 0 0-2.134-2.182 2.133 2.182 0 0 0-.004 0A2.667 2.727 0 0 0 11.733 12z" fill="#974a4d"/>
</svg>
