<svg xmlns="http://www.w3.org/2000/svg" width="24" height="24" version="1"><rect width="20" height="12" x="2" y="9.5" rx="1" ry="1" opacity=".2"/><path d="M2 17c0 .554.446 1 1 1h18c.554 0 1-.446 1-1V6c0-.554-.446-1-1-1H11V4c0-.554-.446-1-1-1H3c-.554 0-1 .446-1 1" fill="#ae4f58"/><rect width="20" height="12" x="2" y="8.5" rx="1" ry="1" opacity=".2"/><rect width="16" height="8" x="4" y="7" rx="1" ry="1" fill="#e4e4e4"/><rect width="20" height="12" x="2" y="9" rx="1" ry="1" fill="#bf616a"/><path d="M3 3c-.554 0-1 .446-1 1v.5c0-.554.446-1 1-1h7c.554 0 1 .446 1 1V4c0-.554-.446-1-1-1zm8 2v.5h10c.554 0 1 .446 1 1V6c0-.554-.446-1-1-1z" opacity=".1" fill="#fff"/><path d="M13.989 11c-.497.018-1.098.287-1.454.653-.319.325-.598.843-.523 1.34.554.038 1.118-.247 1.463-.613.345-.367.577-.872.514-1.38zm-.45 2.003c-.623-.062-.914.363-1.23.363-.316 0-.804-.353-1.32-.343a1.963 1.963 0 0 0-1.657.99c-.705 1.21-.18 3.003.508 3.984.336.48.747 1.003 1.264 1.003s.698-.327 1.31-.327c.613 0 .479.327 1.02.327s.791-.503 1.125-.985C14.945 17.458 15 17 15 17s-.992-.512-1.002-1.708C13.988 14.291 15 13.786 15 13.786c-.47-.679-1.2-.772-1.461-.783z" fill="#974a4d"/></svg>