<svg xmlns="http://www.w3.org/2000/svg" width="24" height="24" version="1">
 <rect width="20" height="12" x="2" y="9.5" rx="1" ry="1" opacity=".2"/>
 <path d="M2 17c0 .554.446 1 1 1h18c.554 0 1-.446 1-1V6c0-.554-.446-1-1-1H11V4c0-.554-.446-1-1-1H3c-.554 0-1 .446-1 1" fill="#ae4f58"/>
 <rect width="20" height="12" x="2" y="8.5" rx="1" ry="1" opacity=".2"/>
 <rect width="16" height="8" x="4" y="7" rx="1" ry="1" fill="#e4e4e4"/>
 <rect width="20" height="12" x="2" y="9" rx="1" ry="1" fill="#bf616a"/>
 <path d="M3 3c-.554 0-1 .446-1 1v.5c0-.554.446-1 1-1h7c.554 0 1 .446 1 1V4c0-.554-.446-1-1-1zm8 2v.5h10c.554 0 1 .446 1 1V6c0-.554-.446-1-1-1z" opacity=".1" fill="#fff"/>
 <g fill="#974a4d" stroke="#bf616a" stroke-width=".25" stroke-linecap="round" stroke-linejoin="round">
 <circle cx="13.25" cy="13.25" r="1.625"/>
 <circle cx="17" cy="16.5" r=".875"/>
 <circle cx="15" cy="15.5" r="1.875"/>
 <circle cx="7.75" cy="15.75" r="1.625"/>
 <circle cx="9.25" cy="12.5" r=".875"/>
 <circle cx="9.5" cy="14.5" r="1.875"/>
 <circle cx="9.5" cy="16.5" r=".875"/>
 <circle cx="11.25" cy="12.25" r="1.625"/>
 <circle cx="12" cy="15" r="2.375"/>
 </g>
</svg>
