<svg xmlns="http://www.w3.org/2000/svg" width="24" height="24" version="1"><rect width="20" height="12" x="2" y="9.5" rx="1" ry="1" opacity=".2"/><path d="M2 17c0 .554.446 1 1 1h18c.554 0 1-.446 1-1V6c0-.554-.446-1-1-1H11V4c0-.554-.446-1-1-1H3c-.554 0-1 .446-1 1" fill="#ae4f58"/><rect width="20" height="12" x="2" y="8.5" rx="1" ry="1" opacity=".2"/><rect width="16" height="8" x="4" y="7" rx="1" ry="1" fill="#e4e4e4"/><rect width="20" height="12" x="2" y="9" rx="1" ry="1" fill="#bf616a"/><path d="M3 3c-.554 0-1 .446-1 1v.5c0-.554.446-1 1-1h7c.554 0 1 .446 1 1V4c0-.554-.446-1-1-1zm8 2v.5h10c.554 0 1 .446 1 1V6c0-.554-.446-1-1-1z" opacity=".1" fill="#fff"/><path d="M12.88 16.037c-.56.26-1.081.258-1.431.232-.417-.03-.753-.144-.9-.244a.199.199 0 0 0-.223.329c.237.161.656.28 1.095.312.074.005.155.009.243.009.381 0 .866-.037 1.384-.278a.199.199 0 0 0-.168-.36zm2.21-.295c.019-1.727.196-4.991-3.11-4.727-3.264.263-2.399 3.711-2.448 4.866-.043.611-.245 1.358-.532 2.118h.882c.091-.322.158-.641.187-.944.053.037.11.073.17.107.099.058.184.136.274.218.21.191.448.408.914.435l.093.003c.471 0 .793-.206 1.052-.372.124-.079.231-.147.332-.18.287-.09.537-.235.724-.419.029-.029.056-.058.082-.089.104.382.247.812.405 1.241h1.884c-.452-.699-.919-1.383-.909-2.257zm-5.242-.939v-.001c-.032-.563.238-1.037.603-1.059.365-.021.687.419.719.983h.001l.002.09a1.35 1.35 0 0 0-.313.121l-.002-.013c-.031-.32-.202-.562-.381-.54-.18.022-.3.299-.269.619.014.14.054.265.11.359l-.099.073-.125.092a1.337 1.337 0 0 1-.246-.724zm3.699 1.393c-.013.298-.403.578-.762.69l-.003.001a1.887 1.887 0 0 0-.424.225c-.237.151-.483.309-.837.309a.825.825 0 0 1-.071-.003c-.325-.019-.477-.157-.669-.332-.102-.093-.206-.188-.342-.268l-.002-.001c-.292-.165-.474-.37-.485-.548-.006-.089.034-.166.117-.229.182-.136.304-.225.385-.284.09-.066.117-.086.137-.105l.046-.045c.167-.162.447-.434.876-.434.263 0 .553.101.862.3.146.095.273.139.434.194.11.038.235.081.403.153l.003.001c.156.065.341.182.332.376zm-.086-.7a5.2 5.2 0 0 0-.467-.186.906.906 0 0 0 .093-.392c.008-.358-.172-.648-.403-.649-.23-.001-.423.289-.431.647v.035a2.086 2.086 0 0 0-.418-.142.536.536 0 0 1-.002-.04c-.013-.653.387-1.192.894-1.206.507-.014.928.504.942 1.156.005.295-.073.567-.208.777z" fill="#974a4d"/></svg>