<svg xmlns="http://www.w3.org/2000/svg" width="22" height="22" version="1">
 <rect width="20" height="12" x="1" y="8.5" rx="1" ry="1" opacity=".2"/>
 <path d="M1 16c0 .554.446 1 1 1h18c.554 0 1-.446 1-1V5c0-.554-.446-1-1-1H10V3c0-.554-.446-1-1-1H2c-.554 0-1 .446-1 1" fill="#6c9b9a"/>
 <rect width="20" height="12" x="1" y="7.5" rx="1" ry="1" opacity=".2"/>
 <rect width="16" height="8" x="3" y="6" rx="1" ry="1" fill="#e4e4e4"/>
 <rect width="20" height="12" x="1" y="8" rx="1" ry="1" fill="#82abaa"/>
 <path d="M2 2c-.554 0-1 .446-1 1v.5c0-.554.446-1 1-1h7c.554 0 1 .446 1 1V3c0-.554-.446-1-1-1zm8 2v.5h10c.554 0 1 .446 1 1V5c0-.554-.446-1-1-1z" opacity=".1" fill="#fff"/>
 <path d="M10 10v1.174a3 3 0 0 0-.291.121l-.83-.83-1.414 1.414.83.83a3 3 0 0 0-.12.291H7v2h1.174a3 3 0 0 0 .12.291l-.83.83 1.415 1.414.83-.83a3 3 0 0 0 .291.119V18h2v-1.174a3 3 0 0 0 .291-.121l.83.83 1.414-1.414-.83-.83a3 3 0 0 0 .119-.291H15v-2h-1.174a3 3 0 0 0-.121-.291l.83-.83-1.414-1.414-.83.83a3 3 0 0 0-.291-.119V10h-2zm1 2a2 2 0 0 1 2 2 2 2 0 0 1-2 2 2 2 0 0 1-2-2 2 2 0 0 1 2-2z" fill="#4e6766"/>
</svg>
