<svg xmlns="http://www.w3.org/2000/svg" width="22" height="22" version="1">
 <rect width="20" height="12" x="1" y="8.5" rx="1" ry="1" opacity=".2"/>
 <path d="M1 16c0 .554.446 1 1 1h18c.554 0 1-.446 1-1V5c0-.554-.446-1-1-1H10V3c0-.554-.446-1-1-1H2c-.554 0-1 .446-1 1" fill="#6c9b9a"/>
 <rect width="20" height="12" x="1" y="7.5" rx="1" ry="1" opacity=".2"/>
 <rect width="16" height="8" x="3" y="6" rx="1" ry="1" fill="#e4e4e4"/>
 <rect width="20" height="12" x="1" y="8" rx="1" ry="1" fill="#82abaa"/>
 <path d="M2 2c-.554 0-1 .446-1 1v.5c0-.554.446-1 1-1h7c.554 0 1 .446 1 1V3c0-.554-.446-1-1-1zm8 2v.5h10c.554 0 1 .446 1 1V5c0-.554-.446-1-1-1z" fill="#fff" opacity=".1"/>
 <path d="M11.219 10c-.121 0-.219.223-.219.5v3c0 .277.098.5.219.5h.562c.121 0 .219-.223.219-.5v-.75l.02-.023 1.033 1.033c.196.196.422.285.508.199l.398-.399c.086-.085-.003-.311-.199-.507L12.707 12l1.053-1.053c.196-.196.285-.422.199-.508l-.398-.398c-.086-.086-.312.003-.508.2l-1.034 1.032L12 11.25v-.75c0-.277-.098-.5-.219-.5zm-1.774.793c-.109-.002-.273.086-.42.232-.196.196-.285.422-.199.508l.59.59a2.5 2.5 0 0 0-.365.877h-.832c-.121 0-.219.223-.219.5s.098.5.219.5h.836a2.5 2.5 0 0 0 .361.877l-.59.59c-.086.086.003.312.2.508.195.195.421.285.507.199l.59-.59c.266.177.564.3.877.365v.832c0 .121.223.219.5.219s.5-.098.5-.219v-.836a2.5 2.5 0 0 0 .877-.361l.59.59c.085.086.312-.003.508-.2.195-.195.285-.422.199-.507l-.59-.59c.158-.24.274-.505.342-.783l-.365.365c-.086.086-.312-.003-.508-.2l-.176-.175A1.5 1.5 0 0 1 11.5 15a1.5 1.5 0 0 1-1.5-1.5 1.5 1.5 0 0 1 .5-1.113v-1.172a2.501 2.501 0 0 0-.377.201l-.59-.59a.123.123 0 0 0-.088-.033z" fill="#4e6766"/>
</svg>
