<svg xmlns="http://www.w3.org/2000/svg" width="22" height="22" version="1">
 <rect width="20" height="12" x="1" y="8.5" rx="1" ry="1" opacity=".2"/>
 <path d="M1 16c0 .554.446 1 1 1h18c.554 0 1-.446 1-1V5c0-.554-.446-1-1-1H10V3c0-.554-.446-1-1-1H2c-.554 0-1 .446-1 1" fill="#ae4f58"/>
 <rect width="20" height="10" x="1" y="9.5" rx="1" ry="1" opacity=".2"/>
 <rect width="16" height="8" x="3" y="6" rx="1" ry="1" fill="#e4e4e4"/>
 <rect width="20" height="10" x="1" y="10" rx="1" ry="1" fill="#bf616a"/>
 <path d="M2 2c-.554 0-1 .446-1 1v.5c0-.554.446-1 1-1h7c.554 0 1 .446 1 1V3c0-.554-.446-1-1-1zm8 2v.5h10c.554 0 1 .446 1 1V5c0-.554-.446-1-1-1z" opacity=".1" fill="#fff"/>
 <path d="M8.5 11c-.277 0-.5.223-.5.5v5h.5V16H9v-4h2.5v2H13v4.5h.5V18h.5v-5l-2-2zm5 7.5v.5h.5v-.5zm-.5 0h-.5v.5h.5zm-.5 0V18H12v.5zm-.5 0h-.5v.5h.5zm-.5 0V18H11v.5zm-.5 0h-.5v.5h.5zm-.5 0V18H10v.5zm-.5 0h-.5v.5h.5zm-.5 0V18H9v.5zm-.5 0h-.5v.5H9zm-.5 0V18H8v.5zm0-.5H9v-.5h-.5zm0-.5V17H8v.5zm0-.5H9v-.5h-.5z" fill="#974a4d"/>
</svg>
