<svg xmlns="http://www.w3.org/2000/svg" width="22" height="22" version="1">
 <rect width="20" height="12" x="1" y="8.5" rx="1" ry="1" opacity=".2"/>
 <path d="M1 16c0 .554.446 1 1 1h18c.554 0 1-.446 1-1V5c0-.554-.446-1-1-1H10V3c0-.554-.446-1-1-1H2c-.554 0-1 .446-1 1" fill="#ae4f58"/>
 <rect width="20" height="12" x="1" y="7.5" rx="1" ry="1" opacity=".2"/>
 <rect width="16" height="8" x="3" y="6" rx="1" ry="1" fill="#e4e4e4"/>
 <rect width="20" height="12" x="1" y="8" rx="1" ry="1" fill="#bf616a"/>
 <path d="M2 2c-.554 0-1 .446-1 1v.5c0-.554.446-1 1-1h7c.554 0 1 .446 1 1V3c0-.554-.446-1-1-1zm8 2v.5h10c.554 0 1 .446 1 1V5c0-.554-.446-1-1-1z" opacity=".1" fill="#fff"/>
 <path d="M14.084 9c-2.221 0-2.638 3-1.389 3 1.25 0 3.61-3 1.389-3zm-3.471.5a.583.583 0 0 0-.074.006c-.848.136-.548 1.96-.098 1.994.437.033.913-1.993.174-2zm-1.544.5a.375.375 0 0 0-.201.047c-.794.401-.12 2.059.324 1.947.403-.101.46-1.948-.123-1.994zm-1.106 1c-.07-.003-.147.029-.228.105-.652.615.22 2.102.603 1.872.336-.202.12-1.954-.375-1.977zm4.043 1c-1.556-.029-3.609.829-3.959 2.551C7.67 16.414 9.61 19 11.633 19c.995 0 2.142-1.186 2.357-2.438.164-.953-2.03-.572-1.955.059.09.756-.505 1.331-1.088.844-1.856-1.553 3.175-2.328 2.85-4.449-.102-.661-.858-.997-1.791-1.014z" fill="#974a4d"/>
</svg>
