<svg xmlns="http://www.w3.org/2000/svg" width="22" height="22" version="1"><rect width="20" height="12" x="1" y="8.5" rx="1" ry="1" opacity=".2"/><path d="M1 16c0 .554.446 1 1 1h18c.554 0 1-.446 1-1V5c0-.554-.446-1-1-1H10V3c0-.554-.446-1-1-1H2c-.554 0-1 .446-1 1" fill="#ae4f58"/><rect width="20" height="12" x="1" y="7.5" rx="1" ry="1" opacity=".2"/><rect width="16" height="8" x="3" y="6" rx="1" ry="1" fill="#e4e4e4"/><rect width="20" height="12" x="1" y="8" rx="1" ry="1" fill="#bf616a"/><path d="M2 2c-.554 0-1 .446-1 1v.5c0-.554.446-1 1-1h7c.554 0 1 .446 1 1V3c0-.554-.446-1-1-1zm8 2v.5h10c.554 0 1 .446 1 1V5c0-.554-.446-1-1-1z" opacity=".1" fill="#fff"/><path d="M8.495 10a.15.15 0 0 0-.145.1L7.462 13h2.065l-.887-2.9a.15.15 0 0 0-.145-.1zm1.032 3L11 17l1.473-4zm2.946 0h2.065l-.888-2.9c-.045-.133-.244-.133-.29 0zm2.065 0L11 17l3.874-2.674a.282.282 0 0 0 .111-.324zM11 17l-3.538-4-.447 1.002c-.04.12.004.25.11.324z" fill="#974a4d" fill-rule="evenodd"/></svg>