<svg xmlns="http://www.w3.org/2000/svg" width="22" height="22" version="1">
 <rect width="20" height="12" x="1" y="8.5" rx="1" ry="1" opacity=".2"/>
 <path d="M1 16c0 .554.446 1 1 1h18c.554 0 1-.446 1-1V5c0-.554-.446-1-1-1H10V3c0-.554-.446-1-1-1H2c-.554 0-1 .446-1 1" fill="#6c9b9a"/>
 <rect width="20" height="12" x="1" y="7.5" rx="1" ry="1" opacity=".2"/>
 <rect width="16" height="8" x="3" y="6" rx="1" ry="1" fill="#e4e4e4"/>
 <rect width="20" height="12" x="1" y="8" rx="1" ry="1" fill="#82abaa"/>
 <path d="M2 2c-.554 0-1 .446-1 1v.5c0-.554.446-1 1-1h7c.554 0 1 .446 1 1V3c0-.554-.446-1-1-1zm8 2v.5h10c.554 0 1 .446 1 1V5c0-.554-.446-1-1-1z" fill="#fff" opacity=".1"/>
 <path d="M7.843 10.923a2.938 2.938 0 0 0-2.112.893 3.09 3.09 0 0 0-.885 2.183c0 .406.078.81.23 1.184.152.374.376.713.655.997a2.935 2.935 0 0 0 2.085.892l.027.001c.927.044 1.674-.324 2.22-.858.375-.365.669-.797.937-1.237.268.44.563.872.936 1.237.547.534 1.294.902 2.222.858l.026-.001a2.93 2.93 0 0 0 2.085-.892l.003-.004a3.07 3.07 0 0 0 .653-.993 3.151 3.151 0 0 0 0-2.368l-.004-.006a3.067 3.067 0 0 0-.65-.993 2.989 2.989 0 0 0-.972-.662 2.933 2.933 0 0 0-1.14-.23c-.977 0-1.749.4-2.319.96-.33.323-.596.692-.839 1.07a6.028 6.028 0 0 0-.838-1.07c-.57-.56-1.342-.96-2.32-.96zm.111 1.23c.695 0 1.138.235 1.545.623.322.308.605.728.886 1.184-.32.534-.63 1.022-.978 1.352-.383.365-.779.566-1.428.53h-.025a1.894 1.894 0 0 1-1.327-.54l-.007-.006a1.825 1.825 0 0 1 0-2.595l.007-.007a1.889 1.889 0 0 1 1.327-.54zm6.092 0a1.89 1.89 0 0 1 1.327.54l.007.008a1.82 1.82 0 0 1 0 2.595l-.007.005a1.893 1.893 0 0 1-1.327.541h-.025c-.65.035-1.046-.166-1.429-.53-.347-.33-.657-.818-.977-1.352.28-.457.563-.876.886-1.184.407-.389.85-.623 1.545-.623zm-.584.616v.616h-.616v1.23h.616v.616h1.23v-.616h.616v-1.23h-.616v-.616zm-6.77.616v1.23h2.462v-1.23z" fill="#4e6766"/>
</svg>
