<svg xmlns="http://www.w3.org/2000/svg" width="22" height="22" version="1">
 <rect width="20" height="12" x="1" y="8.5" rx="1" ry="1" opacity=".2"/>
 <path d="M1 16c0 .554.446 1 1 1h18c.554 0 1-.446 1-1V5c0-.554-.446-1-1-1H10V3c0-.554-.446-1-1-1H2c-.554 0-1 .446-1 1" fill="#ae4f58"/>
 <rect width="20" height="12" x="1" y="7.5" rx="1" ry="1" opacity=".2"/>
 <rect width="16" height="8" x="3" y="6" rx="1" ry="1" fill="#e4e4e4"/>
 <rect width="20" height="12" x="1" y="8" rx="1" ry="1" fill="#bf616a"/>
 <path d="M2 2c-.554 0-1 .446-1 1v.5c0-.554.446-1 1-1h7c.554 0 1 .446 1 1V3c0-.554-.446-1-1-1zm8 2v.5h10c.554 0 1 .446 1 1V5c0-.554-.446-1-1-1z" opacity=".1" fill="#fff"/>
 <path d="M11.801 11c-.802 0-1.537.509-1.9 1.312a1.197 1.197 0 0 0-.5-.113c-.667 0-1.232.557-1.321 1.301-.646.25-1.079.931-1.08 1.699C7 16.193 7.716 17 8.6 17h4.8c.884 0 1.6-.807 1.6-1.801-.001-.764-.429-1.442-1.07-1.695l.004-.104c0-1.325-.955-2.4-2.133-2.4zm0 1c.569 0 1.132.555 1.133 1.398v.002a.84.84 0 0 0-.002.041 1 1 0 0 0 .63.993c.213.083.437.377.438.765 0 .514-.324.801-.6.801H8.6c-.276 0-.6-.287-.6-.799v-.002c.001-.392.227-.685.441-.767a1 1 0 0 0 .633-.815c.037-.307.215-.418.326-.418.023 0 .05.007.082.022a1 1 0 0 0 1.33-.496c.221-.488.609-.725.989-.725z" fill="#974a4d"/>
</svg>
