<svg xmlns="http://www.w3.org/2000/svg" width="22" height="22" version="1"><rect width="20" height="12" x="1" y="8.5" rx="1" ry="1" opacity=".2"/><path d="M1 16c0 .554.446 1 1 1h18c.554 0 1-.446 1-1V5c0-.554-.446-1-1-1H10V3c0-.554-.446-1-1-1H2c-.554 0-1 .446-1 1" fill="#ae4f58"/><rect width="20" height="12" x="1" y="7.5" rx="1" ry="1" opacity=".2"/><rect width="16" height="8" x="3" y="6" rx="1" ry="1" fill="#e4e4e4"/><rect width="20" height="12" x="1" y="8" rx="1" ry="1" fill="#bf616a"/><path d="M2 2c-.554 0-1 .446-1 1v.5c0-.554.446-1 1-1h7c.554 0 1 .446 1 1V3c0-.554-.446-1-1-1zm8 2v.5h10c.554 0 1 .446 1 1V5c0-.554-.446-1-1-1z" opacity=".1" fill="#fff"/><path d="M11 10.13c-2.216 0-4 1.784-4 4 0 1.786 1.16 3.29 2.77 3.807v-.931c-1.012.223-1.225-.445-1.225-.445-.166-.428-.404-.541-.404-.541-.33-.23.024-.226.024-.226.365.026.558.382.558.382.324.565.852.402 1.06.307.032-.238.127-.303.23-.395-.808-.093-1.473-.802-1.508-1.528-.022-.444.362-.934.595-1.192-.038-.094-.163-.87.035-1.38 0 0 .02-.005.059-.007.118-.005.385.319.906.678.315-.09.649-.133.9-.135.284-.002.57.047.866.135.521-.36.854-.684.972-.679h.001c.04.002.06.008.06.008.198.509.073 1.286.035 1.38.233.258.57.752.566 1.192-.009.93-.85 1.433-1.661 1.525.13.114.163.34.163.686L12 17.63V18c1.728-.442 3-2 3-3.87 0-2.216-1.784-4-4-4z" fill="#974a4d"/></svg>