<svg xmlns="http://www.w3.org/2000/svg" width="22" height="22" version="1"><rect width="20" height="12" x="1" y="8.5" rx="1" ry="1" opacity=".2"/><path d="M1 16c0 .554.446 1 1 1h18c.554 0 1-.446 1-1V5c0-.554-.446-1-1-1H10V3c0-.554-.446-1-1-1H2c-.554 0-1 .446-1 1" fill="#6c9b9a"/><rect width="20" height="12" x="1" y="7.5" rx="1" ry="1" opacity=".2"/><rect width="16" height="8" x="3" y="6" rx="1" ry="1" fill="#e4e4e4"/><rect width="20" height="12" x="1" y="8" rx="1" ry="1" fill="#82abaa"/><path d="M2 2c-.554 0-1 .446-1 1v.5c0-.554.446-1 1-1h7c.554 0 1 .446 1 1V3c0-.554-.446-1-1-1zm8 2v.5h10c.554 0 1 .446 1 1V5c0-.554-.446-1-1-1z" opacity=".1" fill="#fff"/><g fill="#4e6766" stroke="#82abaa" stroke-width=".25" stroke-linecap="round" stroke-linejoin="round"><circle cx="10.25" cy="11.25" r="1.625"/><circle cx="12.25" cy="12.25" r="1.625"/><circle cx="16" cy="15.5" r=".875"/><circle cx="14" cy="14.5" r="1.875"/><circle cx="6.75" cy="14.75" r="1.625"/><circle cx="8.25" cy="11.5" r=".875"/><circle cx="8.5" cy="13.5" r="1.875"/><circle cx="8.5" cy="15.5" r=".875"/><circle cx="11" cy="14" r="2.375"/></g></svg>