<svg xmlns="http://www.w3.org/2000/svg" width="22" height="22" version="1">
 <g transform="translate(-1 -1)">
 <rect width="14" height="18" x="5" y="4.5" rx="1" ry="1" opacity=".2"/>
 <rect width="14" height="18" x="5" y="4" rx="1" ry="1" fill="#7492a2"/>
 <path fill="#9aabb4" d="M9 2h6v2H9z"/>
 <rect width="18" height="4" x="3" y="3.5" rx="1" ry="1" opacity=".2"/>
 <rect width="18" height="4" x="3" y="3" rx="1" ry="1" fill="#5d7e90"/>
 <path d="M16 11v7m-4-7v7m-4-7v7" opacity=".3" fill="none" stroke="#000" stroke-width="2" stroke-linecap="round"/>
 <path d="M4 3c-.554 0-1 .446-1 1v.5c0-.554.446-1 1-1h16c.554 0 1 .446 1 1V4c0-.554-.446-1-1-1z" opacity=".2" fill="#fff"/>
 </g>
</svg>
