<svg xmlns="http://www.w3.org/2000/svg" style="isolation:isolate" width="64" height="64">
 <defs>
 <clipPath clipPathUnits="userSpaceOnUse" id="a">
 <path fill="none" d="M0 0h48v48H0z"/>
 </clipPath>
 </defs>
 <g clip-path="url(#a)" transform="matrix(1.33334 0 0 1.33334 .002 -.002)">
 <linearGradient id="b" x1="-.046" y1=".16" x2=".852" y2=".71" gradientTransform="matrix(45 0 0 30.763 1.229 15.445)" gradientUnits="userSpaceOnUse">
 <stop offset="3.043%" stop-color="#82abaa"/>
 <stop offset="98.261%" stop-color="#82abaa"/>
 </linearGradient>
 <path d="M1.545 46.208l44.378-.01a.306.306 0 0 0 .306-.306v-30.12a.307.307 0 0 0-.306-.307l-25.816-.02-4.221 3.206a.535.535 0 0 1-.276.092l-14.381-.055.009 27.214c0 .169.138.306.307.306z" stroke-miterlimit="3" vector-effect="non-scaling-stroke" fill="url(#b)" stroke="#698989" stroke-linecap="square"/>
 <linearGradient id="c" x1="0" y1=".5" x2="1" y2=".5" gradientTransform="matrix(18.873 0 0 6.535 1.243 12.208)" gradientUnits="userSpaceOnUse">
 <stop offset="3.043%" stop-color="#82abaa"/>
 <stop offset="98.261%" stop-color="#82abaa"/>
 </linearGradient>
 <path d="M20.116 15.456L15.887 12.3a.538.538 0 0 0-.277-.092H1.554a.308.308 0 0 0-.307.307l-.004 6.168 14.557.06z" stroke-miterlimit="3" vector-effect="non-scaling-stroke" fill="url(#c)" stroke="#698989" stroke-linecap="square"/>
 <path d="M28.15 34.565c0-.103-.157-.222-.47-.36l.063-.234c.02-.071.035-.145.043-.222.009-.077.017-.138.026-.184a.777.777 0 0 0 .004-.192 3.148 3.148 0 0 1-.01-.166c0-.029-.01-.092-.029-.188a4.812 4.812 0 0 1-.034-.175 5.8 5.8 0 0 0-.043-.214 44.95 44.95 0 0 1-.047-.226c-.057-.274-.19-.567-.401-.88-.211-.313-.416-.527-.615-.64.136.113.299.35.487.708.495.923.649 1.714.46 2.375-.062.228-.204.347-.426.358-.177.023-.286-.03-.33-.157-.042-.129-.065-.366-.067-.714a4.1 4.1 0 0 0-.099-.914 5.631 5.631 0 0 0-.166-.59c-.06-.17-.116-.3-.167-.388a2.616 2.616 0 0 0-.132-.209.868.868 0 0 0-.111-.128 2.8 2.8 0 0 1-.064-.06 5.503 5.503 0 0 0-.265-.88c-.097-.233-.18-.393-.252-.478a2.364 2.364 0 0 1-.2-.282.987.987 0 0 1-.129-.342c-.023-.12-.006-.272.051-.457.057-.185.07-.326.039-.422-.032-.097-.158-.168-.38-.214a1.668 1.668 0 0 1-.38-.154 1.828 1.828 0 0 0-.304-.136c-.045-.006-.077-.08-.094-.223a.846.846 0 0 1 .069-.435c.062-.148.165-.225.307-.23.21-.018.356.068.436.256.08.187.09.353.034.495-.063.108-.068.184-.017.226.051.043.137.044.256.006.074-.023.111-.125.111-.308v-.316a1.906 1.906 0 0 0-.115-.427.68.68 0 0 0-.18-.26.78.78 0 0 0-.43-.193c-.61.046-.863.428-.761 1.145 0 .085-.003.128-.009.128-.05-.05-.135-.081-.252-.09a1.203 1.203 0 0 0-.282.006c-.07.011-.115 0-.132-.043.006-.324-.04-.58-.137-.768-.096-.188-.225-.285-.384-.29-.154-.006-.272.072-.354.234-.083.162-.13.332-.141.508-.006.086.004.191.03.316.025.126.062.233.11.32.049.089.093.127.133.116a.231.231 0 0 0 .137-.12c.022-.05.002-.074-.06-.068-.04 0-.084-.041-.133-.124a.622.622 0 0 1-.08-.286.514.514 0 0 1 .076-.316c.057-.085.154-.125.29-.12.097 0 .174.06.231.18.057.12.084.23.081.333a1.279 1.279 0 0 1-.013.188.94.94 0 0 0-.264.248.71.71 0 0 1-.235.2c-.111.066-.17.101-.175.107a.486.486 0 0 0-.133.23c-.014.075.007.126.064.155.08.045.151.1.214.166s.108.12.137.162c.028.043.08.08.158.111.076.032.178.05.303.056.267.011.558-.031.871-.128.012-.006.077-.026.197-.06.12-.034.217-.064.294-.09.077-.025.161-.062.252-.11a.427.427 0 0 0 .18-.15c.05-.08.108-.103.17-.068a.118.118 0 0 1 .056.072c.009.031 0 .066-.026.103-.025.037-.072.064-.14.08a5.028 5.028 0 0 0-.483.184c-.208.089-.338.144-.389.167-.25.108-.45.174-.598.196-.142.029-.367.023-.675-.016-.057-.012-.082-.006-.076.016.005.023.054.077.145.163.142.13.333.193.572.188.097-.006.2-.026.308-.06.108-.034.21-.074.307-.12.097-.045.192-.095.286-.15l.256-.144c.077-.043.147-.077.21-.103.062-.025.112-.033.15-.021.036.011.06.042.072.094a.102.102 0 0 1-.009.038.11.11 0 0 1-.034.043.597.597 0 0 1-.124.08.992.992 0 0 1-.077.04c-.02.008-.048.022-.085.042a.612.612 0 0 1-.081.038 3.85 3.85 0 0 0-.577.376c-.225.171-.414.293-.568.367-.154.074-.293.077-.419.01-.12-.064-.298-.271-.538-.624-.125-.177-.196-.24-.213-.188a.297.297 0 0 0-.009.085c0 .142-.042.303-.128.483-.085.179-.17.337-.252.474a1.495 1.495 0 0 0-.18.495.729.729 0 0 0 .099.538c-.131.034-.309.29-.534.769-.225.478-.36.88-.406 1.204a5.97 5.97 0 0 0-.012.59c.002.29-.013.458-.047.504-.046.136-.129.145-.248.025-.182-.176-.285-.444-.308-.803-.011-.16 0-.319.034-.478.023-.108.02-.16-.008-.154l-.034.043c-.205.37-.177.843.085 1.418.029.068.1.148.214.239.114.091.182.148.205.17.114.132.41.39.888.774.478.384.743.602.794.653a.47.47 0 0 1 .15.325.533.533 0 0 1-.508.564c.045.085.128.212.247.38.12.168.2.321.24.46.04.14.06.341.06.603.261-.137.281-.399.06-.786a.758.758 0 0 0-.09-.136 3.38 3.38 0 0 1-.082-.103c-.017-.023-.023-.04-.017-.05.017-.03.054-.057.111-.082.057-.026.114-.019.171.021.262.297.735.4 1.418.308.757-.085 1.261-.333 1.512-.743.13-.217.228-.302.29-.256.069.034.097.182.086.444-.006.142-.071.404-.197.786a.587.587 0 0 0-.05.32c.016.082.084.127.204.132.017-.108.058-.327.124-.657.065-.33.104-.587.115-.77.012-.119-.007-.328-.055-.627a4.563 4.563 0 0 1-.064-.829c.005-.253.07-.454.196-.602.086-.102.23-.153.436-.153a.482.482 0 0 1 .294-.453c.191-.091.398-.121.62-.09.222.031.393.095.512.192zM22.784 27.5a.447.447 0 0 0-.021-.257c-.032-.074-.065-.116-.099-.128-.051-.011-.077.009-.077.06.012.028.026.045.043.051.057 0 .077.043.06.128-.017.114.006.171.068.171.017 0 .026-.009.026-.025zm2.058-.137a.322.322 0 0 0-.042-.167.322.322 0 0 0-.094-.106c-.034-.023-.06-.032-.077-.026-.08.006-.1.026-.06.06l.034.017c.08.022.131.11.154.265 0 .017.023.011.068-.017zm5.553 9.674c.062.07.096.14.102.205a.485.485 0 0 1-.021.192.449.449 0 0 1-.133.188 2.464 2.464 0 0 1-.2.166c-.066.048-.151.101-.257.158a9.693 9.693 0 0 1-.542.274c-.108.05-.185.088-.23.11-.217.109-.46.268-.731.479-.27.21-.485.393-.645.547-.097.09-.29.146-.58.166-.291.02-.545-.021-.761-.124a.734.734 0 0 1-.252-.2 1.099 1.099 0 0 1-.14-.218c-.03-.063-.092-.118-.189-.167a.99.99 0 0 0-.401-.08c-.25-.007-.621-.01-1.11-.01-.109 0-.271.006-.488.014a51.45 51.45 0 0 0-.495.021c-.25.006-.477.048-.68.128a1.55 1.55 0 0 0-.456.257 1.644 1.644 0 0 1-.372.243.947.947 0 0 1-.457.098c-.165-.005-.48-.094-.948-.265a8.78 8.78 0 0 0-1.683-.448 19.858 19.858 0 0 1-.427-.077 4.379 4.379 0 0 1-.337-.081.93.93 0 0 1-.286-.124.418.418 0 0 1-.145-.167c-.057-.13-.037-.32.06-.568.096-.247.147-.402.153-.465a1.324 1.324 0 0 0-.034-.342 6.439 6.439 0 0 0-.085-.363 1.077 1.077 0 0 1-.039-.312c.003-.102.033-.179.09-.23.08-.069.242-.108.487-.12.245-.011.415-.045.512-.102.171-.103.29-.202.359-.3.068-.096.102-.241.102-.435 0 .162.151-.256.129-.393a1.43 1.43 0 0 1-.017-.324 1.34 1.34 0 0 1 .085-.445c.051-.13.12-.264.205-.401.085-.137.148-.256.188-.359l.226-.615c.106-.29.19-.512.252-.666.063-.154.148-.327.256-.521a2.1 2.1 0 0 1 .334-.461c.626-.815.98-1.37 1.059-1.666-.069-.638-.114-1.52-.137-2.648-.011-.512.057-.944.205-1.294.148-.35.45-.648.906-.893.222-.12.518-.179.888-.179.302-.005.604.033.905.115.302.083.556.201.76.355.325.239.586.585.782 1.038.197.452.28.872.252 1.26-.028.54.057 1.15.256 1.828.194.643.573 1.264 1.136 1.862.314.336.597.8.85 1.392.254.592.423 1.136.509 1.631.045.28.06.52.042.722-.017.202-.051.36-.102.474-.052.114.074.573.154.504a2.07 2.07 0 0 0 .192.829 1.294 1.294 0 0 0 .354.406c.046.03.107.068.184.11.077.043.124.07.14.082.115.068.203.138.266.209z" fill="#4e6766" fill-rule="evenodd"/>
 </g>
</svg>
