<?xml version="1.0" encoding="UTF-8" standalone="no"?>
<!-- Generator: Gravit.io -->

<svg
   xmlns:dc="http://purl.org/dc/elements/1.1/"
   xmlns:cc="http://creativecommons.org/ns#"
   xmlns:rdf="http://www.w3.org/1999/02/22-rdf-syntax-ns#"
   xmlns:svg="http://www.w3.org/2000/svg"
   xmlns="http://www.w3.org/2000/svg"
   xmlns:xlink="http://www.w3.org/1999/xlink"
   xmlns:sodipodi="http://sodipodi.sourceforge.net/DTD/sodipodi-0.dtd"
   xmlns:inkscape="http://www.inkscape.org/namespaces/inkscape"
   style="isolation:isolate"
   viewBox="0 0 64 64"
   width="64"
   height="64"
   version="1.1"
   id="svg23"
   sodipodi:docname="folder-nordic-remote-open.svg"
   inkscape:version="0.92.4 5da689c313, 2019-01-14">
  <metadata
     id="metadata27">
    <rdf:RDF>
      <cc:Work
         rdf:about="">
        <dc:format>image/svg+xml</dc:format>
        <dc:type
           rdf:resource="http://purl.org/dc/dcmitype/StillImage" />
      </cc:Work>
    </rdf:RDF>
  </metadata>
  <sodipodi:namedview
     pagecolor="#ffffff"
     bordercolor="#666666"
     borderopacity="1"
     objecttolerance="10"
     gridtolerance="10"
     guidetolerance="10"
     inkscape:pageopacity="0"
     inkscape:pageshadow="2"
     inkscape:window-width="895"
     inkscape:window-height="668"
     id="namedview25"
     showgrid="false"
     inkscape:zoom="5.5"
     inkscape:cx="24"
     inkscape:cy="24.181818"
     inkscape:window-x="393"
     inkscape:window-y="284"
     inkscape:window-maximized="0"
     inkscape:current-layer="svg23"
     inkscape:snap-global="false"
     showguides="false" />
  <defs
     id="defs5">
    <linearGradient
       id="_lgradient_35-5"
       x1="1.0569526"
       y1="1.164638"
       x2="2.0212493"
       y2="0.70254338"
       gradientTransform="matrix(18.877654,0,0,8.5776341,1.4464341,17.416196)"
       gradientUnits="userSpaceOnUse">
      <stop
         offset="0.31479162"
         stop-opacity="1"
         style="stop-color:#82ABAA"
         id="stop14-9" />
      <stop
         offset="0.66162944"
         stop-opacity="1"
         style="stop-color:#82ABAA"
         id="stop16-7" />
    </linearGradient>
    <clipPath
       clipPathUnits="userSpaceOnUse"
       id="clipPath827">
      <rect
         style="fill:none"
         y="0"
         x="0"
         width="48"
         height="48"
         id="rect829" />
    </clipPath>
  </defs>
  <g
     clip-path="url(#clipPath827)"
     id="g21"
     transform="matrix(1.3228848,0,0,1.3228848,0.00986103,0.48670497)">
    <linearGradient
       id="_lgradient_34"
       x1="0.41166824"
       y1="0.00010054788"
       x2="0.41033676"
       y2="0.86212933"
       gradientTransform="matrix(45.42911,0,0,26.613237,1.1962636,19.627487)"
       gradientUnits="userSpaceOnUse"
       xlink:href="#_lgradient_35-5">
      <stop
         offset="0.41096842"
         stop-opacity="1"
         style="stop-color:#7ba3a2;stop-opacity:1"
         id="stop7" />
      <stop
         offset="98.26086956521739%"
         stop-opacity="1"
         style="stop-color:#82ABAA"
         id="stop9" />
    </linearGradient>
    <linearGradient
       id="_lgradient_35"
       x1="0.4859741"
       y1="3.1150997"
       x2="0.44406784"
       y2="-0.0087129287"
       gradientTransform="matrix(18.711492,0,0,6.7851198,1.5197168,11.850823)"
       gradientUnits="userSpaceOnUse">
      <stop
         offset="0.51641214"
         stop-opacity="1"
         style="stop-color:#82abaa;stop-opacity:1"
         id="stop14" />
      <stop
         offset="98.26086956521739%"
         stop-opacity="1"
         style="stop-color:#a8cccb;stop-opacity:1"
         id="stop16" />
    </linearGradient>
    <path
       d="M 46.306476,16.756323 21.867724,16.644979 C 18.911849,14.392105 15.848042,11.850822 15.763769,11.850822 H 1.8280551 c -0.1675537,0 -0.3043729,0.143281 -0.3043729,0.31875 l 0.1710922,33.811445 44.5750236,-0.03836 z"
       stroke-miterlimit="3"
       id="path19"
       inkscape:connector-curvature="0"
       style="vector-effect:non-scaling-stroke;fill:url(#_lgradient_35);stroke:#698989;stroke-width:1.01458776;stroke-linecap:square;stroke-linejoin:miter;stroke-miterlimit:3"
       sodipodi:nodetypes="ccsscccc" />
    <path
       d="m 1.5152768,46.240727 44.8011792,-0.0086 c 0.170611,0 0.308918,-0.11852 0.308918,-0.264721 V 19.910378 c 0,-0.146201 -0.138307,-0.264722 -0.308918,-0.265587 l -26.062176,-0.0173 -4.26125,2.773527 c -0.06866,0.04411 -0.192821,0.07959 -0.278632,0.07959 L 1.1962636,22.433021 1.2053416,45.976 c 0,0.146203 0.139316,0.264722 0.3099276,0.264722 z"
       stroke-miterlimit="3"
       id="path12"
       inkscape:connector-curvature="0"
       style="vector-effect:non-scaling-stroke;fill:url(#_lgradient_34);fill-opacity:1;stroke:#698989;stroke-width:0.93453455;stroke-linecap:square;stroke-linejoin:miter;stroke-miterlimit:3" />
    <path
       inkscape:connector-curvature="0"
       style="isolation:isolate;fill:#4e6766;fill-opacity:1;stroke-width:0.06801435"
       d="m 20.403984,31.013258 c 0.152156,0 0.299752,0.01891 0.438225,0.05585 0.524973,-0.502522 1.107338,-0.960212 1.736939,-1.365241 -0.02663,-0.09496 -0.04106,-0.194436 -0.04106,-0.295837 0,-0.141108 0.02737,-0.276953 0.07762,-0.403709 -0.706782,-0.431662 -1.473753,-0.795028 -2.291195,-1.075102 -0.764615,0.403713 -1.431889,0.930302 -1.964437,1.547962 0.394885,0.598127 0.864309,1.155294 1.3987,1.662412 0.194761,-0.08059 0.413137,-0.12633 0.6452,-0.12633 m -1.489716,1.27224 c 0,-0.178808 0.04414,-0.349107 0.120959,-0.502536 C 18.557412,31.333033 18.124483,30.849364 17.745633,30.333786 17.270102,31.141245 17,32.053365 17,33.019455 c 0,1.11757 0.360602,2.163623 0.985274,3.058849 0.223676,-1.075096 0.64748,-2.093022 1.232565,-3.024156 -0.190197,-0.21326 -0.303579,-0.48043 -0.303579,-0.768459 m 5.112876,-4.149534 c 0.393353,0 0.749373,0.130652 1.016469,0.343912 0.77684,-0.285427 1.594736,-0.504915 2.445708,-0.644968 C 26.461434,27.328363 25.270228,27.038 23.999561,27.038 c -0.866602,0 -1.695967,0.135891 -2.462052,0.382231 0.607896,0.256863 1.187536,0.55588 1.732376,0.893932 0.2222,-0.113058 0.480084,-0.17813 0.757045,-0.17813 m 2.226448,5.993663 c 0.09283,-0.165193 0.22439,-0.311446 0.387221,-0.426479 -0.439772,-1.155313 -1.135948,-2.213131 -2.032923,-3.122611 -0.178066,0.06498 -0.374283,0.100078 -0.581272,0.100078 -0.323378,0 -0.620843,-0.08908 -0.865045,-0.237264 -0.540204,0.350449 -1.040382,0.743056 -1.494281,1.172171 0.143035,0.194383 0.225956,0.423874 0.225956,0.670297 0,0.131971 -0.02355,0.260018 -0.0685,0.380993 1.306364,0.745071 2.810626,1.257389 4.428634,1.462815 m 1.931404,1.718267 c 0.01945,0.241166 0.03117,0.483663 0.03117,0.728794 0,0.431698 -0.03195,0.85685 -0.09283,1.274973 1.186777,-0.740526 2.090739,-1.793085 2.546506,-3.016043 -0.540223,0.111871 -1.094089,0.191777 -1.659408,0.237331 -0.131628,0.34908 -0.435219,0.629949 -0.825439,0.774945 m -2.280244,-0.862738 c -1.728645,-0.245059 -3.330116,-0.808779 -4.724407,-1.614947 -0.226765,0.118311 -0.492229,0.187888 -0.776826,0.187888 -0.105731,0 -0.206973,-0.0091 -0.305861,-0.02691 -0.667347,1.080755 -1.094095,2.286648 -1.216526,3.565346 0.666611,0.611089 1.478902,1.103234 2.392805,1.433508 1.13515,-1.490742 2.720734,-2.72361 4.631184,-3.545338 m 2.793738,-6.399108 c -1.122226,0.09298 -2.193518,0.334146 -3.190324,0.694077 0.0043,0.04288 0.0078,0.08522 0.0078,0.128093 0,0.200878 -0.05632,0.390075 -0.152919,0.558512 0.997431,1.000549 1.770286,2.164929 2.258922,3.439861 0.606351,0.01065 1.123721,0.32637 1.346666,0.77691 0.674145,-0.05857 1.330275,-0.16909 1.961446,-0.32774 C 30.975661,33.582356 31,33.302831 31,33.018727 c -8.4e-4,-1.757972 -0.888082,-3.33915 -2.301493,-4.433152 m -2.044367,7.07878 c -1.783511,0.713836 -3.274627,1.813236 -4.354301,3.156818 C 22.843797,38.937568 23.413065,39 23.999464,39 c 1.055248,0 2.055752,-0.200922 2.953391,-0.558506 0.144578,-0.603346 0.220674,-1.226846 0.220674,-1.865203 0,-0.230833 -0.01224,-0.459645 -0.03275,-0.685894 -0.179534,-0.04935 -0.344628,-0.125516 -0.486917,-0.226289"
       id="path20-2" />
  </g>
</svg>
