<?xml version="1.0" encoding="UTF-8" standalone="no"?>
<svg
   xmlns:dc="http://purl.org/dc/elements/1.1/"
   xmlns:cc="http://creativecommons.org/ns#"
   xmlns:rdf="http://www.w3.org/1999/02/22-rdf-syntax-ns#"
   xmlns:svg="http://www.w3.org/2000/svg"
   xmlns="http://www.w3.org/2000/svg"
   xmlns:sodipodi="http://sodipodi.sourceforge.net/DTD/sodipodi-0.dtd"
   xmlns:inkscape="http://www.inkscape.org/namespaces/inkscape"
   width="16"
   height="16"
   version="1.1"
   id="svg7"
   sodipodi:docname="folder-mail-cloud.svg"
   inkscape:version="0.92.4 5da689c313, 2019-01-14">
  <metadata
     id="metadata11">
    <rdf:RDF>
      <cc:Work
         rdf:about="">
        <dc:format>image/svg+xml</dc:format>
        <dc:type
           rdf:resource="http://purl.org/dc/dcmitype/StillImage" />
      </cc:Work>
    </rdf:RDF>
  </metadata>
  <sodipodi:namedview
     pagecolor="#ffffff"
     bordercolor="#666666"
     borderopacity="1"
     objecttolerance="10"
     gridtolerance="10"
     guidetolerance="10"
     inkscape:pageopacity="0"
     inkscape:pageshadow="2"
     inkscape:window-width="640"
     inkscape:window-height="506"
     id="namedview9"
     showgrid="false"
     inkscape:zoom="23.963479"
     inkscape:cx="8"
     inkscape:cy="8"
     inkscape:window-x="294"
     inkscape:window-y="131"
     inkscape:window-maximized="0"
     inkscape:current-layer="svg7" />
  <defs
     id="defs3">
    <style
       id="current-color-scheme"
       type="text/css">
   .ColorScheme-Text { color:#444444; } .ColorScheme-Highlight { color:#4285f4; }
  </style>
  </defs>
  <path
     style="color:#444444;fill:#dee2e2;fill-opacity:1;stroke:#dee2e2;stroke-width:0.333;stroke-linecap:square;stroke-miterlimit:4;stroke-dasharray:none;stroke-opacity:1;paint-order:normal"
     class="ColorScheme-Text"
     d="M 7.5,2.5000001 A 5,5 0 0 0 2.7675781,5.8984376 4,4 0 0 0 0.5,9.5000001 4,4 0 0 0 4.5,13.5 4,4 0 0 0 7.1582031,12.482422 5,5 0 0 0 7.5,12.5 5,5 0 0 0 9.613281,12.025391 4,4 0 0 0 11.5,12.5 a 4,4 0 0 0 4,-3.9999999 4,4 0 0 0 -4,-4 4,4 0 0 0 -0.0078,0 5,5 0 0 0 -3.9922,-2 z"
     id="path5"
     inkscape:connector-curvature="0" />
</svg>
