<svg xmlns="http://www.w3.org/2000/svg" width="16px" height="16px" viewBox="0 0 16 16" version="1.1">
 <path style="fill:#dee2e2;fill-opacity:1;stroke:none;stroke-width:0.0857143;stroke-linecap:round;stroke-linejoin:round;stroke-miterlimit:4;stroke-dasharray:none;stroke-opacity:0.168478" d="M 8,2 A 6,6 0 0 0 2,8 6,6 0 0 0 8,14 6,6 0 0 0 14,8 6,6 0 0 0 8,2 Z M 7.9732143,2.860491 A 5.1122643,5.1122643 0 0 1 13.085938,7.9732143 5.1122643,5.1122643 0 0 1 7.9732143,13.085938 5.1122643,5.1122643 0 0 1 2.860491,7.9732143 5.1122643,5.1122643 0 0 1 7.9732143,2.860491 Z"/>
 <path style="color:#dee2e2;font-style:normal;font-variant:normal;font-weight:normal;font-stretch:normal;font-size:medium;line-height:normal;font-family:sans-serif;font-variant-ligatures:normal;font-variant-position:normal;font-variant-caps:normal;font-variant-numeric:normal;font-variant-alternates:normal;font-feature-settings:normal;text-indent:0;text-align:start;text-decoration:none;text-decoration-line:none;text-decoration-style:solid;text-decoration-color:#dee2e2;letter-spacing:normal;word-spacing:normal;text-transform:none;writing-mode:lr-tb;direction:ltr;text-orientation:mixed;dominant-baseline:auto;baseline-shift:baseline;text-anchor:start;white-space:normal;shape-padding:0;clip-rule:nonzero;display:inline;overflow:visible;visibility:visible;isolation:auto;mix-blend-mode:normal;color-interpolation:sRGB;color-interpolation-filters:linearRGB;solid-color:#dee2e2;solid-opacity:1;vector-effect:none;fill:#dee2e2;fill-opacity:1;fill-rule:nonzero;stroke:none;stroke-width:0.6;stroke-linecap:butt;stroke-linejoin:miter;stroke-miterlimit:4;stroke-dasharray:none;stroke-dashoffset:0;stroke-opacity:1;color-rendering:auto;image-rendering:auto;shape-rendering:auto;text-rendering:auto;enable-background:accumulate" d="M 8.8805804,2.9458705 C 8.7169291,3.6739098 8.6273251,4.3738797 8.6043526,5.0485491 A 0.85714286,0.85714286 0 0 1 8.8337053,5.0167413 0.85714286,0.85714286 0 0 1 9.203683,5.1021205 C 9.2266168,4.4565435 9.3035136,3.7881566 9.4631696,3.0831473 A 5.1122643,5.1122643 0 0 0 8.8805804,2.9458705 Z M 6.5,3.0814732 A 5.1122643,5.1122643 0 0 0 5.5507812,3.4748883 C 5.0005105,4.4196049 4.6278423,5.3629607 4.4056919,6.3024553 a 0.85714286,0.85714286 0 0 1 0.1657366,-0.016741 0.85714286,0.85714286 0 0 1 0.4185268,0.110491 C 5.2555651,5.3035333 5.7367946,4.2014625 6.5,3.0814732 Z m 4.588728,0.8454241 C 10.568215,4.441269 10.016811,4.8824012 9.4430804,5.2728795 A 0.85714286,0.85714286 0 0 1 9.6891741,5.8337053 C 10.344463,5.401195 10.962228,4.8954505 11.54241,4.3186383 a 5.1122643,5.1122643 0 0 0 -0.453682,-0.391741 z m 0.788505,0.7533482 C 10.849577,5.4686654 10.037535,6.3368982 9.4330357,7.2767857 A 0.85714286,0.85714286 0 0 1 9.965402,7.5563616 C 10.533308,6.6967403 11.280234,5.8960208 12.240514,5.1607143 A 5.1122643,5.1122643 0 0 0 11.877233,4.6802455 Z M 8.0083705,6.0998883 C 7.1875553,6.465809 6.3057036,6.7008754 5.3532366,6.7929687 a 0.85714286,0.85714286 0 0 1 0.075335,0.3498884 0.85714286,0.85714286 0 0 1 -0.033482,0.2377233 C 6.4567789,7.2754302 7.441427,7.0032185 8.3549107,6.5837053 A 0.85714286,0.85714286 0 0 1 8.0083705,6.0998883 Z M 9.2672991,6.6121652 A 0.85714286,0.85714286 0 0 1 8.8337053,6.7310267 0.85714286,0.85714286 0 0 1 8.6981026,6.7209821 c 0.033791,0.2403567 0.074309,0.4780814 0.1255581,0.7114955 a 0.85714286,0.85714286 0 0 1 0.5022321,-0.1623883 0.85714286,0.85714286 0 0 1 0.055245,0.00167 C 9.3339446,7.0552839 9.2973448,6.8353661 9.2672991,6.6121652 Z M 3.0178571,6.7427455 A 5.1122643,5.1122643 0 0 0 2.9056919,7.3320312 c 0.290082,0.038633 0.5689589,0.052755 0.8504464,0.071986 A 0.85714286,0.85714286 0 0 1 3.7142857,7.1428571 0.85714286,0.85714286 0 0 1 3.7845981,6.8063616 C 3.5303044,6.7876191 3.2804,6.7777719 3.0178571,6.7427455 Z M 4.1847098,7.9079241 C 4.1528132,8.5280166 4.1673262,9.1461688 4.2533481,9.7611611 3.7956191,9.4810956 3.3558393,9.149694 2.9274553,8.7834821 a 5.1122643,5.1122643 0 0 0 0.2544643,0.9609373 c 0.2326606,0.16965 0.4708078,0.3269756 0.7114956,0.4771206 A 0.85714286,0.85714286 0 0 1 4.703683,9.6389509 0.85714286,0.85714286 0 0 1 4.8325893,9.6489955 C 4.7541793,9.0938395 4.7253442,8.5375201 4.7522321,7.9799107 A 0.85714286,0.85714286 0 0 1 4.5714285,8 0.85714286,0.85714286 0 0 1 4.1847098,7.9079241 Z M 8.6897321,8.6997767 C 8.478799,9.2064474 8.31469,9.7294897 8.1925223,10.265067 a 0.85714286,0.85714286 0 0 1 0.015067,-0.0017 0.85714286,0.85714286 0 0 1 0.5591517,0.209263 C 8.8765725,9.9598126 9.0184151,9.4581688 9.2154018,8.9760045 A 0.85714286,0.85714286 0 0 1 8.6897321,8.6997767 Z m 1.1886159,0.083705 a 0.85714286,0.85714286 0 0 1 -0.5524552,0.2008928 0.85714286,0.85714286 0 0 1 -0.00167,0 c 0.2209333,0.526673 0.4935754,1.0314315 0.8035682,1.5200895 a 0.85714286,0.85714286 0 0 1 0.473772,-0.371652 C 10.324237,9.6968774 10.079075,9.2487503 9.878348,8.7834817 Z m 2.760603,1.2706473 c -0.370874,0.148907 -0.731914,0.274876 -1.08817,0.388393 a 0.85714286,0.85714286 0 0 1 0.165737,0.507255 0.85714286,0.85714286 0 0 1 -0.0017,0.06529 c 0.157312,-0.04843 0.312874,-0.09108 0.472099,-0.145647 a 5.1122643,5.1122643 0 0 0 0.452008,-0.815291 z m -7.0831475,0.356585 a 0.85714286,0.85714286 0 0 1 0.00502,0.08538 0.85714286,0.85714286 0 0 1 -0.1456473,0.477121 c 0.6407792,0.243827 1.3093931,0.413935 2.0106026,0.498884 a 0.85714286,0.85714286 0 0 1 -0.075335,-0.351563 0.85714286,0.85714286 0 0 1 0.033482,-0.23605 C 6.7471077,10.799525 6.1379291,10.640664 5.5558035,10.410714 Z m 4.4564735,0.406808 c -0.3296751,0.05641 -0.6519196,0.09533 -0.9676342,0.117188 a 0.85714286,0.85714286 0 0 1 0.020089,0.185826 0.85714286,0.85714286 0 0 1 -0.1004464,0.400111 c 0.3788625,-0.01923 0.7662917,-0.06303 1.1618306,-0.128906 a 0.85714286,0.85714286 0 0 1 -0.123883,-0.441964 0.85714286,0.85714286 0 0 1 0.01004,-0.132255 z m -4.8264511,0.388393 a 0.85714286,0.85714286 0 0 1 -0.4821429,0.147321 0.85714286,0.85714286 0 0 1 -0.095424,-0.0051 c 0.064568,0.213278 0.1331904,0.425365 0.2075892,0.637835 a 5.1122643,5.1122643 0 0 0 0.8454242,0.540772 C 5.4741757,12.086242 5.3195965,11.645787 5.1858259,11.205915 Z m 6.3750001,0.236049 a 0.85714286,0.85714286 0 0 1 -0.49721,0.339844 c 0.04374,0.05327 0.08432,0.107905 0.128906,0.160714 a 5.1122643,5.1122643 0 0 0 0.445313,-0.41183 c -0.02547,-0.02957 -0.05076,-0.05941 -0.07701,-0.08873 z m -3.0000001,0.458705 a 0.85714286,0.85714286 0 0 1 -0.3532366,0.07701 0.85714286,0.85714286 0 0 1 -0.2594867,-0.04185 c -0.024815,0.377877 -0.036449,0.759951 -0.030134,1.146764 a 5.1122643,5.1122643 0 0 0 0.055245,0.0033 5.1122643,5.1122643 0 0 0 0.547433,-0.03516 c -0.00369,-0.389989 0.01223,-0.772305 0.040179,-1.150111 z"/>
 <path style="fill:#dee2e2;fill-opacity:1;stroke:none;stroke-width:0.6;stroke-linecap:round;stroke-linejoin:round;stroke-miterlimit:4;stroke-dasharray:none;stroke-opacity:1" d="M 8.8337053,5.016741 A 0.85714286,0.85714286 0 0 0 7.9765624,5.8738839 0.85714286,0.85714286 0 0 0 8.8337053,6.7310267 0.85714286,0.85714286 0 0 0 9.6908482,5.8738839 0.85714286,0.85714286 0 0 0 8.8337053,5.016741 Z M 4.5714285,6.2857143 A 0.85714286,0.85714286 0 0 0 3.7142857,7.1428571 0.85714286,0.85714286 0 0 0 4.5714285,8 0.85714286,0.85714286 0 0 0 5.4285714,7.1428571 0.85714286,0.85714286 0 0 0 4.5714285,6.2857143 Z m 4.7544643,0.984375 A 0.85714286,0.85714286 0 0 0 8.46875,8.1272321 0.85714286,0.85714286 0 0 0 9.3258928,8.984375 0.85714286,0.85714286 0 0 0 10.183036,8.1272321 0.85714286,0.85714286 0 0 0 9.3258928,7.2700893 Z M 4.703683,9.6389509 A 0.85714286,0.85714286 0 0 0 3.8465402,10.496093 0.85714286,0.85714286 0 0 0 4.703683,11.353236 0.85714286,0.85714286 0 0 0 5.5608259,10.496093 0.85714286,0.85714286 0 0 0 4.703683,9.6389509 Z m 6.155692,0.4536831 a 0.85714286,0.85714286 0 0 0 -0.857142,0.857143 0.85714286,0.85714286 0 0 0 0.857142,0.857142 0.85714286,0.85714286 0 0 0 0.857143,-0.857142 0.85714286,0.85714286 0 0 0 -0.857143,-0.857143 z m -2.6517857,0.170759 a 0.85714286,0.85714286 0 0 0 -0.8571429,0.857143 0.85714286,0.85714286 0 0 0 0.8571429,0.857143 0.85714286,0.85714286 0 0 0 0.8571428,-0.857143 0.85714286,0.85714286 0 0 0 -0.8571428,-0.857143 z"/>
</svg>
