<?xml version="1.0" encoding="UTF-8" standalone="no"?>
<svg
   xmlns:dc="http://purl.org/dc/elements/1.1/"
   xmlns:cc="http://creativecommons.org/ns#"
   xmlns:rdf="http://www.w3.org/1999/02/22-rdf-syntax-ns#"
   xmlns:svg="http://www.w3.org/2000/svg"
   xmlns="http://www.w3.org/2000/svg"
   xmlns:sodipodi="http://sodipodi.sourceforge.net/DTD/sodipodi-0.dtd"
   xmlns:inkscape="http://www.inkscape.org/namespaces/inkscape"
   width="16"
   height="16"
   version="1.1"
   id="svg4"
   sodipodi:docname="folder-android.svg"
   inkscape:version="0.92.4 5da689c313, 2019-01-14">
  <metadata
     id="metadata10">
    <rdf:RDF>
      <cc:Work
         rdf:about="">
        <dc:format>image/svg+xml</dc:format>
        <dc:type
           rdf:resource="http://purl.org/dc/dcmitype/StillImage" />
      </cc:Work>
    </rdf:RDF>
  </metadata>
  <defs
     id="defs8" />
  <sodipodi:namedview
     pagecolor="#ffffff"
     bordercolor="#666666"
     borderopacity="1"
     objecttolerance="10"
     gridtolerance="10"
     guidetolerance="10"
     inkscape:pageopacity="0"
     inkscape:pageshadow="2"
     inkscape:window-width="713"
     inkscape:window-height="669"
     id="namedview6"
     showgrid="false"
     inkscape:zoom="27.523143"
     inkscape:cx="8"
     inkscape:cy="9.4533224"
     inkscape:window-x="396"
     inkscape:window-y="26"
     inkscape:window-maximized="0"
     inkscape:current-layer="svg4" />
  <path
     id="path2"
     style="fill:#72a046;fill-opacity:1"
     d="M 2.4980469,1.9882812 C 2.0508963,1.9900535 1.8307418,2.5330189 2.1503906,2.8457031 L 3.4277344,4.1230469 C 2.5078669,5.2055963 2.0019422,6.5794136 2,8 v 6 H 14 V 8 C 14.000324,6.581316 13.49794,5.208409 12.582031,4.125 l 1.279297,-1.2792969 c 0.325407,-0.3179758 0.09152,-0.8700107 -0.363281,-0.8574219 -0.129761,0.00361 -0.253034,0.057538 -0.34375,0.1503907 L 11.869141,3.4257812 C 10.788366,2.5083524 9.4176526,2.0032434 8,2 6.584067,1.9994209 5.2135503,2.4996145 4.1308594,3.4121094 L 2.8574219,2.140625 C 2.7628895,2.0439695 2.6332445,1.9897159 2.4980469,1.9902344 Z M 8,3 c 2.761424,0 5,2.2385763 5,5 H 3 C 3,5.2385763 5.2385763,3 8,3 Z M 6,5 C 5.4477153,5 5,5.4477153 5,6 5,6.5522847 5.4477153,7 6,7 6.5522847,7 7,6.5522847 7,6 7,5.4477153 6.5522847,5 6,5 Z m 4,0 C 9.4477153,5 9,5.4477153 9,6 9,6.5522847 9.4477153,7 10,7 10.552285,7 11,6.5522847 11,6 11,5.4477153 10.552285,5 10,5 Z M 3,9 h 4 2 4 v 4 H 3 Z"
     inkscape:connector-curvature="0"
     sodipodi:nodetypes="cccccccccccccccccsccsssssssssssccccccc" />
</svg>
