<svg xmlns="http://www.w3.org/2000/svg" width="16" height="16"><rect width="2.521" height="4.412" x="6.739" y="9.578" rx=".42" fill="#dee2e2"/><path d="M7 5c-.277 0-.5.223-.5.5v2c0 .277.223.5.5.5h2c.277 0 .5-.223.5-.5v-2c0-.277-.223-.5-.5-.5zm0 .5h2v2H7z" fill="#dee2e2"/><path d="M10.418 13.037c1.612 0 1.612 0 1.612-.87V7h.94v5.194c0 1.817 0 1.817-2.552 1.804H5.582c-2.552 0-2.552.013-2.552-1.832V7h.94l.016 5.166c.003.871-.016.871 1.596.871zM10 2.2L12 4V2.085c0-.442 0-.885-.8-.885h-.4c-.8 0-.8.557-.8 1z" fill="#dee2e2"/><path d="M2 6.3h1.97l4.044-3.7 4.016 3.7H14v-1h-1.714L8 1.4 3.714 5.3H2z" fill="#dee2e2"/></svg>