<svg xmlns="http://www.w3.org/2000/svg" width="24" height="24" version="1">
 <rect width="18" height="12" x="3" y="2" rx=".75" ry=".75" fill="#82abaa"/>
 <rect width="18" height="12" x="3" y="3.5" rx=".75" ry=".75" opacity=".1"/>
 <rect width="18" height="12" x="3" y="4" rx=".75" ry=".75" fill="#a3be8c"/>
 <rect width="18" height="12" x="3" y="5.5" rx=".75" ry=".75" opacity=".1"/>
 <rect width="18" height="12" x="3" y="6" rx=".75" ry=".75" fill="#ebcb8b"/>
 <rect width="20" height="14" x="2" y="8.5" rx="1" ry="1" opacity=".2"/>
 <rect width="20" height="14" x="2" y="8" rx="1" ry="1" fill="#718382"/>
 <rect width="6" height="2" x="9" y="13.5" rx=".5" ry=".5" opacity=".2"/>
 <rect width="6" height="2" x="9" y="13" rx=".5" ry=".5" fill="#ececec"/>
 <path d="M3.75 2a.748.748 0 0 0-.75.75v.5c0-.416.334-.75.75-.75h16.5c.416 0 .75.334.75.75v-.5a.748.748 0 0 0-.75-.75zM3.75 4a.748.748 0 0 0-.75.75v.5c0-.415.334-.75.75-.75h16.5c.416 0 .75.335.75.75v-.5a.748.748 0 0 0-.75-.75zM3.75 6a.748.748 0 0 0-.75.75v.5c0-.415.334-.75.75-.75h16.5c.416 0 .75.335.75.75v-.5a.748.748 0 0 0-.75-.75z" opacity=".1" fill="#fff"/>
</svg>
