<?xml version="1.0" encoding="UTF-8" standalone="no"?>
<svg
   xmlns:dc="http://purl.org/dc/elements/1.1/"
   xmlns:cc="http://creativecommons.org/ns#"
   xmlns:rdf="http://www.w3.org/1999/02/22-rdf-syntax-ns#"
   xmlns:svg="http://www.w3.org/2000/svg"
   xmlns="http://www.w3.org/2000/svg"
   xmlns:sodipodi="http://sodipodi.sourceforge.net/DTD/sodipodi-0.dtd"
   xmlns:inkscape="http://www.inkscape.org/namespaces/inkscape"
   width="24"
   height="24"
   version="1"
   id="svg26"
   sodipodi:docname="file-manager.svg"
   inkscape:version="0.92.4 5da689c313, 2019-01-14">
  <metadata
     id="metadata32">
    <rdf:RDF>
      <cc:Work
         rdf:about="">
        <dc:format>image/svg+xml</dc:format>
        <dc:type
           rdf:resource="http://purl.org/dc/dcmitype/StillImage" />
      </cc:Work>
    </rdf:RDF>
  </metadata>
  <defs
     id="defs30" />
  <sodipodi:namedview
     pagecolor="#ffffff"
     bordercolor="#666666"
     borderopacity="1"
     objecttolerance="10"
     gridtolerance="10"
     guidetolerance="10"
     inkscape:pageopacity="0"
     inkscape:pageshadow="2"
     inkscape:window-width="640"
     inkscape:window-height="515"
     id="namedview28"
     showgrid="false"
     inkscape:zoom="9.8333333"
     inkscape:cx="12"
     inkscape:cy="12"
     inkscape:window-x="0"
     inkscape:window-y="27"
     inkscape:window-maximized="0"
     inkscape:current-layer="svg26" />
  <rect
     style="fill:#82abaa;fill-opacity:1"
     width="18"
     height="12"
     x="3"
     y="2"
     rx=".75"
     ry=".75"
     id="rect2" />
  <rect
     style="opacity:0.1"
     width="18"
     height="12"
     x="3"
     y="3.5"
     rx=".75"
     ry=".75"
     id="rect4" />
  <rect
     style="fill:#a3be8c;fill-opacity:1"
     width="18"
     height="12"
     x="3"
     y="4"
     rx=".75"
     ry=".75"
     id="rect6" />
  <rect
     style="opacity:0.1"
     width="18"
     height="12"
     x="3"
     y="5.5"
     rx=".75"
     ry=".75"
     id="rect8" />
  <rect
     style="fill:#ebcb8b;fill-opacity:1"
     width="18"
     height="12"
     x="3"
     y="6"
     rx=".75"
     ry=".75"
     id="rect10" />
  <rect
     style="opacity:0.2"
     width="20"
     height="14"
     x="2"
     y="8.5"
     rx="1"
     ry="1"
     id="rect12" />
  <rect
     style="fill:#718382;fill-opacity:1"
     width="20"
     height="14"
     x="2"
     y="8"
     rx="1"
     ry="1"
     id="rect14" />
  <rect
     style="opacity:0.2"
     width="6"
     height="2"
     x="9"
     y="13.5"
     rx=".5"
     ry=".5"
     id="rect16" />
  <rect
     style="fill:#ececec"
     width="6"
     height="2"
     x="9"
     y="13"
     rx=".5"
     ry=".5"
     id="rect18" />
  <path
     style="opacity:0.1;fill:#ffffff"
     d="M 3.75,2 C 3.3345,2 3,2.3345 3,2.75 V 3.25 C 3,2.8345 3.3345,2.5 3.75,2.5 H 20.25 C 20.666,2.5 21,2.8345 21,3.25 V 2.75 C 21,2.3345 20.666,2 20.25,2 Z"
     id="path20" />
  <path
     style="opacity:0.1;fill:#ffffff"
     d="M 3.75,4 C 3.3345,4 3,4.3345 3,4.75 V 5.25 C 3,4.8345 3.3345,4.5 3.75,4.5 H 20.25 C 20.666,4.5 21,4.8345 21,5.25 V 4.75 C 21,4.3345 20.666,4 20.25,4 Z"
     id="path22" />
  <path
     style="opacity:0.1;fill:#ffffff"
     d="M 3.75,6 C 3.3345,6 3,6.3345 3,6.75 V 7.25 C 3,6.8345 3.3345,6.5 3.75,6.5 H 20.25 C 20.666,6.5 21,6.8345 21,7.25 V 6.75 C 21,6.3345 20.666,6 20.25,6 Z"
     id="path24" />
</svg>
