<?xml version="1.0" encoding="UTF-8" standalone="no"?>
<!-- Generator: Gravit.io -->

<svg
   xmlns:dc="http://purl.org/dc/elements/1.1/"
   xmlns:cc="http://creativecommons.org/ns#"
   xmlns:rdf="http://www.w3.org/1999/02/22-rdf-syntax-ns#"
   xmlns:svg="http://www.w3.org/2000/svg"
   xmlns="http://www.w3.org/2000/svg"
   xmlns:sodipodi="http://sodipodi.sourceforge.net/DTD/sodipodi-0.dtd"
   xmlns:inkscape="http://www.inkscape.org/namespaces/inkscape"
   style="isolation:isolate"
   viewBox="0 0 16 16"
   width="16"
   height="16"
   version="1.1"
   id="svg23"
   sodipodi:docname="folder-meocloud.svg"
   inkscape:version="0.92.4 5da689c313, 2019-01-14">
  <metadata
     id="metadata27">
    <rdf:RDF>
      <cc:Work
         rdf:about="">
        <dc:format>image/svg+xml</dc:format>
        <dc:type
           rdf:resource="http://purl.org/dc/dcmitype/StillImage" />
      </cc:Work>
    </rdf:RDF>
  </metadata>
  <sodipodi:namedview
     pagecolor="#ffffff"
     bordercolor="#666666"
     borderopacity="1"
     objecttolerance="10"
     gridtolerance="10"
     guidetolerance="10"
     inkscape:pageopacity="0"
     inkscape:pageshadow="2"
     inkscape:window-width="982"
     inkscape:window-height="747"
     id="namedview25"
     showgrid="false"
     inkscape:zoom="30"
     inkscape:cx="8"
     inkscape:cy="8"
     inkscape:window-x="394"
     inkscape:window-y="146"
     inkscape:window-maximized="0"
     inkscape:current-layer="g21" />
  <defs
     id="defs5">
    <clipPath
       clipPathUnits="userSpaceOnUse"
       id="clipPath833">
      <rect
         style="fill:none"
         y="0"
         x="0"
         width="48"
         height="48"
         id="rect835" />
    </clipPath>
  </defs>
  <g
     clip-path="url(#clipPath833)"
     id="g21"
     transform="scale(0.33333333)">
    <linearGradient
       id="_lgradient_34"
       x1="-0.046328004"
       y1="0.15974073"
       x2="0.85220069"
       y2="0.71023709"
       gradientTransform="matrix(45,0,0,30.763,1.229,15.445)"
       gradientUnits="userSpaceOnUse">
      <stop
         offset="3.0434782608695654%"
         stop-opacity="1"
         style="stop-color:#82ABAA"
         id="stop7" />
      <stop
         offset="98.26086956521739%"
         stop-opacity="1"
         style="stop-color:#82ABAA"
         id="stop9" />
    </linearGradient>
    <path
       d="m 1.545,46.208 44.378,-0.01 c 0.169,0 0.306,-0.137 0.306,-0.306 v -30.12 c 0,-0.169 -0.137,-0.306 -0.306,-0.307 l -25.816,-0.02 -4.221,3.206 c -0.068,0.051 -0.191,0.092 -0.276,0.092 L 1.229,18.688 1.238,45.902 c 0,0.169 0.138,0.306 0.307,0.306 z"
       stroke-miterlimit="3"
       id="path12"
       inkscape:connector-curvature="0"
       style="vector-effect:non-scaling-stroke;fill:#b4c5d1;stroke:#565d6e;stroke-width:1;stroke-linecap:square;stroke-linejoin:miter;stroke-miterlimit:3;stroke-opacity:1;fill-opacity:1" />
    <linearGradient
       id="_lgradient_35"
       x1="0"
       y1="0.5"
       x2="1"
       y2="0.5"
       gradientTransform="matrix(18.873,0,0,6.535,1.243,12.208)"
       gradientUnits="userSpaceOnUse">
      <stop
         offset="3.0434782608695654%"
         stop-opacity="1"
         style="stop-color:#82ABAA"
         id="stop14" />
      <stop
         offset="98.26086956521739%"
         stop-opacity="1"
         style="stop-color:#82ABAA"
         id="stop16" />
    </linearGradient>
    <path
       d="M 20.116,15.456 15.887,12.3 C 15.819,12.249 15.695,12.208 15.61,12.208 H 1.554 c -0.169,0 -0.307,0.138 -0.307,0.307 l -0.004,6.168 14.557,0.06 z"
       stroke-miterlimit="3"
       id="path19"
       inkscape:connector-curvature="0"
       style="vector-effect:non-scaling-stroke;fill:#b4c5d1;stroke:#565d6e;stroke-width:1;stroke-linecap:square;stroke-linejoin:miter;stroke-miterlimit:3;stroke-opacity:1;fill-opacity:1" />
    <path
       inkscape:connector-curvature="0"
       style="fill:#565d6e;fill-opacity:1"
       d="M 21.027,27.623 C 20.67,27.477 20.287,27.402 19.9,27.4 c -1.5,0 -2.77,1.113 -2.97,2.6 -1.452,0.499 -2.429,1.864 -2.43,3.4 0,1.989 1.611,3.6 3.6,3.6 h 10.8 c 1.989,0 3.6,-1.611 3.6,-3.6 -10e-4,-1.528 -0.968,-2.889 -2.41,-3.394 0.005,-0.069 0.007,-0.136 0.01,-0.205 C 30.1,27.15 27.951,25 25.3,25 c -1.805,0 -3.454,1.015 -4.273,2.623 z M 25.299,27 h 0.002 c 1.569,0 2.798,1.23 2.799,2.799 -0.001,0.023 -0.004,0.058 -0.004,0.068 -0.063,0.899 0.483,1.73 1.334,2.028 0.647,0.226 1.069,0.82 1.07,1.505 0,0.908 -0.692,1.6 -1.6,1.6 H 18.1 c -0.907,0 -1.599,-0.691 -1.6,-1.598 V 33.4 c 0.001,-0.688 0.428,-1.285 1.08,-1.509 0.716,-0.246 1.231,-0.875 1.332,-1.625 0.069,-0.509 0.476,-0.865 0.986,-0.866 0.129,0.001 0.255,0.027 0.372,0.075 0.963,0.394 2.067,-0.017 2.539,-0.944 C 23.288,27.589 24.245,27 25.299,27 Z"
       id="path14" />
  </g>
</svg>
