<svg xmlns="http://www.w3.org/2000/svg" width="16" height="16" version="1.1" id="svg7"><defs id="defs3"><style id="current-color-scheme" type="text/css"></style></defs><path d="M4.408 4c-.444 0-.886.089-1.298.262-.411.174-.787.43-1.104.753-.317.324-.572.71-.744 1.136a3.595 3.595 0 0 0 0 2.693c.173.426.427.813.744 1.136a3.34 3.34 0 0 0 2.372 1.015l.03.001c1.055.05 1.905-.369 2.528-.977.425-.415.76-.906 1.064-1.406.305.5.64.991 1.064 1.406.623.608 1.473 1.027 2.528.977l.03-.001a3.33 3.33 0 0 0 1.267-.262c.411-.174.788-.43 1.105-.753l.002-.004a3.51 3.51 0 0 0 .742-1.131 3.59 3.59 0 0 0 0-2.694l-.003-.006a3.521 3.521 0 0 0-.741-1.13A3.343 3.343 0 0 0 11.592 4c-1.112.001-1.99.458-2.638 1.094-.375.367-.679.787-.955 1.216-.275-.43-.579-.85-.954-1.216C6.397 4.457 5.52 4 4.407 4zm-.012 1c.887 0 1.453.317 1.973.843.412.417.773.984 1.13 1.603-.408.723-.803 1.382-1.246 1.83-.49.493-.996.766-1.825.718h-.032c-.316 0-.634-.067-.925-.194a2.412 2.412 0 0 1-.77-.538l-.008-.008A2.524 2.524 0 0 1 2 7.497a2.52 2.52 0 0 1 .693-1.756l.009-.01c.218-.227.483-.413.77-.538.29-.126.608-.193.924-.193zm7.207 0c.316 0 .635.066.925.193.287.125.551.31.77.538l.008.01c.22.232.397.51.515.808a2.608 2.608 0 0 1 0 1.895c-.118.299-.295.578-.515.81l-.009.008a2.412 2.412 0 0 1-.77.538c-.29.127-.608.194-.924.194h-.032c-.828.047-1.335-.225-1.824-.718-.444-.448-.839-1.108-1.247-1.83.358-.619.719-1.186 1.13-1.603.52-.526 1.087-.844 1.973-.844zM11 6v1h-1v1h1v1h1V8h1V7h-1V6zM3 7v1h3V7z" id="path5" fill="#6e6e6e" fill-opacity="1" color="#dfdfdf"/></svg>