<svg xmlns="http://www.w3.org/2000/svg" style="isolation:isolate" width="22" height="22">
 <defs>
 <clipPath clipPathUnits="userSpaceOnUse" id="a">
 <path fill="none" d="M0 0h48v48H0z"/>
 </clipPath>
 </defs>
 <g clip-path="url(#a)" transform="matrix(.45832 0 0 .45832 -.001 .002)">
 <linearGradient id="b" x1="-.046" y1=".16" x2=".852" y2=".71" gradientTransform="matrix(45 0 0 30.763 1.229 15.445)" gradientUnits="userSpaceOnUse">
 <stop offset="3.043%" stop-color="#82abaa"/>
 <stop offset="98.261%" stop-color="#82abaa"/>
 </linearGradient>
 <path d="M1.545 46.208l44.378-.01a.306.306 0 0 0 .306-.306v-30.12a.307.307 0 0 0-.306-.307l-25.816-.02-4.221 3.206a.535.535 0 0 1-.276.092l-14.381-.055.009 27.214c0 .169.138.306.307.306z" stroke-miterlimit="3" vector-effect="non-scaling-stroke" fill="url(#b)" stroke="#698989" stroke-linecap="square"/>
 <linearGradient id="c" x1="0" y1=".5" x2="1" y2=".5" gradientTransform="matrix(18.873 0 0 6.535 1.243 12.208)" gradientUnits="userSpaceOnUse">
 <stop offset="3.043%" stop-color="#82abaa"/>
 <stop offset="98.261%" stop-color="#82abaa"/>
 </linearGradient>
 <path d="M20.116 15.456L15.887 12.3a.538.538 0 0 0-.277-.092H1.554a.308.308 0 0 0-.307.307l-.004 6.168 14.557.06z" stroke-miterlimit="3" vector-effect="non-scaling-stroke" fill="url(#c)" stroke="#698989" stroke-linecap="square"/>
 <path d="M31.87 38c0-2.517-4.27-3.801-5.974-4.258 0 0 .07-1.411.235-1.928.165-.518.188-1.106.259-1.27.07-.165.902-.918.95-1.624-.012-.42-.095-.52-.303-.52v-2.188c0-1.18-1.722-2.212-2.852-2.212s-2.851 1.031-2.851 2.212V28.4c-.208 0-.291.1-.303.521.048.706.88 1.459.95 1.623.07.165.094.753.258 1.27.165.518.236 1.93.236 1.93-1.704.456-5.975 1.74-5.975 4.257z" fill="#4e6766" fill-rule="evenodd"/>
 </g>
</svg>
