<svg xmlns="http://www.w3.org/2000/svg" style="isolation:isolate" width="22" height="22">
 <defs>
 <clipPath clipPathUnits="userSpaceOnUse" id="a">
 <path fill="none" d="M0 0h48v48H0z"/>
 </clipPath>
 </defs>
 <g clip-path="url(#a)" transform="matrix(.45832 0 0 .45832 -.001 .002)">
 <linearGradient id="b" x1="-.046" y1=".16" x2=".852" y2=".71" gradientTransform="matrix(45 0 0 30.763 1.229 15.445)" gradientUnits="userSpaceOnUse">
 <stop offset="3.043%" stop-color="#82abaa"/>
 <stop offset="98.261%" stop-color="#82abaa"/>
 </linearGradient>
 <path d="M1.545 46.208l44.378-.01a.306.306 0 0 0 .306-.306v-30.12a.307.307 0 0 0-.306-.307l-25.816-.02-4.221 3.206a.535.535 0 0 1-.276.092l-14.381-.055.009 27.214c0 .169.138.306.307.306z" stroke-miterlimit="3" vector-effect="non-scaling-stroke" fill="url(#b)" stroke="#698989" stroke-linecap="square"/>
 <linearGradient id="c" x1="0" y1=".5" x2="1" y2=".5" gradientTransform="matrix(18.873 0 0 6.535 1.243 12.208)" gradientUnits="userSpaceOnUse">
 <stop offset="3.043%" stop-color="#82abaa"/>
 <stop offset="98.261%" stop-color="#82abaa"/>
 </linearGradient>
 <path d="M20.116 15.456L15.887 12.3a.538.538 0 0 0-.277-.092H1.554a.308.308 0 0 0-.307.307l-.004 6.168 14.557.06z" stroke-miterlimit="3" vector-effect="non-scaling-stroke" fill="url(#c)" stroke="#698989" stroke-linecap="square"/>
 <path d="M24.5 23.76c-4.432 0-8 3.568-8 8 0 3.573 2.32 6.58 5.541 7.613v-1.662c-2.025.447-2.451-.89-2.451-.89-.331-.855-.809-1.083-.809-1.083-.66-.458.05-.45.05-.45.73.051 1.114.763 1.114.763.65 1.13 1.705.804 2.12.615.066-.478.255-.805.462-.99-1.616-.187-3.017-1.22-3.017-4.055 0-.808.586-1.868 1.052-2.385-.075-.187-.326-1.339.07-2.357 0 0 .039-.012.117-.016.237-.01.77.439 1.813 1.157a8.098 8.098 0 0 1 1.938-.27 6.42 6.42 0 0 1 1.816.27c1.043-.718 1.709-1.17 1.945-1.159h.002c.079.004.117.016.117.016.397 1.018.147 2.172.072 2.36.467.516 1.048 1.576 1.048 2.384 0 2.842-1.7 3.866-3.322 4.049.26.228.326.681.326 1.371 0 .833-.002 1.375-.004 1.719v.74c3.457-.885 6-4 6-7.74 0-4.432-3.568-8-8-8z" fill="#4e6766"/>
 </g>
</svg>
