<?xml version="1.0" encoding="UTF-8" standalone="no"?>
<!-- Generator: Gravit.io -->

<svg
   xmlns:dc="http://purl.org/dc/elements/1.1/"
   xmlns:cc="http://creativecommons.org/ns#"
   xmlns:rdf="http://www.w3.org/1999/02/22-rdf-syntax-ns#"
   xmlns:svg="http://www.w3.org/2000/svg"
   xmlns="http://www.w3.org/2000/svg"
   xmlns:xlink="http://www.w3.org/1999/xlink"
   xmlns:sodipodi="http://sodipodi.sourceforge.net/DTD/sodipodi-0.dtd"
   xmlns:inkscape="http://www.inkscape.org/namespaces/inkscape"
   style="isolation:isolate"
   viewBox="0 0 64 64"
   width="64"
   height="64"
   version="1.1"
   id="svg23"
   sodipodi:docname="folder-nordic-videos-open.svg"
   inkscape:version="0.92.4 5da689c313, 2019-01-14">
  <metadata
     id="metadata27">
    <rdf:RDF>
      <cc:Work
         rdf:about="">
        <dc:format>image/svg+xml</dc:format>
        <dc:type
           rdf:resource="http://purl.org/dc/dcmitype/StillImage" />
      </cc:Work>
    </rdf:RDF>
  </metadata>
  <sodipodi:namedview
     pagecolor="#ffffff"
     bordercolor="#666666"
     borderopacity="1"
     objecttolerance="10"
     gridtolerance="10"
     guidetolerance="10"
     inkscape:pageopacity="0"
     inkscape:pageshadow="2"
     inkscape:window-width="895"
     inkscape:window-height="668"
     id="namedview25"
     showgrid="false"
     inkscape:zoom="5.5"
     inkscape:cx="24"
     inkscape:cy="31.454545"
     inkscape:window-x="310"
     inkscape:window-y="248"
     inkscape:window-maximized="0"
     inkscape:current-layer="svg23"
     inkscape:snap-global="false"
     showguides="false" />
  <defs
     id="defs5">
    <linearGradient
       id="_lgradient_35-5"
       x1="1.0569526"
       y1="1.164638"
       x2="2.0212493"
       y2="0.70254338"
       gradientTransform="matrix(18.877654,0,0,8.5776341,1.4464341,17.416196)"
       gradientUnits="userSpaceOnUse">
      <stop
         offset="0.31479162"
         stop-opacity="1"
         style="stop-color:#a3be8c"
         id="stop14-9" />
      <stop
         offset="0.66162944"
         stop-opacity="1"
         style="stop-color:#a3be8c"
         id="stop16-7" />
    </linearGradient>
    <clipPath
       clipPathUnits="userSpaceOnUse"
       id="clipPath842">
      <rect
         id="rect844"
         height="48"
         width="48"
         x="0"
         y="0"
         style="fill:none" />
    </clipPath>
  </defs>
  <g
     clip-path="url(#clipPath842)"
     id="g21"
     transform="matrix(1.3228848,0,0,1.3228848,0.00986103,0.48670497)">
    <linearGradient
       id="_lgradient_34"
       x1="0.41166824"
       y1="0.00010054788"
       x2="0.41033676"
       y2="0.86212933"
       gradientTransform="matrix(45.42911,0,0,26.613237,1.1962636,19.627487)"
       gradientUnits="userSpaceOnUse"
       xlink:href="#_lgradient_35-5">
      <stop
         offset="0.41096842"
         stop-opacity="1"
         style="stop-color:#83a26b;stop-opacity:1"
         id="stop7" />
      <stop
         offset="98.26086956521739%"
         stop-opacity="1"
         style="stop-color:#a3be8c"
         id="stop9" />
    </linearGradient>
    <linearGradient
       id="_lgradient_35"
       x1="0.4859741"
       y1="3.1150997"
       x2="0.44406784"
       y2="-0.0087129287"
       gradientTransform="matrix(18.711492,0,0,6.7851198,1.5197168,11.850823)"
       gradientUnits="userSpaceOnUse">
      <stop
         offset="0.51641214"
         stop-opacity="1"
         style="stop-color:#a3be8c;stop-opacity:1"
         id="stop14" />
      <stop
         offset="98.26086956521739%"
         stop-opacity="1"
         style="stop-color:#b1cca8;stop-opacity:1"
         id="stop16" />
    </linearGradient>
    <path
       d="M 46.306476,16.756323 21.867724,16.644979 C 18.911849,14.392105 15.848042,11.850822 15.763769,11.850822 H 1.8280551 c -0.1675537,0 -0.3043729,0.143281 -0.3043729,0.31875 l 0.1710922,33.811445 44.5750236,-0.03836 z"
       stroke-miterlimit="3"
       id="path19"
       inkscape:connector-curvature="0"
       style="vector-effect:non-scaling-stroke;fill:url(#_lgradient_35);stroke:#72a046;stroke-width:1.01458776;stroke-linecap:square;stroke-linejoin:miter;stroke-miterlimit:3"
       sodipodi:nodetypes="ccsscccc" />
    <path
       d="m 1.5152768,46.240727 44.8011792,-0.0086 c 0.170611,0 0.308918,-0.11852 0.308918,-0.264721 V 19.910378 c 0,-0.146201 -0.138307,-0.264722 -0.308918,-0.265587 l -26.062176,-0.0173 -4.26125,2.773527 c -0.06866,0.04411 -0.192821,0.07959 -0.278632,0.07959 L 1.1962636,22.433021 1.2053416,45.976 c 0,0.146203 0.139316,0.264722 0.3099276,0.264722 z"
       stroke-miterlimit="3"
       id="path12"
       inkscape:connector-curvature="0"
       style="vector-effect:non-scaling-stroke;fill:url(#_lgradient_34);fill-opacity:1;stroke:#72a046;stroke-width:0.93453455;stroke-linecap:square;stroke-linejoin:miter;stroke-miterlimit:3" />
    <g
       transform="matrix(1,0,0,0.84848484,0,5.8277559)"
       style="isolation:isolate"
       id="g25">
      <path
         d="m 26.925,29.708 h -11.7 c -0.249,0 -0.45,0.202 -0.45,0.45 v 7.2 c 0,0.249 0.201,0.45 0.45,0.45 h 11.7 c 0.249,0 0.45,-0.201 0.45,-0.45 v -7.2 c 0,-0.248 -0.201,-0.45 -0.45,-0.45 z m -0.45,7.2 h -10.8 v -6.3 h 10.8 z"
         id="path21"
         inkscape:connector-curvature="0"
         style="fill:#466b46" />
      <path
         d="m 37.893,28.457 c -0.45,-0.233 -0.992,-0.194 -1.403,0.102 l -4.305,3.075 c -0.084,-0.08 -0.194,-0.125 -0.31,-0.126 h -1.35 v -2.7 c -0.002,-1.242 -1.008,-2.248 -2.25,-2.25 h -0.9 v -3.15 c 0,-0.248 -0.202,-0.45 -0.45,-0.45 h -11.7 c -0.249,0 -0.45,0.202 -0.45,0.45 v 3.15 h -0.9 c -1.242,0.002 -2.249,1.008 -2.25,2.25 v 9.9 c 10e-4,1.242 1.008,2.249 2.25,2.25 h 14.4 c 1.242,-10e-4 2.248,-1.008 2.25,-2.25 v -2.7 h 1.35 c 0.116,0 0.226,-0.045 0.31,-0.126 l 4.305,3.076 c 0.607,0.434 1.45,0.293 1.883,-0.314 0.164,-0.228 0.252,-0.503 0.252,-0.784 v -8.203 c 10e-4,-0.506 -0.282,-0.97 -0.732,-1.2 z M 15.675,23.858 h 10.8 v 2.7 h -10.8 z m 13.95,14.85 c 0,0.746 -0.604,1.35 -1.35,1.35 h -14.4 c -0.746,0 -1.35,-0.604 -1.35,-1.35 v -9.9 c 0,-0.745 0.604,-1.35 1.35,-1.35 h 14.4 c 0.746,0 1.35,0.605 1.35,1.35 z m 0.9,-3.6 v -2.7 h 0.9 v 2.7 z m 7.2,2.752 c 0,0.248 -0.202,0.45 -0.45,0.45 -0.094,0 -0.186,-0.03 -0.262,-0.084 L 32.325,34.877 V 32.64 l 4.688,-3.349 c 0.202,-0.144 0.483,-0.098 0.628,0.104 0.055,0.077 0.084,0.168 0.084,0.262 z"
         id="path23"
         inkscape:connector-curvature="0"
         style="fill:#466b46" />
    </g>
  </g>
</svg>
