<svg xmlns="http://www.w3.org/2000/svg" style="isolation:isolate" width="64" height="64"><defs><clipPath clipPathUnits="userSpaceOnUse" id="a"><path fill="none" d="M0 0h48v48H0z"/></clipPath></defs><g clip-path="url(#a)" transform="matrix(1.33334 0 0 1.33334 .002 -.002)"><linearGradient id="b" x1="-.046" y1=".16" x2=".852" y2=".71" gradientTransform="matrix(45 0 0 30.763 1.229 15.445)" gradientUnits="userSpaceOnUse"><stop offset="3.043%" stop-color="#a3be8c"/><stop offset="98.261%" stop-color="#a3be8c"/></linearGradient><path d="M1.545 46.208l44.378-.01a.306.306 0 0 0 .306-.306v-30.12a.307.307 0 0 0-.306-.307l-25.816-.02-4.221 3.206a.535.535 0 0 1-.276.092l-14.381-.055.009 27.214c0 .169.138.306.307.306z" stroke-miterlimit="3" vector-effect="non-scaling-stroke" fill="url(#b)" stroke="#72a046" stroke-linecap="square"/><linearGradient id="c" x1="0" y1=".5" x2="1" y2=".5" gradientTransform="matrix(18.873 0 0 6.535 1.243 12.208)" gradientUnits="userSpaceOnUse"><stop offset="3.043%" stop-color="#a3be8c"/><stop offset="98.261%" stop-color="#a3be8c"/></linearGradient><path d="M20.116 15.456L15.887 12.3a.538.538 0 0 0-.277-.092H1.554a.308.308 0 0 0-.307.307l-.004 6.168 14.557.06z" stroke-miterlimit="3" vector-effect="non-scaling-stroke" fill="url(#c)" stroke="#72a046" stroke-linecap="square"/><path d="M28.779 23.8c-2.96 0-3.517 4-1.85 4 1.664 0 4.812-4 1.85-4zm-4.55 1c-.046 0-.098.005-.15.01-1.695.204-1.1 2.939-.197 2.99.873.05 1.829-2.992.349-3zm-3.09 1a1.413 1.413 0 0 0-.404.049c-1.586.401-.241 2.057.647 1.945.806-.101.923-1.947-.242-1.994zm-2.21 2a1.045 1.045 0 0 0-.46.105c-1.303.616.44 2.102 1.208 1.872.67-.202.243-1.954-.748-1.977zm6.082 1c-2.334-.037-5.412 1.065-5.938 3.279-.568 2.397 2.343 5.721 5.377 5.721 1.493 0 3.215-.671 3.537-2.279.245-1.226-3.091-.698-2.978.113.135.973-.563.818-1.438.191-2.57-2.025 4.61-2.991 4.123-5.718-.151-.849-1.283-1.283-2.683-1.305z" fill="#466b46"/></g></svg>