<svg xmlns="http://www.w3.org/2000/svg" width="24" height="24" version="1"><path d="M22 20.5v-9.995c0-.554-.45-1.061-1-1H3c-1 0-1 .958-1 .958V20.5c0 .554.446 1 1 1h18c.554 0 1-.446 1-1z" opacity=".2"/><path d="M2 18V4.004C2 3.45 2.45 3 3 3h6c1 0 1 .801 1 2h11s1 0 1 1v12c0 .554-.446 1-1 1H3c-.554 0-1-.446-1-1z" fill="#6c9b9a"/><path d="M3 3c-.55 0-1 .45-1 1.004v.5C2 3.95 2.45 3.5 3 3.5h6c1 0 1 .801 1 2h11s1 0 1 1V6c0-1-1-1-1-1H10c0-1.199 0-2-1-2H3z" opacity=".1" fill="#fff"/><path d="M22 19.5V9.506c0-.554-.45-1.005-1-1.005H3c-1 0-1 .963-1 .963V19.5c0 .554.446 1 1 1h18c.554 0 1-.446 1-1z" opacity=".2"/><rect width="16" height="8" x="4" y="7" rx=".889" ry="1" fill="#dcdcdc"/><path d="M22 20v-9.995C22 9.45 21.55 9 21 9H3c-1 0-1 .963-1 .963V20c0 .554.446 1 1 1h18c.554 0 1-.446 1-1z" fill="#82abaa"/><circle cx="17" cy="17" r="6" fill="#5db41e"/><path d="M17 14a3 3 0 0 0-3 3 3 3 0 0 0 3 3 3 3 0 0 0 3-3 3 3 0 0 0-3-3zm0 1a2 2 0 0 1 2 2 2 2 0 0 1-2 2 2 2 0 0 1-2-2 2 2 0 0 1 2-2z" fill="#fff"/><path d="M17 13v3l2-1.5zM17 18v3l-2-1.5z" fill="#fff"/></svg>