<svg xmlns="http://www.w3.org/2000/svg" xmlns:xlink="http://www.w3.org/1999/xlink" style="isolation:isolate" width="24" height="24"><defs><linearGradient id="b" x1="1.057" y1="1.165" x2="2.021" y2=".703" gradientTransform="matrix(18.87765 0 0 8.57763 1.446 17.416)" gradientUnits="userSpaceOnUse"><stop offset=".315" stop-color="#88c0d0"/><stop offset=".662" stop-color="#88c0d0"/></linearGradient><clipPath clipPathUnits="userSpaceOnUse" id="a"><path fill="none" d="M0 0h48v48H0z"/></clipPath></defs><g clip-path="url(#a)" transform="matrix(.49608 0 0 .49608 .001 .184)"><linearGradient id="d" x1=".412" y1="0" x2=".41" y2=".862" gradientTransform="matrix(45.42911 0 0 26.61324 1.196 19.627)" gradientUnits="userSpaceOnUse" xlink:href="#b"><stop offset=".411" stop-color="#71a7b8"/><stop offset="98.261%" stop-color="#88c0d0"/></linearGradient><linearGradient id="c" x1=".486" y1="3.115" x2=".444" y2="-.009" gradientTransform="matrix(18.7115 0 0 6.78512 1.52 11.85)" gradientUnits="userSpaceOnUse"><stop offset=".516" stop-color="#88c0d0"/><stop offset="98.261%" stop-color="#b1cbd2"/></linearGradient><path d="M46.306 16.756l-24.438-.111c-2.956-2.253-6.02-4.794-6.104-4.794H1.828a.313.313 0 0 0-.304.319l.17 33.811 44.576-.038z" stroke-miterlimit="3" vector-effect="non-scaling-stroke" fill="url(#c)" stroke="#669eae" stroke-width="1.015" stroke-linecap="square"/><path d="M1.515 46.24l44.801-.008c.171 0 .31-.118.31-.265V19.91c0-.146-.139-.264-.31-.265l-26.062-.018-4.261 2.774a.603.603 0 0 1-.279.08l-14.518-.048.01 23.543c0 .146.139.265.31.265z" stroke-miterlimit="3" vector-effect="non-scaling-stroke" fill="url(#d)" stroke="#669eae" stroke-width=".935" stroke-linecap="square"/><g style="isolation:isolate" fill="#46636b"><path d="M26.925 31.035h-11.7c-.249 0-.45.17-.45.381v6.11c0 .21.201.381.45.381h11.7c.249 0 .45-.17.45-.382v-6.109c0-.21-.201-.381-.45-.381zm-.45 6.109h-10.8v-5.346h10.8z"/><path d="M37.893 29.973a1.547 1.547 0 0 0-1.403.087l-4.305 2.609a.5.5 0 0 0-.31-.107h-1.35V30.27c-.002-1.054-1.008-1.907-2.25-1.91h-.9V25.69c0-.21-.202-.382-.45-.382h-11.7c-.249 0-.45.172-.45.382v2.673h-.9c-1.242.002-2.249.855-2.25 1.909v8.4c.001 1.054 1.008 1.908 2.25 1.909h14.4c1.242 0 2.248-.855 2.25-1.91v-2.29h1.35a.49.49 0 0 0 .31-.107l4.305 2.61c.607.368 1.45.249 1.883-.266.164-.194.252-.427.252-.666v-6.96c.001-.43-.282-.823-.732-1.018zm-22.218-3.902h10.8v2.29h-10.8zm13.95 12.6c0 .633-.604 1.145-1.35 1.145h-14.4c-.746 0-1.35-.512-1.35-1.145v-8.4c0-.632.604-1.146 1.35-1.146h14.4c.746 0 1.35.514 1.35 1.146zm.9-3.055v-2.29h.9v2.29zm7.2 2.335c0 .21-.202.382-.45.382a.511.511 0 0 1-.262-.071l-4.688-2.842v-1.898l4.688-2.841a.505.505 0 0 1 .628.088.343.343 0 0 1 .084.222z"/></g></g></svg>