<svg xmlns="http://www.w3.org/2000/svg" xmlns:xlink="http://www.w3.org/1999/xlink" style="isolation:isolate" width="24" height="24">
 <defs>
 <linearGradient id="b" x1="1.057" y1="1.165" x2="2.021" y2=".703" gradientTransform="matrix(18.87765 0 0 8.57763 1.446 17.416)" gradientUnits="userSpaceOnUse">
 <stop offset=".315" stop-color="#88c0d0"/>
 <stop offset=".662" stop-color="#88c0d0"/>
 </linearGradient>
 <clipPath clipPathUnits="userSpaceOnUse" id="a">
 <path fill="none" d="M0 0h48v48H0z"/>
 </clipPath>
 </defs>
 <g clip-path="url(#a)" transform="matrix(.49608 0 0 .49608 .001 .184)">
 <linearGradient id="d" x1=".412" y1="0" x2=".41" y2=".862" gradientTransform="matrix(45.42911 0 0 26.61324 1.196 19.627)" gradientUnits="userSpaceOnUse" xlink:href="#b">
 <stop offset=".411" stop-color="#71a7b8"/>
 <stop offset="98.261%" stop-color="#88c0d0"/>
 </linearGradient>
 <linearGradient id="c" x1=".486" y1="3.115" x2=".444" y2="-.009" gradientTransform="matrix(18.7115 0 0 6.78512 1.52 11.85)" gradientUnits="userSpaceOnUse">
 <stop offset=".516" stop-color="#88c0d0"/>
 <stop offset="98.261%" stop-color="#b1cbd2"/>
 </linearGradient>
 <path d="M46.306 16.756l-24.438-.111c-2.956-2.253-6.02-4.794-6.104-4.794H1.828a.313.313 0 0 0-.304.319l.17 33.811 44.576-.038z" stroke-miterlimit="3" vector-effect="non-scaling-stroke" fill="url(#c)" stroke="#669eae" stroke-width="1.015" stroke-linecap="square"/>
 <path d="M1.515 46.24l44.801-.008c.171 0 .31-.118.31-.265V19.91c0-.146-.139-.264-.31-.265l-26.062-.018-4.261 2.774a.603.603 0 0 1-.279.08l-14.518-.048.01 23.543c0 .146.139.265.31.265z" stroke-miterlimit="3" vector-effect="non-scaling-stroke" fill="url(#d)" stroke="#669eae" stroke-width=".935" stroke-linecap="square"/>
 <path d="M17.064 25.877h-.024c-.319.007-.573.252-.566.548v1.092h.59v-1.092h1.475v-.548zm3.244 11.751h10.617v.546H20.308zm-1.769-1.367v-3.439l3.711 3.44zm4.128-.386l-3.711-3.44h3.711zm7.668-2.346h-5.898v-1.093h5.898zm0-3.006H18.539v-2.732h11.796zm-6.488 5.738h7.078v.547h-7.078zm0-1.366h7.078v.547h-7.078zm-5.898 4.099h10.617v.546H17.949zm0-1.366h.59v.546h-.59zM30.63 27.244H18.244c-.163 0-.295.123-.295.273v3.28c0 .15.132.273.295.273H30.63c.163 0 .295-.123.295-.273v-3.28c0-.15-.132-.273-.295-.273zm0 4.645h-6.488c-.163 0-.295.123-.295.273v1.64c0 .151.132.274.295.274h6.488c.163 0 .295-.123.295-.274v-1.64c0-.15-.132-.273-.295-.273zm-7.668 0h-4.718c-.163 0-.295.123-.295.273v4.372c0 .152.132.274.295.274h4.718c.163 0 .295-.122.295-.274v-4.372c0-.15-.132-.273-.295-.273zm10.323 8.745c0 .453-.396.82-.885.82H16.474c-.489 0-.885-.367-.885-.82V25.877c0-.453.396-.82.885-.82H32.4c.489 0 .885.367.885.82zM32.4 24.511H16.474c-.814.001-1.474.612-1.474 1.366v14.757c0 .754.66 1.365 1.474 1.366H32.4c.814 0 1.474-.612 1.475-1.366V25.877c-.001-.754-.661-1.365-1.475-1.366zM19.128 37.628h.59v.546h-.59z" style="isolation:isolate" fill="#46636b" fill-rule="evenodd"/>
 </g>
</svg>
