<svg xmlns="http://www.w3.org/2000/svg" xmlns:xlink="http://www.w3.org/1999/xlink" style="isolation:isolate" width="24" height="24"><defs><linearGradient id="b" x1="1.057" y1="1.165" x2="2.021" y2=".703" gradientTransform="matrix(18.87765 0 0 8.57763 1.446 17.416)" gradientUnits="userSpaceOnUse"><stop offset=".315" stop-color="#88c0d0"/><stop offset=".662" stop-color="#88c0d0"/></linearGradient><clipPath clipPathUnits="userSpaceOnUse" id="a"><path fill="none" d="M0 0h48v48H0z"/></clipPath></defs><g clip-path="url(#a)" transform="matrix(.49608 0 0 .49608 .001 .184)"><linearGradient id="d" x1=".412" y1="0" x2=".41" y2=".862" gradientTransform="matrix(45.42911 0 0 26.61324 1.196 19.627)" gradientUnits="userSpaceOnUse" xlink:href="#b"><stop offset=".411" stop-color="#71a7b8"/><stop offset="98.261%" stop-color="#88c0d0"/></linearGradient><linearGradient id="c" x1=".486" y1="3.115" x2=".444" y2="-.009" gradientTransform="matrix(18.7115 0 0 6.78512 1.52 11.85)" gradientUnits="userSpaceOnUse"><stop offset=".516" stop-color="#88c0d0"/><stop offset="98.261%" stop-color="#b1cbd2"/></linearGradient><path d="M46.306 16.756l-24.438-.111c-2.956-2.253-6.02-4.794-6.104-4.794H1.828a.313.313 0 0 0-.304.319l.17 33.811 44.576-.038z" stroke-miterlimit="3" vector-effect="non-scaling-stroke" fill="url(#c)" stroke="#669eae" stroke-width="1.015" stroke-linecap="square"/><path d="M1.515 46.24l44.801-.008c.171 0 .31-.118.31-.265V19.91c0-.146-.139-.264-.31-.265l-26.062-.018-4.261 2.774a.603.603 0 0 1-.279.08l-14.518-.048.01 23.543c0 .146.139.265.31.265z" stroke-miterlimit="3" vector-effect="non-scaling-stroke" fill="url(#d)" stroke="#669eae" stroke-width=".935" stroke-linecap="square"/><path style="isolation:isolate" d="M20.404 31.013c.152 0 .3.02.438.056a11.54 11.54 0 0 1 1.737-1.365 1.096 1.096 0 0 1 .037-.7 11.622 11.622 0 0 0-2.291-1.075 6.747 6.747 0 0 0-1.965 1.548 9.546 9.546 0 0 0 1.399 1.663c.195-.081.413-.127.645-.127m-1.49 1.273c0-.18.044-.35.121-.503-.478-.45-.91-.934-1.29-1.45A5.266 5.266 0 0 0 17 33.02c0 1.118.36 2.164.985 3.06a9.211 9.211 0 0 1 1.233-3.025 1.152 1.152 0 0 1-.304-.768m5.113-4.15c.393 0 .75.13 1.017.344a13.4 13.4 0 0 1 2.445-.645 7.89 7.89 0 0 0-3.49-.797 8.04 8.04 0 0 0-2.461.382c.607.257 1.187.556 1.732.894.222-.113.48-.178.757-.178m2.226 5.994c.093-.165.225-.312.388-.427a9.043 9.043 0 0 0-2.033-3.122c-.178.065-.375.1-.582.1-.323 0-.62-.09-.865-.238-.54.35-1.04.743-1.494 1.173.143.194.226.423.226.67 0 .132-.024.26-.068.38a11.993 11.993 0 0 0 4.428 1.464m1.932 1.718a8.84 8.84 0 0 1-.062 2.004c1.187-.74 2.09-1.793 2.546-3.016-.54.112-1.094.191-1.659.237-.132.35-.435.63-.825.775m-2.28-.863a13.116 13.116 0 0 1-4.725-1.615 1.679 1.679 0 0 1-1.083.161 8.27 8.27 0 0 0-1.216 3.566 7.115 7.115 0 0 0 2.393 1.433c1.135-1.49 2.72-2.724 4.63-3.545m2.794-6.4a12.41 12.41 0 0 0-3.19.695c.004.043.008.085.008.128 0 .2-.056.39-.153.558a9.91 9.91 0 0 1 2.259 3.44c.606.01 1.124.327 1.347.777.674-.058 1.33-.169 1.961-.328.046-.273.07-.552.07-.836 0-1.758-.888-3.34-2.301-4.433m-2.045 7.078c-1.783.714-3.274 1.814-4.354 3.157a8.12 8.12 0 0 0 4.653-.38 7.99 7.99 0 0 0 .22-1.865c0-.23-.012-.46-.032-.686a1.553 1.553 0 0 1-.487-.226" fill="#46636b"/></g></svg>