<svg xmlns="http://www.w3.org/2000/svg" style="isolation:isolate" width="64" height="64"><defs><clipPath clipPathUnits="userSpaceOnUse" id="a"><path fill="none" d="M0 0h48v48H0z"/></clipPath></defs><g clip-path="url(#a)" transform="matrix(1.33334 0 0 1.33334 .002 -.002)"><linearGradient id="b" x1="-.046" y1=".16" x2=".852" y2=".71" gradientTransform="matrix(45 0 0 30.763 1.229 15.445)" gradientUnits="userSpaceOnUse"><stop offset="3.043%" stop-color="#82abaa"/><stop offset="98.261%" stop-color="#82abaa"/></linearGradient><path d="M1.545 46.208l44.378-.01a.306.306 0 0 0 .306-.306v-30.12a.307.307 0 0 0-.306-.307l-25.816-.02-4.221 3.206a.535.535 0 0 1-.276.092l-14.381-.055.009 27.214c0 .169.138.306.307.306z" stroke-miterlimit="3" vector-effect="non-scaling-stroke" fill="url(#b)" stroke="#698989" stroke-linecap="square"/><linearGradient id="c" x1="0" y1=".5" x2="1" y2=".5" gradientTransform="matrix(18.873 0 0 6.535 1.243 12.208)" gradientUnits="userSpaceOnUse"><stop offset="3.043%" stop-color="#82abaa"/><stop offset="98.261%" stop-color="#82abaa"/></linearGradient><path d="M20.116 15.456L15.887 12.3a.538.538 0 0 0-.277-.092H1.554a.308.308 0 0 0-.307.307l-.004 6.168 14.557.06z" stroke-miterlimit="3" vector-effect="non-scaling-stroke" fill="url(#c)" stroke="#698989" stroke-linecap="square"/><path d="M14 32.623l6.004 2.461A3 3 0 0 0 23 38c1.657 0 3.006-1.402 3-3l4-3c2.227 0 4-1.791 4-4a4 4 0 0 0-4-4 3.987 3.987 0 0 0-4 4l-3 4c-.544 0-1.082.152-1.549.436L14 29.377M30 25a3 3 0 1 1 0 6c-1.656 0-2.969-1.635-3-3a3 3 0 0 1 3-3zm0 1a2 2 0 1 0-.001 3.999A2 2 0 0 0 30 26zm-7 7a2 2 0 1 1-1.932 2.521l.893.366a1.497 1.497 0 0 0 1.957-.819 1.496 1.496 0 0 0-.818-1.957l-.254-.103c.051-.005.103-.007.154-.008z" fill="#4e6766"/></g></svg>