<svg xmlns="http://www.w3.org/2000/svg" width="16" height="16"><path d="M8 2a6 6 0 0 0-6 6 6 6 0 0 0 6 6 6 6 0 0 0 6-6 6 6 0 0 0-6-6zm-.027.86a5.112 5.112 0 0 1 5.113 5.113 5.112 5.112 0 0 1-5.113 5.113A5.112 5.112 0 0 1 2.86 7.973 5.112 5.112 0 0 1 7.973 2.86z" fill="#272d3a"/><path style="line-height:normal;font-variant-ligatures:normal;font-variant-position:normal;font-variant-caps:normal;font-variant-numeric:normal;font-variant-alternates:normal;font-feature-settings:normal;text-indent:0;text-align:start;text-decoration-line:none;text-decoration-style:solid;text-decoration-color:#272d3a;text-transform:none;text-orientation:mixed;white-space:normal;shape-padding:0;isolation:auto;mix-blend-mode:normal;solid-color:#272d3a;solid-opacity:1" d="M8.88 2.946a11.33 11.33 0 0 0-.276 2.103.857.857 0 0 1 .23-.032.857.857 0 0 1 .37.085c.023-.645.1-1.314.26-2.019a5.112 5.112 0 0 0-.583-.137zM6.5 3.08a5.112 5.112 0 0 0-.95.394C5 4.42 4.629 5.363 4.407 6.302a.857.857 0 0 1 .165-.016.857.857 0 0 1 .419.11c.266-1.092.747-2.195 1.51-3.315zm4.589.846c-.52.514-1.072.955-1.646 1.346a.857.857 0 0 1 .246.56 12.022 12.022 0 0 0 1.853-1.514 5.112 5.112 0 0 0-.453-.392zm.788.753c-1.027.789-1.84 1.657-2.444 2.597a.857.857 0 0 1 .532.28c.568-.86 1.315-1.661 2.276-2.396a5.112 5.112 0 0 0-.364-.48zM8.008 6.1a8.471 8.471 0 0 1-2.655.693.857.857 0 0 1 .076.35.857.857 0 0 1-.034.238 9.217 9.217 0 0 0 2.96-.797.857.857 0 0 1-.347-.484zm1.26.512a.857.857 0 0 1-.434.119.857.857 0 0 1-.136-.01c.034.24.074.478.126.711a.857.857 0 0 1 .502-.162.857.857 0 0 1 .055.002 8.28 8.28 0 0 1-.114-.66zm-6.25.13a5.112 5.112 0 0 0-.112.59c.29.039.569.053.85.072a.857.857 0 0 1-.042-.261.857.857 0 0 1 .07-.337c-.254-.018-.504-.028-.766-.063zm1.167 1.166a9.735 9.735 0 0 0 .068 1.853 10.46 10.46 0 0 1-1.326-.978 5.112 5.112 0 0 0 .255.961c.233.17.47.327.711.478a.857.857 0 0 1 .81-.583.857.857 0 0 1 .13.01 8.86 8.86 0 0 1-.08-1.67A.857.857 0 0 1 4.57 8a.857.857 0 0 1-.386-.092zM8.69 8.7a9.65 9.65 0 0 0-.497 1.565.857.857 0 0 1 .015-.002.857.857 0 0 1 .559.21c.11-.513.251-1.015.448-1.497A.857.857 0 0 1 8.69 8.7zm1.188.083a.857.857 0 0 1-.552.201.857.857 0 0 1-.002 0c.221.527.494 1.032.804 1.52a.857.857 0 0 1 .474-.371 9.616 9.616 0 0 1-.724-1.35zm2.761 1.271c-.37.149-.732.275-1.088.389a.857.857 0 0 1 .166.507.857.857 0 0 1-.002.065c.157-.048.313-.091.472-.146a5.112 5.112 0 0 0 .452-.815zm-7.083.357a.857.857 0 0 1 .005.085.857.857 0 0 1-.146.477c.641.244 1.31.414 2.01.5a.857.857 0 0 1-.075-.352.857.857 0 0 1 .034-.237 7.745 7.745 0 0 1-1.828-.473zm4.456.407c-.33.056-.652.095-.967.117a.857.857 0 0 1 .02.186.857.857 0 0 1-.1.4c.378-.02.766-.063 1.161-.13a.857.857 0 0 1-.124-.441.857.857 0 0 1 .01-.132zm-4.826.388a.857.857 0 0 1-.482.147.857.857 0 0 1-.096-.005c.065.213.133.426.208.638a5.112 5.112 0 0 0 .845.54c-.187-.44-.341-.88-.475-1.32zm6.375.236a.857.857 0 0 1-.497.34c.043.053.084.108.129.16a5.112 5.112 0 0 0 .445-.411c-.026-.03-.05-.06-.077-.089zm-3 .459a.857.857 0 0 1-.353.077.857.857 0 0 1-.26-.042c-.025.378-.036.76-.03 1.147a5.112 5.112 0 0 0 .055.003 5.112 5.112 0 0 0 .548-.035c-.004-.39.012-.773.04-1.15z" color="#272d3a" font-weight="400" font-family="sans-serif" overflow="visible" fill="#272d3a"/><path d="M8.834 5.017a.857.857 0 0 0-.857.857.857.857 0 0 0 .857.857.857.857 0 0 0 .857-.857.857.857 0 0 0-.857-.857zM4.57 6.286a.857.857 0 0 0-.857.857A.857.857 0 0 0 4.57 8a.857.857 0 0 0 .858-.857.857.857 0 0 0-.858-.857zm4.755.984a.857.857 0 0 0-.857.857.857.857 0 0 0 .857.857.857.857 0 0 0 .857-.857.857.857 0 0 0-.857-.857zM4.704 9.64a.857.857 0 0 0-.857.857.857.857 0 0 0 .857.857.857.857 0 0 0 .857-.857.857.857 0 0 0-.857-.857zm6.155.454a.857.857 0 0 0-.857.857.857.857 0 0 0 .857.857.857.857 0 0 0 .858-.857.857.857 0 0 0-.858-.857zm-2.651.17a.857.857 0 0 0-.858.858.857.857 0 0 0 .858.857.857.857 0 0 0 .857-.857.857.857 0 0 0-.857-.858z" fill="#272d3a"/></svg>