<svg xmlns="http://www.w3.org/2000/svg" xmlns:xlink="http://www.w3.org/1999/xlink" width="16" height="16"><defs><linearGradient id="a"><stop offset="0" stop-color="#272d3a"/><stop offset="1" stop-color="#272d3a"/></linearGradient><linearGradient xlink:href="#a" id="b" x1="2" y1="8" x2="14" y2="8" gradientUnits="userSpaceOnUse"/></defs><path d="M5 2v8.275A1.982 1.982 0 0 0 4 10c-1.108 0-2 .892-2 2s.892 2 2 2 2-.892 2-2V6h7v2.275A1.982 1.982 0 0 0 12 8c-1.108 0-2 .892-2 2s.892 2 2 2 2-.892 2-2V2H5zm1 2h7v1H6V4z" fill="url(#b)" color="#4d4d4d"/></svg>