<?xml version="1.0" encoding="UTF-8" standalone="no"?>
<!-- Generator: Gravit.io -->

<svg
   xmlns:dc="http://purl.org/dc/elements/1.1/"
   xmlns:cc="http://creativecommons.org/ns#"
   xmlns:rdf="http://www.w3.org/1999/02/22-rdf-syntax-ns#"
   xmlns:svg="http://www.w3.org/2000/svg"
   xmlns="http://www.w3.org/2000/svg"
   xmlns:sodipodi="http://sodipodi.sourceforge.net/DTD/sodipodi-0.dtd"
   xmlns:inkscape="http://www.inkscape.org/namespaces/inkscape"
   style="isolation:isolate"
   viewBox="0 0 16 16"
   width="16"
   height="16"
   version="1.1"
   id="svg31"
   sodipodi:docname="user-desktop.svg"
   inkscape:version="0.92.4 5da689c313, 2019-01-14">
  <metadata
     id="metadata35">
    <rdf:RDF>
      <cc:Work
         rdf:about="">
        <dc:format>image/svg+xml</dc:format>
        <dc:type
           rdf:resource="http://purl.org/dc/dcmitype/StillImage" />
      </cc:Work>
    </rdf:RDF>
  </metadata>
  <sodipodi:namedview
     pagecolor="#ffffff"
     bordercolor="#666666"
     borderopacity="1"
     objecttolerance="10"
     gridtolerance="10"
     guidetolerance="10"
     inkscape:pageopacity="0"
     inkscape:pageshadow="2"
     inkscape:window-width="1016"
     inkscape:window-height="700"
     id="namedview33"
     showgrid="false"
     inkscape:zoom="27.0625"
     inkscape:cx="8"
     inkscape:cy="8.1847575"
     inkscape:window-x="520"
     inkscape:window-y="60"
     inkscape:window-maximized="0"
     inkscape:current-layer="g29" />
  <defs
     id="defs5">
    <clipPath
       clipPathUnits="userSpaceOnUse"
       id="clipPath843">
      <rect
         id="rect845"
         height="48"
         width="48"
         x="0"
         y="0"
         style="fill:none" />
    </clipPath>
  </defs>
  <g
     clip-path="url(#clipPath843)"
     id="g29"
     transform="scale(0.33333333)">
    <linearGradient
       id="_lgradient_20"
       x1="-0.046328004"
       y1="0.15974073"
       x2="0.85220069"
       y2="0.71023709"
       gradientTransform="matrix(45,0,0,30.763,1.229,15.445)"
       gradientUnits="userSpaceOnUse">
      <stop
         offset="3.0434782608695654%"
         stop-opacity="1"
         style="stop-color:#82ABAA"
         id="stop7" />
      <stop
         offset="98.26086956521739%"
         stop-opacity="1"
         style="stop-color:#82ABAA"
         id="stop9" />
    </linearGradient>
    <path
       d="m 1.545,46.208 44.378,-0.01 c 0.169,0 0.306,-0.137 0.306,-0.306 v -30.12 c 0,-0.169 -0.137,-0.306 -0.306,-0.307 l -25.816,-0.02 -4.221,3.206 c -0.068,0.051 -0.191,0.092 -0.276,0.092 L 1.229,18.688 1.238,45.902 c 0,0.169 0.138,0.306 0.307,0.306 z"
       stroke-miterlimit="3"
       id="path12"
       inkscape:connector-curvature="0"
       style="vector-effect:non-scaling-stroke;fill:#3b4252;fill-opacity:1;stroke:#272d3a;stroke-width:1;stroke-linecap:square;stroke-linejoin:miter;stroke-miterlimit:3;stroke-opacity:1" />
    <linearGradient
       id="_lgradient_21"
       x1="0"
       y1="0.5"
       x2="1"
       y2="0.5"
       gradientTransform="matrix(18.873,0,0,6.535,1.243,12.208)"
       gradientUnits="userSpaceOnUse">
      <stop
         offset="3.0434782608695654%"
         stop-opacity="1"
         style="stop-color:#82ABAA"
         id="stop14" />
      <stop
         offset="98.26086956521739%"
         stop-opacity="1"
         style="stop-color:#82ABAA"
         id="stop16" />
    </linearGradient>
    <path
       d="M 20.116,15.456 15.887,12.3 C 15.819,12.249 15.695,12.208 15.61,12.208 H 1.554 c -0.169,0 -0.307,0.138 -0.307,0.307 l -0.004,6.168 14.557,0.06 z"
       stroke-miterlimit="3"
       id="path19"
       inkscape:connector-curvature="0"
       style="vector-effect:non-scaling-stroke;fill:#3b4252;fill-opacity:1;stroke:#272d3a;stroke-width:1;stroke-linecap:square;stroke-linejoin:miter;stroke-miterlimit:3;stroke-opacity:1" />
    <g
       id="g27">
      <path
         d="M 34.818,39.78 H 13.182 c -1.065,0 -1.932,-0.867 -1.932,-1.932 V 23.167 c 0,-1.066 0.867,-1.932 1.932,-1.932 h 21.636 c 1.065,0 1.932,0.866 1.932,1.932 v 14.681 c 0,1.065 -0.867,1.932 -1.932,1.932 z M 13.182,22.008 c -0.639,0 -1.159,0.52 -1.159,1.159 v 14.681 c 0,0.639 0.52,1.159 1.159,1.159 h 21.636 c 0.639,0 1.159,-0.52 1.159,-1.159 V 23.167 c 0,-0.639 -0.52,-1.159 -1.159,-1.159 z"
         id="path21"
         inkscape:connector-curvature="0"
         style="fill:#dee2e2;fill-opacity:1" />
      <path
         d="m 28.926,43.474 h -9.852 c -0.213,0 -0.386,-0.173 -0.386,-0.386 0,-0.214 0.173,-0.387 0.386,-0.387 h 9.852 c 0.213,0 0.387,0.173 0.387,0.387 0,0.213 -0.174,0.386 -0.387,0.386 z"
         id="path23"
         inkscape:connector-curvature="0"
         style="fill:#dee2e2;fill-opacity:1" />
      <path
         d="m 24,43.474 c -0.213,0 -0.386,-0.173 -0.386,-0.386 v -3.695 c 0,-0.213 0.173,-0.386 0.386,-0.386 0.213,0 0.386,0.173 0.386,0.386 v 3.695 c 0,0.214 -0.173,0.386 -0.386,0.386 z"
         id="path25"
         inkscape:connector-curvature="0"
         style="fill:#dee2e2;fill-opacity:1" />
    </g>
  </g>
</svg>
