<svg xmlns="http://www.w3.org/2000/svg" width="16" height="16"><path d="M10.8 1.2c-.8 0-.8.556-.8 1L12 4V2.086c0-.442 0-.887-.8-.887h-.4zM8 1.4L3.715 5.3 2 6.8V8l1.03-.887v5.053c0 1.845 0 1.832 2.552 1.832h4.836c2.552.013 2.553.012 2.553-1.805v-5.08L14 8V6.8l-1.715-1.5L8 1.4zm.014 1.2l4.015 3.7v5.868c0 .87.001.87-1.611.87H9.26v-3.04a.419.419 0 0 0-.42-.42H7.158a.419.419 0 0 0-.42.42v3.04H5.582c-1.612 0-1.593-.001-1.596-.872V6.287L8.014 2.6zM7 5c-.277 0-.5.223-.5.5v2c0 .277.223.5.5.5h2c.277 0 .5-.223.5-.5v-2c0-.277-.223-.5-.5-.5H7zm0 .5h2v2H7v-2z" fill="#272d3a"/></svg>