<svg xmlns="http://www.w3.org/2000/svg" style="isolation:isolate" width="24" height="24"><defs><clipPath clipPathUnits="userSpaceOnUse" id="a"><path fill="none" d="M0 0h48v48H0z"/></clipPath></defs><g clip-path="url(#a)" transform="matrix(.5 0 0 .5 -.001 .001)"><linearGradient id="b" x1="-.046" y1=".16" x2=".852" y2=".71" gradientTransform="matrix(45 0 0 30.763 1.229 15.445)" gradientUnits="userSpaceOnUse"><stop offset="3.043%" stop-color="#9fae92"/><stop offset="98.261%" stop-color="#9fae92"/></linearGradient><path d="M1.545 46.208l44.378-.01a.306.306 0 0 0 .306-.306v-30.12a.307.307 0 0 0-.306-.307l-25.816-.02-4.221 3.206a.535.535 0 0 1-.276.092l-14.381-.055.009 27.214c0 .169.138.306.307.306z" stroke-miterlimit="3" vector-effect="non-scaling-stroke" fill="url(#b)" stroke="#7f8f7f" stroke-linecap="square"/><linearGradient id="c" x1="0" y1=".5" x2="1" y2=".5" gradientTransform="matrix(18.873 0 0 6.535 1.243 12.208)" gradientUnits="userSpaceOnUse"><stop offset="3.043%" stop-color="#9fae92"/><stop offset="98.261%" stop-color="#9fae92"/></linearGradient><path d="M20.116 15.456L15.887 12.3a.538.538 0 0 0-.277-.092H1.554a.308.308 0 0 0-.307.307l-.004 6.168 14.557.06z" stroke-miterlimit="3" vector-effect="non-scaling-stroke" fill="url(#c)" stroke="#7f8f7f" stroke-linecap="square"/><path d="M17.252 22.4h-.024c-.319.008-.573.304-.566.661v1.32h.59v-1.32h1.475V22.4zm3.244 14.194h10.617v.66H20.496zm-1.769-1.651v-4.154l3.711 4.154zm4.128-.466l-3.711-4.155h3.711zm7.668-2.834h-5.898v-1.321h5.898zm0-3.631H18.727v-3.301h11.796zm-6.488 6.931h7.078v.661h-7.078zm0-1.65h7.078v.66h-7.078zm-5.898 4.951h10.617v.66H18.137zm0-1.65h.59v.66h-.59zm12.681-12.543H18.432c-.163 0-.295.148-.295.33v3.961c0 .182.132.33.295.33h12.386c.163 0 .295-.148.295-.33v-3.961c0-.182-.132-.33-.295-.33zm0 5.611H24.33c-.163 0-.295.148-.295.33v1.981c0 .182.132.33.295.33h6.488c.163 0 .295-.148.295-.33v-1.981c0-.182-.132-.33-.295-.33zm-7.668 0h-4.718c-.163 0-.295.148-.295.33v5.281c0 .183.132.331.295.331h4.718c.163 0 .295-.148.295-.331v-5.281c0-.182-.132-.33-.295-.33zm10.323 10.563c0 .547-.396.99-.885.99H16.662c-.489 0-.885-.443-.885-.99V22.4c0-.547.396-.99.885-.99h15.926c.489 0 .885.443.885.99zm-.885-19.475H16.662c-.814.001-1.474.739-1.474 1.65v17.825c0 .911.66 1.649 1.474 1.65h15.926c.814-.001 1.474-.739 1.475-1.65V22.4c-.001-.911-.661-1.649-1.475-1.65zM19.316 36.594h.59v.66h-.59z" fill="#5d695d" fill-rule="evenodd"/></g></svg>