<svg xmlns="http://www.w3.org/2000/svg" xmlns:xlink="http://www.w3.org/1999/xlink" style="isolation:isolate" width="24" height="24"><defs><linearGradient id="b" x1="1.057" y1="1.165" x2="2.021" y2=".703" gradientTransform="matrix(18.87765 0 0 8.57763 1.446 17.416)" gradientUnits="userSpaceOnUse"><stop offset=".315" stop-color="#9fae92"/><stop offset=".662" stop-color="#9fae92"/></linearGradient><clipPath clipPathUnits="userSpaceOnUse" id="a"><path fill="none" d="M0 0h48v48H0z"/></clipPath></defs><g clip-path="url(#a)" transform="matrix(.49608 0 0 .49608 .001 .184)"><linearGradient id="d" x1=".412" y1="0" x2=".41" y2=".862" gradientTransform="matrix(45.42911 0 0 26.61324 1.196 19.627)" gradientUnits="userSpaceOnUse" xlink:href="#b"><stop offset=".411" stop-color="#929f88"/><stop offset="98.261%" stop-color="#9fae92"/></linearGradient><linearGradient id="c" x1=".486" y1="3.115" x2=".444" y2="-.009" gradientTransform="matrix(18.7115 0 0 6.78512 1.52 11.85)" gradientUnits="userSpaceOnUse"><stop offset=".516" stop-color="#9fae92"/><stop offset="98.261%" stop-color="#b1cca8"/></linearGradient><path d="M46.306 16.756l-24.438-.111c-2.956-2.253-6.02-4.794-6.104-4.794H1.828a.313.313 0 0 0-.304.319l.17 33.811 44.576-.038z" stroke-miterlimit="3" vector-effect="non-scaling-stroke" fill="url(#c)" stroke="#7f8f7f" stroke-width="1.015" stroke-linecap="square"/><path d="M1.515 46.24l44.801-.008c.171 0 .31-.118.31-.265V19.91c0-.146-.139-.264-.31-.265l-26.062-.018-4.261 2.774a.603.603 0 0 1-.279.08l-14.518-.048.01 23.543c0 .146.139.265.31.265z" stroke-miterlimit="3" vector-effect="non-scaling-stroke" fill="url(#d)" stroke="#7f8f7f" stroke-width=".935" stroke-linecap="square"/><g style="isolation:isolate" fill="#5d695d" fill-rule="evenodd"><path d="M30.2 38c0-2.014-3.807-3.042-5.325-3.408 0 0 .062-1.13.21-1.543.146-.414.167-.885.23-1.017.063-.132.804-.734.846-1.299-.01-.337-.084-.417-.27-.417v-1.75c0-.946-1.534-1.77-2.541-1.77s-2.542.824-2.542 1.77v1.75c-.185 0-.26.08-.27.417.043.565.784 1.167.847 1.3.063.13.084.602.23 1.016.147.414.21 1.543.21 1.543-1.518.366-5.325 1.394-5.325 3.408z"/><path d="M32.5 38c0-1.629-3.078-2.46-4.306-2.755 0 0 .051-.914.17-1.248.119-.335.135-.716.186-.822.051-.107.65-.594.684-1.05-.008-.273-.068-.338-.218-.338v-1.415c0-.764-1.24-1.432-2.054-1.432-.815 0-2.055.668-2.055 1.432v1.415c-.15 0-.21.065-.218.337.034.457.633.944.684 1.05.05.107.068.488.186.823.119.334.17 1.248.17 1.248-1.228.295-4.306 1.126-4.306 2.755z"/></g></g></svg>