<?xml version="1.0" encoding="UTF-8" standalone="no"?>
<!-- Generator: Gravit.io -->

<svg
   xmlns:dc="http://purl.org/dc/elements/1.1/"
   xmlns:cc="http://creativecommons.org/ns#"
   xmlns:rdf="http://www.w3.org/1999/02/22-rdf-syntax-ns#"
   xmlns:svg="http://www.w3.org/2000/svg"
   xmlns="http://www.w3.org/2000/svg"
   xmlns:xlink="http://www.w3.org/1999/xlink"
   xmlns:sodipodi="http://sodipodi.sourceforge.net/DTD/sodipodi-0.dtd"
   xmlns:inkscape="http://www.inkscape.org/namespaces/inkscape"
   style="isolation:isolate"
   viewBox="0 0 24 24"
   width="24"
   height="24"
   version="1.1"
   id="svg23"
   sodipodi:docname="user-nordic-home-open.svg"
   inkscape:version="0.92.4 5da689c313, 2019-01-14">
  <metadata
     id="metadata27">
    <rdf:RDF>
      <cc:Work
         rdf:about="">
        <dc:format>image/svg+xml</dc:format>
        <dc:type
           rdf:resource="http://purl.org/dc/dcmitype/StillImage" />
      </cc:Work>
    </rdf:RDF>
  </metadata>
  <sodipodi:namedview
     pagecolor="#ffffff"
     bordercolor="#666666"
     borderopacity="1"
     objecttolerance="10"
     gridtolerance="10"
     guidetolerance="10"
     inkscape:pageopacity="0"
     inkscape:pageshadow="2"
     inkscape:window-width="895"
     inkscape:window-height="668"
     id="namedview25"
     showgrid="false"
     inkscape:zoom="5.5"
     inkscape:cx="24"
     inkscape:cy="24.181818"
     inkscape:window-x="354"
     inkscape:window-y="222"
     inkscape:window-maximized="0"
     inkscape:current-layer="svg23"
     inkscape:snap-global="false"
     showguides="false" />
  <defs
     id="defs5">
    <linearGradient
       id="_lgradient_35-5"
       x1="1.0569526"
       y1="1.164638"
       x2="2.0212493"
       y2="0.70254338"
       gradientTransform="matrix(18.877654,0,0,8.5776341,1.4464341,17.416196)"
       gradientUnits="userSpaceOnUse">
      <stop
         offset="0.31479162"
         stop-opacity="1"
         style="stop-color:#a3be8c"
         id="stop14-9" />
      <stop
         offset="0.66162944"
         stop-opacity="1"
         style="stop-color:#a3be8c"
         id="stop16-7" />
    </linearGradient>
    <clipPath
       clipPathUnits="userSpaceOnUse"
       id="clipPath836">
      <rect
         id="rect838"
         height="48"
         width="48"
         x="0"
         y="0"
         style="fill:none" />
    </clipPath>
  </defs>
  <g
     clip-path="url(#clipPath836)"
     id="g21"
     transform="matrix(0.4960764,0,0,0.4960764,0.00145182,0.18426639)">
    <linearGradient
       id="_lgradient_34"
       x1="0.41166824"
       y1="0.00010054788"
       x2="0.41033676"
       y2="0.86212933"
       gradientTransform="matrix(45.42911,0,0,26.613237,1.1962636,19.627487)"
       gradientUnits="userSpaceOnUse"
       xlink:href="#_lgradient_35-5">
      <stop
         offset="0.41096842"
         stop-opacity="1"
         style="stop-color:#83a26b;stop-opacity:1"
         id="stop7" />
      <stop
         offset="98.26086956521739%"
         stop-opacity="1"
         style="stop-color:#a3be8c"
         id="stop9" />
    </linearGradient>
    <linearGradient
       id="_lgradient_35"
       x1="0.4859741"
       y1="3.1150997"
       x2="0.44406784"
       y2="-0.0087129287"
       gradientTransform="matrix(18.711492,0,0,6.7851198,1.5197168,11.850823)"
       gradientUnits="userSpaceOnUse">
      <stop
         offset="0.51641214"
         stop-opacity="1"
         style="stop-color:#a3be8c;stop-opacity:1"
         id="stop14" />
      <stop
         offset="98.26086956521739%"
         stop-opacity="1"
         style="stop-color:#b1cca8;stop-opacity:1"
         id="stop16" />
    </linearGradient>
    <path
       d="M 46.306476,16.756323 21.867724,16.644979 C 18.911849,14.392105 15.848042,11.850822 15.763769,11.850822 H 1.8280551 c -0.1675537,0 -0.3043729,0.143281 -0.3043729,0.31875 l 0.1710922,33.811445 44.5750236,-0.03836 z"
       stroke-miterlimit="3"
       id="path19"
       inkscape:connector-curvature="0"
       style="vector-effect:non-scaling-stroke;fill:url(#_lgradient_35);stroke:#72a046;stroke-width:1.01458776;stroke-linecap:square;stroke-linejoin:miter;stroke-miterlimit:3"
       sodipodi:nodetypes="ccsscccc" />
    <path
       d="m 1.5152768,46.240727 44.8011792,-0.0086 c 0.170611,0 0.308918,-0.11852 0.308918,-0.264721 V 19.910378 c 0,-0.146201 -0.138307,-0.264722 -0.308918,-0.265587 l -26.062176,-0.0173 -4.26125,2.773527 c -0.06866,0.04411 -0.192821,0.07959 -0.278632,0.07959 L 1.1962636,22.433021 1.2053416,45.976 c 0,0.146203 0.139316,0.264722 0.3099276,0.264722 z"
       stroke-miterlimit="3"
       id="path12"
       inkscape:connector-curvature="0"
       style="vector-effect:non-scaling-stroke;fill:url(#_lgradient_34);fill-opacity:1;stroke:#72a046;stroke-width:0.93453455;stroke-linecap:square;stroke-linejoin:miter;stroke-miterlimit:3" />
    <path
       inkscape:connector-curvature="0"
       id="Path 183"
       class="shp70"
       d="m 17.22,29.804022 7.272281,-3.822022 7.305965,3.899966 v 0.273802 H 17.201754 Z m 7.270877,-0.737556 c 0.541754,0 0.981053,-0.411349 0.981053,-0.918329 0,-0.507636 -0.439299,-0.918331 -0.981053,-0.918331 -0.541755,0 -0.981053,0.41135 -0.981053,0.918331 0,0.507634 0.439298,0.918329 0.981053,0.918329 z m -4.345263,8.46478 h 0.28421 v 0.436888 h 1.473685 v -0.436888 h 0.278596 v -5.905635 h 1.261754 v 5.905635 h 0.284211 v 0.436888 h 1.473683 v -0.436888 h 0.278598 v -5.905635 h 1.261754 v 5.905635 h 0.284212 v 0.436888 h 1.543858 v -0.436888 h 0.278596 V 31.625611 H 28.710526 L 28.5,30.707284 h 1.964911 l -0.210526,0.918327 h -0.143859 v 5.905635 h 0.28421 v 0.436888 h 0.77193 l 0.350877,0.78733 H 17.482456 l 0.350878,-0.78733 h 0.771929 v -0.436888 h 0.278596 V 31.625611 H 18.745614 L 18.535087,30.707284 H 20.5 l -0.210527,0.918327 h -0.143859 z m -3.294737,1.681428 H 32.149121 L 32.5,40 h -16 z"
       style="isolation:isolate;fill:#466b46;fill-opacity:1;stroke-width:0.06779825" />
  </g>
</svg>
