<?xml version="1.0" encoding="UTF-8" standalone="no"?>
<!-- Generator: Gravit.io -->

<svg
   xmlns:dc="http://purl.org/dc/elements/1.1/"
   xmlns:cc="http://creativecommons.org/ns#"
   xmlns:rdf="http://www.w3.org/1999/02/22-rdf-syntax-ns#"
   xmlns:svg="http://www.w3.org/2000/svg"
   xmlns="http://www.w3.org/2000/svg"
   xmlns:sodipodi="http://sodipodi.sourceforge.net/DTD/sodipodi-0.dtd"
   xmlns:inkscape="http://www.inkscape.org/namespaces/inkscape"
   style="isolation:isolate"
   viewBox="0 0 22 22"
   width="22"
   height="22"
   version="1.1"
   id="svg23"
   sodipodi:docname="folder-nordic-remote.svg"
   inkscape:version="0.92.4 5da689c313, 2019-01-14">
  <metadata
     id="metadata27">
    <rdf:RDF>
      <cc:Work
         rdf:about="">
        <dc:format>image/svg+xml</dc:format>
        <dc:type
           rdf:resource="http://purl.org/dc/dcmitype/StillImage" />
      </cc:Work>
    </rdf:RDF>
  </metadata>
  <sodipodi:namedview
     pagecolor="#ffffff"
     bordercolor="#666666"
     borderopacity="1"
     objecttolerance="10"
     gridtolerance="10"
     guidetolerance="10"
     inkscape:pageopacity="0"
     inkscape:pageshadow="2"
     inkscape:window-width="833"
     inkscape:window-height="663"
     id="namedview25"
     showgrid="false"
     inkscape:zoom="4.9166667"
     inkscape:cx="41.807595"
     inkscape:cy="24"
     inkscape:window-x="645"
     inkscape:window-y="233"
     inkscape:window-maximized="0"
     inkscape:current-layer="svg23" />
  <defs
     id="defs5">
    <clipPath
       clipPathUnits="userSpaceOnUse"
       id="clipPath833">
      <rect
         id="rect836"
         height="48"
         width="48"
         x="0"
         y="0"
         style="fill:none" />
    </clipPath>
  </defs>
  <g
     clip-path="url(#clipPath833)"
     id="g21"
     transform="matrix(0.45832443,0,0,0.45832443,-0.00104242,0.00158239)">
    <linearGradient
       id="_lgradient_34"
       x1="-0.046328004"
       y1="0.15974073"
       x2="0.85220069"
       y2="0.71023709"
       gradientTransform="matrix(45,0,0,30.763,1.229,15.445)"
       gradientUnits="userSpaceOnUse">
      <stop
         offset="3.0434782608695654%"
         stop-opacity="1"
         style="stop-color:#a3be8c"
         id="stop7" />
      <stop
         offset="98.26086956521739%"
         stop-opacity="1"
         style="stop-color:#a3be8c"
         id="stop9" />
    </linearGradient>
    <path
       d="m 1.545,46.208 44.378,-0.01 c 0.169,0 0.306,-0.137 0.306,-0.306 v -30.12 c 0,-0.169 -0.137,-0.306 -0.306,-0.307 l -25.816,-0.02 -4.221,3.206 c -0.068,0.051 -0.191,0.092 -0.276,0.092 L 1.229,18.688 1.238,45.902 c 0,0.169 0.138,0.306 0.307,0.306 z"
       stroke-miterlimit="3"
       id="path12"
       inkscape:connector-curvature="0"
       style="vector-effect:non-scaling-stroke;fill:url(#_lgradient_34);stroke:#72a046;stroke-width:1;stroke-linecap:square;stroke-linejoin:miter;stroke-miterlimit:3" />
    <linearGradient
       id="_lgradient_35"
       x1="0"
       y1="0.5"
       x2="1"
       y2="0.5"
       gradientTransform="matrix(18.873,0,0,6.535,1.243,12.208)"
       gradientUnits="userSpaceOnUse">
      <stop
         offset="3.0434782608695654%"
         stop-opacity="1"
         style="stop-color:#a3be8c"
         id="stop14" />
      <stop
         offset="98.26086956521739%"
         stop-opacity="1"
         style="stop-color:#a3be8c"
         id="stop16" />
    </linearGradient>
    <path
       d="M 20.116,15.456 15.887,12.3 C 15.819,12.249 15.695,12.208 15.61,12.208 H 1.554 c -0.169,0 -0.307,0.138 -0.307,0.307 l -0.004,6.168 14.557,0.06 z"
       stroke-miterlimit="3"
       id="path19"
       inkscape:connector-curvature="0"
       style="vector-effect:non-scaling-stroke;fill:url(#_lgradient_35);stroke:#72a046;stroke-width:1;stroke-linecap:square;stroke-linejoin:miter;stroke-miterlimit:3" />
    <path
       inkscape:connector-curvature="0"
       style="fill:#466b46;fill-opacity:1;stroke-width:0.07357721"
       d="m 20.903984,28.653363 c 0.152156,0 0.299752,0.02213 0.438225,0.06535 0.524973,-0.588086 1.107338,-1.123706 1.736939,-1.597698 -0.02663,-0.111128 -0.04106,-0.227543 -0.04106,-0.346209 0,-0.165135 0.02737,-0.324111 0.07762,-0.472448 -0.706782,-0.505161 -1.473753,-0.930396 -2.291195,-1.25816 -0.764615,0.472454 -1.431889,1.088704 -1.964437,1.811532 0.394885,0.69997 0.864309,1.352005 1.3987,1.945469 0.194761,-0.09431 0.413137,-0.14784 0.6452,-0.14784 M 19.41426,30.14223 c 0,-0.209255 0.04414,-0.40855 0.120959,-0.588103 C 19.057412,29.027585 18.624483,28.461563 18.245633,27.858198 17.770102,28.803142 17.5,29.870568 17.5,31.001153 c 0,1.307857 0.360602,2.532021 0.985274,3.579677 0.223676,-1.258153 0.64748,-2.4494 1.232565,-3.539077 C 19.527642,30.79218 19.41426,30.47952 19.41426,30.14245 m 5.112876,-4.856072 c 0.393353,0 0.749373,0.152898 1.016469,0.40247 0.77684,-0.334027 1.594736,-0.590886 2.445708,-0.754787 -1.027879,-0.593016 -2.219085,-0.932819 -3.489752,-0.932819 -0.866602,0 -1.695967,0.159029 -2.462052,0.447312 0.607896,0.300599 1.187536,0.65053 1.732376,1.046142 0.2222,-0.132308 0.480084,-0.20846 0.757045,-0.20846 m 2.226448,7.014198 c 0.09283,-0.19332 0.22439,-0.364476 0.387221,-0.499095 -0.439772,-1.352029 -1.135948,-2.589958 -2.032923,-3.654295 -0.178066,0.07604 -0.374283,0.117117 -0.581272,0.117117 -0.323378,0 -0.620843,-0.104242 -0.865045,-0.277662 -0.540204,0.41012 -1.040382,0.869575 -1.494281,1.371755 0.143035,0.227481 0.225956,0.496048 0.225956,0.784428 0,0.154442 -0.02355,0.304291 -0.0685,0.445864 1.306364,0.871934 2.810626,1.471484 4.428634,1.711888 m 1.931404,2.010834 c 0.01945,0.282229 0.03117,0.566017 0.03117,0.852886 0,0.505202 -0.03195,1.002744 -0.09283,1.492061 1.186777,-0.866615 2.090739,-2.098392 2.546506,-3.529581 -0.540223,0.130919 -1.094089,0.224431 -1.659408,0.277741 -0.131628,0.408517 -0.435219,0.737209 -0.825439,0.906893 m -2.280244,-1.009634 c -1.728645,-0.286785 -3.330116,-0.94649 -4.724407,-1.889923 -0.226765,0.138455 -0.492229,0.219879 -0.776826,0.219879 -0.105731,0 -0.206973,-0.0107 -0.305861,-0.03149 -0.667347,1.264774 -1.094095,2.675993 -1.216526,4.172413 0.666611,0.715139 1.478902,1.291082 2.392805,1.677592 1.13515,-1.74457 2.720734,-3.187357 4.631184,-4.148999 m 2.793738,-7.48868 c -1.122226,0.108812 -2.193518,0.391041 -3.190324,0.812258 0.0043,0.05018 0.0078,0.09972 0.0078,0.149903 0,0.235081 -0.05632,0.456493 -0.152919,0.653608 0.997431,1.170912 1.770286,2.533551 2.258922,4.025564 0.606351,0.01247 1.123721,0.381941 1.346666,0.909194 0.674145,-0.06854 1.330275,-0.19788 1.961446,-0.383544 C 31.475661,31.659899 31.5,31.332779 31.5,31.000301 31.49916,28.943 30.611918,27.092598 29.198507,25.81232 m -2.044367,8.284078 c -1.783511,0.835381 -3.274627,2.121974 -4.354301,3.694326 C 23.343797,37.926938 23.913065,38 24.499464,38 c 1.055248,0 2.055752,-0.235133 2.953391,-0.653601 0.144578,-0.706078 0.220674,-1.435741 0.220674,-2.182791 0,-0.270135 -0.01224,-0.537908 -0.03275,-0.80268 -0.179534,-0.05775 -0.344628,-0.146888 -0.486917,-0.264819"
       id="path20-2" />
  </g>
</svg>
