<svg xmlns="http://www.w3.org/2000/svg" style="isolation:isolate" width="22" height="22"><defs><clipPath clipPathUnits="userSpaceOnUse" id="a"><path fill="none" d="M0 0h48v48H0z"/></clipPath></defs><g clip-path="url(#a)" transform="matrix(.45832 0 0 .45832 -.001 .002)"><linearGradient id="b" x1="-.046" y1=".16" x2=".852" y2=".71" gradientTransform="matrix(45 0 0 30.763 1.229 15.445)" gradientUnits="userSpaceOnUse"><stop offset="3.043%" stop-color="#a3be8c"/><stop offset="98.261%" stop-color="#a3be8c"/></linearGradient><path d="M1.545 46.208l44.378-.01a.306.306 0 0 0 .306-.306v-30.12a.307.307 0 0 0-.306-.307l-25.816-.02-4.221 3.206a.535.535 0 0 1-.276.092l-14.381-.055.009 27.214c0 .169.138.306.307.306z" stroke-miterlimit="3" vector-effect="non-scaling-stroke" fill="url(#b)" stroke="#72a046" stroke-linecap="square"/><linearGradient id="c" x1="0" y1=".5" x2="1" y2=".5" gradientTransform="matrix(18.873 0 0 6.535 1.243 12.208)" gradientUnits="userSpaceOnUse"><stop offset="3.043%" stop-color="#a3be8c"/><stop offset="98.261%" stop-color="#a3be8c"/></linearGradient><path d="M20.116 15.456L15.887 12.3a.538.538 0 0 0-.277-.092H1.554a.308.308 0 0 0-.307.307l-.004 6.168 14.557.06z" stroke-miterlimit="3" vector-effect="non-scaling-stroke" fill="url(#c)" stroke="#72a046" stroke-linecap="square"/><path d="M28.746 29.625h-7.997a.327.327 0 0 0-.32.333c0 .185.144.334.32.334h7.997c.177 0 .32-.149.32-.334a.326.326 0 0 0-.32-.333zm-7.997-2h3.199c.176 0 .32-.149.32-.333a.327.327 0 0 0-.32-.334h-3.199a.327.327 0 0 0-.32.334c0 .184.144.333.32.333zm7.997 4.667h-7.997a.327.327 0 0 0-.32.333c0 .184.144.333.32.333h7.997c.177 0 .32-.149.32-.333a.326.326 0 0 0-.32-.333zm0 2.666h-7.997a.327.327 0 0 0-.32.334c0 .184.144.333.32.333h7.997c.177 0 .32-.149.32-.333a.327.327 0 0 0-.32-.334zm0 2.667h-7.997a.327.327 0 0 0-.32.333c0 .185.144.334.32.334h7.997c.177 0 .32-.149.32-.334a.326.326 0 0 0-.32-.333zm-1.599-13.529l2.879 3 .507.529h-3.386zM16.911 38.958v-17h12.475v3.529l-2.427-2.529H17.87v16zm1.599 1.667v-17h7.997v4.667h4.478v12.333zm11.516-14.471v-4.862H16.271v18.333h1.599v1.667h13.755V27.82z" fill="#466b46" fill-rule="evenodd"/></g></svg>