<svg xmlns="http://www.w3.org/2000/svg" width="48" height="48" version="1"><rect width="40" height="26" x="4" y="17" rx="2" ry="2" opacity=".2"/><path d="M4 34c0 1.108.892 2 2 2h36c1.108 0 2-.892 2-2V12c0-1.108-.892-2-2-2H22V8c0-1.108-.892-2-2-2H6c-1.108 0-2 .892-2 2" fill="#6c9b9a"/><rect width="40" height="26" x="4" y="15" rx="2" ry="2" opacity=".2"/><rect width="36" height="16" x="6" y="13" rx="2" ry="2" fill="#e4e4e4"/><rect width="40" height="26" x="4" y="16" rx="2" ry="2" fill="#82abaa"/><path d="M6 6c-1.108 0-2 .892-2 2v1c0-1.108.892-2 2-2h14c1.108 0 2 .892 2 2V8c0-1.108-.892-2-2-2zm16 4v1h20c1.108 0 2 .892 2 2v-1c0-1.108-.892-2-2-2z" opacity=".1" fill="#fff"/><circle cx="36" cy="36" r="11" opacity=".2"/><circle cx="36" cy="35" r="11" fill="#28ccb2"/><path d="M36 30c-1.55.015-3.112.37-4.463 1.135-.538.35-1.185.804-1.672 1.26-.766.75-1.422 1.626-1.865 2.606 1.215 2.68 3.886 4.645 6.824 4.935 1.928.218 3.945-.115 5.639-1.069.538-.35 1.185-.804 1.672-1.26.766-.751 1.422-1.626 1.865-2.606-1.215-2.68-3.886-4.645-6.824-4.935-.39-.045-.783-.066-1.176-.066zm0 2c1.607-.035 3.03 1.402 3 3.001.051 1.767-1.709 3.292-3.45 2.962-1.757-.207-2.991-2.179-2.413-3.849.369-1.23 1.576-2.129 2.863-2.114zm0 2a1 1 0 0 0-1 1.001 1 1 0 0 0 1 1 1 1 0 0 0 1-1 1 1 0 0 0-1-.999z" fill="#fff" fill-rule="evenodd"/></svg>