<svg xmlns="http://www.w3.org/2000/svg" width="48" height="48" version="1"><path d="M44 41V19s0-2-2-2H6c-2 0-2 2-2 2v22c0 1.108.892 2 2 2h36c1.108 0 2-.892 2-2z" opacity=".2"/><path d="M4 36V8c0-1.108 1-2 2-2h13c2 0 2 1.602 2 4h21s2 0 2 2v24c0 1.108-.892 2-2 2H6c-1.108 0-2-.892-2-2z" fill="#6c9b9a"/><path d="M44 39V17c0-1.108-.899-2.122-2-2H6c-2 0-2 1.917-2 1.917V39c0 1.108.892 2 2 2h36c1.108 0 2-.892 2-2z" opacity=".2"/><rect width="36" height="16" x="6" y="13" rx="2" ry="2" fill="#dcdcdc"/><path d="M44 40V18s0-2-2-2H6c-2 0-2 2-2 2v22c0 1.108.892 2 2 2h36c1.108 0 2-.892 2-2z" fill="#82abaa"/><path d="M6 6c-1 0-2 .892-2 2v1c0-1.108 1-2 2-2h13c2 0 2 1.602 2 4h21.103S44 11 44 13v-1c0-2-1.897-2-1.897-2H21c0-2.398 0-4-2-4z" opacity=".1" fill="#fff"/><circle opacity=".2" cx="36" cy="37" r="11"/><circle fill="#5db41e" cx="36" cy="36" r="11"/><path d="M36 30a6 6 0 0 0-6 6 6 6 0 0 0 6 6 6 6 0 0 0 6-6 6 6 0 0 0-6-6zm0 2a4 4 0 0 1 4 4 4 4 0 0 1-4 4 4 4 0 0 1-4-4 4 4 0 0 1 4-4z" fill="#fff"/><path d="M36 28v6l4-3zM36 38v6l-4-3z" fill="#fff"/></svg>