<svg xmlns="http://www.w3.org/2000/svg" width="48" height="48" version="1"><rect width="36" height="24" x="6" y="4" rx="1.5" ry="1.5" fill="#82abaa"/><rect width="36" height="24" x="6" y="7" rx="1.5" ry="1.5" opacity=".1"/><rect width="36" height="24" x="6" y="8" rx="1.5" ry="1.5" fill="#a3be8c"/><rect width="36" height="24" x="6" y="11" rx="1.5" ry="1.5" opacity=".1"/><rect width="36" height="24" x="6" y="12" rx="1.5" ry="1.5" fill="#ebcb8b"/><rect width="40" height="28" x="4" y="17" rx="2" ry="2" opacity=".2"/><rect width="40" height="28" x="4" y="16" rx="2" ry="2" fill="#718382"/><rect width="14" height="4" x="17" y="28" rx="1" ry="1" opacity=".2"/><rect width="14" height="4" x="17" y="27" rx="1" ry="1" fill="#ececec"/><path d="M7.5 4C6.669 4 6 4.669 6 5.5v1C6 5.669 6.669 5 7.5 5h33c.831 0 1.5.669 1.5 1.5v-1c0-.831-.669-1.5-1.5-1.5h-33zM7.5 8C6.669 8 6 8.669 6 9.5v1C6 9.669 6.669 9 7.5 9h33c.831 0 1.5.669 1.5 1.5v-1c0-.831-.669-1.5-1.5-1.5zM7.5 12c-.831 0-1.5.669-1.5 1.5v1c0-.831.669-1.5 1.5-1.5h33c.831 0 1.5.669 1.5 1.5v-1c0-.831-.669-1.5-1.5-1.5z" fill="#fff" opacity=".1"/></svg>