<svg xmlns="http://www.w3.org/2000/svg" width="16" height="16" version="1.1" id="svg7"><defs id="defs3"><style id="current-color-scheme" type="text/css"></style></defs><path d="M7.5 2.5a5 5 0 0 0-4.732 3.398A4 4 0 0 0 .5 9.5a4 4 0 0 0 4 4 4 4 0 0 0 2.658-1.018 5 5 0 0 0 .342.018 5 5 0 0 0 2.113-.475 4 4 0 0 0 1.887.475 4 4 0 0 0 4-4 4 4 0 0 0-4-4 4 4 0 0 0-.008 0 5 5 0 0 0-3.992-2z" id="path5" color="#444" fill="#6e6e6e" fill-opacity="1" stroke="#272d3a" stroke-width=".333" stroke-linecap="square" stroke-miterlimit="4" stroke-dasharray="none" stroke-opacity="1" paint-order="normal"/></svg>