<?xml version="1.0" encoding="UTF-8" standalone="no"?>
<!-- Generator: Gravit.io -->

<svg
   xmlns:dc="http://purl.org/dc/elements/1.1/"
   xmlns:cc="http://creativecommons.org/ns#"
   xmlns:rdf="http://www.w3.org/1999/02/22-rdf-syntax-ns#"
   xmlns:svg="http://www.w3.org/2000/svg"
   xmlns="http://www.w3.org/2000/svg"
   xmlns:sodipodi="http://sodipodi.sourceforge.net/DTD/sodipodi-0.dtd"
   xmlns:inkscape="http://www.inkscape.org/namespaces/inkscape"
   style="isolation:isolate"
   viewBox="0 0 32 32"
   width="32"
   height="32"
   version="1.1"
   id="svg23"
   sodipodi:docname="folder-nordic-gnome.svg"
   inkscape:version="0.92.4 5da689c313, 2019-01-14">
  <metadata
     id="metadata27">
    <rdf:RDF>
      <cc:Work
         rdf:about="">
        <dc:format>image/svg+xml</dc:format>
        <dc:type
           rdf:resource="http://purl.org/dc/dcmitype/StillImage" />
      </cc:Work>
    </rdf:RDF>
  </metadata>
  <sodipodi:namedview
     pagecolor="#ffffff"
     bordercolor="#666666"
     borderopacity="1"
     objecttolerance="10"
     gridtolerance="10"
     guidetolerance="10"
     inkscape:pageopacity="0"
     inkscape:pageshadow="2"
     inkscape:window-width="833"
     inkscape:window-height="663"
     id="namedview25"
     showgrid="false"
     inkscape:zoom="4.9166667"
     inkscape:cx="24"
     inkscape:cy="24"
     inkscape:window-x="701"
     inkscape:window-y="259"
     inkscape:window-maximized="0"
     inkscape:current-layer="svg23" />
  <defs
     id="defs5">
    <clipPath
       clipPathUnits="userSpaceOnUse"
       id="clipPath833">
      <rect
         style="fill:none"
         y="0"
         x="0"
         width="48"
         height="48"
         id="rect835" />
    </clipPath>
  </defs>
  <g
     clip-path="url(#clipPath833)"
     id="g21"
     transform="matrix(0.66667151,0,0,0.66667151,0.00110715,-8.9274798e-4)">
    <linearGradient
       id="_lgradient_34"
       x1="-0.046328004"
       y1="0.15974073"
       x2="0.85220069"
       y2="0.71023709"
       gradientTransform="matrix(45,0,0,30.763,1.229,15.445)"
       gradientUnits="userSpaceOnUse">
      <stop
         offset="3.0434782608695654%"
         stop-opacity="1"
         style="stop-color:#82ABAA"
         id="stop7" />
      <stop
         offset="98.26086956521739%"
         stop-opacity="1"
         style="stop-color:#82ABAA"
         id="stop9" />
    </linearGradient>
    <path
       d="m 1.545,46.208 44.378,-0.01 c 0.169,0 0.306,-0.137 0.306,-0.306 v -30.12 c 0,-0.169 -0.137,-0.306 -0.306,-0.307 l -25.816,-0.02 -4.221,3.206 c -0.068,0.051 -0.191,0.092 -0.276,0.092 L 1.229,18.688 1.238,45.902 c 0,0.169 0.138,0.306 0.307,0.306 z"
       stroke-miterlimit="3"
       id="path12"
       inkscape:connector-curvature="0"
       style="vector-effect:non-scaling-stroke;fill:url(#_lgradient_34);stroke:#698989;stroke-width:1;stroke-linecap:square;stroke-linejoin:miter;stroke-miterlimit:3" />
    <linearGradient
       id="_lgradient_35"
       x1="0"
       y1="0.5"
       x2="1"
       y2="0.5"
       gradientTransform="matrix(18.873,0,0,6.535,1.243,12.208)"
       gradientUnits="userSpaceOnUse">
      <stop
         offset="3.0434782608695654%"
         stop-opacity="1"
         style="stop-color:#82ABAA"
         id="stop14" />
      <stop
         offset="98.26086956521739%"
         stop-opacity="1"
         style="stop-color:#82ABAA"
         id="stop16" />
    </linearGradient>
    <path
       d="M 20.116,15.456 15.887,12.3 C 15.819,12.249 15.695,12.208 15.61,12.208 H 1.554 c -0.169,0 -0.307,0.138 -0.307,0.307 l -0.004,6.168 14.557,0.06 z"
       stroke-miterlimit="3"
       id="path19"
       inkscape:connector-curvature="0"
       style="vector-effect:non-scaling-stroke;fill:url(#_lgradient_35);stroke:#698989;stroke-width:1;stroke-linecap:square;stroke-linejoin:miter;stroke-miterlimit:3" />
    <path
       inkscape:connector-curvature="0"
       style="fill:#4e6766"
       d="m 28.778758,23.8 c -2.96,0 -3.517,4 -1.85,4 1.664,0 4.812,-4 1.85,-4 z m -4.549,1 c -0.047,0 -0.099,0.005 -0.151,0.01 -1.695,0.204 -1.1,2.939 -0.197,2.99 0.873,0.05 1.829,-2.992 0.349,-3 z m -3.09,1 c -0.121,-0.005 -0.256,0.011 -0.405,0.049 -1.586,0.401 -0.241,2.057 0.647,1.945 0.806,-0.101 0.923,-1.947 -0.242,-1.994 z m -2.211,2 c -0.142,-0.002 -0.296,0.029 -0.459,0.105 -1.304,0.616 0.44,2.102 1.207,1.872 0.671,-0.202 0.243,-1.954 -0.748,-1.977 z m 6.082,1 c -2.334,-0.037 -5.412,1.065 -5.938,3.279 -0.568,2.397 2.343,5.721 5.377,5.721 1.493,0 3.215,-0.671 3.537,-2.279 0.245,-1.226 -3.091,-0.698 -2.978,0.113 0.135,0.973 -0.563,0.818 -1.438,0.191 -2.57,-2.025 4.61,-2.991 4.123,-5.718 -0.151,-0.849 -1.283,-1.283 -2.683,-1.305 z"
       id="path14" />
  </g>
</svg>
