<?xml version="1.0" encoding="UTF-8" standalone="no"?>
<!-- Generator: Gravit.io -->

<svg
   xmlns:dc="http://purl.org/dc/elements/1.1/"
   xmlns:cc="http://creativecommons.org/ns#"
   xmlns:rdf="http://www.w3.org/1999/02/22-rdf-syntax-ns#"
   xmlns:svg="http://www.w3.org/2000/svg"
   xmlns="http://www.w3.org/2000/svg"
   xmlns:xlink="http://www.w3.org/1999/xlink"
   xmlns:sodipodi="http://sodipodi.sourceforge.net/DTD/sodipodi-0.dtd"
   xmlns:inkscape="http://www.inkscape.org/namespaces/inkscape"
   style="isolation:isolate"
   viewBox="0 0 32 32"
   width="32"
   height="32"
   version="1.1"
   id="svg23"
   sodipodi:docname="folder-nordic-music-open.svg"
   inkscape:version="0.92.4 5da689c313, 2019-01-14">
  <metadata
     id="metadata27">
    <rdf:RDF>
      <cc:Work
         rdf:about="">
        <dc:format>image/svg+xml</dc:format>
        <dc:type
           rdf:resource="http://purl.org/dc/dcmitype/StillImage" />
      </cc:Work>
    </rdf:RDF>
  </metadata>
  <sodipodi:namedview
     pagecolor="#ffffff"
     bordercolor="#666666"
     borderopacity="1"
     objecttolerance="10"
     gridtolerance="10"
     guidetolerance="10"
     inkscape:pageopacity="0"
     inkscape:pageshadow="2"
     inkscape:window-width="895"
     inkscape:window-height="668"
     id="namedview25"
     showgrid="false"
     inkscape:zoom="5.5"
     inkscape:cx="24"
     inkscape:cy="24.181818"
     inkscape:window-x="559"
     inkscape:window-y="301"
     inkscape:window-maximized="0"
     inkscape:current-layer="svg23"
     inkscape:snap-global="false"
     showguides="false" />
  <defs
     id="defs5">
    <linearGradient
       id="_lgradient_35-5"
       x1="1.0569526"
       y1="1.164638"
       x2="2.0212493"
       y2="0.70254338"
       gradientTransform="matrix(18.877654,0,0,8.5776341,1.4464341,17.416196)"
       gradientUnits="userSpaceOnUse">
      <stop
         offset="0.31479162"
         stop-opacity="1"
         style="stop-color:#82ABAA"
         id="stop14-9" />
      <stop
         offset="0.66162944"
         stop-opacity="1"
         style="stop-color:#82ABAA"
         id="stop16-7" />
    </linearGradient>
    <clipPath
       clipPathUnits="userSpaceOnUse"
       id="clipPath836">
      <rect
         id="rect838"
         height="48"
         width="48"
         x="0"
         y="0"
         style="fill:none" />
    </clipPath>
  </defs>
  <g
     clip-path="url(#clipPath836)"
     id="g21"
     transform="matrix(0.6614424,0,0,0.6614424,0.00493052,0.24335262)">
    <linearGradient
       id="_lgradient_34"
       x1="0.41166824"
       y1="0.00010054788"
       x2="0.41033676"
       y2="0.86212933"
       gradientTransform="matrix(45.42911,0,0,26.613237,1.1962636,19.627487)"
       gradientUnits="userSpaceOnUse"
       xlink:href="#_lgradient_35-5">
      <stop
         offset="0.41096842"
         stop-opacity="1"
         style="stop-color:#7ba3a2;stop-opacity:1"
         id="stop7" />
      <stop
         offset="98.26086956521739%"
         stop-opacity="1"
         style="stop-color:#82ABAA"
         id="stop9" />
    </linearGradient>
    <linearGradient
       id="_lgradient_35"
       x1="0.4859741"
       y1="3.1150997"
       x2="0.44406784"
       y2="-0.0087129287"
       gradientTransform="matrix(18.711492,0,0,6.7851198,1.5197168,11.850823)"
       gradientUnits="userSpaceOnUse">
      <stop
         offset="0.51641214"
         stop-opacity="1"
         style="stop-color:#82abaa;stop-opacity:1"
         id="stop14" />
      <stop
         offset="98.26086956521739%"
         stop-opacity="1"
         style="stop-color:#a8cccb;stop-opacity:1"
         id="stop16" />
    </linearGradient>
    <path
       d="M 46.306476,16.756323 21.867724,16.644979 C 18.911849,14.392105 15.848042,11.850822 15.763769,11.850822 H 1.8280551 c -0.1675537,0 -0.3043729,0.143281 -0.3043729,0.31875 l 0.1710922,33.811445 44.5750236,-0.03836 z"
       stroke-miterlimit="3"
       id="path19"
       inkscape:connector-curvature="0"
       style="vector-effect:non-scaling-stroke;fill:url(#_lgradient_35);stroke:#698989;stroke-width:1.01458776;stroke-linecap:square;stroke-linejoin:miter;stroke-miterlimit:3"
       sodipodi:nodetypes="ccsscccc" />
    <path
       d="m 1.5152768,46.240727 44.8011792,-0.0086 c 0.170611,0 0.308918,-0.11852 0.308918,-0.264721 V 19.910378 c 0,-0.146201 -0.138307,-0.264722 -0.308918,-0.265587 l -26.062176,-0.0173 -4.26125,2.773527 c -0.06866,0.04411 -0.192821,0.07959 -0.278632,0.07959 L 1.1962636,22.433021 1.2053416,45.976 c 0,0.146203 0.139316,0.264722 0.3099276,0.264722 z"
       stroke-miterlimit="3"
       id="path12"
       inkscape:connector-curvature="0"
       style="vector-effect:non-scaling-stroke;fill:url(#_lgradient_34);fill-opacity:1;stroke:#698989;stroke-width:0.93453455;stroke-linecap:square;stroke-linejoin:miter;stroke-miterlimit:3" />
    <path
       d="m 31.135,26.054505 c -0.073,-0.05165 -0.169,-0.07506 -0.267,-0.06618 l -10.485,1.095207 c -0.169,0.01775 -0.295,0.133168 -0.295,0.270371 v 1.642407 1.150088 6.929582 C 19.471,36.47632 18.489,36.086501 17.382,36.086501 15.517,36.086501 14,37.188971 14,38.54325 14,39.898336 15.517,41 17.382,41 c 1.865,0 3.383,-1.101664 3.383,-2.45675 0,-0.06295 -0.007,-0.125097 -0.013,-0.187242 0.004,-0.01775 0.013,-0.0339 0.013,-0.05246 v -7.917447 l 9.809,-1.024184 v 4.983715 c -0.618,-0.598853 -1.599,-0.988672 -2.706,-0.988672 -1.865,0 -3.383,1.101663 -3.383,2.456749 0,1.355086 1.518,2.456749 3.383,2.456749 1.848,0 3.353,-1.082293 3.38,-2.420431 0,-0.0032 0.002,-0.0065 0.002,-0.01049 v -6.788343 -1.14928 -1.642407 c 0,-0.07909 -0.042,-0.153345 -0.115,-0.204998 z M 17.382,40.454414 c -1.492,0 -2.706,-0.85712 -2.706,-1.911165 0,-1.053238 1.214,-1.910356 2.706,-1.910356 1.492,0 2.706,0.857118 2.706,1.910356 0,1.054045 -1.214,1.911165 -2.706,1.911165 z m 10.486,-2.729543 c -1.492,0 -2.706,-0.857926 -2.706,-1.911164 0,-1.053238 1.214,-1.911163 2.706,-1.911163 1.492,0 2.706,0.857925 2.706,1.911163 0,1.053238 -1.214,1.911164 -2.706,1.911164 z m -7.103,-7.8892 v -0.839362 -1.402704 l 9.809,-1.024183 v 1.332488 0.909577 z"
       id="path21"
       inkscape:connector-curvature="0"
       style="isolation:isolate;fill:#4e6766;stroke-width:0.89837593" />
  </g>
</svg>
