<svg xmlns="http://www.w3.org/2000/svg" style="isolation:isolate" width="48" height="48"><defs><clipPath clipPathUnits="userSpaceOnUse" id="a"><path fill="none" d="M0 0h48v48H0z"/></clipPath></defs><g clip-path="url(#a)"><linearGradient id="b" x1="-.046" y1=".16" x2=".852" y2=".71" gradientTransform="matrix(45 0 0 30.763 1.229 15.445)" gradientUnits="userSpaceOnUse"><stop offset="3.043%" stop-color="#82abaa"/><stop offset="98.261%" stop-color="#82abaa"/></linearGradient><path d="M1.545 46.208l44.378-.01a.306.306 0 0 0 .306-.306v-30.12a.307.307 0 0 0-.306-.307l-25.816-.02-4.221 3.206a.535.535 0 0 1-.276.092l-14.381-.055.009 27.214c0 .169.138.306.307.306z" stroke-miterlimit="3" vector-effect="non-scaling-stroke" fill="url(#b)" stroke="#698989" stroke-linecap="square"/><linearGradient id="c" x1="0" y1=".5" x2="1" y2=".5" gradientTransform="matrix(18.873 0 0 6.535 1.243 12.208)" gradientUnits="userSpaceOnUse"><stop offset="3.043%" stop-color="#82abaa"/><stop offset="98.261%" stop-color="#82abaa"/></linearGradient><path d="M20.116 15.456L15.887 12.3a.538.538 0 0 0-.277-.092H1.554a.308.308 0 0 0-.307.307l-.004 6.168 14.557.06z" stroke-miterlimit="3" vector-effect="non-scaling-stroke" fill="url(#c)" stroke="#698989" stroke-linecap="square"/><path d="M19.785 25.002c-.24 0-.52.07-.81.221-1.03.551-1.99 2.334-2.51 4.659-.44 1.984-.6 4.679-.34 5.763.23.942.63 1.355 1.34 1.355 1.04-.02 2.35-1.185 3.19-2.759.6-.872 2-1.263 3.35-1.223 1.34-.05 2.74.351 3.34 1.223.84 1.574 2.15 2.739 3.2 2.759.7 0 1.1-.413 1.33-1.355.26-1.084.1-3.779-.34-5.763-.52-2.325-1.48-4.108-2.51-4.659-.57-.311-1.04-.301-1.46 0-.53.381-1.63.78-3.56.78-1.94 0-3.04-.399-3.57-.78a1.058 1.058 0 0 0-.65-.221zm.25 3.006h.99v1.002h.99v1.002h-.99v1.002h-.99v-1.002h-.99V29.01h.99zm7.44 0c.27 0 .49.22.49.501a.494.494 0 1 1-.99 0c0-.281.22-.501.5-.501zm-.99 1.002c.27 0 .49.22.49.501a.494.494 0 1 1-.99 0c0-.281.22-.501.5-.501zm1.98 0c.27 0 .49.22.49.501a.494.494 0 1 1-.99 0c0-.281.22-.501.5-.501zm-.99 1.002c.27 0 .49.22.49.501a.494.494 0 1 1-.99 0c0-.281.22-.501.5-.501z" fill="#4e6766"/></g></svg>