<svg xmlns="http://www.w3.org/2000/svg" width="48" height="48" version="1"><path d="M11 10h26c2 0 5 11 5 17.5S40 45 37 45H11c-3 0-5-11-5-17.5S9 10 11 10z" opacity=".2"/><path d="M11 9h26c2 0 5 11 5 17.5S40 44 37 44H11c-3 0-5-11-5-17.5S9 9 11 9z" fill="#7492a2"/><path fill="#9aabb4" d="M18 4h12v4H18z"/><rect width="36" height="8" x="6" y="7" rx="2" ry="2" opacity=".2"/><rect width="36" height="8" x="6" y="6" rx="2" ry="2" fill="#5d7e90"/><path d="M32 21s1 4 1 8-1 8-1 8m-8-16v16m-8-16s-1 4-1 8 1 8 1 8" opacity=".3" fill="none" stroke="#000" stroke-width="4" stroke-linecap="round"/><path d="M8 6c-1.108 0-2 .892-2 2v1c0-1.108.892-2 2-2h32c1.108 0 2 .892 2 2V8c0-1.108-.892-2-2-2H8z" fill="#fff" opacity=".2"/></svg>