<?xml version="1.0" encoding="UTF-8" standalone="no"?>
<!-- Generator: Gravit.io -->

<svg
   xmlns:dc="http://purl.org/dc/elements/1.1/"
   xmlns:cc="http://creativecommons.org/ns#"
   xmlns:rdf="http://www.w3.org/1999/02/22-rdf-syntax-ns#"
   xmlns:svg="http://www.w3.org/2000/svg"
   xmlns="http://www.w3.org/2000/svg"
   xmlns:sodipodi="http://sodipodi.sourceforge.net/DTD/sodipodi-0.dtd"
   xmlns:inkscape="http://www.inkscape.org/namespaces/inkscape"
   style="isolation:isolate"
   viewBox="0 0 32 32"
   width="32"
   height="32"
   version="1.1"
   id="svg25"
   sodipodi:docname="folder-nordic-music.svg"
   inkscape:version="0.92.4 5da689c313, 2019-01-14">
  <metadata
     id="metadata29">
    <rdf:RDF>
      <cc:Work
         rdf:about="">
        <dc:format>image/svg+xml</dc:format>
        <dc:type
           rdf:resource="http://purl.org/dc/dcmitype/StillImage" />
      </cc:Work>
    </rdf:RDF>
  </metadata>
  <sodipodi:namedview
     pagecolor="#ffffff"
     bordercolor="#666666"
     borderopacity="1"
     objecttolerance="10"
     gridtolerance="10"
     guidetolerance="10"
     inkscape:pageopacity="0"
     inkscape:pageshadow="2"
     inkscape:window-width="878"
     inkscape:window-height="620"
     id="namedview27"
     showgrid="false"
     inkscape:zoom="4.9166667"
     inkscape:cx="24"
     inkscape:cy="32.135593"
     inkscape:window-x="584"
     inkscape:window-y="264"
     inkscape:window-maximized="0"
     inkscape:current-layer="svg25" />
  <defs
     id="defs5">
    <clipPath
       clipPathUnits="userSpaceOnUse"
       id="clipPath837">
      <rect
         id="rect839"
         height="48"
         width="48"
         x="0"
         y="0"
         style="fill:none" />
    </clipPath>
  </defs>
  <g
     clip-path="url(#clipPath837)"
     id="g23"
     transform="matrix(0.66667151,0,0,0.66667151,0.00110715,-8.9274798e-4)">
    <linearGradient
       id="_lgradient_30"
       x1="-0.046328004"
       y1="0.15974073"
       x2="0.85220069"
       y2="0.71023709"
       gradientTransform="matrix(45,0,0,30.763,1.229,15.445)"
       gradientUnits="userSpaceOnUse">
      <stop
         offset="3.0434782608695654%"
         stop-opacity="1"
         style="stop-color:#88C0D0"
         id="stop7" />
      <stop
         offset="98.26086956521739%"
         stop-opacity="1"
         style="stop-color:#88C0D0"
         id="stop9" />
    </linearGradient>
    <path
       d="m 1.545,46.208 44.378,-0.01 c 0.169,0 0.306,-0.137 0.306,-0.306 v -30.12 c 0,-0.169 -0.137,-0.306 -0.306,-0.307 l -25.816,-0.02 -4.221,3.206 c -0.068,0.051 -0.191,0.092 -0.276,0.092 L 1.229,18.688 1.238,45.902 c 0,0.169 0.138,0.306 0.307,0.306 z"
       stroke-miterlimit="3"
       id="path12"
       inkscape:connector-curvature="0"
       style="vector-effect:non-scaling-stroke;fill:url(#_lgradient_30);stroke:#669eae;stroke-width:1;stroke-linecap:square;stroke-linejoin:miter;stroke-miterlimit:3" />
    <linearGradient
       id="_lgradient_31"
       x1="0"
       y1="0.5"
       x2="1"
       y2="0.5"
       gradientTransform="matrix(18.873,0,0,6.535,1.243,12.208)"
       gradientUnits="userSpaceOnUse">
      <stop
         offset="3.0434782608695654%"
         stop-opacity="1"
         style="stop-color:#88C0D0"
         id="stop14" />
      <stop
         offset="98.26086956521739%"
         stop-opacity="1"
         style="stop-color:#88C0D0"
         id="stop16" />
    </linearGradient>
    <path
       d="M 20.116,15.456 15.887,12.3 C 15.819,12.249 15.695,12.208 15.61,12.208 H 1.554 c -0.169,0 -0.307,0.138 -0.307,0.307 l -0.004,6.168 14.557,0.06 z"
       stroke-miterlimit="3"
       id="path19"
       inkscape:connector-curvature="0"
       style="vector-effect:non-scaling-stroke;fill:url(#_lgradient_31);stroke:#669eae;stroke-width:1;stroke-linecap:square;stroke-linejoin:miter;stroke-miterlimit:3" />
    <path
       d="m 31.385,22.21 c -0.073,-0.064 -0.169,-0.093 -0.267,-0.082 l -10.485,1.357 c -0.169,0.022 -0.295,0.165 -0.295,0.335 v 2.035 1.425 8.586 c -0.617,-0.743 -1.599,-1.226 -2.706,-1.226 -1.865,0 -3.382,1.366 -3.382,3.044 0,1.679 1.517,3.044 3.382,3.044 1.865,0 3.383,-1.365 3.383,-3.044 0,-0.078 -0.007,-0.155 -0.013,-0.232 0.004,-0.022 0.013,-0.042 0.013,-0.065 v -9.81 l 9.809,-1.269 v 6.175 c -0.618,-0.742 -1.599,-1.225 -2.706,-1.225 -1.865,0 -3.383,1.365 -3.383,3.044 0,1.679 1.518,3.044 3.383,3.044 1.848,0 3.353,-1.341 3.38,-2.999 0,-0.004 0.002,-0.008 0.002,-0.013 v -8.411 -1.424 -2.035 c 0,-0.098 -0.042,-0.19 -0.115,-0.254 z M 17.632,40.052 c -1.492,0 -2.706,-1.062 -2.706,-2.368 0,-1.305 1.214,-2.367 2.706,-2.367 1.492,0 2.706,1.062 2.706,2.367 0,1.306 -1.214,2.368 -2.706,2.368 z M 28.118,36.67 c -1.492,0 -2.706,-1.063 -2.706,-2.368 0,-1.305 1.214,-2.368 2.706,-2.368 1.492,0 2.706,1.063 2.706,2.368 0,1.305 -1.214,2.368 -2.706,2.368 z m -7.103,-9.775 v -1.04 -1.738 l 9.809,-1.269 v 1.651 1.127 z"
       id="path21"
       inkscape:connector-curvature="0"
       style="fill:#46636b" />
  </g>
</svg>
