<svg xmlns="http://www.w3.org/2000/svg" width="22" height="22" version="1"><rect width="18" height="12" x="2" y="1" rx=".75" ry=".75" fill="#82abaa"/><rect width="18" height="12" x="2" y="2.5" rx=".75" ry=".75" opacity=".1"/><rect width="18" height="12" x="2" y="3" rx=".75" ry=".75" fill="#a3be8c"/><rect width="18" height="12" x="2" y="4.5" rx=".75" ry=".75" opacity=".1"/><rect width="18" height="12" x="2" y="5" rx=".75" ry=".75" fill="#ebcb8b"/><rect width="20" height="14" x="1" y="7.5" rx="1" ry="1" opacity=".2"/><rect width="20" height="14" x="1" y="7" rx="1" ry="1" fill="#718382"/><rect width="6" height="2" x="8" y="12.5" rx=".5" ry=".5" opacity=".2"/><rect width="6" height="2" x="8" y="12" rx=".5" ry=".5" fill="#ececec"/><path d="M2.75 1a.748.748 0 0 0-.75.75v.5c0-.415.334-.75.75-.75h16.5c.416 0 .75.335.75.75v-.5a.748.748 0 0 0-.75-.75H2.75zM2.75 3a.748.748 0 0 0-.75.75v.5c0-.416.334-.75.75-.75h16.5c.416 0 .75.334.75.75v-.5a.748.748 0 0 0-.75-.75zM2.75 5a.748.748 0 0 0-.75.75v.5c0-.415.334-.75.75-.75h16.5c.416 0 .75.335.75.75v-.5a.748.748 0 0 0-.75-.75z" fill="#fff" opacity=".1"/><g transform="translate(-1 -1)"><circle cx="18" cy="18" r="5" fill="#6ec149"/><path d="M17.223 15l-.066.79a2.357 2.357 0 0 0-.689.399l-.718-.339-.75 1.3.652.452a2.357 2.357 0 0 0-.036.398 2.357 2.357 0 0 0 .034.4l-.65.45.75 1.3.716-.337a2.357 2.357 0 0 0 .69.395l.067.792h1.5l.066-.79a2.357 2.357 0 0 0 .689-.398l.718.338.75-1.3-.652-.452A2.357 2.357 0 0 0 20.33 18a2.357 2.357 0 0 0-.034-.399l.65-.451-.75-1.3-.716.338a2.357 2.357 0 0 0-.69-.395l-.067-.792h-1.5zm.75 2.143a.857.857 0 0 1 .857.857.857.857 0 0 1-.857.857.857.857 0 0 1-.857-.857.857.857 0 0 1 .857-.857z" fill="#fff"/></g></svg>