<?xml version="1.0" encoding="UTF-8" standalone="no"?>
<svg
   xmlns:dc="http://purl.org/dc/elements/1.1/"
   xmlns:cc="http://creativecommons.org/ns#"
   xmlns:rdf="http://www.w3.org/1999/02/22-rdf-syntax-ns#"
   xmlns:svg="http://www.w3.org/2000/svg"
   xmlns="http://www.w3.org/2000/svg"
   xmlns:sodipodi="http://sodipodi.sourceforge.net/DTD/sodipodi-0.dtd"
   xmlns:inkscape="http://www.inkscape.org/namespaces/inkscape"
   width="22"
   height="22"
   version="1"
   id="svg26"
   sodipodi:docname="file-manager.svg"
   inkscape:version="0.92.4 5da689c313, 2019-01-14">
  <metadata
     id="metadata32">
    <rdf:RDF>
      <cc:Work
         rdf:about="">
        <dc:format>image/svg+xml</dc:format>
        <dc:type
           rdf:resource="http://purl.org/dc/dcmitype/StillImage" />
      </cc:Work>
    </rdf:RDF>
  </metadata>
  <defs
     id="defs30" />
  <sodipodi:namedview
     pagecolor="#ffffff"
     bordercolor="#666666"
     borderopacity="1"
     objecttolerance="10"
     gridtolerance="10"
     guidetolerance="10"
     inkscape:pageopacity="0"
     inkscape:pageshadow="2"
     inkscape:window-width="640"
     inkscape:window-height="515"
     id="namedview28"
     showgrid="false"
     inkscape:zoom="10.727273"
     inkscape:cx="11"
     inkscape:cy="11"
     inkscape:window-x="0"
     inkscape:window-y="27"
     inkscape:window-maximized="0"
     inkscape:current-layer="svg26" />
  <rect
     style="fill:#82abaa;fill-opacity:1"
     width="18"
     height="12"
     x="2"
     y="1"
     rx=".75"
     ry=".75"
     id="rect2" />
  <rect
     style="opacity:0.1"
     width="18"
     height="12"
     x="2"
     y="2.5"
     rx=".75"
     ry=".75"
     id="rect4" />
  <rect
     style="fill:#a3be8c;fill-opacity:1"
     width="18"
     height="12"
     x="2"
     y="3"
     rx=".75"
     ry=".75"
     id="rect6" />
  <rect
     style="opacity:0.1"
     width="18"
     height="12"
     x="2"
     y="4.5"
     rx=".75"
     ry=".75"
     id="rect8" />
  <rect
     style="fill:#ebcb8b;fill-opacity:1"
     width="18"
     height="12"
     x="2"
     y="5"
     rx=".75"
     ry=".75"
     id="rect10" />
  <rect
     style="opacity:0.2"
     width="20"
     height="14"
     x="1"
     y="7.5"
     rx="1"
     ry="1"
     id="rect12" />
  <rect
     style="fill:#718382;fill-opacity:1"
     width="20"
     height="14"
     x="1"
     y="7"
     rx="1"
     ry="1"
     id="rect14" />
  <rect
     style="opacity:0.2"
     width="6"
     height="2"
     x="8"
     y="12.5"
     rx=".5"
     ry=".5"
     id="rect16" />
  <rect
     style="fill:#ececec"
     width="6"
     height="2"
     x="8"
     y="12"
     rx=".5"
     ry=".5"
     id="rect18" />
  <path
     style="fill:#ffffff;opacity:0.1"
     d="M 2.75 1 C 2.3345 1 2 1.3345 2 1.75 L 2 2.25 C 2 1.8345 2.3345 1.5 2.75 1.5 L 19.25 1.5 C 19.666 1.5 20 1.8345 20 2.25 L 20 1.75 C 20 1.3345 19.666 1 19.25 1 L 2.75 1 z"
     id="path20" />
  <path
     style="opacity:0.1;fill:#ffffff"
     d="M 2.75,3 C 2.3345,3 2,3.3345 2,3.75 V 4.25 C 2,3.8345 2.3345,3.5 2.75,3.5 H 19.25 C 19.666,3.5 20,3.8345 20,4.25 V 3.75 C 20,3.3345 19.666,3 19.25,3 Z"
     id="path22" />
  <path
     style="opacity:0.1;fill:#ffffff"
     d="M 2.75,5 C 2.3345,5 2,5.3345 2,5.75 V 6.25 C 2,5.8345 2.3345,5.5 2.75,5.5 H 19.25 C 19.666,5.5 20,5.8345 20,6.25 V 5.75 C 20,5.3345 19.666,5 19.25,5 Z"
     id="path24" />
</svg>
