<?xml version="1.0" encoding="UTF-8" standalone="no"?>
<!-- Generator: Gravit.io -->

<svg
   xmlns:dc="http://purl.org/dc/elements/1.1/"
   xmlns:cc="http://creativecommons.org/ns#"
   xmlns:rdf="http://www.w3.org/1999/02/22-rdf-syntax-ns#"
   xmlns:svg="http://www.w3.org/2000/svg"
   xmlns="http://www.w3.org/2000/svg"
   xmlns:sodipodi="http://sodipodi.sourceforge.net/DTD/sodipodi-0.dtd"
   xmlns:inkscape="http://www.inkscape.org/namespaces/inkscape"
   style="isolation:isolate"
   viewBox="0 0 22 22"
   width="22"
   height="22"
   version="1.1"
   id="svg23"
   sodipodi:docname="folder-nordic-linux.svg"
   inkscape:version="0.92.4 5da689c313, 2019-01-14">
  <metadata
     id="metadata27">
    <rdf:RDF>
      <cc:Work
         rdf:about="">
        <dc:format>image/svg+xml</dc:format>
        <dc:type
           rdf:resource="http://purl.org/dc/dcmitype/StillImage" />
      </cc:Work>
    </rdf:RDF>
  </metadata>
  <sodipodi:namedview
     pagecolor="#ffffff"
     bordercolor="#666666"
     borderopacity="1"
     objecttolerance="10"
     gridtolerance="10"
     guidetolerance="10"
     inkscape:pageopacity="0"
     inkscape:pageshadow="2"
     inkscape:window-width="989"
     inkscape:window-height="654"
     id="namedview25"
     showgrid="false"
     inkscape:zoom="4.9166667"
     inkscape:cx="24"
     inkscape:cy="24.70877"
     inkscape:window-x="508"
     inkscape:window-y="225"
     inkscape:window-maximized="0"
     inkscape:current-layer="svg23"
     inkscape:snap-nodes="false" />
  <defs
     id="defs5">
    <clipPath
       clipPathUnits="userSpaceOnUse"
       id="clipPath831">
      <rect
         id="rect833"
         height="48"
         width="48"
         x="0"
         y="0"
         style="fill:none" />
    </clipPath>
  </defs>
  <g
     clip-path="url(#clipPath831)"
     id="g21"
     transform="matrix(0.45832443,0,0,0.45832615,-0.0010415,0.00150178)">
    <linearGradient
       id="_lgradient_34"
       x1="-0.046328004"
       y1="0.15974073"
       x2="0.85220069"
       y2="0.71023709"
       gradientTransform="matrix(45,0,0,30.763,1.229,15.445)"
       gradientUnits="userSpaceOnUse">
      <stop
         offset="3.0434782608695654%"
         stop-opacity="1"
         style="stop-color:#82ABAA"
         id="stop7" />
      <stop
         offset="98.26086956521739%"
         stop-opacity="1"
         style="stop-color:#82ABAA"
         id="stop9" />
    </linearGradient>
    <path
       d="m 1.545,46.208 44.378,-0.01 c 0.169,0 0.306,-0.137 0.306,-0.306 v -30.12 c 0,-0.169 -0.137,-0.306 -0.306,-0.307 l -25.816,-0.02 -4.221,3.206 c -0.068,0.051 -0.191,0.092 -0.276,0.092 L 1.229,18.688 1.238,45.902 c 0,0.169 0.138,0.306 0.307,0.306 z"
       stroke-miterlimit="3"
       id="path12"
       inkscape:connector-curvature="0"
       style="vector-effect:non-scaling-stroke;fill:url(#_lgradient_34);stroke:#698989;stroke-width:1;stroke-linecap:square;stroke-linejoin:miter;stroke-miterlimit:3" />
    <linearGradient
       id="_lgradient_35"
       x1="0"
       y1="0.5"
       x2="1"
       y2="0.5"
       gradientTransform="matrix(18.873,0,0,6.535,1.243,12.208)"
       gradientUnits="userSpaceOnUse">
      <stop
         offset="3.0434782608695654%"
         stop-opacity="1"
         style="stop-color:#82ABAA"
         id="stop14" />
      <stop
         offset="98.26086956521739%"
         stop-opacity="1"
         style="stop-color:#82ABAA"
         id="stop16" />
    </linearGradient>
    <path
       d="M 20.116,15.456 15.887,12.3 C 15.819,12.249 15.695,12.208 15.61,12.208 H 1.554 c -0.169,0 -0.307,0.138 -0.307,0.307 l -0.004,6.168 14.557,0.06 z"
       stroke-miterlimit="3"
       id="path19"
       inkscape:connector-curvature="0"
       style="vector-effect:non-scaling-stroke;fill:url(#_lgradient_35);stroke:#698989;stroke-width:1;stroke-linecap:square;stroke-linejoin:miter;stroke-miterlimit:3" />
    <path
       inkscape:connector-curvature="0"
       style="fill:#4e6766;fill-opacity:1;fill-rule:evenodd;stroke:none;stroke-width:0.84591722"
       id="Page-1"
       d="m 28.149135,34.564698 c 0,-0.102499 -0.156601,-0.222076 -0.469807,-0.358777 0.0228,-0.08538 0.04411,-0.163667 0.06407,-0.234875 0.0199,-0.07117 0.03418,-0.145206 0.04268,-0.222082 0.0087,-0.07688 0.01697,-0.138122 0.02563,-0.183648 0.0087,-0.04536 0.01004,-0.109653 0.0039,-0.192202 -0.0056,-0.08255 -0.0087,-0.138114 -0.0087,-0.166573 0,-0.02834 -0.01004,-0.09111 -0.02988,-0.187889 -0.0199,-0.09684 -0.0313,-0.155183 -0.03419,-0.175142 -0.0028,-0.01985 -0.01697,-0.09111 -0.04269,-0.213514 -0.02562,-0.122458 -0.04126,-0.197925 -0.047,-0.226387 -0.05695,-0.273338 -0.190764,-0.566569 -0.401466,-0.879818 -0.210698,-0.313193 -0.415693,-0.526709 -0.615012,-0.640618 0.136675,0.113909 0.298966,0.350213 0.486892,0.70899 0.495424,0.922506 0.649171,1.714047 0.461258,2.374625 -0.06265,0.227747 -0.20501,0.347326 -0.427096,0.35871 -0.176532,0.02268 -0.286154,-0.03004 -0.328856,-0.157993 -0.04269,-0.128157 -0.06549,-0.365883 -0.06833,-0.713257 -0.0028,-0.347375 -0.03561,-0.652012 -0.09824,-0.913946 -0.05124,-0.222084 -0.106767,-0.418535 -0.166558,-0.589421 -0.05979,-0.170825 -0.115319,-0.300379 -0.166567,-0.388654 -0.05126,-0.08821 -0.09539,-0.15801 -0.132396,-0.20927 -0.03703,-0.05103 -0.07403,-0.09395 -0.111047,-0.128127 -0.03702,-0.03402 -0.05836,-0.05387 -0.06406,-0.05976 -0.07972,-0.353057 -0.167988,-0.646338 -0.264792,-0.879819 -0.09681,-0.233472 -0.180808,-0.392904 -0.251975,-0.478351 -0.07119,-0.08538 -0.138108,-0.179385 -0.200744,-0.281898 -0.06264,-0.10244 -0.105348,-0.216346 -0.12812,-0.341647 -0.0228,-0.119574 -0.0056,-0.271921 0.05125,-0.456972 0.05695,-0.185057 0.06977,-0.326005 0.03845,-0.422844 -0.03136,-0.09678 -0.158053,-0.167992 -0.380146,-0.213518 -0.08541,-0.01693 -0.212113,-0.06832 -0.380101,-0.153762 -0.16799,-0.08544 -0.269064,-0.130973 -0.303233,-0.136641 -0.04553,-0.0055 -0.07689,-0.07977 -0.09397,-0.222137 -0.01697,-0.142362 0.0056,-0.287563 0.06835,-0.435599 0.06263,-0.148093 0.16514,-0.22497 0.307492,-0.23064 0.210707,-0.01693 0.355912,0.06832 0.435638,0.256269 0.07974,0.187889 0.09112,0.353045 0.03419,0.495414 -0.06264,0.108175 -0.06834,0.183638 -0.01697,0.22633 0.05125,0.04253 0.136672,0.04423 0.256258,0.0055 0.07402,-0.02268 0.111031,-0.125239 0.111031,-0.307461 v -0.316035 c -0.02846,-0.170831 -0.0669,-0.313192 -0.115308,-0.427098 -0.04843,-0.1139 -0.108203,-0.200705 -0.179375,-0.260519 -0.07118,-0.05981 -0.138101,-0.102508 -0.200741,-0.128136 -0.06263,-0.02551 -0.139507,-0.04706 -0.230618,-0.06407 -0.609322,0.04536 -0.862728,0.427092 -0.760223,1.144586 0,0.08544 -0.0028,0.128139 -0.0087,0.128139 -0.05124,-0.05103 -0.135237,-0.08113 -0.251978,-0.08969 -0.116733,-0.0086 -0.210697,-0.0068 -0.281879,0.0055 -0.07118,0.01137 -0.115316,0 -0.132398,-0.04252 0.0057,-0.324586 -0.03986,-0.580797 -0.136667,-0.768748 -0.09681,-0.187949 -0.224933,-0.28473 -0.38438,-0.290456 -0.153756,-0.0055 -0.271917,0.07263 -0.35449,0.234889 -0.08257,0.162324 -0.129545,0.331737 -0.140936,0.508285 -0.0057,0.08539 0.004,0.19073 0.02988,0.31603 0.02563,0.125301 0.06264,0.232058 0.111041,0.320337 0.04842,0.08822 0.09254,0.126654 0.132402,0.115319 0.05695,-0.01693 0.102502,-0.05698 0.136668,-0.119628 0.02279,-0.05103 0.0028,-0.07399 -0.05979,-0.06832 -0.03986,0 -0.08399,-0.04139 -0.132398,-0.123821 -0.04842,-0.08261 -0.07545,-0.17797 -0.08115,-0.286205 -0.0057,-0.125245 0.01996,-0.230591 0.07688,-0.316028 0.05695,-0.08538 0.15375,-0.125301 0.290417,-0.119573 0.09681,0 0.173684,0.05976 0.23063,0.179389 0.05695,0.119572 0.08399,0.230583 0.08115,0.333095 -0.0028,0.102507 -0.0071,0.165155 -0.01282,0.18794 -0.125277,0.08539 -0.213548,0.168 -0.264796,0.247713 -0.04553,0.06831 -0.123853,0.135222 -0.2349,0.200701 -0.111039,0.06555 -0.169409,0.101094 -0.175106,0.10682 -0.07402,0.07972 -0.118162,0.156596 -0.132398,0.230587 -0.01423,0.07404 0.0071,0.125296 0.06406,0.15376 0.07972,0.04536 0.150903,0.101092 0.213547,0.16657 0.06264,0.06549 0.108195,0.119575 0.136668,0.162326 0.02846,0.04253 0.08115,0.07971 0.158025,0.111013 0.07687,0.03118 0.177953,0.0499 0.30323,0.05556 0.267648,0.01137 0.558065,-0.03118 0.871263,-0.12813 0.01143,-0.0055 0.07688,-0.02551 0.196462,-0.05976 0.119582,-0.03402 0.217822,-0.06408 0.294695,-0.0897 0.07687,-0.02551 0.160874,-0.06265 0.251985,-0.111072 0.09112,-0.04819 0.150907,-0.09819 0.179384,-0.149453 0.05124,-0.07971 0.108185,-0.102505 0.170824,-0.06831 0.02846,0.01693 0.04701,0.04139 0.05551,0.07257 0.0087,0.03118 0,0.06549 -0.02563,0.102501 -0.02561,0.03686 -0.0726,0.06407 -0.140927,0.08114 -0.1139,0.03401 -0.274762,0.09541 -0.482609,0.183637 -0.207856,0.08828 -0.337412,0.143842 -0.388657,0.166571 -0.250562,0.108236 -0.449872,0.173724 -0.597935,0.19645 -0.142365,0.02835 -0.367292,0.02269 -0.674802,-0.01693 -0.05695,-0.01137 -0.08257,-0.0055 -0.07688,0.01693 0.0057,0.02269 0.05409,0.07689 0.145211,0.162325 0.142365,0.130975 0.333132,0.193619 0.572301,0.1879 0.09681,-0.0056 0.199311,-0.02552 0.307507,-0.05976 0.108195,-0.03402 0.210696,-0.07404 0.307509,-0.119572 0.0968,-0.04536 0.19218,-0.09543 0.286156,-0.149507 0.09395,-0.05387 0.179378,-0.10251 0.256249,-0.145205 0.07687,-0.04253 0.146633,-0.07688 0.209273,-0.10251 0.06264,-0.02551 0.11246,-0.03288 0.149481,-0.02154 0.03701,0.01137 0.06122,0.04251 0.07261,0.09395 0,0.01137 -0.0028,0.02438 -0.0087,0.03856 -0.0055,0.01415 -0.01697,0.02834 -0.03418,0.04251 -0.01697,0.01415 -0.0342,0.02722 -0.05126,0.03856 -0.01697,0.01137 -0.04127,0.02552 -0.07261,0.04252 -0.0313,0.01693 -0.05694,0.03005 -0.07687,0.03854 -0.01989,0.0086 -0.04842,0.02269 -0.08541,0.04253 -0.03703,0.01984 -0.06407,0.03288 -0.08115,0.03856 -0.159441,0.07971 -0.35163,0.205007 -0.576569,0.37584 -0.224933,0.170818 -0.414281,0.293282 -0.568031,0.367329 -0.153755,0.07399 -0.293269,0.07683 -0.418551,0.0086 -0.119585,-0.06265 -0.298961,-0.2705 -0.538136,-0.623557 -0.125276,-0.176542 -0.196459,-0.239202 -0.213541,-0.187938 -0.0057,0.01693 -0.0086,0.04536 -0.0086,0.08544 0,0.142369 -0.04269,0.303218 -0.128128,0.482606 -0.08542,0.179387 -0.169415,0.337392 -0.251982,0.474031 -0.08257,0.136703 -0.142365,0.301859 -0.179383,0.495482 -0.03702,0.193551 -0.004,0.37294 0.09823,0.538095 -0.130975,0.03403 -0.308929,0.290406 -0.533861,0.768755 -0.224937,0.478348 -0.360181,0.879822 -0.405736,1.204404 -0.0114,0.102502 -0.01565,0.298959 -0.01282,0.589374 0.0028,0.29044 -0.01282,0.458432 -0.047,0.503975 -0.04553,0.136689 -0.12813,0.145179 -0.247714,0.0255 -0.182222,-0.176485 -0.284724,-0.44415 -0.307504,-0.802937 -0.0114,-0.159424 0,-0.318864 0.03419,-0.47829 0.02279,-0.108238 0.0199,-0.159484 -0.0086,-0.153766 l -0.03419,0.04253 c -0.205003,0.37011 -0.17653,0.842789 0.08542,1.417914 0.02846,0.06833 0.09966,0.148046 0.213548,0.239155 0.113892,0.09111 0.182222,0.148087 0.205003,0.170888 0.113892,0.130969 0.410001,0.38859 0.888344,0.772996 0.478343,0.384395 0.743138,0.602237 0.794392,0.653431 0.09111,0.08544 0.140936,0.193613 0.14948,0.324582 0.0086,0.131022 -0.0313,0.253451 -0.119584,0.367331 -0.08827,0.113922 -0.217817,0.179396 -0.388655,0.196457 0.04553,0.08544 0.128129,0.212103 0.247714,0.380111 0.119584,0.16798 0.199305,0.321727 0.239168,0.461277 0.03986,0.139529 0.05979,0.340229 0.05979,0.602179 0.261949,-0.136655 0.281878,-0.398642 0.05979,-0.785825 -0.02279,-0.04536 -0.05267,-0.09111 -0.08969,-0.136693 -0.03702,-0.04537 -0.06406,-0.07971 -0.08114,-0.102522 -0.01706,-0.02265 -0.02279,-0.03967 -0.01706,-0.05101 0.01706,-0.02835 0.05409,-0.05557 0.11104,-0.08114 0.05695,-0.02551 0.113892,-0.0187 0.170838,0.02154 0.26195,0.296135 0.73459,0.398639 1.41793,0.307533 0.757389,-0.08545 1.261347,-0.33315 1.511899,-0.743178 0.130981,-0.216344 0.227793,-0.301793 0.290436,-0.25621 0.06832,0.03401 0.09679,0.182216 0.08541,0.444166 -0.0056,0.142347 -0.07117,0.404297 -0.19646,0.785801 -0.05125,0.131031 -0.06833,0.237784 -0.05125,0.320357 0.01697,0.08253 0.08543,0.126703 0.205009,0.132376 0.01697,-0.108197 0.05836,-0.327418 0.123849,-0.657685 0.06548,-0.330312 0.103925,-0.586591 0.115321,-0.768805 0.01143,-0.119577 -0.0072,-0.328854 -0.05551,-0.627807 -0.04841,-0.298955 -0.06976,-0.575121 -0.06405,-0.82855 0.0056,-0.253389 0.07117,-0.454139 0.196457,-0.602187 0.08541,-0.1025 0.230626,-0.153751 0.435629,-0.153751 0.0055,-0.210687 0.103927,-0.361614 0.294693,-0.452721 0.190763,-0.09111 0.397191,-0.120991 0.619279,-0.0897 0.222093,0.03119 0.39292,0.09536 0.512504,0.1922 z m -5.364256,-7.064096 c 0.01706,-0.09678 0.01,-0.182223 -0.02137,-0.25621 -0.0313,-0.07405 -0.06406,-0.116742 -0.09823,-0.128141 -0.05125,-0.01137 -0.07688,0.0086 -0.07688,0.05976 0.0114,0.02835 0.02563,0.04536 0.04269,0.05104 0.05695,0 0.07688,0.04251 0.05979,0.128131 -0.01706,0.113902 0.0057,0.170828 0.06833,0.170828 0.01706,0 0.02563,-0.0086 0.02563,-0.02551 z m 2.058576,-0.136638 c 0,-0.06265 -0.01421,-0.118155 -0.04269,-0.166573 -0.02846,-0.04819 -0.05979,-0.08397 -0.09396,-0.106759 -0.0342,-0.02268 -0.05979,-0.03118 -0.07688,-0.02551 -0.07972,0.0056 -0.09965,0.02551 -0.05978,0.05976 0.01143,0.0055 0.02279,0.01137 0.03419,0.01693 0.07972,0.02268 0.130972,0.11107 0.153751,0.26483 0,0.01693 0.0228,0.01137 0.06833,-0.01693 z m 5.55217,9.673558 c 0.06264,0.07121 0.09681,0.139535 0.102505,0.205028 0.0055,0.06547 -0.0011,0.129551 -0.02139,0.192196 -0.01995,0.06264 -0.06406,0.125298 -0.132397,0.187878 -0.06833,0.06266 -0.135242,0.118226 -0.200731,0.166571 -0.0655,0.04821 -0.150907,0.101093 -0.256255,0.158034 -0.105345,0.05698 -0.195034,0.103914 -0.269066,0.14094 -0.07403,0.03685 -0.165136,0.0812 -0.273333,0.132443 -0.108199,0.05103 -0.18508,0.08821 -0.230637,0.11102 -0.21639,0.108183 -0.45983,0.267652 -0.730318,0.478352 -0.270496,0.210686 -0.485464,0.392902 -0.644916,0.546646 -0.0968,0.0911 -0.290411,0.146645 -0.580837,0.166575 -0.290423,0.01989 -0.543826,-0.02153 -0.760213,-0.123869 -0.102503,-0.05103 -0.186508,-0.118168 -0.251983,-0.200699 -0.0655,-0.08255 -0.112475,-0.155197 -0.140952,-0.217833 -0.02846,-0.06266 -0.09111,-0.118169 -0.187912,-0.166569 -0.09681,-0.04819 -0.230634,-0.07547 -0.401464,-0.08115 -0.250564,-0.0056 -0.620703,-0.0086 -1.110434,-0.0086 -0.108197,0 -0.270488,0.0055 -0.486889,0.01312 -0.216388,0.0086 -0.381529,0.01584 -0.495421,0.02154 -0.25056,0.0057 -0.476914,0.0482 -0.679071,0.128127 -0.202158,0.07971 -0.354485,0.16516 -0.456986,0.256269 -0.102502,0.09111 -0.226361,0.17225 -0.371572,0.243382 -0.145212,0.07121 -0.297539,0.103931 -0.456986,0.09827 -0.16514,-0.0056 -0.481184,-0.09393 -0.948136,-0.264778 -0.466958,-0.170876 -0.882651,-0.293274 -1.247103,-0.367327 -0.108199,-0.0227 -0.25341,-0.04989 -0.435633,-0.08114 -0.182228,-0.03117 -0.324588,-0.0569 -0.427089,-0.07687 -0.102503,-0.01987 -0.214971,-0.04705 -0.337401,-0.08112 -0.122436,-0.03401 -0.217817,-0.07546 -0.286153,-0.123898 -0.06833,-0.04819 -0.116739,-0.103904 -0.145212,-0.166579 -0.05695,-0.130954 -0.03702,-0.320277 0.05979,-0.56799 0.09681,-0.247749 0.148058,-0.40288 0.15375,-0.465526 0.0057,-0.09111 -0.0057,-0.205021 -0.03419,-0.34171 -0.02846,-0.136641 -0.05694,-0.257627 -0.08542,-0.363028 -0.02846,-0.105342 -0.04127,-0.209255 -0.03844,-0.311781 0.0028,-0.102497 0.03277,-0.17931 0.08969,-0.230577 0.07973,-0.06838 0.242015,-0.108233 0.486881,-0.119619 0.244867,-0.01137 0.415699,-0.04537 0.512509,-0.102504 0.170838,-0.102466 0.290422,-0.20214 0.358752,-0.298973 0.06834,-0.09678 0.102502,-0.241977 0.102502,-0.435586 0,0.162256 0.150904,-0.256276 0.128129,-0.392913 -0.01706,-0.09111 -0.02279,-0.199351 -0.01706,-0.324594 0.0057,-0.165145 0.03419,-0.313249 0.08542,-0.444214 0.05125,-0.130971 0.119584,-0.264776 0.205003,-0.401468 0.08542,-0.136636 0.148058,-0.256208 0.187915,-0.358718 0.04553,-0.119574 0.121013,-0.324594 0.226362,-0.615042 0.105347,-0.290407 0.189343,-0.512485 0.251981,-0.666253 0.06264,-0.153753 0.148058,-0.32742 0.256258,-0.521039 0.108194,-0.193617 0.219234,-0.347379 0.333125,-0.461272 0.626407,-0.81434 0.979461,-1.369509 1.059188,-1.66564 -0.06834,-0.637775 -0.113891,-1.520426 -0.136673,-2.647955 -0.0114,-0.512534 0.05695,-0.943883 0.205003,-1.294094 0.148058,-0.350211 0.449871,-0.647757 0.905433,-0.892632 0.222087,-0.119572 0.518201,-0.179331 0.888344,-0.179331 0.301816,-0.0055 0.603625,0.03289 0.905431,0.115264 0.301811,0.08261 0.555216,0.200762 0.760223,0.354524 0.324583,0.239147 0.585116,0.58511 0.781574,1.037829 0.196457,0.452722 0.280462,0.872671 0.251987,1.259911 -0.02846,0.540997 0.05695,1.15026 0.256247,1.827951 0.193619,0.643449 0.572299,1.264168 1.136063,1.86209 0.313205,0.335976 0.596502,0.800093 0.849913,1.392355 0.253399,0.59219 0.422817,1.136028 0.508235,1.63144 0.04553,0.279052 0.05979,0.519618 0.04268,0.721791 -0.01698,0.202122 -0.05125,0.360209 -0.102496,0.474043 -0.05126,0.113914 0.07402,0.57236 0.153753,0.503976 0.0056,0.176555 0.02846,0.337397 0.06833,0.482599 0.03986,0.145267 0.08115,0.260593 0.123865,0.345974 0.04269,0.08544 0.101072,0.166569 0.175104,0.243452 0.07402,0.07688 0.133821,0.130964 0.179374,0.162253 0.04553,0.03119 0.106773,0.06839 0.183659,0.111076 0.07687,0.04253 0.123848,0.06974 0.140928,0.08113 0.113897,0.06833 0.202156,0.138131 0.264802,0.209275 z" />
  </g>
</svg>
