<?xml version="1.0" encoding="UTF-8" standalone="no"?>
<!-- Generator: Gravit.io -->

<svg
   xmlns:dc="http://purl.org/dc/elements/1.1/"
   xmlns:cc="http://creativecommons.org/ns#"
   xmlns:rdf="http://www.w3.org/1999/02/22-rdf-syntax-ns#"
   xmlns:svg="http://www.w3.org/2000/svg"
   xmlns="http://www.w3.org/2000/svg"
   xmlns:sodipodi="http://sodipodi.sourceforge.net/DTD/sodipodi-0.dtd"
   xmlns:inkscape="http://www.inkscape.org/namespaces/inkscape"
   style="isolation:isolate"
   viewBox="0 0 22 22"
   width="22"
   height="22"
   version="1.1"
   id="svg23"
   sodipodi:docname="folder-nordic-pcloud.svg"
   inkscape:version="0.92.4 5da689c313, 2019-01-14">
  <metadata
     id="metadata27">
    <rdf:RDF>
      <cc:Work
         rdf:about="">
        <dc:format>image/svg+xml</dc:format>
        <dc:type
           rdf:resource="http://purl.org/dc/dcmitype/StillImage" />
      </cc:Work>
    </rdf:RDF>
  </metadata>
  <sodipodi:namedview
     pagecolor="#ffffff"
     bordercolor="#666666"
     borderopacity="1"
     objecttolerance="10"
     gridtolerance="10"
     guidetolerance="10"
     inkscape:pageopacity="0"
     inkscape:pageshadow="2"
     inkscape:window-width="833"
     inkscape:window-height="663"
     id="namedview25"
     showgrid="false"
     inkscape:zoom="4.9166667"
     inkscape:cx="24"
     inkscape:cy="24"
     inkscape:window-x="691"
     inkscape:window-y="230"
     inkscape:window-maximized="0"
     inkscape:current-layer="svg23" />
  <defs
     id="defs5">
    <clipPath
       clipPathUnits="userSpaceOnUse"
       id="clipPath833">
      <rect
         style="fill:none"
         y="0"
         x="0"
         width="48"
         height="48"
         id="rect835" />
    </clipPath>
  </defs>
  <g
     clip-path="url(#clipPath833)"
     id="g21"
     transform="matrix(0.45832443,0,0,0.45832443,-0.00104242,0.00158239)">
    <linearGradient
       id="_lgradient_34"
       x1="-0.046328004"
       y1="0.15974073"
       x2="0.85220069"
       y2="0.71023709"
       gradientTransform="matrix(45,0,0,30.763,1.229,15.445)"
       gradientUnits="userSpaceOnUse">
      <stop
         offset="3.0434782608695654%"
         stop-opacity="1"
         style="stop-color:#82ABAA"
         id="stop7" />
      <stop
         offset="98.26086956521739%"
         stop-opacity="1"
         style="stop-color:#82ABAA"
         id="stop9" />
    </linearGradient>
    <path
       d="m 1.545,46.208 44.378,-0.01 c 0.169,0 0.306,-0.137 0.306,-0.306 v -30.12 c 0,-0.169 -0.137,-0.306 -0.306,-0.307 l -25.816,-0.02 -4.221,3.206 c -0.068,0.051 -0.191,0.092 -0.276,0.092 L 1.229,18.688 1.238,45.902 c 0,0.169 0.138,0.306 0.307,0.306 z"
       stroke-miterlimit="3"
       id="path12"
       inkscape:connector-curvature="0"
       style="vector-effect:non-scaling-stroke;fill:url(#_lgradient_34);stroke:#698989;stroke-width:1;stroke-linecap:square;stroke-linejoin:miter;stroke-miterlimit:3" />
    <linearGradient
       id="_lgradient_35"
       x1="0"
       y1="0.5"
       x2="1"
       y2="0.5"
       gradientTransform="matrix(18.873,0,0,6.535,1.243,12.208)"
       gradientUnits="userSpaceOnUse">
      <stop
         offset="3.0434782608695654%"
         stop-opacity="1"
         style="stop-color:#82ABAA"
         id="stop14" />
      <stop
         offset="98.26086956521739%"
         stop-opacity="1"
         style="stop-color:#82ABAA"
         id="stop16" />
    </linearGradient>
    <path
       d="M 20.116,15.456 15.887,12.3 C 15.819,12.249 15.695,12.208 15.61,12.208 H 1.554 c -0.169,0 -0.307,0.138 -0.307,0.307 l -0.004,6.168 14.557,0.06 z"
       stroke-miterlimit="3"
       id="path19"
       inkscape:connector-curvature="0"
       style="vector-effect:non-scaling-stroke;fill:url(#_lgradient_35);stroke:#698989;stroke-width:1;stroke-linecap:square;stroke-linejoin:miter;stroke-miterlimit:3" />
    <path
       inkscape:connector-curvature="0"
       style="fill:#4e6766"
       d="M 23.5,24.5 A 6.5,6.5 0 0 0 17.490235,28.53125 5,5 0 0 0 13,33.5 a 5,5 0 0 0 5,5 h 11.75 c 1.794925,0 3.25,-1.455075 3.25,-3.25 0,-1.226978 -0.687772,-2.282804 -1.691406,-2.835938 A 3,3 0 0 0 32,30.5 a 3,3 0 0 0 -3,-3 3,3 0 0 0 -0.02344,0 6.5,6.5 0 0 0 -5.476562,-3 z m 0,2 A 4.5,4.5 0 0 1 28,31 4.5,4.5 0 0 1 23.5,35.5 4.5,4.5 0 0 1 19,31 4.5,4.5 0 0 1 23.5,26.5 Z m 0,1 A 3.5,3.5 0 0 0 20,31 3.5,3.5 0 0 0 23.5,34.5 3.5,3.5 0 0 0 27,31 3.5,3.5 0 0 0 23.5,27.5 Z m -1.5,1 h 1 1.5 A 1.5,1.5 0 0 1 26,30 1.5,1.5 0 0 1 24.5,31.5 H 23 v 2 h -1 v -2 z m 1,1 v 1 h 1.5 A 0.5,0.5 0 0 0 25,30 0.5,0.5 0 0 0 24.5,29.5 Z"
       id="path14" />
  </g>
</svg>
