<?xml version="1.0" encoding="UTF-8" standalone="no"?>
<!-- Generator: Gravit.io -->

<svg
   xmlns:dc="http://purl.org/dc/elements/1.1/"
   xmlns:cc="http://creativecommons.org/ns#"
   xmlns:rdf="http://www.w3.org/1999/02/22-rdf-syntax-ns#"
   xmlns:svg="http://www.w3.org/2000/svg"
   xmlns="http://www.w3.org/2000/svg"
   xmlns:sodipodi="http://sodipodi.sourceforge.net/DTD/sodipodi-0.dtd"
   xmlns:inkscape="http://www.inkscape.org/namespaces/inkscape"
   style="isolation:isolate"
   viewBox="0 0 24 24"
   width="24"
   height="24"
   version="1.1"
   id="svg27"
   sodipodi:docname="folder-nordic-documents.svg"
   inkscape:version="0.92.4 5da689c313, 2019-01-14">
  <metadata
     id="metadata31">
    <rdf:RDF>
      <cc:Work
         rdf:about="">
        <dc:format>image/svg+xml</dc:format>
        <dc:type
           rdf:resource="http://purl.org/dc/dcmitype/StillImage" />
      </cc:Work>
    </rdf:RDF>
  </metadata>
  <sodipodi:namedview
     pagecolor="#ffffff"
     bordercolor="#666666"
     borderopacity="1"
     objecttolerance="10"
     gridtolerance="10"
     guidetolerance="10"
     inkscape:pageopacity="0"
     inkscape:pageshadow="2"
     inkscape:window-width="951"
     inkscape:window-height="572"
     id="namedview29"
     showgrid="false"
     inkscape:zoom="4.9166667"
     inkscape:cx="24"
     inkscape:cy="24"
     inkscape:window-x="645"
     inkscape:window-y="228"
     inkscape:window-maximized="0"
     inkscape:current-layer="svg27" />
  <defs
     id="defs5">
    <clipPath
       clipPathUnits="userSpaceOnUse"
       id="clipPath839">
      <rect
         id="rect841"
         height="48"
         width="48"
         x="0"
         y="0"
         style="fill:none" />
    </clipPath>
  </defs>
  <g
     clip-path="url(#clipPath839)"
     id="g25"
     transform="matrix(0.4999982,0,0,0.4999982,-0.00141567,0.00108429)">
    <linearGradient
       id="_lgradient_32"
       x1="-0.046328004"
       y1="0.15974073"
       x2="0.85220069"
       y2="0.71023709"
       gradientTransform="matrix(45,0,0,30.763,1.229,15.445)"
       gradientUnits="userSpaceOnUse">
      <stop
         offset="3.0434782608695654%"
         stop-opacity="1"
         style="stop-color:#88C0D0"
         id="stop7" />
      <stop
         offset="98.26086956521739%"
         stop-opacity="1"
         style="stop-color:#88C0D0"
         id="stop9" />
    </linearGradient>
    <path
       d="m 1.545,46.208 44.378,-0.01 c 0.169,0 0.306,-0.137 0.306,-0.306 v -30.12 c 0,-0.169 -0.137,-0.306 -0.306,-0.307 l -25.816,-0.02 -4.221,3.206 c -0.068,0.051 -0.191,0.092 -0.276,0.092 L 1.229,18.688 1.238,45.902 c 0,0.169 0.138,0.306 0.307,0.306 z"
       stroke-miterlimit="3"
       id="path12"
       inkscape:connector-curvature="0"
       style="vector-effect:non-scaling-stroke;fill:url(#_lgradient_32);stroke:#669eae;stroke-width:1;stroke-linecap:square;stroke-linejoin:miter;stroke-miterlimit:3" />
    <linearGradient
       id="_lgradient_33"
       x1="0"
       y1="0.5"
       x2="1"
       y2="0.5"
       gradientTransform="matrix(18.873,0,0,6.535,1.243,12.208)"
       gradientUnits="userSpaceOnUse">
      <stop
         offset="3.0434782608695654%"
         stop-opacity="1"
         style="stop-color:#88C0D0"
         id="stop14" />
      <stop
         offset="98.26086956521739%"
         stop-opacity="1"
         style="stop-color:#88C0D0"
         id="stop16" />
    </linearGradient>
    <path
       d="M 20.116,15.456 15.887,12.3 C 15.819,12.249 15.695,12.208 15.61,12.208 H 1.554 c -0.169,0 -0.307,0.138 -0.307,0.307 l -0.004,6.168 14.557,0.06 z"
       stroke-miterlimit="3"
       id="path19"
       inkscape:connector-curvature="0"
       style="vector-effect:non-scaling-stroke;fill:url(#_lgradient_33);stroke:#669eae;stroke-width:1;stroke-linecap:square;stroke-linejoin:miter;stroke-miterlimit:3" />
    <g
       id="g23">
      <path
         d="m 28.746,29.625 h -7.997 c -0.176,0 -0.32,0.149 -0.32,0.333 0,0.185 0.144,0.334 0.32,0.334 h 7.997 c 0.177,0 0.32,-0.149 0.32,-0.334 0,-0.184 -0.143,-0.333 -0.32,-0.333 z m -7.997,-2 h 3.199 c 0.176,0 0.32,-0.149 0.32,-0.333 0,-0.185 -0.144,-0.334 -0.32,-0.334 h -3.199 c -0.176,0 -0.32,0.149 -0.32,0.334 0,0.184 0.144,0.333 0.32,0.333 z m 7.997,4.667 h -7.997 c -0.176,0 -0.32,0.149 -0.32,0.333 0,0.184 0.144,0.333 0.32,0.333 h 7.997 c 0.177,0 0.32,-0.149 0.32,-0.333 0,-0.184 -0.143,-0.333 -0.32,-0.333 z m 0,2.666 h -7.997 c -0.176,0 -0.32,0.149 -0.32,0.334 0,0.184 0.144,0.333 0.32,0.333 h 7.997 c 0.177,0 0.32,-0.149 0.32,-0.333 0,-0.185 -0.143,-0.334 -0.32,-0.334 z m 0,2.667 h -7.997 c -0.176,0 -0.32,0.149 -0.32,0.333 0,0.185 0.144,0.334 0.32,0.334 h 7.997 c 0.177,0 0.32,-0.149 0.32,-0.334 0,-0.184 -0.143,-0.333 -0.32,-0.333 z m -1.599,-13.529 2.879,3 0.507,0.529 H 27.147 Z M 16.911,38.958 v -17 h 12.475 v 3.529 L 26.959,22.958 H 17.87 v 16 z m 1.599,1.667 v -1 -16 h 7.997 v 4.667 h 4.478 V 40.625 Z M 30.026,26.154 V 21.292 H 16.271 v 18.333 h 1.599 v 1.667 H 31.625 V 27.82 Z"
         id="path21"
         inkscape:connector-curvature="0"
         style="fill:#46636b;fill-rule:evenodd" />
    </g>
  </g>
</svg>
