<?xml version="1.0" encoding="UTF-8" standalone="no"?>
<!-- Generator: Gravit.io -->

<svg
   xmlns:dc="http://purl.org/dc/elements/1.1/"
   xmlns:cc="http://creativecommons.org/ns#"
   xmlns:rdf="http://www.w3.org/1999/02/22-rdf-syntax-ns#"
   xmlns:svg="http://www.w3.org/2000/svg"
   xmlns="http://www.w3.org/2000/svg"
   xmlns:xlink="http://www.w3.org/1999/xlink"
   xmlns:sodipodi="http://sodipodi.sourceforge.net/DTD/sodipodi-0.dtd"
   xmlns:inkscape="http://www.inkscape.org/namespaces/inkscape"
   style="isolation:isolate"
   viewBox="0 0 24 24"
   width="24"
   height="24"
   version="1.1"
   id="svg23"
   sodipodi:docname="folder-nordic-pictures-open.svg"
   inkscape:version="0.92.4 5da689c313, 2019-01-14">
  <metadata
     id="metadata27">
    <rdf:RDF>
      <cc:Work
         rdf:about="">
        <dc:format>image/svg+xml</dc:format>
        <dc:type
           rdf:resource="http://purl.org/dc/dcmitype/StillImage" />
      </cc:Work>
    </rdf:RDF>
  </metadata>
  <sodipodi:namedview
     pagecolor="#ffffff"
     bordercolor="#666666"
     borderopacity="1"
     objecttolerance="10"
     gridtolerance="10"
     guidetolerance="10"
     inkscape:pageopacity="0"
     inkscape:pageshadow="2"
     inkscape:window-width="895"
     inkscape:window-height="668"
     id="namedview25"
     showgrid="false"
     inkscape:zoom="5.5"
     inkscape:cx="24"
     inkscape:cy="24.181818"
     inkscape:window-x="424"
     inkscape:window-y="220"
     inkscape:window-maximized="0"
     inkscape:current-layer="svg23"
     inkscape:snap-global="false"
     showguides="false" />
  <defs
     id="defs5">
    <linearGradient
       id="_lgradient_35-5"
       x1="1.0569526"
       y1="1.164638"
       x2="2.0212493"
       y2="0.70254338"
       gradientTransform="matrix(18.877654,0,0,8.5776341,1.4464341,17.416196)"
       gradientUnits="userSpaceOnUse">
      <stop
         offset="0.31479162"
         stop-opacity="1"
         style="stop-color:#88C0D0"
         id="stop14-9" />
      <stop
         offset="0.66162944"
         stop-opacity="1"
         style="stop-color:#88C0D0"
         id="stop16-7" />
    </linearGradient>
    <clipPath
       clipPathUnits="userSpaceOnUse"
       id="clipPath851">
      <rect
         id="rect853"
         height="48"
         width="48"
         x="0"
         y="0"
         style="fill:none" />
    </clipPath>
  </defs>
  <g
     clip-path="url(#clipPath851)"
     id="g21"
     transform="matrix(0.4960764,0,0,0.4960764,0.00145182,0.18426639)">
    <linearGradient
       id="_lgradient_34"
       x1="0.41166824"
       y1="0.00010054788"
       x2="0.41033676"
       y2="0.86212933"
       gradientTransform="matrix(45.42911,0,0,26.613237,1.1962636,19.627487)"
       gradientUnits="userSpaceOnUse"
       xlink:href="#_lgradient_35-5">
      <stop
         offset="0.41096842"
         stop-opacity="1"
         style="stop-color:#71a7b8;stop-opacity:1"
         id="stop7" />
      <stop
         offset="98.26086956521739%"
         stop-opacity="1"
         style="stop-color:#88C0D0"
         id="stop9" />
    </linearGradient>
    <linearGradient
       id="_lgradient_35"
       x1="0.4859741"
       y1="3.1150997"
       x2="0.44406784"
       y2="-0.0087129287"
       gradientTransform="matrix(18.711492,0,0,6.7851198,1.5197168,11.850823)"
       gradientUnits="userSpaceOnUse">
      <stop
         offset="0.51641214"
         stop-opacity="1"
         style="stop-color:#88c0d0;stop-opacity:1"
         id="stop14" />
      <stop
         offset="98.26086956521739%"
         stop-opacity="1"
         style="stop-color:#b1cbd2;stop-opacity:1"
         id="stop16" />
    </linearGradient>
    <path
       d="M 46.306476,16.756323 21.867724,16.644979 C 18.911849,14.392105 15.848042,11.850822 15.763769,11.850822 H 1.8280551 c -0.1675537,0 -0.3043729,0.143281 -0.3043729,0.31875 l 0.1710922,33.811445 44.5750236,-0.03836 z"
       stroke-miterlimit="3"
       id="path19"
       inkscape:connector-curvature="0"
       style="vector-effect:non-scaling-stroke;fill:url(#_lgradient_35);stroke:#669eae;stroke-width:1.01458776;stroke-linecap:square;stroke-linejoin:miter;stroke-miterlimit:3"
       sodipodi:nodetypes="ccsscccc" />
    <path
       d="m 1.5152768,46.240727 44.8011792,-0.0086 c 0.170611,0 0.308918,-0.11852 0.308918,-0.264721 V 19.910378 c 0,-0.146201 -0.138307,-0.264722 -0.308918,-0.265587 l -26.062176,-0.0173 -4.26125,2.773527 c -0.06866,0.04411 -0.192821,0.07959 -0.278632,0.07959 L 1.1962636,22.433021 1.2053416,45.976 c 0,0.146203 0.139316,0.264722 0.3099276,0.264722 z"
       stroke-miterlimit="3"
       id="path12"
       inkscape:connector-curvature="0"
       style="vector-effect:non-scaling-stroke;fill:url(#_lgradient_34);fill-opacity:1;stroke:#669eae;stroke-width:0.93453455;stroke-linecap:square;stroke-linejoin:miter;stroke-miterlimit:3" />
    <g
       transform="matrix(1,0,0,0.84173334,70.137712,49.441425)"
       style="isolation:isolate"
       id="g841">
      <path
         d="m -40.787712,-24.192585 c -0.196,0.196 -0.196,0.515 0,0.711 0.197,0.197 0.516,0.197 0.712,0 0.196,-0.196 0.196,-0.515 0,-0.711 -0.196,-0.197 -0.515,-0.197 -0.712,0 z"
         id="path21"
         inkscape:connector-curvature="0"
         style="isolation:isolate;fill:#46636b" />
      <path
         d="m -34.396712,-26.351585 h -0.503 v -0.503 c 0,-0.832 -0.677,-1.509 -1.509,-1.509 h -1.005 c -0.832,0 -1.509,0.677 -1.509,1.509 v 0.503 h -11.668 v -0.503 c 0,-0.832 -0.677,-1.509 -1.509,-1.509 h -3.017 c -0.832,0 -1.509,0.677 -1.509,1.509 v 0.503 h -0.503 c -0.832,0 -1.509,0.677 -1.509,1.509 v 15.0870003 c 0,0.832 0.677,1.509 1.509,1.509 h 22.732 c 0.832,0 1.509,-0.677 1.509,-1.509 V -24.842585 c 0,-0.832 -0.677,-1.509 -1.509,-1.509 z m -3.52,-0.503 c 0,-0.278 0.225,-0.503 0.503,-0.503 h 1.005 c 0.278,0 0.503,0.225 0.503,0.503 v 0.503 h -2.011 z m -17.703,0 c 0,-0.278 0.225,-0.503 0.503,-0.503 h 3.017 c 0.277,0 0.503,0.225 0.503,0.503 v 0.503 h -4.023 z m -2.012,5.532 h 2.098 c 0.208,0.585 0.767,1.006 1.422,1.006 0.656,0 1.215,-0.421 1.423,-1.007 h 2.211 c -1.159,1.206 -1.823,2.819 -1.823,4.527 0,2.327 1.222,4.374 3.058,5.533 h -8.389 z m 3.017,-0.503 c 0,-0.277 0.226,-0.503 0.503,-0.503 0.278,0 0.503,0.226 0.503,0.503 0,0.277 -0.225,0.503 -0.503,0.503 -0.277,0 -0.503,-0.226 -0.503,-0.503 z m 8.852,-0.503 c 3.05,0 5.532,2.483 5.532,5.532 0,3.051 -2.482,5.533 -5.532,5.533 -3.05,0 -5.532,-2.482 -5.532,-5.533 0,-3.053 2.486,-5.532 5.532,-5.532 z m 11.869,12.5730003 c 0,0.278 -0.225,0.503 -0.503,0.503 h -22.732 c -0.278,0 -0.503,-0.225 -0.503,-0.503 v -0.5030003 h 23.738 z m 0,-1.5080003 h -8.389 c 1.836,-1.159 3.058,-3.206 3.058,-5.533 0,-1.708 -0.664,-3.321 -1.823,-4.526 h 7.154 z m 0,-11.065 h -8.391 c -1.042,-0.658 -2.241,-1.006 -3.478,-1.006 -1.237,0 -2.436,0.348 -3.478,1.006 h -3.448 c -0.208,-0.585 -0.767,-1.006 -1.423,-1.006 -0.655,0 -1.214,0.421 -1.422,1.006 h -2.098 v -2.514 c 0,-0.278 0.225,-0.503 0.503,-0.503 h 22.732 c 0.278,0 0.503,0.225 0.503,0.503 z"
         id="path23"
         inkscape:connector-curvature="0"
         style="isolation:isolate;fill:#46636b" />
      <path
         d="m -45.762712,-12.269585 c 2.496,0 4.526,-2.031 4.526,-4.527 0,-2.495 -2.03,-4.526 -4.526,-4.526 -2.496,0 -4.526,2.031 -4.526,4.526 0,2.496 2.03,4.527 4.526,4.527 z m 0,-8.047 c 1.941,0 3.521,1.579 3.521,3.52 0,1.942 -1.58,3.521 -3.521,3.521 -1.941,0 -3.521,-1.579 -3.521,-3.521 0,-1.941 1.58,-3.52 3.521,-3.52 z"
         id="path25"
         inkscape:connector-curvature="0"
         style="isolation:isolate;fill:#46636b" />
      <path
         d="m -45.762712,-18.304585 c 0.832,0 1.509,0.676 1.509,1.508 0,0.278 0.225,0.503 0.503,0.503 0.278,0 0.503,-0.225 0.503,-0.503 0,-1.386 -1.128,-2.514 -2.515,-2.514 -0.278,0 -0.503,0.225 -0.503,0.503 0,0.277 0.225,0.503 0.503,0.503 z"
         id="path27"
         inkscape:connector-curvature="0"
         style="isolation:isolate;fill:#46636b" />
      <path
         d="m -36.408712,-24.340585 h -2.011 c -0.278,0 -0.503,0.226 -0.503,0.503 0,0.278 0.225,0.503 0.503,0.503 h 2.011 c 0.278,0 0.503,-0.225 0.503,-0.503 0,-0.277 -0.225,-0.503 -0.503,-0.503 z"
         id="path29"
         inkscape:connector-curvature="0"
         style="isolation:isolate;fill:#46636b" />
    </g>
  </g>
</svg>
