<svg xmlns="http://www.w3.org/2000/svg" width="64" height="64"><rect width="50" height="32" x="7" y="24" rx="2.5" ry="2.5" opacity=".2"/><path d="M7 44.5C7 45.885 8.115 47 9.5 47h45c1.385 0 2.5-1.115 2.5-2.5v-27c0-1.385-1.115-2.5-2.5-2.5H29v-2.5c0-1.385-1.115-2.5-2.5-2.5h-17A2.495 2.495 0 0 0 7 12.5" fill="#ae4f58"/><rect width="50" height="32" x="7" y="22" rx="2.5" ry="2.5" opacity=".2"/><rect width="44" height="20" x="10" y="18" rx="2.5" ry="2.5" fill="#e4e4e4"/><rect width="50" height="32" x="7" y="23" rx="2.5" ry="2.5" fill="#bf616a"/><path d="M9.5 10A2.495 2.495 0 0 0 7 12.5v1C7 12.115 8.115 11 9.5 11h17c1.385 0 2.5 1.115 2.5 2.5v-1c0-1.385-1.115-2.5-2.5-2.5zM29 15v1h25.5c1.39 0 2.5 1.115 2.5 2.5v-1c0-1.385-1.11-2.5-2.5-2.5z" opacity=".1" fill="#fff"/><path d="M32 29c-5.523 0-10 4.477-10 10s4.477 10 10 10 10-4.477 10-10-4.477-10-10-10zm-.714 2.768c.095-.01.216.006.312 0 .012.046-.069.208-.178.446-.694 1.517-.734 3.292-.09 4.241.117.172.224.336.224.357 0 .022-.126.045-.268.045-.334 0-.65-.203-1.295-.714-.286-.227-.659-.418-.803-.447-.227-.045-.288-.025-.581.268-.273.273-.357.42-.357.67 0 .947 1.124 1.7 3.214 2.143 2.838.601 3.538 1.141 3.616 2.634.099 1.871-.898 3.282-3.08 4.375-.26.13-.426.181-.536.223-.048-.004-.085.004-.134 0a1.622 1.622 0 0 1-.044-.446c0-.994-.392-2.018-.982-2.59-.159-.153-.602-.479-.982-.714s-.763-.508-.849-.625c-.141-.194-.153-.312-.044-.67.198-.652.434-1.016.893-1.428.24-.216.482-.398.535-.402.054-.004-.307-.113-.848-.223a15.245 15.245 0 0 1-1.741-.491c-.748-.271-1.758-.839-2.143-1.25-.016-.018-.03-.03-.044-.045a7.179 7.179 0 0 1 4.151-4.866 7.01 7.01 0 0 1 1.34-.402c.232-.047.474-.065.714-.089zm6.696 3.348c.168.104.801 1.474.982 2.143.234.863.217 2.357 0 3.214-.082.327-.188.632-.223.67-.035.038-.163-.181-.312-.446-.15-.266-.629-.831-1.027-1.25-1.149-1.213-1.33-1.846-.848-2.813.242-.488 1.298-1.598 1.428-1.518z" fill="#974a4d"/></svg>