<svg xmlns="http://www.w3.org/2000/svg" width="64" height="64"><rect width="50" height="32" x="7" y="24" rx="2.5" ry="2.5" opacity=".2"/><path d="M7 44.5C7 45.885 8.115 47 9.5 47h45c1.385 0 2.5-1.115 2.5-2.5v-27c0-1.385-1.115-2.5-2.5-2.5H29v-2.5c0-1.385-1.115-2.5-2.5-2.5h-17A2.495 2.495 0 0 0 7 12.5" fill="#ae4f58"/><rect width="50" height="32" x="7" y="22" rx="2.5" ry="2.5" opacity=".2"/><rect width="44" height="20" x="10" y="18" rx="2.5" ry="2.5" fill="#e4e4e4"/><rect width="50" height="32" x="7" y="23" rx="2.5" ry="2.5" fill="#bf616a"/><path d="M9.5 10A2.495 2.495 0 0 0 7 12.5v1C7 12.115 8.115 11 9.5 11h17c1.385 0 2.5 1.115 2.5 2.5v-1c0-1.385-1.115-2.5-2.5-2.5zM29 15v1h25.5c1.39 0 2.5 1.115 2.5 2.5v-1c0-1.385-1.11-2.5-2.5-2.5z" opacity=".1" fill="#fff"/><path d="M16 42.112l6.016 3.474A6 6 0 1 0 34 46a6.177 6.177 0 0 0-.066-.816l7.276-5.196A7 7 0 0 0 48 33a7 7 0 1 0-14 .028l-4.644 7.136A5.96 5.96 0 0 0 28 40c-.906.002-1.8.21-2.614.606L16 35.188M41 28a5 5 0 0 1 5 5 5 5 0 0 1-5 5 5 5 0 0 1-5-5 5 5 0 0 1 5-5zm0 2a3.001 3.001 0 0 0 0 6 3.001 3.001 0 0 0 0-6zM28 42c2.21 0 4 1.79 4 4s-1.79 4-4 4a3.999 3.999 0 0 1-3.918-3.222l1.41.816c1.44.83 3.266.342 4.098-1.098a2.994 2.994 0 0 0-1.098-4.098l-.676-.39c.062-.004.122-.006.184-.008z" fill="#974a4d"/></svg>