<svg xmlns="http://www.w3.org/2000/svg" width="64" height="64"><rect width="50" height="32" x="7" y="24" rx="2.5" ry="2.5" opacity=".2"/><path d="M7 44.5C7 45.885 8.115 47 9.5 47h45c1.385 0 2.5-1.115 2.5-2.5v-27c0-1.385-1.115-2.5-2.5-2.5H29v-2.5c0-1.385-1.115-2.5-2.5-2.5h-17A2.495 2.495 0 0 0 7 12.5" fill="#ae4f58"/><rect width="50" height="32" x="7" y="22" rx="2.5" ry="2.5" opacity=".2"/><rect width="44" height="20" x="10" y="18" rx="2.5" ry="2.5" fill="#e4e4e4"/><rect width="50" height="32" x="7" y="23" rx="2.5" ry="2.5" fill="#bf616a"/><path d="M9.5 10A2.495 2.495 0 0 0 7 12.5v1C7 12.115 8.115 11 9.5 11h17c1.385 0 2.5 1.115 2.5 2.5v-1c0-1.385-1.115-2.5-2.5-2.5zM29 15v1h25.5c1.39 0 2.5 1.115 2.5 2.5v-1c0-1.385-1.11-2.5-2.5-2.5z" fill="#fff" opacity=".1"/><path d="M24.816 32c-.888 0-1.772.178-2.595.525a6.807 6.807 0 0 0-2.21 1.506 7.023 7.023 0 0 0-1.488 2.272 7.18 7.18 0 0 0 0 5.386 7.023 7.023 0 0 0 1.49 2.272 6.808 6.808 0 0 0 2.208 1.506 6.68 6.68 0 0 0 2.535.523l.06.002c2.111.1 3.811-.737 5.056-1.953.85-.831 1.519-1.812 2.129-2.813.61 1 1.278 1.982 2.128 2.813 1.245 1.216 2.945 2.053 5.055 1.953l.06-.002a6.658 6.658 0 0 0 2.534-.523 6.814 6.814 0 0 0 2.21-1.506l.005-.008a7.02 7.02 0 0 0 1.484-2.264 7.18 7.18 0 0 0 0-5.386l-.006-.012a7.042 7.042 0 0 0-1.483-2.26 6.822 6.822 0 0 0-2.21-1.506A6.685 6.685 0 0 0 39.185 32c-2.223 0-3.98.914-5.276 2.186-.75.734-1.358 1.574-1.909 2.433-.55-.86-1.159-1.7-1.908-2.433C28.794 32.914 27.038 32 24.815 32zm-.023 2c1.774 0 2.906.636 3.945 1.688.824.833 1.546 1.968 2.262 3.205-.817 1.445-1.607 2.765-2.494 3.66-.978.987-1.992 1.53-3.648 1.435h-.065a4.655 4.655 0 0 1-1.85-.386 4.823 4.823 0 0 1-1.539-1.077l-.017-.017a5.049 5.049 0 0 1-1.03-1.618 5.21 5.21 0 0 1 0-3.79 5.042 5.042 0 0 1 1.03-1.617l.017-.02a4.823 4.823 0 0 1 1.54-1.076 4.656 4.656 0 0 1 1.848-.386zm14.414 0c.632 0 1.268.133 1.85.387.573.25 1.102.621 1.539 1.076l.017.02c.44.463.794 1.018 1.03 1.617a5.216 5.216 0 0 1 0 3.788 5.05 5.05 0 0 1-1.03 1.62l-.018.017a4.824 4.824 0 0 1-1.539 1.076 4.655 4.655 0 0 1-1.85.387h-.064c-1.656.095-2.67-.45-3.648-1.436-.887-.895-1.677-2.215-2.494-3.66.716-1.237 1.438-2.372 2.262-3.205 1.04-1.052 2.172-1.688 3.945-1.688zM38 36v2h-2v2h2v2h2v-2h2v-2h-2v-2zm-16 2v2h6v-2z" fill="#974a4d"/></svg>