<svg xmlns="http://www.w3.org/2000/svg" width="64" height="64"><rect width="50" height="32" x="7" y="24" rx="2.5" ry="2.5" opacity=".2"/><path d="M7 44.5C7 45.885 8.115 47 9.5 47h45c1.385 0 2.5-1.115 2.5-2.5v-27c0-1.385-1.115-2.5-2.5-2.5H29v-2.5c0-1.385-1.115-2.5-2.5-2.5h-17A2.495 2.495 0 0 0 7 12.5" fill="#6c9b9a"/><rect width="50" height="32" x="7" y="22" rx="2.5" ry="2.5" opacity=".2"/><rect width="44" height="20" x="10" y="18" rx="2.5" ry="2.5" fill="#e4e4e4"/><rect width="50" height="32" x="7" y="23" rx="2.5" ry="2.5" fill="#82abaa"/><path d="M9.5 10A2.495 2.495 0 0 0 7 12.5v1C7 12.115 8.115 11 9.5 11h17c1.385 0 2.5 1.115 2.5 2.5v-1c0-1.385-1.115-2.5-2.5-2.5zM29 15v1h25.5c1.39 0 2.5 1.115 2.5 2.5v-1c0-1.385-1.11-2.5-2.5-2.5z" opacity=".1" fill="#fff"/><path d="M31.333 31c-2.857.003-5.394 1.99-6.309 4.942-1.847.968-3.022 3.005-3.024 5.24C22 44.395 24.388 47 27.333 47c1.308-.003 2.569-.529 3.544-1.48.152.014.304.023.456.026a6.208 6.208 0 0 0 2.817-.693 4.996 4.996 0 0 0 2.516.693c2.946 0 5.335-2.606 5.334-5.82 0-3.213-2.388-5.818-5.333-5.818h-.011c-1.257-1.828-3.228-2.904-5.323-2.908z" fill="#4e6766"/></svg>