<svg xmlns="http://www.w3.org/2000/svg" width="64" height="64"><rect width="50" height="32" x="7" y="24" rx="2.5" ry="2.5" opacity=".2"/><path d="M7 44.5C7 45.885 8.115 47 9.5 47h45c1.385 0 2.5-1.115 2.5-2.5v-27c0-1.385-1.115-2.5-2.5-2.5H29v-2.5c0-1.385-1.115-2.5-2.5-2.5h-17A2.495 2.495 0 0 0 7 12.5" fill="#6c9b9a"/><rect width="50" height="32" x="7" y="22" rx="2.5" ry="2.5" opacity=".2"/><rect width="44" height="20" x="10" y="18" rx="2.5" ry="2.5" fill="#e4e4e4"/><rect width="50" height="32" x="7" y="23" rx="2.5" ry="2.5" fill="#82abaa"/><path d="M32.5 28a10.214 10.214 0 0 0-9.443 6.334A7.857 7.857 0 0 0 16 42.143 7.857 7.857 0 0 0 23.857 50h18.465a5.106 5.106 0 0 0 5.106-5.107c0-1.929-1.08-3.588-2.657-4.457a4.714 4.714 0 0 0 1.086-3.008 4.714 4.714 0 0 0-4.714-4.713 4.714 4.714 0 0 0-.038 0A10.214 10.214 0 0 0 32.5 28zm.5 3a7 7 0 0 1 7 7 7 7 0 0 1-7 7 7 7 0 0 1-7-7 7 7 0 0 1 7-7zm0 2a5 5 0 0 0-2.99 1h3.52C35 34 36 34.49 36 36.357 36 38.533 35 39 33.53 39H32v3h-1.99A5 5 0 0 0 33 43a5 5 0 0 0 5-5 5 5 0 0 0-5-5zm-3 1.008A5 5 0 0 0 28 38a5 5 0 0 0 2 3.992v-7.984zM32 36v1h1c.588 0 1 0 1-.488C34 36 33.64 36 33 36h-1z" fill="#4e6766"/><path d="M9.5 10A2.495 2.495 0 0 0 7 12.5v1C7 12.115 8.115 11 9.5 11h17c1.385 0 2.5 1.115 2.5 2.5v-1c0-1.385-1.115-2.5-2.5-2.5zM29 15v1h25.5c1.39 0 2.5 1.115 2.5 2.5v-1c0-1.385-1.11-2.5-2.5-2.5z" opacity=".1" fill="#fff"/></svg>