<svg xmlns="http://www.w3.org/2000/svg" width="64" height="64"><rect width="50" height="32" x="7" y="24" rx="2.5" ry="2.5" opacity=".2"/><path d="M7 44.5C7 45.885 8.115 47 9.5 47h45c1.385 0 2.5-1.115 2.5-2.5v-27c0-1.385-1.115-2.5-2.5-2.5H29v-2.5c0-1.385-1.115-2.5-2.5-2.5h-17A2.495 2.495 0 0 0 7 12.5" fill="#6c9b9a"/><rect width="50" height="32" x="7" y="22" rx="2.5" ry="2.5" opacity=".2"/><rect width="44" height="20" x="10" y="18" rx="2.5" ry="2.5" fill="#e4e4e4"/><rect width="50" height="32" x="7" y="23" rx="2.5" ry="2.5" fill="#82abaa"/><path d="M9.5 10A2.495 2.495 0 0 0 7 12.5v1C7 12.115 8.115 11 9.5 11h17c1.385 0 2.5 1.115 2.5 2.5v-1c0-1.385-1.115-2.5-2.5-2.5zM29 15v1h25.5c1.39 0 2.5 1.115 2.5 2.5v-1c0-1.385-1.11-2.5-2.5-2.5z" opacity=".1" fill="#fff"/><path d="M32.787 43.393c-1.601.744-3.089.736-4.089.664-1.192-.086-2.152-.412-2.573-.698a.568.568 0 1 0-.637.941c.678.459 1.876.8 3.128.89.212.016.445.025.696.025 1.09 0 2.474-.104 3.954-.792a.568.568 0 0 0-.479-1.03zm6.314-.842c.054-4.936.562-14.262-8.886-13.508-9.328.751-6.855 10.605-6.994 13.905-.123 1.746-.702 3.88-1.521 6.052h2.521c.26-.92.45-1.831.532-2.698.152.106.315.208.489.306.282.167.525.388.782.622.6.547 1.281 1.168 2.611 1.245.089.005.179.008.267.008 1.346 0 2.266-.589 3.006-1.062.354-.227.66-.423.948-.517.819-.256 1.534-.67 2.068-1.196a3.67 3.67 0 0 0 .234-.253A44.21 44.21 0 0 0 36.316 49H41.7c-1.294-1.996-2.627-3.953-2.599-6.449zm-14.977-2.685v-.001c-.093-1.611.678-2.965 1.721-3.026 1.043-.061 1.964 1.196 2.057 2.806v.001c.005.087.007.173.007.258-.33.083-.629.204-.896.345l-.003-.036v-.001c-.089-.914-.577-1.604-1.091-1.542-.513.063-.857.855-.767 1.769.039.399.153.755.313 1.025-.04.031-.152.113-.281.208l-.358.262c-.388-.51-.654-1.242-.702-2.068zm10.569 3.981c-.037.851-1.151 1.652-2.179 1.973l-.006.002c-.428.139-.809.383-1.213.641-.678.434-1.38.883-2.393.883-.067 0-.135-.002-.202-.006-.928-.054-1.362-.449-1.911-.95-.29-.264-.59-.538-.976-.764l-.009-.005c-.834-.471-1.352-1.056-1.385-1.567-.016-.253.097-.473.336-.652.52-.39.869-.645 1.099-.814.256-.187.334-.243.391-.298a6.95 6.95 0 0 0 .133-.128c.477-.464 1.276-1.241 2.503-1.241.75 0 1.58.289 2.464.857.416.271.779.396 1.238.555.315.109.673.232 1.152.437l.008.004c.446.183.974.518.95 1.072zm-.246-2a4.454 4.454 0 0 0-.269-.123c-.432-.184-.778-.31-1.065-.41.159-.31.257-.697.266-1.118.022-1.023-.494-1.854-1.152-1.855-.659-.002-1.21.826-1.232 1.849a1.667 1.667 0 0 0 0 .1 5.755 5.755 0 0 0-1.195-.405l-.005-.116v-.001c-.038-1.863 1.106-3.406 2.554-3.445 1.448-.039 2.653 1.439 2.691 3.303v.001c.017.843-.208 1.618-.593 2.22z" fill="#4e6766"/></svg>