<svg xmlns="http://www.w3.org/2000/svg" width="64" height="64"><rect width="50" height="32" x="7" y="24" rx="2.5" ry="2.5" opacity=".2"/><path d="M7 44.5C7 45.885 8.115 47 9.5 47h45c1.385 0 2.5-1.115 2.5-2.5v-27c0-1.385-1.115-2.5-2.5-2.5H29v-2.5c0-1.385-1.115-2.5-2.5-2.5h-17A2.495 2.495 0 0 0 7 12.5" fill="#6c9b9a"/><rect width="50" height="32" x="7" y="22" rx="2.5" ry="2.5" opacity=".2"/><rect width="44" height="20" x="10" y="18" rx="2.5" ry="2.5" fill="#e4e4e4"/><rect width="50" height="32" x="7" y="23" rx="2.5" ry="2.5" fill="#82abaa"/><path d="M9.5 10A2.495 2.495 0 0 0 7 12.5v1C7 12.115 8.115 11 9.5 11h17c1.385 0 2.5 1.115 2.5 2.5v-1c0-1.385-1.115-2.5-2.5-2.5zM29 15v1h25.5c1.39 0 2.5 1.115 2.5 2.5v-1c0-1.385-1.11-2.5-2.5-2.5z" opacity=".1" fill="#fff"/><path d="M29 27s1.154.706.34 2.562C28.108 32.36 30.477 33 30.477 33s-.753-.656.25-2.965C31.835 27.477 29 27 29 27zm4.199 3.855s-2.097.932-.746 3.477c.893 1.687-.098 2.523-.098 2.523s2.534-.835 1.312-3.164c-1.098-2.105-.468-2.836-.468-2.836zM26.671 31s-1.502 1.599-.015 3.562c.983 1.307.34 2.438.34 2.438s1.861-1.651.515-3.457c-1.215-1.63-.84-2.543-.84-2.543zm.325 6H22l3 12h11l.679-1.969c.333.083.677.141 1.035.141C40.08 47.171 42 45.651 42 43.284a4.275 4.275 0 0 0-3.252-4.144l.395-2.14-12.148-.001zm11.41 3.519l.047.008c.762.205 1.048 1.605.64 3.129-.399 1.486-1.314 2.546-2.07 2.399z" fill="#4e6766"/></svg>