<svg xmlns="http://www.w3.org/2000/svg" width="64" height="64"><rect width="50" height="32" x="7" y="24" rx="2.5" ry="2.5" opacity=".2"/><path d="M7 44.5C7 45.885 8.115 47 9.5 47h45c1.385 0 2.5-1.115 2.5-2.5v-27c0-1.385-1.115-2.5-2.5-2.5H29v-2.5c0-1.385-1.115-2.5-2.5-2.5h-17A2.495 2.495 0 0 0 7 12.5" fill="#6c9b9a"/><rect width="50" height="32" x="7" y="22" rx="2.5" ry="2.5" opacity=".2"/><rect width="44" height="20" x="10" y="18" rx="2.5" ry="2.5" fill="#e4e4e4"/><rect width="50" height="32" x="7" y="23" rx="2.5" ry="2.5" fill="#82abaa"/><path d="M9.5 10A2.495 2.495 0 0 0 7 12.5v1C7 12.115 8.115 11 9.5 11h17c1.385 0 2.5 1.115 2.5 2.5v-1c0-1.385-1.115-2.5-2.5-2.5zM29 15v1h25.5c1.39 0 2.5 1.115 2.5 2.5v-1c0-1.385-1.11-2.5-2.5-2.5z" fill="#fff" opacity=".1"/><path d="M34 29l-4 .605v14.47L34 43v-5.59L38 44l4-1.5-5-6 5.002-6.498L38.122 29 34 35.559zm-8.145 3.924a.37.37 0 0 0-.261.11l-1.573 1.571c-.145.146-.11.353 0 .526l1.627 2.555a6.5 6.5 0 0 0-.312.771l-.014.033-2.95.656c-.201.045-.372.166-.372.372v1.964c0 .206.17.327.371.372l2.951.656c.007.02.017.037.024.056.085.256.186.507.302.75l-1.627 2.553c-.11.173-.145.38 0 .526l1.573 1.572a.37.37 0 0 0 .523 0l2.551-1.625c.25.122.51.227.773.316.018.006.034.016.051.022l.654 2.949a.37.37 0 0 0 .372.371h2.22c.205 0 .327-.17.371-.371l.655-3.04a6.5 6.5 0 0 0 .873-.403l2.49 1.78a.37.37 0 0 0 .523 0l1.573-1.571c.145-.146.11-.353 0-.526l-.948-1.437-.1.037a.5.5 0 0 1-.603-.21l-.996-1.64A5.502 5.502 0 0 1 26 40.5a5.498 5.498 0 0 1 3.5-5.12v-1.095l-.008.035c-.022.008-.042.02-.064.028a6.5 6.5 0 0 0-.764.308l-2.547-1.623a.37.37 0 0 0-.262-.11z" fill="#4e6766"/></svg>