<svg xmlns="http://www.w3.org/2000/svg" width="64" height="64"><rect width="50" height="32" x="7" y="24" rx="2.5" ry="2.5" opacity=".2"/><path d="M7 44.5C7 45.885 8.115 47 9.5 47h45c1.385 0 2.5-1.115 2.5-2.5v-27c0-1.385-1.115-2.5-2.5-2.5H29v-2.5c0-1.385-1.115-2.5-2.5-2.5h-17A2.495 2.495 0 0 0 7 12.5" fill="#ae4f58"/><rect width="50" height="32" x="7" y="22" rx="2.5" ry="2.5" opacity=".2"/><rect width="44" height="20" x="10" y="18" rx="2.5" ry="2.5" fill="#e4e4e4"/><rect width="50" height="32" x="7" y="23" rx="2.5" ry="2.5" fill="#bf616a"/><path d="M9.5 10A2.495 2.495 0 0 0 7 12.5v1C7 12.115 8.115 11 9.5 11h17c1.385 0 2.5 1.115 2.5 2.5v-1c0-1.385-1.115-2.5-2.5-2.5zM29 15v1h25.5c1.39 0 2.5 1.115 2.5 2.5v-1c0-1.385-1.11-2.5-2.5-2.5z" fill="#fff" opacity=".1"/><path d="M23.957 32.988a1 1 0 0 0-.771 1.594l2.12 2.969a9.956 9.956 0 0 0-3.304 6.486c-.046.963.969.963.969.963h18.033s1.045 0 .994-1.01a9.961 9.961 0 0 0-3.3-6.443l2.116-2.965a1 1 0 0 0-.8-1.594 1 1 0 0 0-.828.43l-2.114 2.957A10.025 10.025 0 0 0 32.002 35a10.02 10.02 0 0 0-5.074 1.377l-2.114-2.959a1 1 0 0 0-.857-.43z" fill="#974a4d"/><circle cx="27" cy="41" r="1" fill="#bf616a"/><circle cx="-37" cy="41" r="1" transform="scale(-1 1)" fill="#bf616a"/></svg>