<svg xmlns="http://www.w3.org/2000/svg" width="64" height="64"><rect width="50" height="32" x="7" y="24" rx="2.5" ry="2.5" opacity=".2"/><path d="M7 44.5C7 45.885 8.115 47 9.5 47h45c1.385 0 2.5-1.115 2.5-2.5v-27c0-1.385-1.115-2.5-2.5-2.5H29v-2.5c0-1.385-1.115-2.5-2.5-2.5h-17A2.495 2.495 0 0 0 7 12.5" fill="#ae4f58"/><rect width="50" height="32" x="7" y="22" rx="2.5" ry="2.5" opacity=".2"/><rect width="44" height="20" x="10" y="18" rx="2.5" ry="2.5" fill="#e4e4e4"/><rect width="50" height="32" x="7" y="23" rx="2.5" ry="2.5" fill="#bf616a"/><path d="M9.5 10A2.495 2.495 0 0 0 7 12.5v1C7 12.115 8.115 11 9.5 11h17c1.385 0 2.5 1.115 2.5 2.5v-1c0-1.385-1.115-2.5-2.5-2.5zM29 15v1h25.5c1.39 0 2.5 1.115 2.5 2.5v-1c0-1.385-1.11-2.5-2.5-2.5z" opacity=".1" fill="#fff"/><path d="M34.398 31a6.393 6.393 0 0 0-5.695 3.496 4 4 0 0 0-1.504-.297 3.995 3.995 0 0 0-3.957 3.465A4.802 4.802 0 0 0 20 42.199 4.802 4.802 0 0 0 24.801 47h14.398A4.802 4.802 0 0 0 44 42.199a4.795 4.795 0 0 0-3.211-4.523c.006-.092.009-.186.012-.278A6.401 6.401 0 0 0 34.398 31zm0 4c1.37 0 2.394 1.023 2.399 2.39v.012a4 4 0 0 0 2.668 4.047.774.774 0 0 1 .536.75c0 .489-.312.801-.801.801H24.802c-.488 0-.799-.31-.801-.797v-.004a.769.769 0 0 1 .539-.75 4 4 0 0 0 2.664-3.246 4 4 0 0 0 5.066-1.891A2.373 2.373 0 0 1 34.398 35z" fill="#974a4d"/></svg>