<svg xmlns="http://www.w3.org/2000/svg" width="64" height="64"><rect width="50" height="32" x="7" y="24" rx="2.5" ry="2.5" opacity=".2"/><path d="M7 44.5C7 45.885 8.115 47 9.5 47h45c1.385 0 2.5-1.115 2.5-2.5v-27c0-1.385-1.115-2.5-2.5-2.5H29v-2.5c0-1.385-1.115-2.5-2.5-2.5h-17A2.495 2.495 0 0 0 7 12.5" fill="#ae4f58"/><rect width="50" height="32" x="7" y="22" rx="2.5" ry="2.5" opacity=".2"/><rect width="44" height="20" x="10" y="18" rx="2.5" ry="2.5" fill="#e4e4e4"/><rect width="50" height="32" x="7" y="23" rx="2.5" ry="2.5" fill="#bf616a"/><path d="M9.5 10A2.495 2.495 0 0 0 7 12.5v1C7 12.115 8.115 11 9.5 11h17c1.385 0 2.5 1.115 2.5 2.5v-1c0-1.385-1.115-2.5-2.5-2.5zM29 15v1h25.5c1.39 0 2.5 1.115 2.5 2.5v-1c0-1.385-1.11-2.5-2.5-2.5z" opacity=".1" fill="#fff"/><path d="M39.905 26c-5.078 0-6.03 7.717-3.173 7.717 2.856 0 8.252-7.717 3.173-7.717zm-7.822 1.187c-.08 0-.165.008-.256.017-2.879.363-1.866 5.234-.334 5.325 1.481.088 3.105-5.333.587-5.342zm-4.989 1.798a1.327 1.327 0 0 0-.588.111c-2.313.95-.351 4.871.944 4.608 1.175-.239 1.344-4.609-.356-4.719zm-3.775 3.206c-.201-.006-.419.064-.651.236-1.851 1.382.624 4.721 1.713 4.203.953-.453.345-4.388-1.063-4.439zm10.935 3.187c-4.011-.069-9.304 1.966-10.207 6.058C23.07 45.86 28.071 52 33.287 52c2.567 0 5.528-2.346 6.082-5.317.423-2.265-4.978-1.357-4.785.141.233 1.797-1.302 2.685-2.805 1.527-4.787-3.687 7.925-5.527 7.086-10.565-.261-1.568-2.207-2.366-4.613-2.408z" fill="#974a4d"/></svg>