<svg xmlns="http://www.w3.org/2000/svg" width="64" height="64"><rect width="50" height="32" x="7" y="24" rx="2.5" ry="2.5" opacity=".2"/><path d="M7 44.5C7 45.885 8.115 47 9.5 47h45c1.385 0 2.5-1.115 2.5-2.5v-27c0-1.385-1.115-2.5-2.5-2.5H29v-2.5c0-1.385-1.115-2.5-2.5-2.5h-17A2.495 2.495 0 0 0 7 12.5" fill="#6c9b9a"/><rect width="50" height="32" x="7" y="22" rx="2.5" ry="2.5" opacity=".2"/><rect width="44" height="20" x="10" y="18" rx="2.5" ry="2.5" fill="#e4e4e4"/><rect width="50" height="32" x="7" y="23" rx="2.5" ry="2.5" fill="#82abaa"/><path d="M9.5 10A2.495 2.495 0 0 0 7 12.5v1C7 12.115 8.115 11 9.5 11h17c1.385 0 2.5 1.115 2.5 2.5v-1c0-1.385-1.115-2.5-2.5-2.5zM29 15v1h25.5c1.39 0 2.5 1.115 2.5 2.5v-1c0-1.385-1.11-2.5-2.5-2.5z" opacity=".1" fill="#fff"/><path d="M32.414 29.008A10.01 10.01 0 0 0 22 39h-2l3 3 3-3h-2a7.99 7.99 0 0 1 6.275-7.813 7.992 7.992 0 0 1 8.989 4.46 7.99 7.99 0 0 1-2.436 9.732 7.992 7.992 0 0 1-10.03-.3c-1.013-.867-2.312.655-1.298 1.52a10.01 10.01 0 0 0 12.535.376 10.01 10.01 0 0 0 3.043-12.166 10.012 10.012 0 0 0-8.664-5.801zm-.43 3.978A1 1 0 0 0 31 34v4.863a1 1 0 0 0 .041.434 1 1 0 0 0 .027.074 1 1 0 0 0 .21.332l2.921 3.897a1 1 0 0 0 1.602-1.2L33 38.666V34a1 1 0 0 0-1.016-1.014z" fill="#4e6766"/></svg>