<svg xmlns="http://www.w3.org/2000/svg" width="64" height="64"><rect width="50" height="32" x="7" y="24" rx="2.5" ry="2.5" opacity=".2"/><path d="M7 44.5C7 45.885 8.115 47 9.5 47h45c1.385 0 2.5-1.115 2.5-2.5v-27c0-1.385-1.115-2.5-2.5-2.5H29v-2.5c0-1.385-1.115-2.5-2.5-2.5h-17A2.495 2.495 0 0 0 7 12.5" fill="#6c9b9a"/><rect width="50" height="32" x="7" y="22" rx="2.5" ry="2.5" opacity=".2"/><rect width="44" height="20" x="10" y="18" rx="2.5" ry="2.5" fill="#e4e4e4"/><rect width="50" height="32" x="7" y="23" rx="2.5" ry="2.5" fill="#82abaa"/><path d="M9.5 10A2.495 2.495 0 0 0 7 12.5v1C7 12.115 8.115 11 9.5 11h17c1.385 0 2.5 1.115 2.5 2.5v-1c0-1.385-1.115-2.5-2.5-2.5zM29 15v1h25.5c1.39 0 2.5 1.115 2.5 2.5v-1c0-1.385-1.11-2.5-2.5-2.5z" opacity=".1" fill="#fff"/><path d="M32 29.025c-5.54 0-10 4.46-10 10 0 4.466 2.959 8.225 6.985 9.516v-1.677c-2.531.558-3.123-1.113-3.123-1.113-.414-1.069-1.01-1.153-1.01-1.153-.827-.573.06-.564.06-.564.914.065 1.395.955 1.395.955.811 1.413 2.19 1.006 2.708.769.082-.597.26-1.607.52-1.838C27.513 43.686 26 42.394 26 38.85c0-1.01.596-2.335 1.178-2.98-.094-.234-.408-1.587.088-2.86 0 0 .048-.015.146-.02.297-.013.963.461 2.266 1.358A9.368 9.368 0 0 1 32 34.012c.709-.005 1.43.117 2.17.337 1.303-.897 2.136-1.374 2.431-1.36h.003c.098.005.146.02.146.02.497 1.272.184 2.628.09 2.861.584.646 1.16 1.972 1.16 2.981 0 3.552-2.276 4.833-4.303 5.061.326.286.408.852.408 1.714 0 1.042-.003 1.719-.005 2.149v.925c4.32-1.106 7.9-5 7.9-9.675 0-5.54-4.46-10-10-10z" fill="#4e6766"/></svg>