<svg xmlns="http://www.w3.org/2000/svg" width="64" height="64"><rect width="50" height="32" x="7" y="24" rx="2.5" ry="2.5" opacity=".2"/><path d="M7 44.5C7 45.885 8.115 47 9.5 47h45c1.385 0 2.5-1.115 2.5-2.5v-27c0-1.385-1.115-2.5-2.5-2.5H29v-2.5c0-1.385-1.115-2.5-2.5-2.5h-17A2.495 2.495 0 0 0 7 12.5" fill="#ae4f58"/><rect width="50" height="32" x="7" y="22" rx="2.5" ry="2.5" opacity=".2"/><rect width="44" height="20" x="10" y="18" rx="2.5" ry="2.5" fill="#e4e4e4"/><rect width="50" height="32" x="7" y="23" rx="2.5" ry="2.5" fill="#bf616a"/><path d="M9.5 10A2.495 2.495 0 0 0 7 12.5v1C7 12.115 8.115 11 9.5 11h17c1.385 0 2.5 1.115 2.5 2.5v-1c0-1.385-1.115-2.5-2.5-2.5zM29 15v1h25.5c1.39 0 2.5 1.115 2.5 2.5v-1c0-1.385-1.11-2.5-2.5-2.5z" opacity=".1" fill="#fff"/><g fill="#974a4d" stroke="#bf616a" stroke-linecap="round" stroke-linejoin="round"><circle cx="36" cy="37" r="4.5"/><circle cx="45" cy="45" r="2.5"/><circle cx="39.5" cy="42.5" r="5"/><circle cx="21" cy="43" r="4.5"/><circle cx="25.5" cy="33.5" r="3"/><circle cx="26" cy="39" r="5.5"/><circle cx="25.5" cy="45" r="2.5"/><circle cx="30.5" cy="34.5" r="5"/><circle cx="32" cy="41" r="6.5"/></g></svg>