<svg xmlns="http://www.w3.org/2000/svg" width="64" height="64"><rect width="50" height="32" x="7" y="24" rx="2.5" ry="2.5" opacity=".2"/><path d="M7 44.5C7 45.885 8.115 47 9.5 47h45c1.385 0 2.5-1.115 2.5-2.5v-27c0-1.385-1.115-2.5-2.5-2.5H29v-2.5c0-1.385-1.115-2.5-2.5-2.5h-17A2.495 2.495 0 0 0 7 12.5" fill="#ae4f58"/><rect width="50" height="32" x="7" y="22" rx="2.5" ry="2.5" opacity=".2"/><rect width="44" height="20" x="10" y="18" rx="2.5" ry="2.5" fill="#e4e4e4"/><rect width="50" height="32" x="7" y="23" rx="2.5" ry="2.5" fill="#bf616a"/><path d="M9.5 10A2.495 2.495 0 0 0 7 12.5v1C7 12.115 8.115 11 9.5 11h17c1.385 0 2.5 1.115 2.5 2.5v-1c0-1.385-1.115-2.5-2.5-2.5zM29 15v1h25.5c1.39 0 2.5 1.115 2.5 2.5v-1c0-1.385-1.11-2.5-2.5-2.5z" opacity=".1" fill="#fff"/><path d="M26.73 31c-.302.001-.651.097-1.007.301-1.297.73-2.491 3.122-3.139 6.222-.553 2.634-.755 6.232-.426 7.68.287 1.245.782 1.797 1.664 1.797 1.308-.024 2.953-1.581 3.994-3.676.754-1.159 2.5-1.687 4.184-1.629 1.684-.063 3.43.47 4.184 1.629 1.041 2.095 2.686 3.652 3.994 3.676.882 0 1.377-.552 1.664-1.797.329-1.448.127-5.046-.426-7.68-.648-3.1-1.842-5.492-3.139-6.222-.356-.204-.683-.302-.984-.301a1.364 1.364 0 0 0-.836.301c-.659.503-2.033 1.041-4.457 1.043-2.424.002-3.798-.54-4.457-1.043-.26-.198-.51-.303-.813-.301zm.27 3h2v2h2v2h-2v2h-2v-2h-2v-2h2v-2zm9 0a1 1 0 1 1 0 2 1 1 0 0 1 0-2zm-2 2a1 1 0 1 1 0 2 1 1 0 0 1 0-2zm4 0a1 1 0 1 1 0 2 1 1 0 0 1 0-2zm-2 2a1 1 0 1 1 0 2 1 1 0 0 1 0-2z" fill="#974a4d"/></svg>