<svg xmlns="http://www.w3.org/2000/svg" width="64" height="64"><rect width="50" height="32" x="7" y="24" rx="2.5" ry="2.5" opacity=".2"/><path d="M7 44.5C7 45.885 8.115 47 9.5 47h45c1.385 0 2.5-1.115 2.5-2.5v-27c0-1.385-1.115-2.5-2.5-2.5H29v-2.5c0-1.385-1.115-2.5-2.5-2.5h-17A2.495 2.495 0 0 0 7 12.5" fill="#ae4f58"/><rect width="50" height="32" x="7" y="22" rx="2.5" ry="2.5" opacity=".2"/><rect width="44" height="20" x="10" y="18" rx="2.5" ry="2.5" fill="#e4e4e4"/><rect width="50" height="32" x="7" y="23" rx="2.5" ry="2.5" fill="#bf616a"/><path d="M9.5 10A2.495 2.495 0 0 0 7 12.5v1C7 12.115 8.115 11 9.5 11h17c1.385 0 2.5 1.115 2.5 2.5v-1c0-1.385-1.115-2.5-2.5-2.5zM29 15v1h25.5c1.39 0 2.5 1.115 2.5 2.5v-1c0-1.385-1.11-2.5-2.5-2.5z" opacity=".1" fill="#fff"/><path d="M30.639 30c-4.235 0-4.329 2.827-5.553 4.73a28.307 28.307 0 0 1 4.976-1.777 28.847 28.847 0 0 1 4.901-.83C33.944 31.295 33.233 30 30.639 30zm5.812 4.049c-1.867.036-3.892.324-5.889.84-6.579 1.699-11.269 5.396-10.474 8.256.458 1.634 2.667 3.114 5.957 3.31-.002-.012-.005-.023-.006-.035v-.004c-.004-.029-.014-.055-.018-.084-.192-1.744.806-3.098 1.954-4.053 1.147-.955 2.619-1.646 4.285-2.017A10.528 10.528 0 0 1 34.686 40h.002c1.202.015 2.312.239 3.289.793.806.457 1.543 1.251 1.857 2.232 3.003-1.835 4.555-4.307 4.082-6.033-.525-1.894-3.388-3.023-7.465-2.943zM34.662 42a8.608 8.608 0 0 0-1.967.215c-2.756.614-4.855 2.36-4.685 3.898.17 1.539 2.542 2.287 5.299 1.672 2.756-.615 4.851-2.36 4.681-3.898-.123-1.119-1.434-1.863-3.328-1.887z" fill="#974a4d"/></svg>