<svg xmlns="http://www.w3.org/2000/svg" width="64" height="64"><rect width="50" height="32" x="7" y="24" rx="2.5" ry="2.5" opacity=".2"/><path d="M7 44.5C7 45.885 8.115 47 9.5 47h45c1.385 0 2.5-1.115 2.5-2.5v-27c0-1.385-1.115-2.5-2.5-2.5H29v-2.5c0-1.385-1.115-2.5-2.5-2.5h-17A2.495 2.495 0 0 0 7 12.5" fill="#6c9b9a"/><rect width="50" height="32" x="7" y="22" rx="2.5" ry="2.5" opacity=".2"/><rect width="44" height="20" x="10" y="18" rx="2.5" ry="2.5" fill="#e4e4e4"/><rect width="50" height="32" x="7" y="23" rx="2.5" ry="2.5" fill="#82abaa"/><path d="M9.5 10A2.495 2.495 0 0 0 7 12.5v1C7 12.115 8.115 11 9.5 11h17c1.385 0 2.5 1.115 2.5 2.5v-1c0-1.385-1.115-2.5-2.5-2.5zM29 15v1h25.5c1.39 0 2.5 1.115 2.5 2.5v-1c0-1.385-1.11-2.5-2.5-2.5z" opacity=".1" fill="#fff"/><path d="M35.98 29c-.991.035-2.195.579-2.906 1.311-.639.65-1.201 1.685-1.051 2.68 1.107.076 2.241-.495 2.93-1.227.688-.734 1.154-1.749 1.027-2.764zm-.656 4.01c-1.315.105-2.516.969-3.196.969-.774 0-1.969-.939-3.238-.914-1.668.027-3.208 1.038-4.067 2.641-1.732 3.226-.446 8.005 1.243 10.622.825 1.281 1.836 2.672 3.105 2.672s1.715-.867 3.219-.867c1.504 0 1.915.867 3.243.867 1.328 0 2.184-1.333 3.004-2.617.947-1.486 1.34-2.927 1.363-3.001-.03-.014-2.611-1.072-2.637-4.262-.025-2.67 2.034-3.952 2.125-4.015-1.154-1.813-2.953-2.062-3.594-2.09a3.017 3.017 0 0 0-.57-.004z" fill="#4e6766"/></svg>