<svg xmlns="http://www.w3.org/2000/svg" width="64" height="64"><rect width="50" height="32" x="7" y="24" rx="2.5" ry="2.5" opacity=".2"/><path d="M7 44.5C7 45.885 8.115 47 9.5 47h45c1.385 0 2.5-1.115 2.5-2.5v-27c0-1.385-1.115-2.5-2.5-2.5H29v-2.5c0-1.385-1.115-2.5-2.5-2.5h-17A2.495 2.495 0 0 0 7 12.5" fill="#ae4f58"/><rect width="50" height="32" x="7" y="22" rx="2.5" ry="2.5" opacity=".2"/><rect width="44" height="20" x="10" y="18" rx="2.5" ry="2.5" fill="#e4e4e4"/><rect width="50" height="32" x="7" y="23" rx="2.5" ry="2.5" fill="#bf616a"/><path d="M9.5 10A2.495 2.495 0 0 0 7 12.5v1C7 12.115 8.115 11 9.5 11h17c1.385 0 2.5 1.115 2.5 2.5v-1c0-1.385-1.115-2.5-2.5-2.5zM29 15v1h25.5c1.39 0 2.5 1.115 2.5 2.5v-1c0-1.385-1.11-2.5-2.5-2.5z" opacity=".1" fill="#fff"/><path d="M32 27a12 12 0 0 0-12 12 12 12 0 0 0 12 12h25v-2H32a10 10 0 0 1-10-10 10 10 0 0 1 10-10v-2zm0 3a9 9 0 1 0 0 18h25v-2H32a7 7 0 0 1 0-14 7 7 0 0 1 3 .686v-2.16A9 9 0 0 0 32 30zm0 3a6 6 0 0 0-6 6 6 6 0 0 0 6 6h25v-2H32a4 4 0 0 1-4-4 4 4 0 0 1 4-4 4 4 0 0 1 3.459 2h2.19A6 6 0 0 0 32 33z" fill="#974a4d"/></svg>