<svg xmlns="http://www.w3.org/2000/svg" width="64" height="64"><rect width="50" height="45" x="7" y="11" rx="2.5" ry="2.5" opacity=".2"/><path d="M7 14.9v37.6C7 53.885 8.115 55 9.5 55h45c1.385 0 2.5-1.115 2.5-2.5V14.9z" fill="#bf616a"/><path d="M9.5 10A2.495 2.495 0 0 0 7 12.5V15h50v-2.5c0-1.385-1.115-2.5-2.5-2.5zM21.6 50c-1.44 0-2.6 1.115-2.6 2.5V55h26v-2.5c0-1.385-1.16-2.5-2.6-2.5z" fill="#974a4d"/><path d="M9.5 10A2.495 2.495 0 0 0 7 12.5v1C7 12.115 8.115 11 9.5 11h45c1.385 0 2.5 1.115 2.5 2.5v-1c0-1.385-1.115-2.5-2.5-2.5h-45z" fill="#fff" opacity=".1"/></svg>