<svg xmlns="http://www.w3.org/2000/svg" width="32" height="32" version="1">
 <path d="M28 26.75V13.257c0-.692-.562-1.326-1.25-1.25H4.25C3 12.006 3 13.204 3 13.204V26.75c0 .693.557 1.25 1.25 1.25h22.5c.693 0 1.25-.557 1.25-1.25z" opacity=".2"/>
 <path d="M3 23.75V7c0-1 0-2 1-2h9c1 0 1 1 1 2h12.814S28 7.006 28 8.256V23.75c0 .693-.558 1.25-1.25 1.25H4.25C3.558 25 3 24.443 3 23.75z" fill="#6c9b9a"/>
 <path d="M28 24.75V11.257c0-.692-.562-1.326-1.25-1.25H4.25C3 10.006 3 11.204 3 11.204V24.75c0 .693.557 1.25 1.25 1.25h22.5c.693 0 1.25-.557 1.25-1.25z" opacity=".2"/>
 <rect width="21" height="10" x="5" y="9" rx="1.167" ry="1.25" fill="#dcdcdc"/>
 <path d="M28 25.75V12.257c0-.692-.562-1.326-1.25-1.25H4.25C3 11.006 3 12.204 3 12.204V25.75c0 .693.557 1.25 1.25 1.25h22.5c.693 0 1.25-.557 1.25-1.25z" fill="#82abaa"/>
 <path d="M4 5C3 5 3 6 3 7v1c0-1 0-2 1-2h9c1 0 1 1 1 2h12.814S28 8.006 28 9.256v-1C28 7.006 26.814 7 26.814 7H14c0-1 0-2-1-2z" opacity=".1" fill="#fff"/>
 <circle cx="24" cy="24" r="8" opacity=".2"/>
 <circle fill="#5db41e" cx="24" cy="23" r="8"/>
 <path d="M24 18a5 5 0 0 0-5 5 5 5 0 0 0 5 5 5 5 0 0 0 5-5 5 5 0 0 0-5-5zm0 1a4 4 0 0 1 4 4 4 4 0 0 1-4 4 4 4 0 0 1-4-4 4 4 0 0 1 4-4z" fill="#fff"/>
 <path d="M27 18.5l-2 1.25L23 21v-5l2 1.25zM21 27.5l2 1.25L25 30v-5l-2 1.25z" fill="#fff"/>
</svg>
