<svg xmlns="http://www.w3.org/2000/svg" width="32" height="32" version="1">
 <rect width="24" height="17" x="4" y="1" rx="1.275" ry="1.275" fill="#82abaa"/>
 <rect width="24" height="17" x="4" y="3" rx="1.275" ry="1.275" opacity=".1"/>
 <rect width="24" height="17" x="4" y="4" rx="1.275" ry="1.275" fill="#a3be8c"/>
 <rect width="24" height="17" x="4" y="6" rx="1.275" ry="1.275" opacity=".1"/>
 <rect width="24" height="17" x="4" y="7" rx="1.275" ry="1.275" fill="#ebcb8b"/>
 <rect opacity=".2" width="28" height="20" x="2" y="11" rx="1.5" ry="1.5"/>
 <rect fill="#718382" width="28" height="20" x="2" y="10" rx="1.5" ry="1.5"/>
 <rect opacity=".2" width="10" height="3" x="11" y="19" rx="1" ry="1"/>
 <rect fill="#ececec" width="10" height="3" x="11" y="18" rx="1" ry="1"/>
 <path d="M5.275 1C4.57 1 4 1.569 4 2.275v1C4 2.57 4.569 2 5.275 2h21.45C27.431 2 28 2.569 28 3.275v-1C28 1.57 27.431 1 26.725 1H5.275zM5.275 4C4.57 4 4 4.569 4 5.275v1C4 5.569 4.569 5 5.275 5h21.45C27.431 5 28 5.569 28 6.275v-1C28 4.569 27.431 4 26.725 4zM5.275 7C4.57 7 4 7.569 4 8.275v1C4 8.569 4.569 8 5.275 8h21.45C27.431 8 28 8.569 28 9.275v-1C28 7.569 27.431 7 26.725 7z" fill="#fff" opacity=".1"/>
 <circle cx="24" cy="24" r="8" opacity=".2"/>
 <circle cx="24" cy="23" r="8" fill="#48aeff"/>
 <rect width="3" height="3" x="20" y="19" rx=".25" ry=".25" fill="#fff"/>
 <rect width="3" height="3" x="25" y="19" rx=".25" ry=".25" fill="#fff"/>
 <rect width="3" height="3" x="25" y="24" rx=".25" ry=".25" fill="#fff"/>
 <rect width="3" height="3" x="20" y="24" rx=".25" ry=".25" fill="#fff"/>
</svg>
