<svg xmlns="http://www.w3.org/2000/svg" xmlns:xlink="http://www.w3.org/1999/xlink" width="48" height="48">
 <defs>
 <radialGradient xlink:href="#a" id="b" cx="14" cy="8" fx="14" fy="8" r="10" gradientUnits="userSpaceOnUse" gradientTransform="rotate(40 51.422 -1.39) scale(3.4)"/>
 <linearGradient id="a">
 <stop offset="0" stop-color="#bbe0ea"/>
 <stop offset="1" stop-color="#5a7982"/>
 </linearGradient>
 </defs>
 <circle cx="24" cy="25" opacity=".2" r="20"/>
 <circle cx="24" cy="24" fill="url(#b)" r="20"/>
 <path d="M23.797 4A20 20 0 0 0 4 24a20 20 0 0 0 .008.55A20 20 0 0 1 24 5.052a20 20 0 0 1 19.992 19.492A20 20 0 0 0 44 24 20 20 0 0 0 24 4a20 20 0 0 0-.203 0z" opacity=".2" fill="#fff"/>
 <path d="M23.96 4A20 20 0 0 0 4 24a20 20 0 0 0 20 20 20 20 0 0 0 20-20A20 20 0 0 0 24 4a20 20 0 0 0-.04 0zm.04.691a19.31 19.31 0 0 1 2.036.129 25.584 25.584 0 0 0-7.09 4.91 26.291 26.291 0 0 0-5.487 7.71 25.177 25.177 0 0 1 .045-2.311 25.767 25.767 0 0 1 2.082-8.475A19.31 19.31 0 0 1 24 4.691zm2.709.195a19.31 19.31 0 0 1 3.08.735c-.072.119-.15.238-.228.368a20.78 20.78 0 0 0-2.525 6.89 21.811 21.811 0 0 0-.315 4.867 18.031 18.034 0 0 1-4.14 1.504 18.06 18.06 0 0 1-7.022.226 17.606 17.606 0 0 1-2.013-.46 26.386 26.386 0 0 1 5.825-8.856 27.411 27.411 0 0 1 7.338-5.274zm3.41.833a19.31 19.31 0 0 1 .25.08 37.976 37.976 0 0 1 1.287 1.64 34.129 34.129 0 0 1 2.298 3.541c-1.268 2.066-3.303 4.511-6.38 6.3l-.171.1a22.264 22.264 0 0 1 .248-4.396A22.691 22.691 0 0 1 30.12 5.72zm1.12.421A19.31 19.31 0 0 1 35.3 8.376a21.811 21.811 0 0 1-.996 2.01 31.62 31.62 0 0 0-2.25-3.255 34.057 34.057 0 0 0-.815-.991zm-16.215.78h.005a24.536 24.536 0 0 0-2.139 8.16 24.84 24.84 0 0 0-.026 3.724A18.994 18.994 0 0 1 7.4 15.9a22.039 22.039 0 0 1-.645-.511 19.31 19.31 0 0 1 8.27-8.465zm20.55 1.65a19.31 19.31 0 0 1 3.992 4.04 26.064 26.064 0 0 0-3.292 1.586 32.557 32.557 0 0 0-1.7-3.352 16.694 16.694 0 0 0 1-2.274zm-1.348 2.901a33.919 33.919 0 0 1 1.471 3.065 27.48 27.48 0 0 0-1.441.924 28.264 28.264 0 0 0-6.287 5.97 20.901 20.901 0 0 1-.52-3.29c.16-.089.32-.179.472-.269a17.99 17.99 0 0 0 6.305-6.4zm5.574 1.443A19.31 19.31 0 0 1 43.309 24a19.31 19.31 0 0 1-.109 2.031 35.48 35.48 0 0 1-4.286 1.515 30.746 30.746 0 0 0-.344-5.417 31.84 31.84 0 0 0-2.094-7.453 30.021 30.021 0 0 1 3.324-1.762zm-3.899 2.126a32.591 32.591 0 0 1 1.972 7.194 31.214 31.214 0 0 1 .348 5.5 34.446 34.446 0 0 1-6.811 1.062 21 21 0 0 1-3.029-5.895 19.889 19.889 0 0 1-.185-.61A29.131 29.131 0 0 1 35.9 15.04zm-29.307.686a17.3 17.3 0 0 0 .55.488 17.949 17.949 0 0 0 5.507 3.166 25.906 25.906 0 0 0-1.114 4.094A34.836 34.836 0 0 1 8.71 21.45a38.476 38.476 0 0 1-3.229-2.88 19.31 19.31 0 0 1 1.114-2.84zM26.77 18.5a20.7 20.7 0 0 0 .643 3.676 27.249 27.249 0 0 0-1.827 2.914 27.126 27.126 0 0 0-1.507 3.296 33.01 33.01 0 0 1-9.108-2.96 25.16 25.161 0 0 1-1.352-5.729 17.624 17.624 0 0 0 1.828.432 18.154 18.154 0 0 0 7.294-.186A18.171 18.174 0 0 0 26.77 18.5zm-21.376.406a29.21 29.21 0 0 0 2.996 2.92 32.229 32.229 0 0 0 3.036 2.28 26.034 26.034 0 0 0 .133 9.057 25.45 25.45 0 0 0 2.727 7.494A19.31 19.31 0 0 1 4.69 24a19.31 19.31 0 0 1 .703-5.094zm7.637 1.56a25.139 25.139 0 0 0 1.03 4.494 36.029 36.029 0 0 1-1.885-1.08 25.52 25.52 0 0 1 .857-3.416zM27.67 23.04l.028.086a20.86 20.86 0 0 0 2.889 5.704 33.169 33.169 0 0 1-5.8-.331 27.404 27.404 0 0 1 1.12-2.489 27.506 27.506 0 0 1 1.763-2.97zm-15.599 1.48a33.043 33.043 0 0 0 2.306 1.33 24.836 24.836 0 0 0 .84 2 25.094 25.094 0 0 0 7.1 8.903 27.691 27.691 0 0 0 .063 3.94 26.466 26.469 0 0 0 .351 2.572 19.31 19.31 0 0 1-7.754-2.212 26.801 26.801 0 0 1-2.807-8.004 26.257 26.257 0 0 1-.099-8.526zm3.25 1.808a32.174 32.174 0 0 0 8.274 2.695l.235.043a27.95 27.95 0 0 0-1.458 6.9 25.116 25.116 0 0 1-6.402-8.193 24.704 24.704 0 0 1-.649-1.445zm27.811.14a19.31 19.31 0 0 1-.565 2.75 16.996 16.996 0 0 0-3.807.81c.062-.625.11-1.265.135-1.92a30.794 30.794 0 0 0 4.24-1.64zm-4.928 1.842a33.015 33.015 0 0 1-.139 1.968 17.054 17.054 0 0 0-3.605 1.905 22.357 22.357 0 0 1-2.569-2.75 32.954 32.954 0 0 0 6.314-1.12zm-13.674.869a32.434 32.434 0 0 0 6.545.309 21.66 21.66 0 0 0 2.885 3.06 16.466 16.466 0 0 0-1.65 1.41 16.716 16.716 0 0 0-3.838 5.791 25.191 25.194 0 0 1-4.271-2.381c-.42-.295-.843-.605-1.26-.935a28.774 28.776 0 0 1 1.589-7.254zm17.831.669a19.31 19.31 0 0 1-2.989 5.728 23.274 23.274 0 0 1-1.472-.818 31.857 31.857 0 0 0 .77-3.978 17.56 17.56 0 0 1 3.691-.932zm-4.391 1.21h.002a33.714 33.714 0 0 1-.602 3.362 22.621 22.621 0 0 1-2.36-1.75 17.243 17.243 0 0 1 2.96-1.614zm-3.453 1.957a21.01 21.01 0 0 0 2.734 1.894 34.18 34.18 0 0 1-1.336 4.196l-.013.04a19.31 19.31 0 0 1-3.201 2.04l-.08-.017a26.716 26.716 0 0 1-3.624-1.198 17.146 17.146 0 0 1 3.8-5.514 16.49 16.49 0 0 1 1.72-1.441zm3.26 2.193a19.36 19.36 0 0 0 1.353.667 19.31 19.31 0 0 1-2.438 2.58 31.606 31.606 0 0 0 1.086-3.247zm-14.89 1.982a24.489 24.489 0 0 0 5.405 3.04 16.251 16.251 0 0 0-.728 2.729 19.31 19.31 0 0 1-3.563.349 19.31 19.31 0 0 1-.88-.03 33.029 33.029 0 0 1-.249-2.619 29.664 29.664 0 0 1 .015-3.469zm5.92 3.239a24.22 24.22 0 0 0 3.38 1.016 19.31 19.31 0 0 1-4.18 1.43 18.271 18.271 0 0 1 .8-2.446z" opacity=".2"/>
 <path d="M14.496 19.06a1.543 1.543 0 0 1-1.543 1.543 1.543 1.543 0 0 1-1.543-1.543 1.543 1.543 0 0 1 1.543-1.543 1.543 1.543 0 0 1 1.543 1.543zm1.008 6.579a.87.87 0 0 1-.871.87.87.87 0 0 1-.872-.872.87.87 0 0 1 .872-.868.87.87 0 0 1 .871.87zm-2.93-1.629a.87.87 0 0 1-.871.87.87.87 0 0 1-.872-.87.87.87 0 0 1 .872-.871.87.87 0 0 1 .871.871zm11.277 12.75a1.23 1.23 0 0 1-1.231 1.23 1.23 1.23 0 0 1-1.23-1.23 1.23 1.23 0 0 1 1.23-1.23 1.23 1.23 0 0 1 1.231 1.23zm2.125-7.681a1.611 1.611 0 0 1-1.612 1.611 1.611 1.611 0 0 1-1.613-1.611 1.611 1.611 0 0 1 1.615-1.613 1.611 1.611 0 0 1 1.61 1.613zm3.628-6.548a1.789 1.789 0 0 1-1.785 1.789 1.789 1.789 0 0 1-1.789-1.789 1.789 1.789 0 0 1 1.789-1.787 1.789 1.789 0 0 1 1.785 1.787zm-1.671-4.622a.87.87 0 0 1-.872.87.87.87 0 0 1-.87-.872.87.87 0 0 1 .872-.867.87.87 0 0 1 .868.869zm7.526-7.145a1.16 1.16 0 0 1-1.16 1.162 1.16 1.16 0 0 1-1.163-1.16 1.16 1.16 0 0 1 1.16-1.162 1.16 1.16 0 0 1 1.163 1.16zm1.731 3.875a1.04 1.04 0 0 1-1.04 1.04 1.04 1.04 0 0 1-1.039-1.04 1.04 1.04 0 0 1 1.04-1.038 1.04 1.04 0 0 1 1.039 1.039zm-7.711 25.495a.886.886 0 0 1-.889.887.886.886 0 0 1-.886-.887.886.886 0 0 1 .887-.888.886.886 0 0 1 .889.888zm5.757-7.475a.804.804 0 0 1-.806.802.804.804 0 0 1-.801-.802.804.804 0 0 1 .801-.803.804.804 0 0 1 .806.803zm3.96-2.113a.804.804 0 0 1-.805.804.804.804 0 0 1-.801-.804.804.804 0 0 1 .801-.805.804.804 0 0 1 .805.805zm-.79 4.315a.804.804 0 0 1-.802.805.804.804 0 0 1-.804-.805.804.804 0 0 1 .804-.802.804.804 0 0 1 .802.802zm1.06-6.872a.891.891 0 0 1-.892.891.891.891 0 0 1-.893-.891.891.891 0 0 1 .893-.893.891.891 0 0 1 .892.893z" fill="#4a5f64"/>
</svg>
