<svg xmlns="http://www.w3.org/2000/svg" xmlns:xlink="http://www.w3.org/1999/xlink" width="24" height="24"><defs><radialGradient xlink:href="#a" id="b" cx="18.111" cy="272.196" fx="18.111" fy="272.196" r="16.408" gradientTransform="matrix(2.3642 .92497 -.9802 2.50533 255.358 -682.168)" gradientUnits="userSpaceOnUse"/><linearGradient id="a"><stop offset="0" stop-color="#bbe0ea"/><stop offset="1" stop-color="#5a7982"/></linearGradient></defs><g transform="translate(1.843 1.658) scale(.42331)" fill-opacity=".699"><circle cx="24.309" cy="25.06" r="23.584" opacity=".5" fill="#020202"/><circle cx="23.68" cy="23.801" r="23.584" opacity=".5" fill="#fff"/></g><g transform="translate(1.838 1.8) scale(.42331)"><circle r="23.585" cy="24.281" cx="24" transform="translate(.005 -.187)" fill="#5e8694"/><path d="M24 .696a23.585 23.585 0 0 0-10.277 2.397c-1.088 2.511-2.25 6.05-2.542 10.35-.062.915-.083 1.86-.058 2.825 1.774-3.817 4.196-6.977 6.701-9.416 3.132-3.05 6.298-4.906 8.66-5.995A23.585 23.585 0 0 0 24 .696zm3.307.24a33.48 33.48 0 0 0-8.96 6.443c-2.737 2.758-5.374 6.396-7.113 10.816.779.226 1.598.417 2.456.56 2.655.445 5.59.412 8.577-.277a22.025 22.025 0 0 0 5.056-1.834c-.1-2.106.058-4.116.386-5.945.662-3.695 1.98-6.545 3.087-8.416.093-.158.184-.306.273-.45a23.585 23.585 0 0 0-3.762-.898zm4.166 1.019a27.715 27.715 0 0 0-3.01 8.872 27.193 27.193 0 0 0-.307 5.368l.21-.12c3.758-2.186 6.244-5.174 7.791-7.696a41.684 41.684 0 0 0-2.806-4.328 46.382 46.382 0 0 0-1.575-2.005 23.585 23.585 0 0 0-.303-.091zm1.367.513c.325.379.658.78.998 1.21a38.62 38.62 0 0 1 2.748 3.975 26.64 26.64 0 0 0 1.218-2.454 23.585 23.585 0 0 0-4.964-2.73zm-19.802.956A23.585 23.585 0 0 0 2.935 13.76c.244.2.506.41.789.625a23.198 23.198 0 0 0 6.675 3.55c-.107-1.57-.09-3.097.03-4.549a29.967 29.967 0 0 1 2.61-9.962zm25.1 2.01a20.39 20.39 0 0 1-1.222 2.777 39.762 39.762 0 0 1 2.074 4.094 31.834 31.834 0 0 1 4.023-1.937 23.585 23.585 0 0 0-4.876-4.934zM36.49 8.98c-1.505 2.583-3.958 5.584-7.701 7.816-.19.112-.382.222-.576.33.102 1.313.306 2.659.634 4.017a34.521 34.521 0 0 1 7.68-7.29 33.564 33.564 0 0 1 1.756-1.134 41.426 41.426 0 0 0-1.793-3.74zm6.807 1.763a36.669 36.669 0 0 0-4.057 2.15 38.89 38.89 0 0 1 2.557 9.102 37.553 37.553 0 0 1 .42 6.618 43.334 43.334 0 0 0 5.231-1.853 23.585 23.585 0 0 0 .137-2.478 23.585 23.585 0 0 0-4.288-13.539zm-4.761 2.593a35.58 35.58 0 0 0-9.41 8.858 24.29 24.29 0 0 0 .228.747 25.65 25.65 0 0 0 3.696 7.2 42.072 42.072 0 0 0 8.319-1.298 38.123 38.123 0 0 0-.429-6.717 39.807 39.807 0 0 0-2.404-8.79zm-35.795.84a23.585 23.585 0 0 0-1.358 3.47c.953.954 2.26 2.175 3.937 3.513a42.548 42.548 0 0 0 3.454 2.48 31.64 31.64 0 0 1 1.366-5 21.92 21.92 0 0 1-6.727-3.867 21.13 21.13 0 0 1-.672-.596zm24.643 3.386a22.196 22.196 0 0 1-4.922 1.764 22.173 22.173 0 0 1-8.91.228 21.526 21.526 0 0 1-2.233-.53 30.732 30.732 0 0 0 1.655 7 40.318 40.318 0 0 0 11.12 3.617 33.13 33.13 0 0 1 1.842-4.027 33.28 33.28 0 0 1 2.232-3.559 25.284 25.284 0 0 1-.784-4.492zm-26.107.497a23.585 23.585 0 0 0-.862 6.223 23.585 23.585 0 0 0 11.718 20.344 31.083 31.083 0 0 1-3.33-9.152 31.796 31.796 0 0 1-.163-11.064 39.363 39.363 0 0 1-3.705-2.785 35.676 35.676 0 0 1-3.658-3.566zm9.325 1.903a31.168 31.168 0 0 0-1.042 4.173c.73.448 1.497.89 2.301 1.318a30.702 30.702 0 0 1-1.259-5.49zm17.876 3.149a33.594 33.594 0 0 0-2.152 3.625 33.47 33.47 0 0 0-1.367 3.042 40.51 40.51 0 0 0 7.087.405 25.478 25.478 0 0 1-3.535-6.97l-.033-.102zM9.43 24.92a32.069 32.069 0 0 0 .12 10.414c.728 4.09 2.15 7.401 3.43 9.778a23.585 23.585 0 0 0 9.468 2.699 32.326 32.326 0 0 1-.43-3.14 33.823 33.823 0 0 1-.074-4.812 30.65 30.65 0 0 1-8.672-10.875 30.335 30.335 0 0 1-1.03-2.442 40.36 40.36 0 0 1-2.812-1.622zm3.969 2.204a30.173 30.173 0 0 0 .79 1.766 30.676 30.676 0 0 0 7.821 10.008 34.137 34.137 0 0 1 1.782-8.43c-.096-.016-.192-.032-.288-.05A39.296 39.296 0 0 1 13.4 27.124zm33.967.173a37.612 37.612 0 0 1-5.173 2.004c-.033.799-.091 1.58-.17 2.342 1.609-.539 3.185-.85 4.654-.987a23.585 23.585 0 0 0 .69-3.359zm-6.02 2.253a40.25 40.25 0 0 1-7.707 1.368 27.307 27.307 0 0 0 3.133 3.36 20.829 20.829 0 0 1 4.402-2.33c.08-.78.138-1.58.172-2.398zm-16.7 1.057a35.145 35.145 0 0 0-1.938 8.86c.508.404 1.021.785 1.535 1.142a30.77 30.77 0 0 0 5.222 2.91 20.416 20.416 0 0 1 4.684-7.077 20.112 20.112 0 0 1 2.012-1.723 26.454 26.454 0 0 1-3.52-3.735 39.613 39.613 0 0 1-7.995-.377zm21.777.816c-1.432.2-2.957.562-4.506 1.139a38.909 38.909 0 0 1-.94 4.856 28.427 28.427 0 0 0 1.796 1.006 23.585 23.585 0 0 0 3.65-7zm-5.36 1.478a21.059 21.059 0 0 0-3.618 1.97 27.63 27.63 0 0 0 2.881 2.14c.3-1.29.554-2.662.738-4.11zm-4.221 2.392a20.14 20.14 0 0 0-2.097 1.762c-2.231 2.15-3.695 4.556-4.645 6.735a32.63 32.63 0 0 0 4.428 1.461c.032.01.063.016.095.024a23.585 23.585 0 0 0 3.912-2.499l.018-.045a41.746 41.746 0 0 0 1.629-5.123 25.661 25.661 0 0 1-3.34-2.314zm3.987 2.678a38.602 38.602 0 0 1-1.327 3.967 23.585 23.585 0 0 0 2.977-3.154 23.644 23.644 0 0 1-1.65-.813zm-18.19 2.42a36.231 36.231 0 0 0-.017 4.236 40.34 40.34 0 0 0 .304 3.2 23.585 23.585 0 0 0 1.073.039 23.585 23.585 0 0 0 4.353-.425 19.849 19.849 0 0 1 .892-3.337 29.91 29.91 0 0 1-6.605-3.713zm7.227 3.957a22.318 22.318 0 0 0-.97 2.988 23.585 23.585 0 0 0 5.102-1.75 29.58 29.58 0 0 1-4.132-1.238z" transform="translate(.005 -.187)" fill="url(#b)"/><circle r="23.447" cy="24.281" cx="24.003" transform="translate(.005 -.187)" fill="none" stroke="#4a5f64" stroke-width=".277" stroke-linecap="square"/><g fill="#4a5f64"><path d="M12.398 18.06a1.885 1.885 0 0 1-1.885 1.885 1.885 1.885 0 0 1-1.884-1.884 1.885 1.885 0 0 1 1.884-1.885 1.885 1.885 0 0 1 1.885 1.885zM13.627 26.094a1.063 1.063 0 0 1-1.063 1.063 1.063 1.063 0 0 1-1.064-1.063 1.063 1.063 0 0 1 1.064-1.063 1.063 1.063 0 0 1 1.063 1.063zM10.049 24.105a1.063 1.063 0 0 1-1.063 1.063 1.063 1.063 0 0 1-1.063-1.063 1.063 1.063 0 0 1 1.063-1.063 1.063 1.063 0 0 1 1.063 1.063zM23.823 39.679a1.502 1.502 0 0 1-1.503 1.502 1.502 1.502 0 0 1-1.502-1.502 1.502 1.502 0 0 1 1.502-1.502 1.502 1.502 0 0 1 1.503 1.502zM26.419 30.295a1.969 1.969 0 0 1-1.969 1.969 1.969 1.969 0 0 1-1.969-1.969 1.969 1.969 0 0 1 1.97-1.969 1.969 1.969 0 0 1 1.968 1.97zM30.85 22.3a2.183 2.183 0 0 1-2.183 2.184 2.183 2.183 0 0 1-2.183-2.183 2.183 2.183 0 0 1 2.183-2.183A2.183 2.183 0 0 1 30.85 22.3zM28.807 16.654a1.062 1.062 0 0 1-1.062 1.062 1.062 1.062 0 0 1-1.062-1.062 1.062 1.062 0 0 1 1.062-1.062 1.062 1.062 0 0 1 1.062 1.062zM38 7.929a1.418 1.418 0 0 1-1.419 1.418 1.418 1.418 0 0 1-1.418-1.418 1.418 1.418 0 0 1 1.418-1.419A1.418 1.418 0 0 1 38 7.93zM40.114 12.66a1.268 1.268 0 0 1-1.268 1.27 1.268 1.268 0 0 1-1.269-1.27 1.268 1.268 0 0 1 1.269-1.267 1.268 1.268 0 0 1 1.268 1.268zM30.696 43.8a1.083 1.083 0 0 1-1.084 1.083A1.083 1.083 0 0 1 28.53 43.8a1.083 1.083 0 0 1 1.083-1.084 1.083 1.083 0 0 1 1.084 1.084zM37.727 34.669a.981.981 0 0 1-.982.981.981.981 0 0 1-.981-.981.981.981 0 0 1 .981-.981.981.981 0 0 1 .982.981zM42.566 32.088a.981.981 0 0 1-.982.982.981.981 0 0 1-.981-.982.981.981 0 0 1 .981-.981.981.981 0 0 1 .982.981zM41.601 37.36a.981.981 0 0 1-.981.982.981.981 0 0 1-.982-.982.981.981 0 0 1 .982-.981.981.981 0 0 1 .981.981zM42.895 28.965a1.09 1.09 0 0 1-1.09 1.09 1.09 1.09 0 0 1-1.09-1.09 1.09 1.09 0 0 1 1.09-1.09 1.09 1.09 0 0 1 1.09 1.09z"/></g></g></svg>