<svg xmlns="http://www.w3.org/2000/svg" xmlns:xlink="http://www.w3.org/1999/xlink" width="32" height="32">
 <defs>
 <radialGradient xlink:href="#a" id="b" cx="14" cy="8" fx="14" fy="8" r="10" gradientUnits="userSpaceOnUse" gradientTransform="scale(2.38) rotate(40.2 15.4 -1.07)"/>
 <linearGradient id="a">
 <stop offset="0" stop-color="#bbe0ea"/>
 <stop offset="1" stop-color="#5a7982"/>
 </linearGradient>
 </defs>
 <circle cx="16" cy="17" opacity=".2" r="14"/>
 <circle cx="16" cy="16" r="14" fill="url(#b)"/>
 <path d="M16 2A14 14 0 0 0 2 16a14 14 0 0 0 .01.482A14 14 0 0 1 16 3a14 14 0 0 1 13.99 13.484A14 14 0 0 0 30 16 14 14 0 0 0 16 2z" opacity=".2" fill="#fff"/>
 <path d="M15.972 2A14 14 0 0 0 2 16a14 14 0 0 0 14 14 14 14 0 0 0 14-14A14 14 0 0 0 16 2a14 14 0 0 0-.028 0zm.028.484a13.517 13.517 0 0 1 1.425.09 17.909 17.909 0 0 0-4.963 3.437 18.404 18.404 0 0 0-3.841 5.397 17.624 17.624 0 0 1 .032-1.618 18.037 18.037 0 0 1 1.457-5.932A13.517 13.517 0 0 1 16 2.484zm1.896.136a13.517 13.517 0 0 1 2.156.515c-.05.083-.105.166-.159.257a14.546 14.546 0 0 0-1.768 4.823 15.268 15.268 0 0 0-.22 3.407 12.622 12.624 0 0 1-2.898 1.053 12.642 12.642 0 0 1-4.916.158 12.324 12.324 0 0 1-1.409-.322 18.47 18.47 0 0 1 4.078-6.199 19.188 19.188 0 0 1 5.136-3.692zm2.387.583a13.517 13.517 0 0 1 .175.056 26.583 26.583 0 0 1 .901 1.148 23.89 23.89 0 0 1 1.609 2.479c-.888 1.446-2.312 3.158-4.466 4.41l-.12.07a15.585 15.585 0 0 1 .174-3.077 15.884 15.884 0 0 1 1.728-5.085zm.784.295a13.517 13.517 0 0 1 2.843 1.565 15.268 15.268 0 0 1-.697 1.407 22.134 22.134 0 0 0-1.575-2.278 23.84 23.84 0 0 0-.571-.694zm-11.35.546h.003a17.175 17.175 0 0 0-1.497 5.712 17.388 17.388 0 0 0-.018 2.607 13.296 13.296 0 0 1-3.826-2.033 15.427 15.427 0 0 1-.451-.358 13.517 13.517 0 0 1 5.789-5.925zm14.385 1.155a13.517 13.517 0 0 1 2.794 2.828 18.245 18.245 0 0 0-2.304 1.11 22.79 22.79 0 0 0-1.19-2.346 11.686 11.686 0 0 0 .7-1.592zm-.944 2.031a23.743 23.743 0 0 1 1.03 2.145 19.236 19.236 0 0 0-1.009.647 19.785 19.785 0 0 0-4.401 4.179 14.631 14.631 0 0 1-.364-2.303c.112-.062.224-.125.331-.188a12.593 12.593 0 0 0 4.413-4.48zm3.902 1.01A13.517 13.517 0 0 1 29.516 16a13.517 13.517 0 0 1-.076 1.422 24.836 24.836 0 0 1-3 1.06 21.522 21.522 0 0 0-.241-3.792 22.288 22.288 0 0 0-1.466-5.217A21.015 21.015 0 0 1 27.06 8.24zm-2.729 1.488a22.814 22.814 0 0 1 1.38 5.036 21.85 21.85 0 0 1 .244 3.85 24.112 24.112 0 0 1-4.768.743 14.7 14.7 0 0 1-2.12-4.126 13.922 13.922 0 0 1-.13-.427 20.392 20.392 0 0 1 5.393-5.076zm-20.515.48a12.11 12.11 0 0 0 .385.342 12.564 12.564 0 0 0 3.855 2.216 18.134 18.134 0 0 0-.78 2.866 24.385 24.385 0 0 1-1.98-1.418 26.933 26.933 0 0 1-2.26-2.016 13.517 13.517 0 0 1 .78-1.988zm14.123 1.942a14.49 14.49 0 0 0 .45 2.573 19.074 19.074 0 0 0-1.279 2.04 18.988 18.988 0 0 0-1.055 2.307 23.107 23.107 0 0 1-6.375-2.072 17.612 17.613 0 0 1-.947-4.01 12.337 12.337 0 0 0 1.28.302 12.708 12.708 0 0 0 5.106-.13 12.72 12.722 0 0 0 2.82-1.01zm-14.963.284a20.447 20.447 0 0 0 2.097 2.044 22.56 22.56 0 0 0 2.125 1.596 18.224 18.224 0 0 0 .093 6.34A17.815 17.815 0 0 0 9.2 27.66 13.517 13.517 0 0 1 2.483 16a13.517 13.517 0 0 1 .492-3.566zm5.346 1.092a17.597 17.597 0 0 0 .721 3.146 25.22 25.22 0 0 1-1.32-.756 17.864 17.864 0 0 1 .6-2.391zm10.246 1.803l.02.06a14.602 14.602 0 0 0 2.022 3.993 23.218 23.218 0 0 1-4.06-.232 19.183 19.183 0 0 1 .784-1.742 19.254 19.254 0 0 1 1.234-2.079zM7.649 16.365a23.13 23.13 0 0 0 1.614.931 17.385 17.385 0 0 0 .588 1.4 17.566 17.566 0 0 0 4.97 6.232 19.384 19.384 0 0 0 .044 2.758 18.526 18.528 0 0 0 .246 1.8 13.517 13.517 0 0 1-5.428-1.548 18.761 18.761 0 0 1-1.965-5.603 18.38 18.38 0 0 1-.069-5.968zm2.275 1.265a22.522 22.522 0 0 0 5.792 1.887l.164.03a19.565 19.565 0 0 0-1.02 4.83 17.581 17.581 0 0 1-4.482-5.735 17.293 17.293 0 0 1-.454-1.012zm19.468.098a13.517 13.517 0 0 1-.396 1.925 11.897 11.897 0 0 0-2.665.567c.044-.437.077-.885.095-1.344a21.556 21.556 0 0 0 2.968-1.148zm-3.45 1.29c-.019.47-.052.929-.097 1.377a11.938 11.938 0 0 0-2.524 1.334 15.65 15.65 0 0 1-1.798-1.925 23.068 23.068 0 0 0 4.42-.784zm-9.572.608a22.704 22.704 0 0 0 4.582.216 15.162 15.162 0 0 0 2.019 2.142 11.526 11.526 0 0 0-1.155.987 11.701 11.701 0 0 0-2.686 4.054 17.634 17.636 0 0 1-2.99-1.667c-.294-.206-.59-.423-.882-.654a20.142 20.143 0 0 1 1.112-5.078zm12.482.468a13.517 13.517 0 0 1-2.092 4.01 16.292 16.292 0 0 1-1.031-.573 22.3 22.3 0 0 0 .539-2.784 12.292 12.292 0 0 1 2.584-.653zm-3.074.847h.002a23.6 23.6 0 0 1-.422 2.354 15.835 15.835 0 0 1-1.652-1.225 12.07 12.07 0 0 1 2.072-1.13zm-2.417 1.37a14.707 14.707 0 0 0 1.914 1.326 23.926 23.926 0 0 1-.935 2.937l-.009.028a13.517 13.517 0 0 1-2.241 1.428l-.056-.012a18.701 18.701 0 0 1-2.537-.838 12.002 12.002 0 0 1 2.66-3.86 11.543 11.543 0 0 1 1.204-1.009zm2.282 1.535a13.552 13.552 0 0 0 .947.467 13.517 13.517 0 0 1-1.706 1.806 22.124 22.124 0 0 0 .76-2.273zM15.22 25.234a17.142 17.142 0 0 0 3.784 2.128 11.376 11.376 0 0 0-.51 1.91 13.517 13.517 0 0 1-2.494.244 13.517 13.517 0 0 1-.616-.021 23.12 23.12 0 0 1-.174-1.833 20.765 20.765 0 0 1 .01-2.428zm4.144 2.267a16.954 16.954 0 0 0 2.366.711 13.517 13.517 0 0 1-2.926 1.001 12.79 12.79 0 0 1 .56-1.712z" opacity=".2"/>
 <path d="M9.347 12.542a1.08 1.08 0 0 1-1.08 1.08 1.08 1.08 0 0 1-1.08-1.08 1.08 1.08 0 0 1 1.08-1.08 1.08 1.08 0 0 1 1.08 1.08zm.706 4.605a.609.609 0 0 1-.61.609.609.609 0 0 1-.61-.61.609.609 0 0 1 .61-.608.609.609 0 0 1 .61.609zm-2.051-1.14a.609.609 0 0 1-.61.609.609.609 0 0 1-.61-.609.609.609 0 0 1 .61-.61.609.609 0 0 1 .61.61zm7.894 8.925a.861.861 0 0 1-.862.861.861.861 0 0 1-.861-.861.861.861 0 0 1 .861-.861.861.861 0 0 1 .862.861zm1.487-5.377a1.128 1.128 0 0 1-1.128 1.128 1.128 1.128 0 0 1-1.129-1.128 1.128 1.128 0 0 1 1.13-1.129 1.128 1.128 0 0 1 1.127 1.129zm2.54-4.583a1.252 1.252 0 0 1-1.25 1.252 1.252 1.252 0 0 1-1.252-1.252 1.252 1.252 0 0 1 1.252-1.251 1.252 1.252 0 0 1 1.25 1.251zm-1.17-3.236a.609.609 0 0 1-.61.609.609.609 0 0 1-.609-.61.609.609 0 0 1 .61-.607.609.609 0 0 1 .608.608zm5.268-5.001a.812.812 0 0 1-.812.813.812.812 0 0 1-.814-.812.812.812 0 0 1 .812-.813.812.812 0 0 1 .814.812zm1.212 2.712a.728.728 0 0 1-.728.728.728.728 0 0 1-.727-.728.728.728 0 0 1 .728-.726.728.728 0 0 1 .727.727zm-5.398 17.847a.62.62 0 0 1-.622.621.62.62 0 0 1-.62-.621.62.62 0 0 1 .621-.622.62.62 0 0 1 .622.622zm4.03-5.233a.563.563 0 0 1-.564.562.563.563 0 0 1-.561-.562.563.563 0 0 1 .561-.562.563.563 0 0 1 .564.562zm2.772-1.479a.563.563 0 0 1-.563.563.563.563 0 0 1-.561-.563.563.563 0 0 1 .561-.563.563.563 0 0 1 .563.563zm-.553 3.021a.563.563 0 0 1-.561.563.563.563 0 0 1-.563-.563.563.563 0 0 1 .563-.562.563.563 0 0 1 .561.562zm.742-4.811a.624.624 0 0 1-.624.624.624.624 0 0 1-.625-.624.624.624 0 0 1 .625-.625.624.624 0 0 1 .624.625z" fill="#4a5f64"/>
</svg>
