<svg xmlns="http://www.w3.org/2000/svg" xmlns:xlink="http://www.w3.org/1999/xlink" width="16" height="16">
 <defs>
 <radialGradient xlink:href="#a" id="b" cx="14" cy="8" fx="14" fy="8" r="10" gradientUnits="userSpaceOnUse" gradientTransform="matrix(1.04 .88 -.88 1.04 2.88 -15.04)"/>
 <linearGradient id="a">
 <stop offset="0" stop-color="#bbe0ea"/>
 <stop offset="1" stop-color="#5a7982"/>
 </linearGradient>
 </defs>
 <circle cx="8" cy="8" fill="url(#b)" r="8"/>
 <path d="M7.984 0A8 8 0 0 0 0 8a8 8 0 0 0 8 8 8 8 0 0 0 8-8 8 8 0 0 0-8-8 8 8 0 0 0-.016 0zM8 .277a7.724 7.724 0 0 1 .814.051 10.234 10.234 0 0 0-2.836 1.964 10.517 10.517 0 0 0-2.195 3.084c-.008-.316-.001-.626.019-.925.096-1.408.476-2.567.832-3.39A7.724 7.724 0 0 1 8 .278zm1.083.077a7.724 7.724 0 0 1 1.232.295c-.029.047-.06.094-.09.146a8.312 8.312 0 0 0-1.01 2.756 8.725 8.725 0 0 0-.126 1.947 7.213 7.214 0 0 1-1.656.602 7.224 7.224 0 0 1-2.81.09 7.042 7.042 0 0 1-.805-.184 10.554 10.554 0 0 1 2.33-3.542A10.965 10.965 0 0 1 9.084.354zm1.364.333a7.724 7.724 0 0 1 .1.032 15.19 15.19 0 0 1 .515.656 13.651 13.651 0 0 1 .92 1.417 7.345 7.345 0 0 1-2.552 2.52l-.07.04a8.906 8.906 0 0 1 .1-1.758 9.077 9.077 0 0 1 .988-2.906zm.448.169a7.724 7.724 0 0 1 1.625.894 8.725 8.725 0 0 1-.398.804 12.648 12.648 0 0 0-.9-1.301c-.112-.141-.22-.272-.327-.397zm-6.485.312h.001a9.814 9.814 0 0 0-.855 3.264 9.936 9.936 0 0 0-.01 1.49A7.598 7.598 0 0 1 1.359 4.76a8.815 8.815 0 0 1-.257-.205A7.724 7.724 0 0 1 4.41 1.17zm8.22.66a7.724 7.724 0 0 1 1.596 1.616 10.426 10.426 0 0 0-1.316.634 13.022 13.022 0 0 0-.68-1.34 6.678 6.678 0 0 0 .4-.91zm-.54 1.16a13.567 13.567 0 0 1 .588 1.226 10.992 10.992 0 0 0-.576.37 11.306 11.306 0 0 0-2.515 2.388 8.36 8.36 0 0 1-.208-1.316l.19-.107a7.196 7.196 0 0 0 2.521-2.56zm2.23.578A7.724 7.724 0 0 1 15.723 8a7.724 7.724 0 0 1-.043.813 14.192 14.192 0 0 1-1.714.605 12.298 12.298 0 0 0-.138-2.167 12.736 12.736 0 0 0-.838-2.98 12.009 12.009 0 0 1 1.33-.705zm-1.56.85a13.037 13.037 0 0 1 .789 2.878 12.486 12.486 0 0 1 .14 2.2 13.778 13.778 0 0 1-2.725.424 8.4 8.4 0 0 1-1.211-2.357 7.955 7.955 0 0 1-.075-.244 11.653 11.653 0 0 1 3.082-2.901zM1.039 4.69a6.92 6.92 0 0 0 .22.196A7.18 7.18 0 0 0 3.46 6.152a10.362 10.362 0 0 0-.447 1.638 13.934 13.934 0 0 1-1.13-.81A15.39 15.39 0 0 1 .591 5.826a7.724 7.724 0 0 1 .446-1.136zm8.07 1.11a8.28 8.28 0 0 0 .258 1.47 10.9 10.9 0 0 0-.732 1.166 10.85 10.85 0 0 0-.603 1.318A13.204 13.204 0 0 1 4.39 8.57a10.064 10.065 0 0 1-.542-2.292 7.05 7.05 0 0 0 .731.173 7.262 7.262 0 0 0 2.919-.074A7.269 7.27 0 0 0 9.108 5.8zm-8.55.162A11.684 11.684 0 0 0 1.756 7.13a12.891 12.891 0 0 0 1.214.912 10.414 10.414 0 0 0 .053 3.624 10.18 10.18 0 0 0 1.091 2.996A7.724 7.724 0 0 1 .277 8a7.724 7.724 0 0 1 .28-2.038zm3.055.624a10.055 10.055 0 0 0 .412 1.798 14.411 14.411 0 0 1-.755-.432 10.208 10.208 0 0 1 .343-1.366zm5.854 1.03l.011.034a8.344 8.344 0 0 0 1.156 2.283 13.267 13.267 0 0 1-2.32-.133 10.962 10.962 0 0 1 .448-.995 11.002 11.002 0 0 1 .705-1.188zm-6.239.593a13.218 13.218 0 0 0 .922.532 9.934 9.934 0 0 0 .336.8 10.038 10.038 0 0 0 2.84 3.56 11.077 11.077 0 0 0 .025 1.577 10.586 10.587 0 0 0 .141 1.028 7.724 7.724 0 0 1-3.102-.884 10.72 10.72 0 0 1-1.123-3.202 10.502 10.502 0 0 1-.039-3.41zm1.3.722a12.87 12.87 0 0 0 3.31 1.079l.093.016a11.18 11.18 0 0 0-.582 2.761A10.046 10.046 0 0 1 4.787 9.51a9.882 9.882 0 0 1-.259-.579zm11.125.056a7.724 7.724 0 0 1-.227 1.1 6.798 6.798 0 0 0-1.523.324 12.3 12.3 0 0 0 .055-.768 12.318 12.318 0 0 0 1.696-.656zm-1.971.738c-.012.268-.03.53-.056.786a6.822 6.822 0 0 0-1.443.763 8.943 8.943 0 0 1-1.027-1.1 13.182 13.182 0 0 0 2.526-.448zm-5.47.347a12.974 12.974 0 0 0 2.618.123 8.664 8.664 0 0 0 1.153 1.224 6.586 6.586 0 0 0-.66.564A6.686 6.686 0 0 0 9.79 14.3a10.077 10.078 0 0 1-1.709-.953 10.894 10.894 0 0 1-.504-.373 11.51 11.51 0 0 1 .635-2.902zm7.132.267a7.724 7.724 0 0 1-1.195 2.292 9.31 9.31 0 0 1-.59-.328 12.742 12.742 0 0 0 .308-1.59 7.024 7.024 0 0 1 1.477-.374zm-1.757.484h.002c-.06.475-.144.923-.242 1.346a9.049 9.049 0 0 1-.944-.7 6.897 6.897 0 0 1 1.184-.646zm-1.38.783a8.404 8.404 0 0 0 1.093.758 13.672 13.672 0 0 1-.534 1.678l-.005.016a7.724 7.724 0 0 1-1.281.816l-.032-.007a10.686 10.686 0 0 1-1.45-.478 6.858 6.858 0 0 1 1.52-2.207 6.596 6.596 0 0 1 .688-.576zm1.303.877a7.744 7.744 0 0 0 .541.267 7.724 7.724 0 0 1-.974 1.032 12.642 12.642 0 0 0 .434-1.299zm-5.956.794a9.795 9.795 0 0 0 2.163 1.216 6.5 6.5 0 0 0-.292 1.091 7.724 7.724 0 0 1-1.425.14 7.724 7.724 0 0 1-.352-.013 13.211 13.211 0 0 1-.1-1.047 11.866 11.866 0 0 1 .006-1.387zm2.368 1.295a9.688 9.688 0 0 0 1.352.406 7.724 7.724 0 0 1-1.672.572 7.309 7.309 0 0 1 .32-.978z" opacity=".2"/>
 <path d="M4.198 6.024a.618.618 0 0 1-.616.618.618.618 0 0 1-.618-.618.618.618 0 0 1 .618-.617.618.618 0 0 1 .616.617zm.404 2.631a.348.348 0 0 1-.35.348.348.348 0 0 1-.347-.348.348.348 0 0 1 .348-.348.348.348 0 0 1 .349.348zM3.43 8.004a.348.348 0 0 1-.348.348.348.348 0 0 1-.35-.348.348.348 0 0 1 .35-.349.348.348 0 0 1 .348.349zm4.51 5.1a.492.492 0 0 1-.492.492.492.492 0 0 1-.492-.492.492.492 0 0 1 .492-.492.492.492 0 0 1 .493.492zm.85-3.073a.645.645 0 0 1-.644.645.645.645 0 0 1-.645-.645.645.645 0 0 1 .645-.645.645.645 0 0 1 .644.645zm1.452-2.618a.715.715 0 0 1-.715.715.715.715 0 0 1-.715-.715.715.715 0 0 1 .715-.715.715.715 0 0 1 .715.715zm-.67-1.85a.348.348 0 0 1-.347.348.348.348 0 0 1-.348-.348.348.348 0 0 1 .348-.347.348.348 0 0 1 .348.347zm3.011-2.857a.464.464 0 0 1-.464.464.464.464 0 0 1-.465-.464.464.464 0 0 1 .464-.464.464.464 0 0 1 .465.464zm.693 1.55a.416.416 0 0 1-.416.415.416.416 0 0 1-.415-.416.416.416 0 0 1 .416-.414.416.416 0 0 1 .415.415zm-3.085 10.198a.354.354 0 0 1-.355.355.354.354 0 0 1-.354-.355.354.354 0 0 1 .355-.356.354.354 0 0 1 .355.356zm2.303-2.99a.322.322 0 0 1-.322.32.322.322 0 0 1-.32-.32.322.322 0 0 1 .32-.322.322.322 0 0 1 .322.321zm1.584-.846a.322.322 0 0 1-.321.322.322.322 0 0 1-.321-.322.322.322 0 0 1 .32-.321.322.322 0 0 1 .322.321zm-.316 1.727a.322.322 0 0 1-.32.321.322.322 0 0 1-.322-.321.322.322 0 0 1 .322-.322.322.322 0 0 1 .32.322zm.424-2.75a.357.357 0 0 1-.356.357.357.357 0 0 1-.357-.357.357.357 0 0 1 .357-.357.357.357 0 0 1 .356.357z" fill="#4a5f64"/>
</svg>
