<svg xmlns="http://www.w3.org/2000/svg" xmlns:xlink="http://www.w3.org/1999/xlink" width="64" height="64">
 <defs>
 <radialGradient xlink:href="#a" id="b" cx="14" cy="8" fx="14" fy="8" r="10" gradientUnits="userSpaceOnUse" gradientTransform="rotate(40.3 73.443 -5.14) scale(4.77)"/>
 <linearGradient id="a">
 <stop offset="0" stop-color="#bbe0ea"/>
 <stop offset="1" stop-color="#5a7982"/>
 </linearGradient>
 </defs>
 <circle cx="32" cy="33" opacity=".2" r="28"/>
 <circle cx="32" cy="32" fill="url(#b)" r="28"/>
 <path d="M32 4A28 28 0 0 0 4 32a28 28 0 0 0 .006.51A28 28 0 0 1 32 5a28 28 0 0 1 27.996 27.49A28 28 0 0 0 60 32 28 28 0 0 0 32 4z" opacity=".2" fill="#fff"/>
 <path d="M31.944 4A28 28 0 0 0 4 32a28 28 0 0 0 28 28 28 28 0 0 0 28-28A28 28 0 0 0 32 4a28 28 0 0 0-.056 0zm.056.967a27.034 27.034 0 0 1 2.85.181 35.818 35.818 0 0 0-9.926 6.874 36.807 36.807 0 0 0-7.681 10.794 35.248 35.248 0 0 1 .063-3.235A36.074 36.074 0 0 1 20.22 7.716 27.034 27.034 0 0 1 32 4.967zm3.793.273a27.034 27.034 0 0 1 4.312 1.03c-.101.166-.21.333-.32.515a29.092 29.092 0 0 0-3.535 9.646 30.535 30.535 0 0 0-.44 6.813 25.243 25.248 0 0 1-5.797 2.106 25.284 25.284 0 0 1-9.83.316 24.648 24.648 0 0 1-2.819-.644 36.94 36.94 0 0 1 8.155-12.398A38.375 38.375 0 0 1 35.793 5.24zm4.774 1.167a27.034 27.034 0 0 1 .35.112 53.166 53.166 0 0 1 1.801 2.296 47.78 47.78 0 0 1 3.218 4.957c-1.776 2.892-4.625 6.315-8.932 8.82l-.24.14a31.17 31.17 0 0 1 .347-6.154 31.767 31.767 0 0 1 3.457-10.17zm1.568.589a27.034 27.034 0 0 1 5.685 3.13 30.535 30.535 0 0 1-1.394 2.814 44.268 44.268 0 0 0-3.15-4.557 47.68 47.68 0 0 0-1.141-1.387zM19.434 8.088h.007a34.35 34.35 0 0 0-2.995 11.424 34.776 34.776 0 0 0-.036 5.214 26.592 26.592 0 0 1-7.65-4.066 30.855 30.855 0 0 1-.903-.715A27.034 27.034 0 0 1 19.435 8.094zm28.77 2.31a27.034 27.034 0 0 1 5.588 5.656 36.49 36.49 0 0 0-4.608 2.22 45.58 45.58 0 0 0-2.38-4.692 23.372 23.372 0 0 0 1.4-3.184zm-1.888 4.061a47.487 47.487 0 0 1 2.06 4.291 38.472 38.472 0 0 0-2.018 1.294 39.57 39.57 0 0 0-8.801 8.358 29.261 29.261 0 0 1-.728-4.606c.224-.125.448-.25.66-.377a25.186 25.186 0 0 0 8.827-8.96zm7.804 2.02A27.034 27.034 0 0 1 59.033 32a27.034 27.034 0 0 1-.153 2.843 49.672 49.672 0 0 1-6 2.121 43.044 43.044 0 0 0-.482-7.583 44.576 44.576 0 0 0-2.932-10.435 42.03 42.03 0 0 1 4.654-2.466zm-5.459 2.977a45.627 45.627 0 0 1 2.761 10.072 43.7 43.7 0 0 1 .487 7.7 48.224 48.224 0 0 1-9.535 1.486 29.4 29.4 0 0 1-4.24-8.253 27.845 27.845 0 0 1-.26-.854A40.783 40.783 0 0 1 48.66 19.456zm-41.03.96a24.22 24.22 0 0 0 .77.684 25.129 25.129 0 0 0 7.71 4.432 36.268 36.268 0 0 0-1.56 5.732 48.77 48.77 0 0 1-3.957-2.834 53.866 53.866 0 0 1-4.52-4.032 27.034 27.034 0 0 1 1.559-3.976zM35.879 24.3a28.98 28.98 0 0 0 .9 5.146 38.149 38.149 0 0 0-2.558 4.08 37.976 37.976 0 0 0-2.11 4.614 46.214 46.214 0 0 1-12.75-4.144 35.224 35.225 0 0 1-1.893-8.02 24.674 24.674 0 0 0 2.559.605 25.416 25.416 0 0 0 10.211-.26 25.44 25.444 0 0 0 5.641-2.021zm-29.926.568a40.894 40.894 0 0 0 4.194 4.088 45.12 45.12 0 0 0 4.25 3.192 36.448 36.448 0 0 0 .187 12.68A35.63 35.63 0 0 0 18.4 55.32 27.034 27.034 0 0 1 4.966 32a27.034 27.034 0 0 1 .984-7.132zm10.691 2.184a35.195 35.195 0 0 0 1.442 6.292 50.44 50.44 0 0 1-2.639-1.512 35.728 35.728 0 0 1 1.2-4.782zm20.495 3.604l.04.12a29.204 29.204 0 0 0 4.044 7.986 46.437 46.437 0 0 1-8.12-.463 38.366 38.366 0 0 1 1.568-3.485 38.508 38.508 0 0 1 2.468-4.158zM15.3 32.728a46.26 46.26 0 0 0 3.229 1.862 34.77 34.77 0 0 0 1.176 2.8 35.132 35.132 0 0 0 9.94 12.464 38.767 38.767 0 0 0 .088 5.516 37.052 37.057 0 0 0 .491 3.601 27.034 27.034 0 0 1-10.855-3.097 37.521 37.521 0 0 1-3.93-11.205 36.76 36.76 0 0 1-.139-11.937zm4.55 2.531a45.044 45.044 0 0 0 11.584 3.773l.329.06a39.13 39.13 0 0 0-2.041 9.66 35.162 35.162 0 0 1-8.963-11.47 34.586 34.586 0 0 1-.909-2.023zm38.936.196a27.034 27.034 0 0 1-.791 3.85 23.794 23.794 0 0 0-5.33 1.134 44.32 44.32 0 0 0 .189-2.688 43.112 43.112 0 0 0 5.936-2.296zm-6.9 2.579a46.221 46.221 0 0 1-.194 2.755 23.876 23.876 0 0 0-5.047 2.667 31.3 31.3 0 0 1-3.597-3.85 46.136 46.136 0 0 0 8.84-1.568zm-19.143 1.217a45.408 45.408 0 0 0 9.163.432 30.324 30.324 0 0 0 4.039 4.284 23.052 23.052 0 0 0-2.31 1.974 23.402 23.402 0 0 0-5.373 8.108 35.267 35.272 0 0 1-5.98-3.334 38.434 38.434 0 0 1-1.764-1.309 40.284 40.286 0 0 1 2.225-10.155zm24.963.936a27.034 27.034 0 0 1-4.184 8.02 32.584 32.584 0 0 1-2.061-1.146 44.6 44.6 0 0 0 1.078-5.569 24.584 24.584 0 0 1 5.167-1.305zm-6.147 1.694h.003a47.2 47.2 0 0 1-.843 4.707 31.67 31.67 0 0 1-3.304-2.45 24.14 24.14 0 0 1 4.144-2.26zm-4.834 2.74a29.414 29.414 0 0 0 3.827 2.652 47.852 47.852 0 0 1-1.87 5.874l-.018.056a27.034 27.034 0 0 1-4.482 2.856l-.112-.024a37.402 37.402 0 0 1-5.073-1.677 24.004 24.004 0 0 1 5.32-7.72 23.086 23.086 0 0 1 2.408-2.017zm4.564 3.07a27.104 27.104 0 0 0 1.894.934 27.034 27.034 0 0 1-3.413 3.612 44.248 44.248 0 0 0 1.52-4.546zm-20.846 2.775a34.285 34.285 0 0 0 7.567 4.256 22.751 22.751 0 0 0-1.02 3.82 27.034 27.034 0 0 1-4.988.49 27.034 27.034 0 0 1-1.232-.043 46.24 46.24 0 0 1-.348-3.666 41.53 41.53 0 0 1 .02-4.857zm8.288 4.535a33.908 33.908 0 0 0 4.732 1.422 27.034 27.034 0 0 1-5.852 2.002 25.58 25.58 0 0 1 1.12-3.424z" opacity=".2"/>
 <path d="M18.694 25.084a2.16 2.16 0 0 1-2.16 2.16 2.16 2.16 0 0 1-2.16-2.16 2.16 2.16 0 0 1 2.16-2.16 2.16 2.16 0 0 1 2.16 2.16zm1.412 9.21a1.218 1.218 0 0 1-1.22 1.219 1.218 1.218 0 0 1-1.22-1.221 1.218 1.218 0 0 1 1.22-1.215 1.218 1.218 0 0 1 1.22 1.218zm-4.102-2.28a1.218 1.218 0 0 1-1.22 1.218 1.218 1.218 0 0 1-1.22-1.218 1.218 1.218 0 0 1 1.22-1.22 1.218 1.218 0 0 1 1.22 1.22zm15.787 17.85a1.722 1.722 0 0 1-1.723 1.722 1.722 1.722 0 0 1-1.722-1.722 1.722 1.722 0 0 1 1.722-1.722 1.722 1.722 0 0 1 1.723 1.722zm2.975-10.753a2.255 2.255 0 0 1-2.256 2.255 2.255 2.255 0 0 1-2.259-2.255 2.255 2.255 0 0 1 2.261-2.259 2.255 2.255 0 0 1 2.254 2.259zm5.08-9.168a2.505 2.505 0 0 1-2.5 2.505 2.505 2.505 0 0 1-2.504-2.505 2.505 2.505 0 0 1 2.505-2.501 2.505 2.505 0 0 1 2.499 2.501zm-2.34-6.47a1.218 1.218 0 0 1-1.22 1.218 1.218 1.218 0 0 1-1.219-1.221 1.218 1.218 0 0 1 1.221-1.214 1.218 1.218 0 0 1 1.215 1.217zM48.043 13.47a1.624 1.624 0 0 1-1.624 1.626 1.624 1.624 0 0 1-1.629-1.624 1.624 1.624 0 0 1 1.624-1.626 1.624 1.624 0 0 1 1.629 1.624zm2.423 5.425a1.456 1.456 0 0 1-1.456 1.456 1.456 1.456 0 0 1-1.455-1.456 1.456 1.456 0 0 1 1.456-1.454 1.456 1.456 0 0 1 1.455 1.455zM39.671 54.588a1.24 1.24 0 0 1-1.245 1.241 1.24 1.24 0 0 1-1.24-1.241 1.24 1.24 0 0 1 1.241-1.244 1.24 1.24 0 0 1 1.245 1.244zm8.06-10.465a1.126 1.126 0 0 1-1.129 1.122 1.126 1.126 0 0 1-1.121-1.122 1.126 1.126 0 0 1 1.121-1.125 1.126 1.126 0 0 1 1.128 1.125zm5.543-2.959a1.126 1.126 0 0 1-1.127 1.126 1.126 1.126 0 0 1-1.121-1.126 1.126 1.126 0 0 1 1.121-1.127 1.126 1.126 0 0 1 1.127 1.127zm-1.106 6.041a1.126 1.126 0 0 1-1.122 1.127 1.126 1.126 0 0 1-1.126-1.127 1.126 1.126 0 0 1 1.126-1.122 1.126 1.126 0 0 1 1.122 1.122zm1.484-9.62a1.247 1.247 0 0 1-1.248 1.247 1.247 1.247 0 0 1-1.25-1.247 1.247 1.247 0 0 1 1.25-1.25 1.247 1.247 0 0 1 1.248 1.25z" fill="#4a5f64"/>
</svg>
