<?xml version="1.0" encoding="UTF-8" standalone="no"?>
<!-- Created with Inkscape (http://www.inkscape.org/) -->

<svg
   xmlns:osb="http://www.openswatchbook.org/uri/2009/osb"
   xmlns:dc="http://purl.org/dc/elements/1.1/"
   xmlns:cc="http://creativecommons.org/ns#"
   xmlns:rdf="http://www.w3.org/1999/02/22-rdf-syntax-ns#"
   xmlns:svg="http://www.w3.org/2000/svg"
   xmlns="http://www.w3.org/2000/svg"
   xmlns:xlink="http://www.w3.org/1999/xlink"
   xmlns:sodipodi="http://sodipodi.sourceforge.net/DTD/sodipodi-0.dtd"
   xmlns:inkscape="http://www.inkscape.org/namespaces/inkscape"
   width="64"
   height="64"
   viewBox="0 0 64 64"
   version="1.1"
   id="svg4942"
   inkscape:version="0.92.4 5da689c313, 2019-01-14"
   sodipodi:docname="network-workgroup-64x64.svg"
   inkscape:export-filename="C:\Users\Balasakthi\Desktop\Network.png"
   inkscape:export-xdpi="96"
   inkscape:export-ydpi="96">
  <defs
     id="defs4936">
    <linearGradient
       id="linearGradient6088"
       osb:paint="solid">
      <stop
         style="stop-color:#51b3e3;stop-opacity:1;"
         offset="0"
         id="stop6086" />
    </linearGradient>
    <linearGradient
       id="linearGradient6987"
       osb:paint="solid">
      <stop
         style="stop-color:#77d2fb;stop-opacity:1;"
         offset="0"
         id="stop6985" />
    </linearGradient>
    <radialGradient
       inkscape:collect="always"
       xlink:href="#linearGradient898"
       id="radialGradient908"
       cx="18.111443"
       cy="272.19586"
       fx="18.111443"
       fy="272.19586"
       r="16.4083"
       gradientTransform="matrix(2.3642016,0.92496902,-0.98020319,2.505325,255.35793,-682.16835)"
       gradientUnits="userSpaceOnUse" />
    <linearGradient
       inkscape:collect="always"
       id="linearGradient898">
      <stop
         style="stop-color:#bbe0ea;stop-opacity:1"
         offset="0"
         id="stop894" />
      <stop
         style="stop-color:#5a7982;stop-opacity:1"
         offset="1"
         id="stop896" />
    </linearGradient>
  </defs>
  <sodipodi:namedview
     id="base"
     pagecolor="#ffffff"
     bordercolor="#666666"
     borderopacity="1.0"
     inkscape:pageopacity="0.0"
     inkscape:pageshadow="2"
     inkscape:zoom="5.546875"
     inkscape:cx="66.429736"
     inkscape:cy="32"
     inkscape:document-units="mm"
     inkscape:current-layer="g1059"
     showgrid="false"
     units="px"
     width="128px"
     inkscape:window-width="872"
     inkscape:window-height="609"
     inkscape:window-x="364"
     inkscape:window-y="158"
     inkscape:window-maximized="0"
     showguides="false"
     inkscape:lockguides="true"
     inkscape:snap-global="false" />
  <metadata
     id="metadata4939">
    <rdf:RDF>
      <cc:Work
         rdf:about="">
        <dc:format>image/svg+xml</dc:format>
        <dc:type
           rdf:resource="http://purl.org/dc/dcmitype/StillImage" />
        <dc:title />
      </cc:Work>
    </rdf:RDF>
  </metadata>
  <g
     id="g1059"
     transform="matrix(1.2007411,0,0,1.2007411,3.182215,2.8902483)">
    <g
       id="g1038"
       transform="translate(0.00553587,-0.18724755)">
      <circle
         style="opacity:0.5;fill:#020202;fill-opacity:0.69868996;stroke:none;stroke-width:0.08483264;stroke-miterlimit:4;stroke-dasharray:none;stroke-opacity:1"
         id="path838"
         cx="24.309229"
         cy="25.059935"
         r="23.584324" />
      <circle
         style="opacity:0.5;fill:#ffffff;fill-opacity:0.69868996;stroke:none;stroke-width:0.08483265;stroke-miterlimit:4;stroke-dasharray:none;stroke-opacity:1"
         id="path838-6"
         cx="23.679697"
         cy="23.800869"
         r="23.584324" />
    </g>
    <g
       id="g862"
       transform="translate(-0.00698569,0.14903213)">
      <circle
         r="23.584946"
         cy="24.280777"
         cx="23.999998"
         id="path1055"
         style="opacity:1;fill:#5e8694;fill-opacity:1;stroke:none;stroke-width:0.34929261;stroke-linecap:round;stroke-linejoin:round;stroke-miterlimit:4;stroke-dasharray:none;stroke-opacity:1"
         transform="translate(0.00547479,-0.18718648)" />
      <path
         inkscape:connector-curvature="0"
         id="circle4881"
         d="M 23.999907,0.69595245 A 23.585039,23.584788 0 0 0 13.722978,3.0928523 c -1.087686,2.5112 -2.250637,6.05009 -2.542024,10.3500207 -0.06211,0.9152 -0.08269,1.85941 -0.05764,2.82501 1.77384,-3.81654 4.195999,-6.9773107 6.700726,-9.4159607 3.131827,-3.05051 6.298361,-4.90572 8.660076,-5.99526985 a 23.585039,23.584788 0 0 0 -2.484207,-0.1607 z m 3.306903,0.24001 c -0.126431,0.0628 -0.25517,0.12748995 -0.387533,0.19496995 -2.299593,1.1726699 -5.455997,3.1069999 -8.57334,6.2478899 -2.735972,2.7578607 -5.372925,6.3962807 -7.112169,10.8157507 3.9e-5,3.3e-4 1.54e-4,7.2e-4 1.89e-4,0.001 0.778883,0.22586 1.597828,0.41684 2.456406,0.56024 2.654189,0.44424 5.589111,0.41075 8.576491,-0.27743 1.81521,-0.41816 3.512132,-1.04711 5.056449,-1.8344 -0.100914,-2.10607 0.05788,-4.11586 0.38605,-5.9447 0.661921,-3.6948107 1.978845,-6.5448307 3.086358,-8.4166307 0.09321,-0.15754 0.184038,-0.30553 0.27355,-0.44925 A 23.585039,23.584788 0 0 0 27.30681,0.93547245 Z m 4.16666,1.01875985 c -0.09311,0.17437 -0.187229,0.35149 -0.285964,0.54432 -0.975171,1.90449 -2.153866,4.72349 -2.723107,8.3278707 -0.26239,1.66456 -0.388129,3.47594 -0.308022,5.36812 0.06981,-0.0397 0.139945,-0.0789 0.209051,-0.11916 3.759039,-2.18722 6.244618,-5.17456 7.791975,-7.6964407 -0.914488,-1.62071 -1.872407,-3.0675 -2.806873,-4.32823 -0.546008,-0.73666 -1.074085,-1.40326 -1.574038,-2.00567 a 23.585039,23.584788 0 0 0 -0.303022,-0.0908 z m 1.367027,0.51375 c 0.32498,0.37851 0.657868,0.78046 0.997091,1.20984 0.915247,1.1585 1.850281,2.48633 2.748485,3.97425 0.08452,-0.14958 0.167388,-0.29801 0.245022,-0.44277 0.398819,-0.74366 0.716525,-1.41888 0.973179,-2.01158 a 23.585039,23.584788 0 0 0 -4.963777,-2.72974 z m -19.802138,0.95558 A 23.585039,23.584788 0 0 0 2.9347216,13.760163 c 0.2441912,0.20041 0.5061279,0.409 0.78878,0.62456 1.5789049,1.20407 3.8313344,2.60111 6.6755214,3.55057 -0.106525,-1.57073 -0.09089,-3.09685 0.03023,-4.54933 0.342523,-4.1039207 1.478669,-7.4930507 2.609119,-9.9619107 z m 25.098778,2.01027 c -0.209784,0.59587 -0.481842,1.27107 -0.836225,2.01325 -0.118139,0.24742 -0.246681,0.5026 -0.384569,0.7632 0.731691,1.25807 1.433097,2.6247707 2.073693,4.0938007 1.486236,-0.84623 2.857273,-1.47512 4.022665,-1.93636 A 23.585039,23.584788 0 0 0 38.137137,5.4343223 Z m -1.647611,3.54446 c -1.504139,2.5832507 -3.957956,5.5842607 -7.70061,7.8160007 -0.189201,0.11269 -0.381793,0.2223 -0.576194,0.33006 0.102055,1.31315 0.305803,2.65916 0.634211,4.01725 2.378019,-3.08513 5.087995,-5.49955 7.68096,-7.29076 0.596408,-0.412 1.183016,-0.78848 1.755287,-1.1333 -0.55731,-1.32882 -1.162612,-2.57676 -1.793654,-3.7392507 z m 6.807478,1.7632407 c -1.164966,0.52717 -2.55144,1.22588 -4.05695,2.14912 1.129676,2.70908 2.04525,5.75223 2.557228,9.10255 0.193206,1.26429 0.319481,2.51646 0.382719,3.75054 0.0499,0.97794 0.05977,1.93376 0.03725,2.86746 2.079145,-0.58839 3.83916,-1.25763 5.231223,-1.85238 a 23.585039,23.584788 0 0 0 0.136595,-2.47863 23.585039,23.584788 0 0 0 -4.28806,-13.53866 z m -4.761029,2.59261 c -0.522701,0.33741 -1.05687,0.7003 -1.599608,1.09383 -2.644263,1.91727 -5.415468,4.487 -7.810511,7.76371 0.05679,0.19654 0.115452,0.39298 0.177743,0.58973 0.01663,0.0526 0.03339,0.10507 0.0504,0.15771 0.883927,2.73238 2.197507,5.14365 3.696107,7.19958 2.482654,-0.13469 4.802304,-0.48316 6.898848,-0.95261 0.487736,-0.10924 0.96016,-0.225 1.420018,-0.34489 0.02297,-0.9921 0.0095,-2.00979 -0.048,-3.05188 -0.06632,-1.20565 -0.191963,-2.42904 -0.380862,-3.66509 -0.492018,-3.21964 -1.350212,-6.15746 -2.404143,-8.79009 z m -35.7952946,0.84086 a 23.585039,23.584788 0 0 0 -1.3577517,3.46997 c 0.9533378,0.95323 2.2592607,2.17438 3.9368527,3.5122 1.0216193,0.8147 2.1748543,1.65499 3.4538686,2.48028 0.1877307,-1.00561 0.426942,-2.02009 0.7235415,-3.03887 0.1145441,-0.39342 0.2362475,-0.78268 0.3649224,-1.16778 0.089308,-0.26704 0.1821981,-0.53113 0.2780001,-0.79284 -2.9146156,-1.04301 -5.1802824,-2.55765 -6.7270404,-3.86788 -0.2411715,-0.20428 -0.4635872,-0.40247 -0.6723932,-0.59508 z m 24.6432276,3.38599 c -1.511947,0.75421 -3.162405,1.35753 -4.922271,1.76305 -3.106181,0.71578 -6.15805,0.72763 -8.910277,0.22853 -0.777763,-0.14129 -1.521592,-0.32147 -2.232152,-0.53061 0.264479,2.28253 0.794293,4.64339 1.654476,6.9996 2.855896,1.41114 6.138309,2.62679 9.822479,3.37713 0.286073,0.0582 0.573876,0.11355 0.863287,0.16585 0.145134,0.0262 0.289797,0.0508 0.434417,0.0753 0.41475,-1.09407 0.897403,-2.19638 1.459316,-3.29927 0.124118,-0.24344 0.251812,-0.48614 0.382901,-0.72797 0.687237,-1.2679 1.437722,-2.45286 2.232153,-3.55875 -0.410344,-1.51933 -0.662012,-3.02596 -0.784329,-4.49281 z m -26.1064325,0.49689 a 23.585039,23.584788 0 0 0 -0.86254777,6.22231 23.585039,23.584788 0 0 0 11.71826127,20.34476 c -1.27645,-2.30032 -2.5994081,-5.38432 -3.3298852,-9.1528 -0.647451,-3.34151 -0.798762,-7.12442 -0.1634584,-11.06389 -1.3890674,-0.92256 -2.626196,-1.86816 -3.7044456,-2.78442 -1.576147,-1.33936 -2.779496,-2.56983 -3.6579243,-3.56596 z m 9.3246815,1.90297 c -0.09423,0.29126 -0.185682,0.58427 -0.271892,0.88033 -0.321537,1.10434 -0.5758811,2.20378 -0.7700566,3.29223 0.7295746,0.44858 1.4967836,0.8901 2.3010986,1.31789 -0.607063,-1.84682 -1.01679,-3.6899 -1.25915,-5.49045 z m 17.875773,3.14841 c -0.627043,0.92007 -1.223752,1.89136 -1.779197,2.91656 -0.127625,0.23557 -0.25188,0.47193 -0.372896,0.70889 -0.519287,1.01612 -0.97244,2.03214 -1.367202,3.04148 2.457814,0.35999 4.834171,0.4727 7.08696,0.40512 -1.433581,-2.00261 -2.68093,-4.33459 -3.534681,-6.96919 -0.01121,-0.0342 -0.02202,-0.0684 -0.033,-0.10292 z m -19.0472666,1.81013 c -0.5646728,3.69852 -0.4414682,7.25139 0.1210267,10.41378 0.7272489,4.09063 2.1495789,7.40152 3.4297739,9.77828 a 23.585039,23.584788 0 0 0 9.467759,2.69878 c -0.172472,-0.91618 -0.325646,-1.964 -0.42942,-3.14007 -0.128043,-1.45099 -0.170289,-3.07197 -0.07469,-4.81213 -3.267487,-2.5821 -6.353758,-6.11477 -8.534602,-10.58835 -0.04628,-0.095 -0.09215,-0.19034 -0.137513,-0.28597 -0.384802,-0.81122 -0.726884,-1.62657 -1.029906,-2.44267 -0.993409,-0.52033 -1.930392,-1.06505 -2.8124286,-1.62165 z m 3.9690986,2.20415 c 0.203836,0.49718 0.422454,0.99364 0.657191,1.48839 0.04407,0.093 0.08851,0.18543 0.133449,0.27764 2.020741,4.14893 4.827799,7.48841 7.821069,10.00825 0.217338,-2.62505 0.754701,-5.48866 1.781419,-8.42978 -0.09587,-0.0165 -0.191524,-0.0325 -0.287632,-0.0498 -0.295936,-0.0533 -0.590231,-0.1101 -0.882748,-0.16994 -3.4327,-0.70303 -6.514397,-1.81595 -9.22274,-3.12488 z m 33.967347,0.17346 c -1.381699,0.65871 -3.118578,1.3753 -5.172647,2.00364 -0.03375,0.79882 -0.0915,1.5801 -0.170513,2.34221 1.608786,-0.53932 3.184988,-0.84975 4.654279,-0.98726 a 23.585039,23.584788 0 0 0 0.688881,-3.35859 z m -6.020365,2.25215 c -0.401368,0.11299 -0.812475,0.22241 -1.235618,0.32675 -1.97057,0.48589 -4.145059,0.85878 -6.471473,1.04138 0.636242,0.80996 1.298369,1.55926 1.969722,2.24416 0.387629,0.39524 0.776117,0.76521 1.163333,1.11627 1.446683,-1.00297 2.932474,-1.76557 4.402044,-2.33018 0.07981,-0.77977 0.138248,-1.57977 0.171992,-2.39838 z m -16.699474,1.05752 c -1.119197,3.09937 -1.697844,6.11756 -1.938578,8.86068 0.508787,0.40335 1.021422,0.78427 1.535292,1.14092 1.791536,1.24351 3.566621,2.18694 5.221592,2.91098 0.903356,-2.28175 2.371831,-4.81198 4.684665,-7.07818 0.619656,-0.60657 1.291453,-1.18283 2.011606,-1.72228 -0.365,-0.31915 -0.730923,-0.65553 -1.096052,-1.01302 -0.831336,-0.81352 -1.648867,-1.72253 -2.423233,-2.72252 -2.521125,0.13511 -5.20638,0.0416 -7.995292,-0.37658 z m 21.776867,0.816 c -1.432217,0.19948 -2.956866,0.56137 -4.506011,1.13848 -0.221287,1.72944 -0.548905,3.35237 -0.940018,4.85607 0.639548,0.38878 1.241419,0.72069 1.785872,1.00004 0.0037,0.001 0.0064,0.003 0.0098,0.006 a 23.585039,23.584788 0 0 0 3.650334,-6.99959 z m -5.359478,1.47784 c -1.209503,0.5114 -2.426053,1.16066 -3.618447,1.96915 0.994383,0.84411 1.969465,1.5512 2.881005,2.14037 0.299887,-1.28897 0.554057,-2.66201 0.737442,-4.10952 z m -4.221704,2.39245 c -0.752638,0.55029 -1.452651,1.13989 -2.096676,1.76119 -2.23164,2.15084 -3.69548,4.55652 -4.645196,6.73513 1.654299,0.6812 3.169418,1.14391 4.427981,1.46171 0.03242,0.009 0.06261,0.0153 0.09471,0.0235 a 23.585039,23.584788 0 0 0 3.912201,-2.49901 c 0.0061,-0.0154 0.01193,-0.0297 0.01795,-0.045 0.581311,-1.48743 1.153205,-3.20669 1.629082,-5.12256 -1.049199,-0.60885 -2.182787,-1.37032 -3.340071,-2.31479 z m 3.986891,2.67784 c -0.398511,1.44478 -0.853203,2.77316 -1.326991,3.96702 a 23.585039,23.584788 0 0 0 2.977563,-3.15434 c -0.508793,-0.22593 -1.062814,-0.49477 -1.650572,-0.81268 z m -18.190101,2.41969 c -0.09452,1.51949 -0.08804,2.94366 -0.01668,4.23631 0.06587,1.19311 0.176749,2.26395 0.303767,3.20031 a 23.585039,23.584788 0 0 0 1.073079,0.038 23.585039,23.584788 0 0 0 4.352921,-0.42442 c 0.05549,-0.31681 0.122322,-0.65111 0.202752,-1.00265 0.164971,-0.72089 0.390269,-1.50797 0.689263,-2.33498 -1.713731,-0.69517 -3.557191,-1.62466 -5.423046,-2.87598 -0.395115,-0.26503 -0.789403,-0.54441 -1.182055,-0.83658 z m 7.227262,3.95719 c -0.318262,0.78777 -0.570243,1.53941 -0.767284,2.2299 -0.07503,0.26301 -0.14118,0.51402 -0.202942,0.7582 a 23.585039,23.584788 0 0 0 5.101864,-1.75064 c -1.202751,-0.2648 -2.60749,-0.65834 -4.131638,-1.23746 z"
         style="opacity:1;fill:url(#radialGradient908);fill-opacity:1;stroke:none;stroke-width:0.36017862;stroke-linecap:round;stroke-linejoin:round;stroke-miterlimit:4;stroke-dasharray:none;stroke-opacity:1"
         transform="translate(0.00547479,-0.18718648)" />
      <circle
         r="23.446754"
         cy="24.281351"
         cx="24.002657"
         id="path839"
         style="opacity:1;fill:none;fill-opacity:1;fill-rule:nonzero;stroke:#4a5f64;stroke-width:0.27736071;stroke-linecap:square;stroke-miterlimit:4;stroke-dasharray:none;stroke-opacity:1;paint-order:normal"
         transform="translate(0.00547479,-0.18718648)" />
      <g
         transform="translate(-0.00541699,0.67089037)"
         id="g852">
        <path
           inkscape:connector-curvature="0"
           id="path4807"
           d="m 12.403354,17.389887 a 1.8846241,1.8846241 0 0 1 -1.884625,1.884625 1.8846241,1.8846241 0 0 1 -1.8846238,-1.884625 1.8846241,1.8846241 0 0 1 1.8846238,-1.884624 1.8846241,1.8846241 0 0 1 1.884625,1.884624 z"
           style="opacity:1;fill:#4a5f64;fill-opacity:1;stroke:none;stroke-width:0.63736045;stroke-linecap:round;stroke-linejoin:round;stroke-miterlimit:4;stroke-dasharray:none;stroke-dashoffset:0;stroke-opacity:1" />
        <path
           inkscape:connector-curvature="0"
           id="path4809"
           d="m 13.632372,25.423339 a 1.0632562,1.0632562 0 0 1 -1.063258,1.063259 1.0632562,1.0632562 0 0 1 -1.063252,-1.063259 1.0632562,1.0632562 0 0 1 1.063252,-1.063255 1.0632562,1.0632562 0 0 1 1.063258,1.063255 z"
           style="opacity:1;fill:#4a5f64;fill-opacity:1;stroke:none;stroke-width:0.73514611;stroke-linecap:round;stroke-linejoin:round;stroke-miterlimit:4;stroke-dasharray:none;stroke-dashoffset:0;stroke-opacity:1" />
        <path
           inkscape:connector-curvature="0"
           id="circle4811"
           d="m 10.054452,23.433931 a 1.0632542,1.0632542 0 0 1 -1.0632547,1.063255 1.0632542,1.0632542 0 0 1 -1.063255,-1.063255 1.0632542,1.0632542 0 0 1 1.063255,-1.063255 1.0632542,1.0632542 0 0 1 1.0632547,1.063255 z"
           style="opacity:1;fill:#4a5f64;fill-opacity:1;stroke:none;stroke-width:0.73514485;stroke-linecap:round;stroke-linejoin:round;stroke-miterlimit:4;stroke-dasharray:none;stroke-dashoffset:0;stroke-opacity:1" />
        <path
           inkscape:connector-curvature="0"
           id="path4813"
           d="m 23.828192,39.008085 a 1.502475,1.502475 0 0 1 -1.502474,1.502474 1.502475,1.502475 0 0 1 -1.502477,-1.502474 1.502475,1.502475 0 0 1 1.502477,-1.502474 1.502475,1.502475 0 0 1 1.502474,1.502474 z"
           style="opacity:1;fill:#4a5f64;fill-opacity:1;stroke:none;stroke-width:0.56991816;stroke-linecap:round;stroke-linejoin:round;stroke-miterlimit:4;stroke-dasharray:none;stroke-dashoffset:0;stroke-opacity:1" />
        <path
           inkscape:connector-curvature="0"
           id="path4815"
           d="m 26.424353,29.624215 a 1.9687605,1.9687605 0 0 1 -1.968759,1.968762 1.9687605,1.9687605 0 0 1 -1.968762,-1.968762 1.9687605,1.9687605 0 0 1 1.968762,-1.968759 1.9687605,1.9687605 0 0 1 1.968759,1.968759 z"
           style="opacity:1;fill:#4a5f64;fill-opacity:1;stroke:none;stroke-width:0.56991816;stroke-linecap:round;stroke-linejoin:round;stroke-miterlimit:4;stroke-dasharray:none;stroke-dashoffset:0;stroke-opacity:1" />
        <path
           inkscape:connector-curvature="0"
           id="path4817"
           d="m 30.855597,21.629882 a 2.1830422,2.1830422 0 0 1 -2.183042,2.183039 2.1830422,2.1830422 0 0 1 -2.183042,-2.183039 2.1830422,2.1830422 0 0 1 2.183042,-2.183045 2.1830422,2.1830422 0 0 1 2.183042,2.183045 z"
           style="opacity:1;fill:#4a5f64;fill-opacity:1;stroke:none;stroke-width:0.68611568;stroke-linecap:round;stroke-linejoin:round;stroke-miterlimit:4;stroke-dasharray:none;stroke-dashoffset:0;stroke-opacity:1" />
        <path
           inkscape:connector-curvature="0"
           id="path4819"
           d="m 28.812803,15.983425 a 1.0620944,1.0620944 0 0 1 -1.062096,1.062097 1.0620944,1.0620944 0 0 1 -1.062094,-1.062097 1.0620944,1.0620944 0 0 1 1.062094,-1.062093 1.0620944,1.0620944 0 0 1 1.062096,1.062093 z"
           style="opacity:1;fill:#4a5f64;fill-opacity:1;stroke:none;stroke-width:0.77888811;stroke-linecap:round;stroke-linejoin:round;stroke-miterlimit:4;stroke-dasharray:none;stroke-dashoffset:0;stroke-opacity:1" />
        <path
           inkscape:connector-curvature="0"
           id="path4821"
           d="m 38.005185,7.2576476 a 1.418358,1.418358 0 0 1 -1.41836,1.4183559 1.418358,1.418358 0 0 1 -1.418352,-1.4183559 1.418358,1.418358 0 0 1 1.418352,-1.4183592 1.418358,1.418358 0 0 1 1.41836,1.4183592 z"
           style="opacity:1;fill:#4a5f64;fill-opacity:1;stroke:none;stroke-width:0.78011578;stroke-linecap:round;stroke-linejoin:round;stroke-miterlimit:4;stroke-dasharray:none;stroke-dashoffset:0;stroke-opacity:1" />
        <path
           inkscape:connector-curvature="0"
           id="path4823"
           d="m 40.119177,11.989919 a 1.2682433,1.2682433 0 0 1 -1.268247,1.268244 1.2682433,1.2682433 0 0 1 -1.268241,-1.268244 1.2682433,1.2682433 0 0 1 1.268241,-1.268241 1.2682433,1.2682433 0 0 1 1.268247,1.268241 z"
           style="opacity:1;fill:#4a5f64;fill-opacity:1;stroke:none;stroke-width:0.59787011;stroke-linecap:round;stroke-linejoin:round;stroke-miterlimit:4;stroke-dasharray:none;stroke-dashoffset:0;stroke-opacity:1" />
        <path
           inkscape:connector-curvature="0"
           id="path4825"
           d="m 30.701144,43.128764 a 1.0833312,1.0833312 0 0 1 -1.083332,1.083329 1.0833312,1.0833312 0 0 1 -1.083333,-1.083329 1.0833312,1.0833312 0 0 1 1.083333,-1.083332 1.0833312,1.0833312 0 0 1 1.083332,1.083332 z"
           style="opacity:1;fill:#4a5f64;fill-opacity:1;stroke:none;stroke-width:0.74902618;stroke-linecap:round;stroke-linejoin:round;stroke-miterlimit:4;stroke-dasharray:none;stroke-dashoffset:0;stroke-opacity:1" />
        <path
           inkscape:connector-curvature="0"
           id="circle4827"
           d="m 37.732187,33.99814 a 0.98146562,0.98146562 0 0 1 -0.981466,0.981466 0.98146562,0.98146562 0 0 1 -0.981466,-0.981466 0.98146562,0.98146562 0 0 1 0.981466,-0.981467 0.98146562,0.98146562 0 0 1 0.981466,0.981467 z"
           style="opacity:1;fill:#4a5f64;fill-opacity:1;stroke:none;stroke-width:0.6785953;stroke-linecap:round;stroke-linejoin:round;stroke-miterlimit:4;stroke-dasharray:none;stroke-dashoffset:0;stroke-opacity:1" />
        <path
           inkscape:connector-curvature="0"
           id="circle4829"
           d="m 42.571143,31.417253 a 0.98146569,0.98146569 0 0 1 -0.981466,0.981466 0.98146569,0.98146569 0 0 1 -0.981466,-0.981466 0.98146569,0.98146569 0 0 1 0.981466,-0.981466 0.98146569,0.98146569 0 0 1 0.981466,0.981466 z"
           style="opacity:1;fill:#4a5f64;fill-opacity:1;stroke:none;stroke-width:0.67859519;stroke-linecap:round;stroke-linejoin:round;stroke-miterlimit:4;stroke-dasharray:none;stroke-dashoffset:0;stroke-opacity:1" />
        <path
           inkscape:connector-curvature="0"
           id="circle4831"
           d="m 41.606746,36.689333 a 0.98146562,0.98146562 0 0 1 -0.981466,0.981466 0.98146562,0.98146562 0 0 1 -0.981466,-0.981466 0.98146562,0.98146562 0 0 1 0.981466,-0.981466 0.98146562,0.98146562 0 0 1 0.981466,0.981466 z"
           style="opacity:1;fill:#4a5f64;fill-opacity:1;stroke:none;stroke-width:0.6785953;stroke-linecap:round;stroke-linejoin:round;stroke-miterlimit:4;stroke-dasharray:none;stroke-dashoffset:0;stroke-opacity:1" />
        <path
           inkscape:connector-curvature="0"
           id="circle4833"
           d="m 42.90043,28.293868 a 1.0897552,1.0897552 0 0 1 -1.089755,1.089755 1.0897552,1.0897552 0 0 1 -1.089754,-1.089755 1.0897552,1.0897552 0 0 1 1.089754,-1.089754 1.0897552,1.0897552 0 0 1 1.089755,1.089754 z"
           style="opacity:1;fill:#4a5f64;fill-opacity:1;stroke:none;stroke-width:0.34250277;stroke-linecap:round;stroke-linejoin:round;stroke-miterlimit:4;stroke-dasharray:none;stroke-dashoffset:0;stroke-opacity:1" />
      </g>
    </g>
  </g>
</svg>
