<svg xmlns="http://www.w3.org/2000/svg" xmlns:xlink="http://www.w3.org/1999/xlink" width="24" height="24">
 <defs>
 <radialGradient xlink:href="#a" id="b" cx="14" cy="8" fx="14" fy="8" r="10" gradientUnits="userSpaceOnUse" gradientTransform="rotate(40 25.71 -.695) scale(1.7)"/>
 <linearGradient id="a">
 <stop offset="0" stop-color="#bbe0ea"/>
 <stop offset="1" stop-color="#5a7982"/>
 </linearGradient>
 </defs>
 <circle cx="12" cy="12.5" r="10" opacity=".2"/>
 <circle cx="12" cy="12" r="10" fill="url(#b)"/>
 <path d="M11.98 2A10 10 0 0 0 2 12a10 10 0 0 0 .004.234A10 10 0 0 1 12 2.5a10 10 0 0 1 9.996 9.715A10 10 0 0 0 22 12 10 10 0 0 0 12 2a10 10 0 0 0-.02 0z" opacity=".2" fill="#fff"/>
 <path d="M11.98 2A10 10 0 0 0 2 12a10 10 0 0 0 10 10 10 10 0 0 0 10-10A10 10 0 0 0 12 2a10 10 0 0 0-.02 0zm.02.346a9.655 9.655 0 0 1 1.018.064 12.792 12.792 0 0 0-3.545 2.455A13.146 13.146 0 0 0 6.729 8.72c-.01-.395-.002-.782.023-1.156.12-1.76.596-3.209 1.041-4.237A9.655 9.655 0 0 1 12 2.346zm1.354.097a9.655 9.655 0 0 1 1.54.368c-.036.059-.075.118-.113.183a10.39 10.39 0 0 0-1.263 3.445 10.906 10.906 0 0 0-.157 2.434 9.016 9.017 0 0 1-2.07.752 9.03 9.03 0 0 1-3.512.113 8.803 8.803 0 0 1-1.006-.23A13.193 13.193 0 0 1 9.686 5.08a13.706 13.706 0 0 1 3.668-2.637zm1.705.416a9.655 9.655 0 0 1 .125.04 18.988 18.988 0 0 1 .644.82 17.064 17.064 0 0 1 1.149 1.771c-.634 1.033-1.651 2.256-3.19 3.15l-.086.05a11.132 11.132 0 0 1 .125-2.198A11.346 11.346 0 0 1 15.06 2.86zm.56.211a9.655 9.655 0 0 1 2.031 1.118 10.906 10.906 0 0 1-.498 1.005 15.81 15.81 0 0 0-1.125-1.627c-.139-.176-.275-.34-.408-.496zm-8.107.39h.002a12.268 12.268 0 0 0-1.069 4.08 12.42 12.42 0 0 0-.013 1.862A9.497 9.497 0 0 1 3.699 7.95a11.019 11.019 0 0 1-.322-.256 9.655 9.655 0 0 1 4.135-4.232zm10.275.825a9.655 9.655 0 0 1 1.996 2.02 13.032 13.032 0 0 0-1.646.793 16.278 16.278 0 0 0-.85-1.676 8.347 8.347 0 0 0 .5-1.137zm-.674 1.451a16.959 16.959 0 0 1 .735 1.532 13.74 13.74 0 0 0-.72.462 14.132 14.132 0 0 0-3.144 2.985 10.451 10.451 0 0 1-.26-1.645c.08-.044.16-.089.237-.134a8.995 8.995 0 0 0 3.152-3.2zm2.787.721A9.655 9.655 0 0 1 21.654 12a9.655 9.655 0 0 1-.054 1.016 17.74 17.74 0 0 1-2.143.757 15.373 15.373 0 0 0-.172-2.709 15.92 15.92 0 0 0-1.047-3.726 15.011 15.011 0 0 1 1.662-.881zM17.951 7.52a16.296 16.296 0 0 1 .985 3.597 15.607 15.607 0 0 1 .175 2.75 17.223 17.223 0 0 1-3.406.531 10.5 10.5 0 0 1-1.514-2.947 9.944 9.944 0 0 1-.093-.305A14.566 14.566 0 0 1 17.95 7.52zm-14.654.343a8.65 8.65 0 0 0 .275.244A8.974 8.974 0 0 0 6.326 9.69a12.953 12.953 0 0 0-.558 2.047 17.418 17.418 0 0 1-1.414-1.013 19.238 19.238 0 0 1-1.614-1.44 9.655 9.655 0 0 1 .557-1.42zM13.385 9.25a10.35 10.35 0 0 0 .322 1.838 13.624 13.624 0 0 0-.914 1.457 13.563 13.563 0 0 0-.754 1.648 16.505 16.505 0 0 1-4.553-1.48 12.58 12.581 0 0 1-.677-2.865 8.812 8.812 0 0 0 .914.216 9.077 9.077 0 0 0 3.648-.093 9.086 9.087 0 0 0 2.014-.721zm-10.688.203a14.605 14.605 0 0 0 1.498 1.46 16.114 16.114 0 0 0 1.518 1.14 13.017 13.017 0 0 0 .066 4.529 12.725 12.725 0 0 0 1.364 3.746A9.655 9.655 0 0 1 2.346 12a9.655 9.655 0 0 1 .351-2.547zm3.819.78a12.569 12.569 0 0 0 .515 2.247 18.014 18.014 0 0 1-.943-.54 12.76 12.76 0 0 1 .428-1.708zm7.318 1.288l.014.042a10.43 10.43 0 0 0 1.445 2.853 16.584 16.584 0 0 1-2.9-.166 13.702 13.702 0 0 1 .56-1.244 13.753 13.753 0 0 1 .881-1.485zm-7.799.74a16.522 16.522 0 0 0 1.153.665 12.418 12.418 0 0 0 .42 1 12.547 12.547 0 0 0 3.55 4.451 13.846 13.846 0 0 0 .031 1.97 13.233 13.234 0 0 0 .176 1.286 9.655 9.655 0 0 1-3.877-1.106 13.401 13.401 0 0 1-1.404-4.002 13.128 13.128 0 0 1-.049-4.263zm1.625.903a16.087 16.087 0 0 0 4.137 1.348l.117.021a13.975 13.975 0 0 0-.728 3.451 12.558 12.558 0 0 1-3.202-4.097 12.352 12.352 0 0 1-.324-.723zm13.906.07a9.655 9.655 0 0 1-.283 1.375 8.498 8.498 0 0 0-1.904.405c.032-.312.055-.632.068-.96a15.397 15.397 0 0 0 2.12-.82zm-2.464.922c-.014.335-.038.663-.07.983a8.527 8.527 0 0 0-1.803.953 11.179 11.179 0 0 1-1.284-1.375 16.477 16.477 0 0 0 3.157-.56zm-6.838.434a16.217 16.217 0 0 0 3.273.154 10.83 10.83 0 0 0 1.442 1.53 8.233 8.233 0 0 0-.825.705 8.358 8.358 0 0 0-1.918 2.896 12.596 12.597 0 0 1-2.136-1.191c-.21-.147-.421-.302-.63-.467a14.387 14.388 0 0 1 .794-3.627zm8.916.334a9.655 9.655 0 0 1-1.494 2.865 11.637 11.637 0 0 1-.737-.41 15.928 15.928 0 0 0 .385-1.988 8.78 8.78 0 0 1 1.846-.467zm-2.196.605h.002c-.075.593-.18 1.154-.302 1.682a11.311 11.311 0 0 1-1.18-.875 8.621 8.621 0 0 1 1.48-.807zm-1.726.979a10.505 10.505 0 0 0 1.367.947 17.09 17.09 0 0 1-.668 2.098l-.006.02a9.655 9.655 0 0 1-1.601 1.02l-.04-.009a13.358 13.358 0 0 1-1.812-.598 8.573 8.573 0 0 1 1.9-2.758 8.245 8.245 0 0 1 .86-.72zm1.63 1.096a9.68 9.68 0 0 0 .676.334 9.655 9.655 0 0 1-1.218 1.29 15.803 15.803 0 0 0 .543-1.624zm-7.445.992a12.244 12.244 0 0 0 2.703 1.52 8.126 8.126 0 0 0-.365 1.364 9.655 9.655 0 0 1-1.781.174 9.655 9.655 0 0 1-.44-.015 16.514 16.514 0 0 1-.124-1.309 14.832 14.832 0 0 1 .007-1.734zm2.96 1.619a12.11 12.11 0 0 0 1.69.508 9.655 9.655 0 0 1-2.09.715 9.136 9.136 0 0 1 .4-1.223z" opacity=".2"/>
 <path d="M7.248 9.53a.772.772 0 0 1-.771.772.772.772 0 0 1-.772-.772.772.772 0 0 1 .772-.771.772.772 0 0 1 .771.771zm.504 3.289a.435.435 0 0 1-.436.435.435.435 0 0 1-.435-.435.435.435 0 0 1 .435-.435.435.435 0 0 1 .436.435zm-1.465-.814a.435.435 0 0 1-.435.435.435.435 0 0 1-.436-.435.435.435 0 0 1 .436-.436.435.435 0 0 1 .435.436zm5.639 6.375a.615.615 0 0 1-.616.615.615.615 0 0 1-.615-.615.615.615 0 0 1 .615-.615.615.615 0 0 1 .616.615zm1.062-3.841a.806.806 0 0 1-.806.806.806.806 0 0 1-.806-.806.806.806 0 0 1 .807-.806.806.806 0 0 1 .805.806zm1.814-3.273a.894.894 0 0 1-.893.894.894.894 0 0 1-.894-.894.894.894 0 0 1 .894-.894.894.894 0 0 1 .893.894zm-.836-2.312a.435.435 0 0 1-.435.435.435.435 0 0 1-.435-.435.435.435 0 0 1 .435-.434.435.435 0 0 1 .435.434zm3.763-3.572a.58.58 0 0 1-.58.581.58.58 0 0 1-.581-.58.58.58 0 0 1 .58-.581.58.58 0 0 1 .581.58zm.866 1.937a.52.52 0 0 1-.52.52.52.52 0 0 1-.519-.52.52.52 0 0 1 .52-.518.52.52 0 0 1 .519.519zm-3.856 12.748a.443.443 0 0 1-.444.444.443.443 0 0 1-.443-.444.443.443 0 0 1 .444-.444.443.443 0 0 1 .444.444zm2.879-3.738a.402.402 0 0 1-.403.402.402.402 0 0 1-.401-.402.402.402 0 0 1 .401-.401.402.402 0 0 1 .403.401zm1.98-1.056a.402.402 0 0 1-.402.402.402.402 0 0 1-.401-.402.402.402 0 0 1 .401-.402.402.402 0 0 1 .402.402zm-.395 2.158a.402.402 0 0 1-.401.402.402.402 0 0 1-.402-.402.402.402 0 0 1 .402-.402.402.402 0 0 1 .401.402zm.53-3.437a.446.446 0 0 1-.446.446.446.446 0 0 1-.446-.446.446.446 0 0 1 .446-.446.446.446 0 0 1 .446.446z" fill="#4a5f64"/>
</svg>
