<?xml version="1.0" encoding="UTF-8" standalone="no"?>
<!-- Generator: Gravit.io -->

<svg
   xmlns:dc="http://purl.org/dc/elements/1.1/"
   xmlns:cc="http://creativecommons.org/ns#"
   xmlns:rdf="http://www.w3.org/1999/02/22-rdf-syntax-ns#"
   xmlns:svg="http://www.w3.org/2000/svg"
   xmlns="http://www.w3.org/2000/svg"
   xmlns:xlink="http://www.w3.org/1999/xlink"
   xmlns:sodipodi="http://sodipodi.sourceforge.net/DTD/sodipodi-0.dtd"
   xmlns:inkscape="http://www.inkscape.org/namespaces/inkscape"
   style="isolation:isolate"
   viewBox="0 0 22 22"
   width="22"
   height="22"
   version="1.1"
   id="svg23"
   sodipodi:docname="folder-nordic-documents-open.svg"
   inkscape:version="0.92.4 5da689c313, 2019-01-14">
  <metadata
     id="metadata27">
    <rdf:RDF>
      <cc:Work
         rdf:about="">
        <dc:format>image/svg+xml</dc:format>
        <dc:type
           rdf:resource="http://purl.org/dc/dcmitype/StillImage" />
      </cc:Work>
    </rdf:RDF>
  </metadata>
  <sodipodi:namedview
     pagecolor="#ffffff"
     bordercolor="#666666"
     borderopacity="1"
     objecttolerance="10"
     gridtolerance="10"
     guidetolerance="10"
     inkscape:pageopacity="0"
     inkscape:pageshadow="2"
     inkscape:window-width="895"
     inkscape:window-height="668"
     id="namedview25"
     showgrid="false"
     inkscape:zoom="5.5"
     inkscape:cx="24"
     inkscape:cy="24.181818"
     inkscape:window-x="446"
     inkscape:window-y="208"
     inkscape:window-maximized="0"
     inkscape:current-layer="svg23"
     inkscape:snap-global="false"
     showguides="false" />
  <defs
     id="defs5">
    <linearGradient
       id="_lgradient_35-5"
       x1="1.0569526"
       y1="1.164638"
       x2="2.0212493"
       y2="0.70254338"
       gradientTransform="matrix(18.877654,0,0,8.5776341,1.4464341,17.416196)"
       gradientUnits="userSpaceOnUse">
      <stop
         offset="0.31479162"
         stop-opacity="1"
         style="stop-color:#88C0D0"
         id="stop14-9" />
      <stop
         offset="0.66162944"
         stop-opacity="1"
         style="stop-color:#88C0D0"
         id="stop16-7" />
    </linearGradient>
    <clipPath
       clipPathUnits="userSpaceOnUse"
       id="clipPath836">
      <rect
         id="rect838"
         height="48"
         width="48"
         x="0"
         y="0"
         style="fill:none" />
    </clipPath>
  </defs>
  <g
     clip-path="url(#clipPath836)"
     id="g21"
     transform="matrix(0.45472952,0,0,0.45472952,0.00158607,0.16949669)">
    <linearGradient
       id="_lgradient_34"
       x1="0.41166824"
       y1="0.00010054788"
       x2="0.41033676"
       y2="0.86212933"
       gradientTransform="matrix(45.42911,0,0,26.613237,1.1962636,19.627487)"
       gradientUnits="userSpaceOnUse"
       xlink:href="#_lgradient_35-5">
      <stop
         offset="0.41096842"
         stop-opacity="1"
         style="stop-color:#71a7b8;stop-opacity:1"
         id="stop7" />
      <stop
         offset="98.26086956521739%"
         stop-opacity="1"
         style="stop-color:#88C0D0"
         id="stop9" />
    </linearGradient>
    <linearGradient
       id="_lgradient_35"
       x1="0.4859741"
       y1="3.1150997"
       x2="0.44406784"
       y2="-0.0087129287"
       gradientTransform="matrix(18.711492,0,0,6.7851198,1.5197168,11.850823)"
       gradientUnits="userSpaceOnUse">
      <stop
         offset="0.51641214"
         stop-opacity="1"
         style="stop-color:#88c0d0;stop-opacity:1"
         id="stop14" />
      <stop
         offset="98.26086956521739%"
         stop-opacity="1"
         style="stop-color:#b1cbd2;stop-opacity:1"
         id="stop16" />
    </linearGradient>
    <path
       d="M 46.306476,16.756323 21.867724,16.644979 C 18.911849,14.392105 15.848042,11.850822 15.763769,11.850822 H 1.8280551 c -0.1675537,0 -0.3043729,0.143281 -0.3043729,0.31875 l 0.1710922,33.811445 44.5750236,-0.03836 z"
       stroke-miterlimit="3"
       id="path19"
       inkscape:connector-curvature="0"
       style="vector-effect:non-scaling-stroke;fill:url(#_lgradient_35);stroke:#669eae;stroke-width:1.01458776;stroke-linecap:square;stroke-linejoin:miter;stroke-miterlimit:3"
       sodipodi:nodetypes="ccsscccc" />
    <path
       d="m 1.5152768,46.240727 44.8011792,-0.0086 c 0.170611,0 0.308918,-0.11852 0.308918,-0.264721 V 19.910378 c 0,-0.146201 -0.138307,-0.264722 -0.308918,-0.265587 l -26.062176,-0.0173 -4.26125,2.773527 c -0.06866,0.04411 -0.192821,0.07959 -0.278632,0.07959 L 1.1962636,22.433021 1.2053416,45.976 c 0,0.146203 0.139316,0.264722 0.3099276,0.264722 z"
       stroke-miterlimit="3"
       id="path12"
       inkscape:connector-curvature="0"
       style="vector-effect:non-scaling-stroke;fill:url(#_lgradient_34);fill-opacity:1;stroke:#669eae;stroke-width:0.93453455;stroke-linecap:square;stroke-linejoin:miter;stroke-miterlimit:3" />
    <path
       style="isolation:isolate;fill:#46636b;fill-rule:evenodd;stroke-width:0.93044519"
       inkscape:connector-curvature="0"
       id="path21"
       d="m 29.475,32.899549 h -7.997 c -0.176,0 -0.32,0.128994 -0.32,0.288288 0,0.16016 0.144,0.289153 0.32,0.289153 h 7.997 c 0.177,0 0.32,-0.128993 0.32,-0.289153 0,-0.159294 -0.143,-0.288288 -0.32,-0.288288 z m -7.997,-1.731456 h 3.199 c 0.176,0 0.32,-0.128994 0.32,-0.288288 0,-0.16016 -0.144,-0.289153 -0.32,-0.289153 h -3.199 c -0.176,0 -0.32,0.128993 -0.32,0.289153 0,0.159294 0.144,0.288288 0.32,0.288288 z m 7.997,4.040354 h -7.997 c -0.176,0 -0.32,0.128994 -0.32,0.288287 0,0.159294 0.144,0.288287 0.32,0.288287 h 7.997 c 0.177,0 0.32,-0.128993 0.32,-0.288287 0,-0.159293 -0.143,-0.288287 -0.32,-0.288287 z m 0,2.308031 h -7.997 c -0.176,0 -0.32,0.128993 -0.32,0.289153 0,0.159294 0.144,0.288288 0.32,0.288288 h 7.997 c 0.177,0 0.32,-0.128994 0.32,-0.288288 0,-0.16016 -0.143,-0.289153 -0.32,-0.289153 z m 0,2.308897 h -7.997 c -0.176,0 -0.32,0.128993 -0.32,0.288288 0,0.16016 0.144,0.289152 0.32,0.289152 h 7.997 c 0.177,0 0.32,-0.128992 0.32,-0.289152 0,-0.159295 -0.143,-0.288288 -0.32,-0.288288 z m -1.599,-11.712437 2.879,2.597185 0.507,0.45797 H 27.876 Z M 17.64,40.97939 V 26.262011 h 12.475 v 3.055155 L 27.688,27.127739 H 18.599 V 40.97939 Z m 1.599,1.443169 V 41.556832 27.70518 h 7.997 v 4.040354 h 4.478 V 42.422559 Z M 30.755,29.894607 V 25.685435 H 17 v 15.871397 h 1.599 V 43 H 32.354 V 31.33691 Z" />
  </g>
</svg>
