<svg xmlns="http://www.w3.org/2000/svg" style="isolation:isolate" width="22" height="22">
 <defs>
 <clipPath clipPathUnits="userSpaceOnUse" id="a">
 <path fill="none" d="M0 0h48v48H0z"/>
 </clipPath>
 </defs>
 <g clip-path="url(#a)" transform="matrix(.45832 0 0 .45832 -.001 .002)">
 <linearGradient id="b" x1="-.046" y1=".16" x2=".852" y2=".71" gradientTransform="matrix(45 0 0 30.763 1.229 15.445)" gradientUnits="userSpaceOnUse">
 <stop offset="3.043%" stop-color="#88c0d0"/>
 <stop offset="98.261%" stop-color="#88c0d0"/>
 </linearGradient>
 <path d="M1.545 46.208l44.378-.01a.306.306 0 0 0 .306-.306v-30.12a.307.307 0 0 0-.306-.307l-25.816-.02-4.221 3.206a.535.535 0 0 1-.276.092l-14.381-.055.009 27.214c0 .169.138.306.307.306z" stroke-miterlimit="3" vector-effect="non-scaling-stroke" fill="url(#b)" stroke="#669eae" stroke-linecap="square"/>
 <linearGradient id="c" x1="0" y1=".5" x2="1" y2=".5" gradientTransform="matrix(18.873 0 0 6.535 1.243 12.208)" gradientUnits="userSpaceOnUse">
 <stop offset="3.043%" stop-color="#88c0d0"/>
 <stop offset="98.261%" stop-color="#88c0d0"/>
 </linearGradient>
 <path d="M20.116 15.456L15.887 12.3a.538.538 0 0 0-.277-.092H1.554a.308.308 0 0 0-.307.307l-.004 6.168 14.557.06z" stroke-miterlimit="3" vector-effect="non-scaling-stroke" fill="url(#c)" stroke="#669eae" stroke-linecap="square"/>
 <path d="M21.027 27.623A3.019 3.019 0 0 0 19.9 27.4a3 3 0 0 0-2.97 2.6 3.599 3.599 0 0 0 1.17 7h10.8a3.599 3.599 0 0 0 1.19-6.994c.005-.069.007-.136.01-.205a4.796 4.796 0 0 0-9.073-2.178zM25.299 27h.002a2.77 2.77 0 0 1 2.799 2.799l-.004.068a2 2 0 0 0 1.334 2.028c.647.226 1.069.82 1.07 1.505 0 .908-.692 1.6-1.6 1.6H18.1a1.57 1.57 0 0 1-1.6-1.598V33.4a1.586 1.586 0 0 1 1.08-1.509 2 2 0 0 0 1.332-1.625.98.98 0 0 1 .986-.866 1 1 0 0 1 .372.075 2 2 0 0 0 2.539-.944A2.788 2.788 0 0 1 25.299 27z" fill="#46636b"/>
 </g>
</svg>
