<svg xmlns="http://www.w3.org/2000/svg" style="isolation:isolate" width="22" height="22">
 <defs>
 <clipPath clipPathUnits="userSpaceOnUse" id="a">
 <path fill="none" d="M0 0h48v48H0z"/>
 </clipPath>
 </defs>
 <g clip-path="url(#a)" transform="matrix(.45832 0 0 .45832 -.001 .002)">
 <linearGradient id="b" x1="-.046" y1=".16" x2=".852" y2=".71" gradientTransform="matrix(45 0 0 30.763 1.229 15.445)" gradientUnits="userSpaceOnUse">
 <stop offset="3.043%" stop-color="#88c0d0"/>
 <stop offset="98.261%" stop-color="#88c0d0"/>
 </linearGradient>
 <path d="M1.545 46.208l44.378-.01a.306.306 0 0 0 .306-.306v-30.12a.307.307 0 0 0-.306-.307l-25.816-.02-4.221 3.206a.535.535 0 0 1-.276.092l-14.381-.055.009 27.214c0 .169.138.306.307.306z" stroke-miterlimit="3" vector-effect="non-scaling-stroke" fill="url(#b)" stroke="#669eae" stroke-linecap="square"/>
 <linearGradient id="c" x1="0" y1=".5" x2="1" y2=".5" gradientTransform="matrix(18.873 0 0 6.535 1.243 12.208)" gradientUnits="userSpaceOnUse">
 <stop offset="3.043%" stop-color="#88c0d0"/>
 <stop offset="98.261%" stop-color="#88c0d0"/>
 </linearGradient>
 <path d="M20.116 15.456L15.887 12.3a.538.538 0 0 0-.277-.092H1.554a.308.308 0 0 0-.307.307l-.004 6.168 14.557.06z" stroke-miterlimit="3" vector-effect="non-scaling-stroke" fill="url(#c)" stroke="#669eae" stroke-linecap="square"/>
 <path d="M26.33 24.67a.357.357 0 0 0-.331.217l-5.59 13.222c-.076.181.008.39.19.467l.936.396a.35.35 0 0 0 .271.001.356.356 0 0 0 .194-.191l5.59-13.222a.356.356 0 0 0-.189-.466l-.936-.395a.35.35 0 0 0-.135-.028m-6.621 2.472a.354.354 0 0 0-.264.067l-5.302 3.964a.356.356 0 0 0 0 .57l5.302 3.965a.352.352 0 0 0 .498-.072l.609-.814a.356.356 0 0 0-.073-.498l-3.832-2.865 3.832-2.867a.355.355 0 0 0 .073-.498l-.609-.814a.355.355 0 0 0-.234-.139m8.582 0a.355.355 0 0 0-.234.14l-.609.813a.358.358 0 0 0 .072.498l3.832 2.867-3.832 2.865a.356.356 0 0 0-.072.498l.609.814a.357.357 0 0 0 .498.072l5.302-3.965a.356.356 0 0 0 0-.57l-5.302-3.964a.354.354 0 0 0-.264-.067" fill="#46636b"/>
 </g>
</svg>
