<svg xmlns="http://www.w3.org/2000/svg" xmlns:xlink="http://www.w3.org/1999/xlink" style="isolation:isolate" width="22" height="22">
 <defs>
 <linearGradient id="b" x1="1.057" y1="1.165" x2="2.021" y2=".703" gradientTransform="matrix(18.87765 0 0 8.57763 1.446 17.416)" gradientUnits="userSpaceOnUse">
 <stop offset=".315" stop-color="#88c0d0"/>
 <stop offset=".662" stop-color="#88c0d0"/>
 </linearGradient>
 <clipPath clipPathUnits="userSpaceOnUse" id="a">
 <path fill="none" d="M0 0h48v48H0z"/>
 </clipPath>
 </defs>
 <g clip-path="url(#a)" transform="matrix(.45473 0 0 .45473 .002 .17)">
 <linearGradient id="d" x1=".412" y1="0" x2=".41" y2=".862" gradientTransform="matrix(45.42911 0 0 26.61324 1.196 19.627)" gradientUnits="userSpaceOnUse" xlink:href="#b">
 <stop offset=".411" stop-color="#71a7b8"/>
 <stop offset="98.261%" stop-color="#88c0d0"/>
 </linearGradient>
 <linearGradient id="c" x1=".486" y1="3.115" x2=".444" y2="-.009" gradientTransform="matrix(18.7115 0 0 6.78512 1.52 11.85)" gradientUnits="userSpaceOnUse">
 <stop offset=".516" stop-color="#88c0d0"/>
 <stop offset="98.261%" stop-color="#b1cbd2"/>
 </linearGradient>
 <path d="M46.306 16.756l-24.438-.111c-2.956-2.253-6.02-4.794-6.104-4.794H1.828a.313.313 0 0 0-.304.319l.17 33.811 44.576-.038z" stroke-miterlimit="3" vector-effect="non-scaling-stroke" fill="url(#c)" stroke="#669eae" stroke-width="1.015" stroke-linecap="square"/>
 <path d="M1.515 46.24l44.801-.008c.171 0 .31-.118.31-.265V19.91c0-.146-.139-.264-.31-.265l-26.062-.018-4.261 2.774a.603.603 0 0 1-.279.08l-14.518-.048.01 23.543c0 .146.139.265.31.265z" stroke-miterlimit="3" vector-effect="non-scaling-stroke" fill="url(#d)" stroke="#669eae" stroke-width=".935" stroke-linecap="square"/>
 <g style="isolation:isolate" fill="#46636b">
 <path d="M29.35 29.078a.378.378 0 0 0 0 .598.572.572 0 0 0 .712 0 .378.378 0 0 0 0-.598.572.572 0 0 0-.712 0z" style="isolation:isolate"/>
 <path d="M35.741 27.26h-.503v-.423c0-.7-.677-1.27-1.509-1.27h-1.005c-.832 0-1.509.57-1.509 1.27v.423H19.547v-.423c0-.7-.677-1.27-1.509-1.27h-3.017c-.832 0-1.509.57-1.509 1.27v.423h-.503c-.832 0-1.509.57-1.509 1.27v12.7c0 .7.677 1.27 1.509 1.27h22.732c.832 0 1.509-.57 1.509-1.27v-12.7c0-.7-.677-1.27-1.509-1.27zm-3.52-.423c0-.234.225-.423.503-.423h1.005c.278 0 .503.189.503.423v.423h-2.011zm-17.703 0c0-.234.225-.423.503-.423h3.017c.277 0 .503.189.503.423v.423h-4.023zm-2.012 4.656h2.098c.208.493.767.847 1.422.847.656 0 1.215-.354 1.423-.847h2.211c-1.159 1.015-1.823 2.372-1.823 3.81 0 1.959 1.222 3.682 3.058 4.657h-8.389zm3.017-.423c0-.233.226-.423.503-.423.278 0 .503.19.503.423 0 .233-.225.423-.503.423-.277 0-.503-.19-.503-.423zm8.852-.423c3.05 0 5.532 2.09 5.532 4.656 0 2.568-2.482 4.657-5.532 4.657s-5.532-2.089-5.532-4.657c0-2.57 2.486-4.656 5.532-4.656zM36.244 41.23c0 .234-.225.423-.503.423H13.009c-.278 0-.503-.19-.503-.423v-.424h23.738zm0-1.27h-8.389c1.836-.975 3.058-2.698 3.058-4.657 0-1.438-.664-2.795-1.823-3.81h7.154zm0-9.313h-8.391a7.419 7.419 0 0 0-3.478-.847 7.419 7.419 0 0 0-3.478.847h-3.448c-.208-.493-.767-.847-1.423-.847-.655 0-1.214.354-1.422.847h-2.098V28.53c0-.234.225-.424.503-.424h22.732c.278 0 .503.19.503.424z" style="isolation:isolate"/>
 <path d="M24.375 39.114c2.496 0 4.526-1.71 4.526-3.81s-2.03-3.81-4.526-3.81-4.526 1.71-4.526 3.81 2.03 3.81 4.526 3.81zm0-6.774c1.941 0 3.521 1.33 3.521 2.963 0 1.635-1.58 2.964-3.521 2.964-1.941 0-3.521-1.33-3.521-2.964s1.58-2.963 3.521-2.963z" style="isolation:isolate"/>
 <path d="M24.375 34.034c.832 0 1.509.569 1.509 1.27 0 .233.225.423.503.423s.503-.19.503-.424c0-1.166-1.128-2.116-2.515-2.116-.278 0-.503.19-.503.423 0 .234.225.424.503.424zM33.729 28.953h-2.011c-.278 0-.503.19-.503.424 0 .234.225.423.503.423h2.011c.278 0 .503-.19.503-.423 0-.234-.225-.424-.503-.424z" style="isolation:isolate"/>
 </g>
 </g>
</svg>
