<svg xmlns="http://www.w3.org/2000/svg" style="isolation:isolate" width="24" height="24"><defs><clipPath clipPathUnits="userSpaceOnUse" id="a"><path fill="none" d="M0 0h48v48H0z"/></clipPath></defs><g clip-path="url(#a)" transform="matrix(.5 0 0 .5 -.001 .001)"><linearGradient id="b" x1="-.046" y1=".16" x2=".852" y2=".71" gradientTransform="matrix(45 0 0 30.763 1.229 15.445)" gradientUnits="userSpaceOnUse"><stop offset="3.043%" stop-color="#82abaa"/><stop offset="98.261%" stop-color="#82abaa"/></linearGradient><path d="M1.545 46.208l44.378-.01a.306.306 0 0 0 .306-.306v-30.12a.307.307 0 0 0-.306-.307l-25.816-.02-4.221 3.206a.535.535 0 0 1-.276.092l-14.381-.055.009 27.214c0 .169.138.306.307.306z" stroke-miterlimit="3" vector-effect="non-scaling-stroke" fill="url(#b)" stroke="#698989" stroke-linecap="square"/><linearGradient id="c" x1="0" y1=".5" x2="1" y2=".5" gradientTransform="matrix(18.873 0 0 6.535 1.243 12.208)" gradientUnits="userSpaceOnUse"><stop offset="3.043%" stop-color="#82abaa"/><stop offset="98.261%" stop-color="#82abaa"/></linearGradient><path d="M20.116 15.456L15.887 12.3a.538.538 0 0 0-.277-.092H1.554a.308.308 0 0 0-.307.307l-.004 6.168 14.557.06z" stroke-miterlimit="3" vector-effect="non-scaling-stroke" fill="url(#c)" stroke="#698989" stroke-linecap="square"/><path d="M24.774 25.25c-3.242 0-5.91 2.135-6.201 5.25H17l2.323 2.917 2.322-2.917H20.13c.287-2.271 2.26-3.728 4.645-3.728 2.582 0 4.678 2.062 4.678 4.603s-2.096 4.603-4.678 4.603a4.7 4.7 0 0 1-3.516-1.569l-1.137 1.037a6.252 6.252 0 0 0 4.653 2.054c3.437 0 6.226-2.744 6.226-6.125s-2.79-6.125-6.226-6.125z" style="marker:none" color="#000" overflow="visible" fill="#4e6766"/></g></svg>