<?xml version="1.0" encoding="UTF-8" standalone="no"?>
<!-- Generator: Gravit.io -->

<svg
   xmlns:dc="http://purl.org/dc/elements/1.1/"
   xmlns:cc="http://creativecommons.org/ns#"
   xmlns:rdf="http://www.w3.org/1999/02/22-rdf-syntax-ns#"
   xmlns:svg="http://www.w3.org/2000/svg"
   xmlns="http://www.w3.org/2000/svg"
   xmlns:sodipodi="http://sodipodi.sourceforge.net/DTD/sodipodi-0.dtd"
   xmlns:inkscape="http://www.inkscape.org/namespaces/inkscape"
   style="isolation:isolate"
   viewBox="0 0 16 16"
   width="16"
   height="16"
   version="1.1"
   id="svg33"
   sodipodi:docname="folder-pictures.svg"
   inkscape:version="0.92.4 5da689c313, 2019-01-14">
  <metadata
     id="metadata37">
    <rdf:RDF>
      <cc:Work
         rdf:about="">
        <dc:format>image/svg+xml</dc:format>
        <dc:type
           rdf:resource="http://purl.org/dc/dcmitype/StillImage" />
        <dc:title />
      </cc:Work>
    </rdf:RDF>
  </metadata>
  <sodipodi:namedview
     pagecolor="#dee2e2"
     bordercolor="#666666"
     borderopacity="1"
     objecttolerance="10"
     gridtolerance="10"
     guidetolerance="10"
     inkscape:pageopacity="0"
     inkscape:pageshadow="2"
     inkscape:window-width="932"
     inkscape:window-height="666"
     id="namedview35"
     showgrid="false"
     inkscape:zoom="4.9166667"
     inkscape:cx="24"
     inkscape:cy="24"
     inkscape:window-x="412"
     inkscape:window-y="185"
     inkscape:window-maximized="0"
     inkscape:current-layer="g31" />
  <defs
     id="defs5">
    <clipPath
       clipPathUnits="userSpaceOnUse"
       id="clipPath845">
      <rect
         id="rect847"
         height="48"
         width="48"
         x="0"
         y="0"
         style="fill:none" />
    </clipPath>
  </defs>
  <g
     clip-path="url(#clipPath845)"
     id="g31"
     transform="scale(0.33333332)">
    <linearGradient
       id="_lgradient_26"
       x1="-0.046328004"
       y1="0.15974073"
       x2="0.85220069"
       y2="0.71023709"
       gradientTransform="matrix(45,0,0,30.763,1.229,15.445)"
       gradientUnits="userSpaceOnUse">
      <stop
         offset="3.0434782608695654%"
         stop-opacity="1"
         style="stop-color:#82ABAA"
         id="stop7" />
      <stop
         offset="98.26086956521739%"
         stop-opacity="1"
         style="stop-color:#82ABAA"
         id="stop9" />
    </linearGradient>
    <path
       d="m 1.545,46.208 44.378,-0.01 c 0.169,0 0.306,-0.137 0.306,-0.306 v -30.12 c 0,-0.169 -0.137,-0.306 -0.306,-0.307 l -25.816,-0.02 -4.221,3.206 c -0.068,0.051 -0.191,0.092 -0.276,0.092 L 1.229,18.688 1.238,45.902 c 0,0.169 0.138,0.306 0.307,0.306 z"
       stroke-miterlimit="3"
       id="path12"
       inkscape:connector-curvature="0"
       style="vector-effect:non-scaling-stroke;fill:#3b4252;stroke:#dee2e2;stroke-width:1;stroke-linecap:square;stroke-linejoin:miter;stroke-miterlimit:3;stroke-opacity:1;fill-opacity:1" />
    <linearGradient
       id="_lgradient_27"
       x1="0"
       y1="0.5"
       x2="1"
       y2="0.5"
       gradientTransform="matrix(18.873,0,0,6.535,1.243,12.208)"
       gradientUnits="userSpaceOnUse">
      <stop
         offset="3.0434782608695654%"
         stop-opacity="1"
         style="stop-color:#82ABAA"
         id="stop14" />
      <stop
         offset="98.26086956521739%"
         stop-opacity="1"
         style="stop-color:#82ABAA"
         id="stop16" />
    </linearGradient>
    <path
       d="M 20.116,15.456 15.887,12.3 C 15.819,12.249 15.695,12.208 15.61,12.208 H 1.554 c -0.169,0 -0.307,0.138 -0.307,0.307 l -0.004,6.168 14.557,0.06 z"
       stroke-miterlimit="3"
       id="path19"
       inkscape:connector-curvature="0"
       style="vector-effect:non-scaling-stroke;fill:#3b4252;stroke:#dee2e2;stroke-width:1;stroke-linecap:square;stroke-linejoin:miter;stroke-miterlimit:3;stroke-opacity:1;fill-opacity:1" />
    <path
       d="m 28.975,25.921 c -0.196,0.196 -0.196,0.515 0,0.711 0.197,0.197 0.516,0.197 0.712,0 0.196,-0.196 0.196,-0.515 0,-0.711 -0.196,-0.197 -0.515,-0.197 -0.712,0 z"
       id="path21"
       inkscape:connector-curvature="0"
       style="fill:#dee2e2;fill-opacity:1" />
    <path
       d="m 35.366,23.762 h -0.503 v -0.503 c 0,-0.832 -0.677,-1.509 -1.509,-1.509 h -1.005 c -0.832,0 -1.509,0.677 -1.509,1.509 v 0.503 H 19.172 v -0.503 c 0,-0.832 -0.677,-1.509 -1.509,-1.509 h -3.017 c -0.832,0 -1.509,0.677 -1.509,1.509 v 0.503 h -0.503 c -0.832,0 -1.509,0.677 -1.509,1.509 v 15.087 c 0,0.832 0.677,1.509 1.509,1.509 h 22.732 c 0.832,0 1.509,-0.677 1.509,-1.509 V 25.271 c 0,-0.832 -0.677,-1.509 -1.509,-1.509 z m -3.52,-0.503 c 0,-0.278 0.225,-0.503 0.503,-0.503 h 1.005 c 0.278,0 0.503,0.225 0.503,0.503 v 0.503 h -2.011 z m -17.703,0 c 0,-0.278 0.225,-0.503 0.503,-0.503 h 3.017 c 0.277,0 0.503,0.225 0.503,0.503 v 0.503 h -4.023 z m -2.012,5.532 h 2.098 c 0.208,0.585 0.767,1.006 1.422,1.006 0.656,0 1.215,-0.421 1.423,-1.007 h 2.211 c -1.159,1.206 -1.823,2.819 -1.823,4.527 0,2.327 1.222,4.374 3.058,5.533 h -8.389 z m 3.017,-0.503 c 0,-0.277 0.226,-0.503 0.503,-0.503 0.278,0 0.503,0.226 0.503,0.503 0,0.277 -0.225,0.503 -0.503,0.503 -0.277,0 -0.503,-0.226 -0.503,-0.503 z M 24,27.785 c 3.05,0 5.532,2.483 5.532,5.532 0,3.051 -2.482,5.533 -5.532,5.533 -3.05,0 -5.532,-2.482 -5.532,-5.533 0,-3.053 2.486,-5.532 5.532,-5.532 z m 11.869,12.573 c 0,0.278 -0.225,0.503 -0.503,0.503 H 12.634 c -0.278,0 -0.503,-0.225 -0.503,-0.503 v -0.503 h 23.738 z m 0,-1.508 H 27.48 c 1.836,-1.159 3.058,-3.206 3.058,-5.533 0,-1.708 -0.664,-3.321 -1.823,-4.526 h 7.154 z m 0,-11.065 H 27.478 C 26.436,27.127 25.237,26.779 24,26.779 c -1.237,0 -2.436,0.348 -3.478,1.006 h -3.448 c -0.208,-0.585 -0.767,-1.006 -1.423,-1.006 -0.655,0 -1.214,0.421 -1.422,1.006 h -2.098 v -2.514 c 0,-0.278 0.225,-0.503 0.503,-0.503 h 22.732 c 0.278,0 0.503,0.225 0.503,0.503 z"
       id="path23"
       inkscape:connector-curvature="0"
       style="fill:#dee2e2;fill-opacity:1" />
    <path
       d="m 24,37.844 c 2.496,0 4.526,-2.031 4.526,-4.527 0,-2.495 -2.03,-4.526 -4.526,-4.526 -2.496,0 -4.526,2.031 -4.526,4.526 0,2.496 2.03,4.527 4.526,4.527 z m 0,-8.047 c 1.941,0 3.521,1.579 3.521,3.52 0,1.942 -1.58,3.521 -3.521,3.521 -1.941,0 -3.521,-1.579 -3.521,-3.521 0,-1.941 1.58,-3.52 3.521,-3.52 z"
       id="path25"
       inkscape:connector-curvature="0"
       style="fill:#dee2e2;fill-opacity:1" />
    <path
       d="m 24,31.809 c 0.832,0 1.509,0.676 1.509,1.508 0,0.278 0.225,0.503 0.503,0.503 0.278,0 0.503,-0.225 0.503,-0.503 0,-1.386 -1.128,-2.514 -2.515,-2.514 -0.278,0 -0.503,0.225 -0.503,0.503 0,0.277 0.225,0.503 0.503,0.503 z"
       id="path27"
       inkscape:connector-curvature="0"
       style="fill:#dee2e2;fill-opacity:1" />
    <path
       d="m 33.354,25.773 h -2.011 c -0.278,0 -0.503,0.226 -0.503,0.503 0,0.278 0.225,0.503 0.503,0.503 h 2.011 c 0.278,0 0.503,-0.225 0.503,-0.503 0,-0.277 -0.225,-0.503 -0.503,-0.503 z"
       id="path29"
       inkscape:connector-curvature="0"
       style="fill:#dee2e2;fill-opacity:1" />
  </g>
</svg>
