<svg xmlns="http://www.w3.org/2000/svg" style="isolation:isolate" width="48" height="48"><defs><clipPath clipPathUnits="userSpaceOnUse" id="a"><path fill="none" d="M0 0h48v48H0z"/></clipPath></defs><g clip-path="url(#a)"><linearGradient id="b" x1="-.046" y1=".16" x2=".852" y2=".71" gradientTransform="matrix(45 0 0 30.763 1.229 15.445)" gradientUnits="userSpaceOnUse"><stop offset="3.043%" stop-color="#88c0d0"/><stop offset="98.261%" stop-color="#88c0d0"/></linearGradient><path d="M1.545 46.208l44.378-.01a.306.306 0 0 0 .306-.306v-30.12a.307.307 0 0 0-.306-.307l-25.816-.02-4.221 3.206a.535.535 0 0 1-.276.092l-14.381-.055.009 27.214c0 .169.138.306.307.306z" stroke-miterlimit="3" vector-effect="non-scaling-stroke" fill="url(#b)" stroke="#669eae" stroke-linecap="square"/><linearGradient id="c" x1="0" y1=".5" x2="1" y2=".5" gradientTransform="matrix(18.873 0 0 6.535 1.243 12.208)" gradientUnits="userSpaceOnUse"><stop offset="3.043%" stop-color="#88c0d0"/><stop offset="98.261%" stop-color="#88c0d0"/></linearGradient><path d="M20.116 15.456L15.887 12.3a.538.538 0 0 0-.277-.092H1.554a.308.308 0 0 0-.307.307l-.004 6.168 14.557.06z" stroke-miterlimit="3" vector-effect="non-scaling-stroke" fill="url(#c)" stroke="#669eae" stroke-linecap="square"/><g fill="#46636b" fill-rule="evenodd"><path d="M30.2 37.5c0-2.243-3.807-3.388-5.325-3.795 0 0 .062-1.257.21-1.719.146-.46.167-.985.23-1.132.063-.147.804-.817.846-1.446-.01-.376-.084-.465-.27-.465v-1.949c0-1.052-1.534-1.972-2.541-1.972s-2.542.92-2.542 1.972v1.95c-.185 0-.26.088-.27.464.043.629.784 1.3.847 1.446.063.147.084.671.23 1.132.147.462.21 1.72.21 1.72-1.518.406-5.325 1.55-5.325 3.794z"/><path d="M32.5 37.5c0-1.814-3.078-2.74-4.306-3.068 0 0 .051-1.017.17-1.39.119-.373.135-.797.186-.915.051-.12.65-.662.684-1.17-.008-.304-.068-.375-.218-.375v-1.577c0-.85-1.24-1.594-2.054-1.594-.815 0-2.055.743-2.055 1.594v1.577c-.15 0-.21.071-.218.375.034.508.633 1.05.684 1.17.05.118.068.542.186.915.119.373.17 1.39.17 1.39-1.228.329-4.306 1.254-4.306 3.068z"/></g></g></svg>