<svg xmlns="http://www.w3.org/2000/svg" style="isolation:isolate" width="48" height="48"><defs><clipPath clipPathUnits="userSpaceOnUse" id="a"><path fill="none" d="M0 0h48v48H0z"/></clipPath></defs><g clip-path="url(#a)"><linearGradient id="b" x1="-.046" y1=".16" x2=".852" y2=".71" gradientTransform="matrix(45 0 0 30.763 1.229 15.445)" gradientUnits="userSpaceOnUse"><stop offset="3.043%" stop-color="#88c0d0"/><stop offset="98.261%" stop-color="#88c0d0"/></linearGradient><path d="M1.545 46.208l44.378-.01a.306.306 0 0 0 .306-.306v-30.12a.307.307 0 0 0-.306-.307l-25.816-.02-4.221 3.206a.535.535 0 0 1-.276.092l-14.381-.055.009 27.214c0 .169.138.306.307.306z" stroke-miterlimit="3" vector-effect="non-scaling-stroke" fill="url(#b)" stroke="#669eae" stroke-linecap="square"/><linearGradient id="c" x1="0" y1=".5" x2="1" y2=".5" gradientTransform="matrix(18.873 0 0 6.535 1.243 12.208)" gradientUnits="userSpaceOnUse"><stop offset="3.043%" stop-color="#88c0d0"/><stop offset="98.261%" stop-color="#88c0d0"/></linearGradient><path d="M20.116 15.456L15.887 12.3a.538.538 0 0 0-.277-.092H1.554a.308.308 0 0 0-.307.307l-.004 6.168 14.557.06z" stroke-miterlimit="3" vector-effect="non-scaling-stroke" fill="url(#c)" stroke="#669eae" stroke-linecap="square"/><path d="M22.592 25.547c-3.556 0-2.73 3.248-4.55 4.226-.062.036-.097.07-.153.104 1.2-.715 2.68-1.312 4.252-1.717a17.3 17.3 0 0 1 3.925-.559h.096c-1.2-.34-1.332-2.054-3.57-2.054zm3.875 2.955a17.36 17.36 0 0 0-3.926.558c-4.386 1.13-7.513 3.584-6.982 5.483.305 1.085 1.777 1.801 3.97 1.931l-.004-.023c-.118-1.027.533-1.92 1.297-2.526.764-.605 1.746-1.045 2.85-1.279 1.103-.234 2.136-.223 3 .037.812.245 1.576.778 1.763 1.694 2.199-1.233 3.339-2.719 3.008-3.92-.35-1.258-2.258-2.008-4.976-1.955zM25.162 33.5a1.859 3.577 76.001 0 0-1.377.142 1.859 3.577 76.001 0 0-3.28 2.6 1.859 3.577 76.001 0 0 3.71 1.115 1.859 3.577 76.001 0 0 3.277-2.599 1.859 3.577 76.001 0 0-2.33-1.258z" fill="#46636b"/></g></svg>