<svg xmlns="http://www.w3.org/2000/svg" style="isolation:isolate" width="22" height="22"><defs><clipPath clipPathUnits="userSpaceOnUse" id="a"><path fill="none" d="M0 0h48v48H0z"/></clipPath></defs><g clip-path="url(#a)" transform="matrix(.45832 0 0 .45832 -.001 .002)"><linearGradient id="b" x1="-.046" y1=".16" x2=".852" y2=".71" gradientTransform="matrix(45 0 0 30.763 1.229 15.445)" gradientUnits="userSpaceOnUse"><stop offset="3.043%" stop-color="#9fae92"/><stop offset="98.261%" stop-color="#9fae92"/></linearGradient><path d="M1.545 46.208l44.378-.01a.306.306 0 0 0 .306-.306v-30.12a.307.307 0 0 0-.306-.307l-25.816-.02-4.221 3.206a.535.535 0 0 1-.276.092l-14.381-.055.009 27.214c0 .169.138.306.307.306z" stroke-miterlimit="3" vector-effect="non-scaling-stroke" fill="url(#b)" stroke="#7f8f7f" stroke-linecap="square"/><linearGradient id="c" x1="0" y1=".5" x2="1" y2=".5" gradientTransform="matrix(18.873 0 0 6.535 1.243 12.208)" gradientUnits="userSpaceOnUse"><stop offset="3.043%" stop-color="#9fae92"/><stop offset="98.261%" stop-color="#9fae92"/></linearGradient><path d="M20.116 15.456L15.887 12.3a.538.538 0 0 0-.277-.092H1.554a.308.308 0 0 0-.307.307l-.004 6.168 14.557.06z" stroke-miterlimit="3" vector-effect="non-scaling-stroke" fill="url(#c)" stroke="#7f8f7f" stroke-linecap="square"/><path d="M20.207 24l-.707.708 1.408 1.409a2.5 2.503 0 0 0-.41 1.371 2.5 2.503 0 0 0 2.001 2.452v4.11a2.5 2.503 0 0 0-2 2.447A2.5 2.503 0 0 0 23 39a2.5 2.503 0 0 0 2.5-2.503 2.5 2.503 0 0 0-2-2.451v-4.11a2.5 2.503 0 0 0 .869-.354l1.541 1.543a2.5 2.503 0 0 0-.41 1.368 2.5 2.503 0 0 0 2.501 2.503 2.5 2.503 0 0 0 2.501-2.504 2.5 2.503 0 0 0-2.5-2.503 2.5 2.503 0 0 0-1.388.423l-1.534-1.537a2.5 2.503 0 0 0 .42-1.388 2.5 2.503 0 0 0-2.5-2.503 2.5 2.503 0 0 0-1.386.423L20.208 24z" fill="#5d695d"/></g></svg>