<svg xmlns="http://www.w3.org/2000/svg" style="isolation:isolate" width="22" height="22"><defs><clipPath clipPathUnits="userSpaceOnUse" id="a"><path fill="none" d="M0 0h48v48H0z"/></clipPath></defs><g clip-path="url(#a)" transform="matrix(.45832 0 0 .45832 -.001 .002)"><linearGradient id="b" x1="-.046" y1=".16" x2=".852" y2=".71" gradientTransform="matrix(45 0 0 30.763 1.229 15.445)" gradientUnits="userSpaceOnUse"><stop offset="3.043%" stop-color="#9fae92"/><stop offset="98.261%" stop-color="#9fae92"/></linearGradient><path d="M1.545 46.208l44.378-.01a.306.306 0 0 0 .306-.306v-30.12a.307.307 0 0 0-.306-.307l-25.816-.02-4.221 3.206a.535.535 0 0 1-.276.092l-14.381-.055.009 27.214c0 .169.138.306.307.306z" stroke-miterlimit="3" vector-effect="non-scaling-stroke" fill="url(#b)" stroke="#7f8f7f" stroke-linecap="square"/><linearGradient id="c" x1="0" y1=".5" x2="1" y2=".5" gradientTransform="matrix(18.873 0 0 6.535 1.243 12.208)" gradientUnits="userSpaceOnUse"><stop offset="3.043%" stop-color="#9fae92"/><stop offset="98.261%" stop-color="#9fae92"/></linearGradient><path d="M20.116 15.456L15.887 12.3a.538.538 0 0 0-.277-.092H1.554a.308.308 0 0 0-.307.307l-.004 6.168 14.557.06z" stroke-miterlimit="3" vector-effect="non-scaling-stroke" fill="url(#c)" stroke="#7f8f7f" stroke-linecap="square"/><path d="M24 25a5 5 0 0 0-4.732 3.398A4 4 0 0 0 17 32a4 4 0 0 0 4 4 4 4 0 0 0 2.658-1.018A5 5 0 0 0 24 35a5 5 0 0 0 2.113-.475A4 4 0 0 0 28 35a4 4 0 0 0 4-4 4 4 0 0 0-4-4 4 4 0 0 0-.008 0A5 5 0 0 0 24 25z" fill="#5d695d"/></g></svg>