<?xml version="1.0" encoding="UTF-8" standalone="no"?>
<!-- Generator: Gravit.io -->

<svg
   xmlns:dc="http://purl.org/dc/elements/1.1/"
   xmlns:cc="http://creativecommons.org/ns#"
   xmlns:rdf="http://www.w3.org/1999/02/22-rdf-syntax-ns#"
   xmlns:svg="http://www.w3.org/2000/svg"
   xmlns="http://www.w3.org/2000/svg"
   xmlns:xlink="http://www.w3.org/1999/xlink"
   xmlns:sodipodi="http://sodipodi.sourceforge.net/DTD/sodipodi-0.dtd"
   xmlns:inkscape="http://www.inkscape.org/namespaces/inkscape"
   style="isolation:isolate"
   viewBox="0 0 24 24"
   width="24"
   height="24"
   version="1.1"
   id="svg23"
   sodipodi:docname="folder-nordic-templates-open.svg"
   inkscape:version="0.92.4 5da689c313, 2019-01-14">
  <metadata
     id="metadata27">
    <rdf:RDF>
      <cc:Work
         rdf:about="">
        <dc:format>image/svg+xml</dc:format>
        <dc:type
           rdf:resource="http://purl.org/dc/dcmitype/StillImage" />
      </cc:Work>
    </rdf:RDF>
  </metadata>
  <sodipodi:namedview
     pagecolor="#ffffff"
     bordercolor="#666666"
     borderopacity="1"
     objecttolerance="10"
     gridtolerance="10"
     guidetolerance="10"
     inkscape:pageopacity="0"
     inkscape:pageshadow="2"
     inkscape:window-width="895"
     inkscape:window-height="668"
     id="namedview25"
     showgrid="false"
     inkscape:zoom="5.5"
     inkscape:cx="24"
     inkscape:cy="24.181818"
     inkscape:window-x="772"
     inkscape:window-y="151"
     inkscape:window-maximized="0"
     inkscape:current-layer="svg23"
     inkscape:snap-global="false"
     showguides="false" />
  <defs
     id="defs5">
    <linearGradient
       id="_lgradient_35-5"
       x1="1.0569526"
       y1="1.164638"
       x2="2.0212493"
       y2="0.70254338"
       gradientTransform="matrix(18.877654,0,0,8.5776341,1.4464341,17.416196)"
       gradientUnits="userSpaceOnUse">
      <stop
         offset="0.31479162"
         stop-opacity="1"
         style="stop-color:#a3be8c"
         id="stop14-9" />
      <stop
         offset="0.66162944"
         stop-opacity="1"
         style="stop-color:#a3be8c"
         id="stop16-7" />
    </linearGradient>
    <clipPath
       clipPathUnits="userSpaceOnUse"
       id="clipPath835">
      <rect
         id="rect837"
         height="48"
         width="48"
         x="0"
         y="0"
         style="fill:none" />
    </clipPath>
  </defs>
  <g
     clip-path="url(#clipPath835)"
     id="g21"
     transform="matrix(0.4960764,0,0,0.4960764,0.00145182,0.18426639)">
    <linearGradient
       id="_lgradient_34"
       x1="0.41166824"
       y1="0.00010054788"
       x2="0.41033676"
       y2="0.86212933"
       gradientTransform="matrix(45.42911,0,0,26.613237,1.1962636,19.627487)"
       gradientUnits="userSpaceOnUse"
       xlink:href="#_lgradient_35-5">
      <stop
         offset="0.41096842"
         stop-opacity="1"
         style="stop-color:#83a26b;stop-opacity:1"
         id="stop7" />
      <stop
         offset="98.26086956521739%"
         stop-opacity="1"
         style="stop-color:#a3be8c"
         id="stop9" />
    </linearGradient>
    <linearGradient
       id="_lgradient_35"
       x1="0.4859741"
       y1="3.1150997"
       x2="0.44406784"
       y2="-0.0087129287"
       gradientTransform="matrix(18.711492,0,0,6.7851198,1.5197168,11.850823)"
       gradientUnits="userSpaceOnUse">
      <stop
         offset="0.51641214"
         stop-opacity="1"
         style="stop-color:#a3be8c;stop-opacity:1"
         id="stop14" />
      <stop
         offset="98.26086956521739%"
         stop-opacity="1"
         style="stop-color:#b1cca8;stop-opacity:1"
         id="stop16" />
    </linearGradient>
    <path
       d="M 46.306476,16.756323 21.867724,16.644979 C 18.911849,14.392105 15.848042,11.850822 15.763769,11.850822 H 1.8280551 c -0.1675537,0 -0.3043729,0.143281 -0.3043729,0.31875 l 0.1710922,33.811445 44.5750236,-0.03836 z"
       stroke-miterlimit="3"
       id="path19"
       inkscape:connector-curvature="0"
       style="vector-effect:non-scaling-stroke;fill:url(#_lgradient_35);stroke:#72a046;stroke-width:1.01458776;stroke-linecap:square;stroke-linejoin:miter;stroke-miterlimit:3"
       sodipodi:nodetypes="ccsscccc" />
    <path
       d="m 1.5152768,46.240727 44.8011792,-0.0086 c 0.170611,0 0.308918,-0.11852 0.308918,-0.264721 V 19.910378 c 0,-0.146201 -0.138307,-0.264722 -0.308918,-0.265587 l -26.062176,-0.0173 -4.26125,2.773527 c -0.06866,0.04411 -0.192821,0.07959 -0.278632,0.07959 L 1.1962636,22.433021 1.2053416,45.976 c 0,0.146203 0.139316,0.264722 0.3099276,0.264722 z"
       stroke-miterlimit="3"
       id="path12"
       inkscape:connector-curvature="0"
       style="vector-effect:non-scaling-stroke;fill:url(#_lgradient_34);fill-opacity:1;stroke:#72a046;stroke-width:0.93453455;stroke-linecap:square;stroke-linejoin:miter;stroke-miterlimit:3" />
    <path
       d="m 17.064,25.877339 c -0.008,0 -0.016,0 -0.024,0 -0.319,0.0066 -0.573,0.251671 -0.566,0.547218 v 1.092781 h 0.59 v -1.092781 h 1.475 v -0.547218 z m 3.244,11.750709 h 10.617 v 0.54639 H 20.308 Z m -1.769,-1.366804 v -3.43895 l 3.711,3.43895 z m 4.128,-0.385785 -3.711,-3.439778 h 3.711 z m 7.668,-2.346169 h -5.898 v -1.093609 h 5.898 z m 0,-3.005976 H 18.539 v -2.73278 h 11.796 z m -6.488,5.73793 h 7.078 v 0.547218 h -7.078 z m 0,-1.365977 h 7.078 v 0.546391 h -7.078 z m -5.898,4.098757 h 10.617 v 0.546391 H 17.949 Z m 0,-1.365976 h 0.59 v 0.54639 h -0.59 z M 30.63,27.244143 H 18.244 c -0.163,0 -0.295,0.122524 -0.295,0.273195 v 3.279172 c 0,0.150671 0.132,0.273195 0.295,0.273195 H 30.63 c 0.163,0 0.295,-0.122524 0.295,-0.273195 v -3.279172 c 0,-0.150671 -0.132,-0.273195 -0.295,-0.273195 z m 0,4.645148 h -6.488 c -0.163,0 -0.295,0.122524 -0.295,0.273195 v 1.639999 c 0,0.150673 0.132,0.273196 0.295,0.273196 h 6.488 c 0.163,0 0.295,-0.122523 0.295,-0.273196 v -1.639999 c 0,-0.150671 -0.132,-0.273195 -0.295,-0.273195 z m -7.668,0 h -4.718 c -0.163,0 -0.295,0.122524 -0.295,0.273195 v 4.371953 c 0,0.151499 0.132,0.274023 0.295,0.274023 h 4.718 c 0.163,0 0.295,-0.122524 0.295,-0.274023 v -4.371953 c 0,-0.150671 -0.132,-0.273195 -0.295,-0.273195 z m 10.323,8.744733 c 0,0.452842 -0.396,0.819585 -0.885,0.819585 H 16.474 c -0.489,0 -0.885,-0.366743 -0.885,-0.819585 V 25.877339 c 0,-0.452842 0.396,-0.819586 0.885,-0.819586 H 32.4 c 0.489,0 0.885,0.366744 0.885,0.819586 z M 32.4,24.511363 H 16.474 C 15.66,24.512191 15,25.123154 15,25.877339 V 40.634024 C 15,41.388208 15.66,41.999172 16.474,42 H 32.4 c 0.814,-8.28e-4 1.474,-0.611792 1.475,-1.365976 V 25.877339 C 33.874,25.123154 33.214,24.512191 32.4,24.511363 Z M 19.128,37.628048 h 0.59 v 0.54639 h -0.59 z"
       id="path21"
       inkscape:connector-curvature="0"
       style="isolation:isolate;fill:#466b46;fill-rule:evenodd;stroke-width:0.90987056" />
  </g>
</svg>
