<svg xmlns="http://www.w3.org/2000/svg" xmlns:xlink="http://www.w3.org/1999/xlink" style="isolation:isolate" width="64" height="64">
 <defs>
 <linearGradient id="b" x1="1.057" y1="1.165" x2="2.021" y2=".703" gradientTransform="matrix(18.87765 0 0 8.57763 1.446 17.416)" gradientUnits="userSpaceOnUse">
 <stop offset=".315" stop-color="#9fae92"/>
 <stop offset=".662" stop-color="#9fae92"/>
 </linearGradient>
 <clipPath clipPathUnits="userSpaceOnUse" id="a">
 <path fill="none" d="M0 0h48v48H0z"/>
 </clipPath>
 </defs>
 <g clip-path="url(#a)" transform="matrix(1.32288 0 0 1.32288 .01 .487)">
 <linearGradient id="d" x1=".412" y1="0" x2=".41" y2=".862" gradientTransform="matrix(45.42911 0 0 26.61324 1.196 19.627)" gradientUnits="userSpaceOnUse" xlink:href="#b">
 <stop offset=".411" stop-color="#929f88"/>
 <stop offset="98.261%" stop-color="#9fae92"/>
 </linearGradient>
 <linearGradient id="c" x1=".486" y1="3.115" x2=".444" y2="-.009" gradientTransform="matrix(18.7115 0 0 6.78512 1.52 11.85)" gradientUnits="userSpaceOnUse">
 <stop offset=".516" stop-color="#9fae92"/>
 <stop offset="98.261%" stop-color="#b1cca8"/>
 </linearGradient>
 <path d="M46.306 16.756l-24.438-.111c-2.956-2.253-6.02-4.794-6.104-4.794H1.828a.313.313 0 0 0-.304.319l.17 33.811 44.576-.038z" stroke-miterlimit="3" vector-effect="non-scaling-stroke" fill="url(#c)" stroke="#7f8f7f" stroke-width="1.015" stroke-linecap="square"/>
 <path d="M1.515 46.24l44.801-.008c.171 0 .31-.118.31-.265V19.91c0-.146-.139-.264-.31-.265l-26.062-.018-4.261 2.774a.603.603 0 0 1-.279.08l-14.518-.048.01 23.543c0 .146.139.265.31.265z" stroke-miterlimit="3" vector-effect="non-scaling-stroke" fill="url(#d)" stroke="#7f8f7f" stroke-width=".935" stroke-linecap="square"/>
 <path d="M24.76 40.488v.012h-1.161v-.006l-4.475-3.838a.327.327 0 0 1 0-.512l.074-.064a.472.472 0 0 1 .597 0l3.804 3.261V25.744h1.161v13.591l3.826-3.28a.474.474 0 0 1 .597 0l.075.064a.326.326 0 0 1 0 .512z" style="isolation:isolate" fill="#5d695d" fill-rule="evenodd"/>
 </g>
</svg>
