<svg xmlns="http://www.w3.org/2000/svg" style="isolation:isolate" width="64" height="64"><defs><clipPath clipPathUnits="userSpaceOnUse" id="a"><path fill="none" d="M0 0h48v48H0z"/></clipPath></defs><g clip-path="url(#a)" transform="matrix(1.33334 0 0 1.33334 .002 -.002)"><linearGradient id="b" x1="-.046" y1=".16" x2=".852" y2=".71" gradientTransform="matrix(45 0 0 30.763 1.229 15.445)" gradientUnits="userSpaceOnUse"><stop offset="3.043%" stop-color="#9fae92"/><stop offset="98.261%" stop-color="#9fae92"/></linearGradient><path d="M1.545 46.208l44.378-.01a.306.306 0 0 0 .306-.306v-30.12a.307.307 0 0 0-.306-.307l-25.816-.02-4.221 3.206a.535.535 0 0 1-.276.092l-14.381-.055.009 27.214c0 .169.138.306.307.306z" stroke-miterlimit="3" vector-effect="non-scaling-stroke" fill="url(#b)" stroke="#7f8f7f" stroke-linecap="square"/><linearGradient id="c" x1="0" y1=".5" x2="1" y2=".5" gradientTransform="matrix(18.873 0 0 6.535 1.243 12.208)" gradientUnits="userSpaceOnUse"><stop offset="3.043%" stop-color="#9fae92"/><stop offset="98.261%" stop-color="#9fae92"/></linearGradient><path d="M20.116 15.456L15.887 12.3a.538.538 0 0 0-.277-.092H1.554a.308.308 0 0 0-.307.307l-.004 6.168 14.557.06z" stroke-miterlimit="3" vector-effect="non-scaling-stroke" fill="url(#c)" stroke="#7f8f7f" stroke-linecap="square"/><path d="M28.975 25.921a.503.503 0 1 0 .713.711.503.503 0 0 0-.713-.711z" fill="#5d695d"/><path d="M35.366 23.762h-.503v-.503a1.51 1.51 0 0 0-1.509-1.509h-1.005a1.51 1.51 0 0 0-1.509 1.509v.503H19.172v-.503a1.51 1.51 0 0 0-1.509-1.509h-3.017a1.51 1.51 0 0 0-1.509 1.509v.503h-.503a1.51 1.51 0 0 0-1.509 1.509v15.087a1.51 1.51 0 0 0 1.509 1.509h22.732a1.51 1.51 0 0 0 1.509-1.509V25.271a1.51 1.51 0 0 0-1.509-1.509zm-3.52-.503c0-.278.225-.503.503-.503h1.005c.278 0 .503.225.503.503v.503h-2.011zm-17.703 0c0-.278.225-.503.503-.503h3.017c.277 0 .503.225.503.503v.503h-4.023zm-2.012 5.532h2.098a1.512 1.512 0 0 0 1.422 1.006c.656 0 1.215-.421 1.423-1.007h2.211a6.524 6.524 0 0 0-1.823 4.527 6.54 6.54 0 0 0 3.058 5.533h-8.389zm3.017-.503a.504.504 0 0 1 1.006 0 .503.503 0 0 1-1.006 0zM24 27.785a5.54 5.54 0 0 1 5.532 5.532A5.539 5.539 0 0 1 24 38.85a5.539 5.539 0 0 1-5.532-5.533A5.54 5.54 0 0 1 24 27.785zm11.869 12.573a.503.503 0 0 1-.503.503H12.634a.503.503 0 0 1-.503-.503v-.503h23.738zm0-1.508H27.48a6.54 6.54 0 0 0 3.058-5.533 6.52 6.52 0 0 0-1.823-4.526h7.154zm0-11.065h-8.391A6.496 6.496 0 0 0 24 26.779a6.496 6.496 0 0 0-3.478 1.006h-3.448a1.513 1.513 0 0 0-1.423-1.006c-.655 0-1.214.421-1.422 1.006h-2.098v-2.514c0-.278.225-.503.503-.503h22.732c.278 0 .503.225.503.503z" fill="#5d695d"/><path d="M24 37.844a4.532 4.532 0 0 0 4.526-4.527A4.531 4.531 0 0 0 24 28.791a4.531 4.531 0 0 0-4.526 4.526A4.532 4.532 0 0 0 24 37.844zm0-8.047a3.525 3.525 0 0 1 3.521 3.52A3.525 3.525 0 0 1 24 36.838a3.525 3.525 0 0 1-3.521-3.521c0-1.941 1.58-3.52 3.521-3.52z" fill="#5d695d"/><path d="M24 31.809a1.51 1.51 0 0 1 1.509 1.508.503.503 0 1 0 1.006 0A2.517 2.517 0 0 0 24 30.803a.503.503 0 1 0 0 1.006zM33.354 25.773h-2.011a.503.503 0 0 0 0 1.006h2.011a.503.503 0 1 0 0-1.006z" fill="#5d695d"/></g></svg>