<svg xmlns="http://www.w3.org/2000/svg" style="isolation:isolate" width="64" height="64"><defs><clipPath clipPathUnits="userSpaceOnUse" id="a"><path fill="none" d="M0 0h48v48H0z"/></clipPath></defs><g clip-path="url(#a)" transform="matrix(1.33334 0 0 1.33334 .002 -.002)"><linearGradient id="b" x1="-.046" y1=".16" x2=".852" y2=".71" gradientTransform="matrix(45 0 0 30.763 1.229 15.445)" gradientUnits="userSpaceOnUse"><stop offset="3.043%" stop-color="#9fae92"/><stop offset="98.261%" stop-color="#9fae92"/></linearGradient><path d="M1.545 46.208l44.378-.01a.306.306 0 0 0 .306-.306v-30.12a.307.307 0 0 0-.306-.307l-25.816-.02-4.221 3.206a.535.535 0 0 1-.276.092l-14.381-.055.009 27.214c0 .169.138.306.307.306z" stroke-miterlimit="3" vector-effect="non-scaling-stroke" fill="url(#b)" stroke="#7f8f7f" stroke-linecap="square"/><linearGradient id="c" x1="0" y1=".5" x2="1" y2=".5" gradientTransform="matrix(18.873 0 0 6.535 1.243 12.208)" gradientUnits="userSpaceOnUse"><stop offset="3.043%" stop-color="#9fae92"/><stop offset="98.261%" stop-color="#9fae92"/></linearGradient><path d="M20.116 15.456L15.887 12.3a.538.538 0 0 0-.277-.092H1.554a.308.308 0 0 0-.307.307l-.004 6.168 14.557.06z" stroke-miterlimit="3" vector-effect="non-scaling-stroke" fill="url(#c)" stroke="#7f8f7f" stroke-linecap="square"/><path d="M24.083 16.072c-.34 0-.613.305-.613.682v.17c0 .378.273.683.613.683h1.537c.34 0 .612-.305.612-.682v-.17c0-.378-.272-.683-.612-.683h-1.537m-.006 2.22c-.34 0-.613.305-.613.683v.171c0 .378.273.681.613.681h1.537c.34 0 .612-.303.612-.68v-.172c0-.378-.272-.683-.612-.683h-1.537m-.016 2.195c-.34 0-.614.304-.614.682v.172c0 .378.274.68.614.68h1.535c.34 0 .615-.302.615-.68v-.172c0-.378-.275-.682-.615-.682h-1.535m.029 2.285c-.34 0-.613.304-.613.682v.17c0 .378.273.683.613.683h1.537c.34 0 .613-.305.613-.683v-.17c0-.378-.273-.682-.613-.682H24.09m0 2.244c-.34 0-.613.303-.613.68v.173c0 .377.273.682.613.682h1.537c.34 0 .613-.305.613-.682v-.172c0-.378-.273-.681-.613-.681H24.09m0 2.297c-.34 0-.613.304-.613.682v.17c0 .378.273.683.613.683h1.537c.34 0 .613-.305.613-.683v-.17c0-.378-.273-.682-.613-.682H24.09m.124 2.322c-.242 0-.44.218-.44.488v.97l-.676 2.218c-.19.619-.1 1.307.242 1.84.341.531.896.849 1.482.849.587 0 1.141-.318 1.483-.85a2.23 2.23 0 0 0 .242-1.837l-.677-2.22v-.97c0-.27-.197-.488-.44-.488h-1.217m-.054 3.25h1.325l.228.744c.097.318.051.674-.125.949a.916.916 0 0 1-1.53 0 1.155 1.155 0 0 1-.125-.95l.227-.743" opacity=".929" fill="#5d695d"/></g></svg>