<svg xmlns="http://www.w3.org/2000/svg" width="32" height="32" version="1">
 <rect width="25" height="16" x="3" y="12" rx="1.25" ry="1.25" opacity=".2"/>
 <path d="M3 21.75c0 .692.558 1.25 1.25 1.25h22.5c.692 0 1.25-.558 1.25-1.25V8.25C28 7.558 27.442 7 26.75 7H14v-.75C14 5.558 13.443 5 12.75 5h-8.5C3.558 5 3 5.558 3 6.25" fill="#6c9b9a"/>
 <rect width="25" height="16" x="3" y="10" rx="1.25" ry="1.25" opacity=".2"/>
 <rect width="21" height="10" x="5" y="9" rx="1.25" ry="1.25" fill="#e4e4e4"/>
 <rect width="25" height="16" x="3" y="11" rx="1.25" ry="1.25" fill="#82abaa"/>
 <path d="M4.25 5C3.558 5 3 5.558 3 6.25v1C3 6.558 3.558 6 4.25 6h8.5c.693 0 1.25.558 1.25 1.25V8h12.75c.692 0 1.25.557 1.25 1.25v-1C28 7.558 27.442 7 26.75 7H14v-.75C14 5.558 13.443 5 12.75 5h-8.5z" opacity=".1" fill="#fff"/>
 <path d="M15.843 21.196c-.8.373-1.544.369-2.044.333-.596-.043-1.076-.207-1.286-.349a.285.285 0 0 0-.319.47c.339.229.938.4 1.564.445.106.008.223.013.348.013.545 0 1.237-.052 1.977-.397a.284.284 0 1 0-.24-.515zm3.158-.421c.027-2.467.281-7.13-4.443-6.754-4.665.376-3.428 5.303-3.497 6.953-.062.873-.352 1.94-.761 3.026h1.261c.129-.46.225-.915.266-1.349.076.053.157.104.244.153.141.083.262.194.391.311.3.274.64.584 1.306.623.044.002.089.004.133.004.673 0 1.133-.295 1.503-.531.177-.114.33-.212.474-.259a2.563 2.563 0 0 0 1.034-.598c.042-.041.081-.083.117-.126.149.545.353 1.159.579 1.772H20.3c-.646-.998-1.313-1.976-1.299-3.224zm-7.489-1.342c-.046-.806.339-1.483.861-1.513.521-.031.982.598 1.028 1.403.002.044.004.087.004.129a2.027 2.027 0 0 0-.448.172l-.002-.017v-.001c-.044-.457-.288-.802-.545-.771-.257.031-.429.427-.384.884v.001c.019.199.077.377.157.512-.02.016-.076.057-.141.104l-.179.131c-.194-.255-.327-.621-.351-1.034zm5.285 1.99c-.019.426-.576.827-1.09.987l-.003.001c-.214.069-.404.192-.606.321-.34.217-.69.441-1.197.441l-.101-.003c-.464-.027-.681-.225-.955-.475-.145-.132-.295-.269-.489-.382l-.004-.002c-.417-.236-.676-.529-.692-.784-.008-.126.048-.236.168-.326.26-.195.434-.322.549-.407.128-.093.167-.121.196-.149l.066-.064c.239-.232.638-.62 1.252-.62.375 0 .79.144 1.232.428.208.136.389.198.619.278.157.054.336.116.576.218l.004.002c.223.092.487.259.475.536zm-.123-.999a2.11 2.11 0 0 0-.135-.062 8.274 8.274 0 0 0-.532-.205c.079-.155.128-.349.133-.559.011-.512-.247-.927-.576-.928-.33 0-.605.414-.616.925l-.001.05a2.823 2.823 0 0 0-.597-.202l-.002-.058v-.001c-.019-.931.553-1.703 1.277-1.722.724-.02 1.326.719 1.345 1.651v.001c.009.421-.104.809-.297 1.11z" fill="#4e6766"/>
</svg>
