<svg xmlns="http://www.w3.org/2000/svg" width="32" height="32" version="1"><rect width="25" height="16" x="3" y="12" rx="1.25" ry="1.25" opacity=".2"/><path d="M3 21.75c0 .692.558 1.25 1.25 1.25h22.5c.692 0 1.25-.558 1.25-1.25V8.25C28 7.558 27.442 7 26.75 7H14v-.75C14 5.558 13.443 5 12.75 5h-8.5C3.558 5 3 5.558 3 6.25" fill="#ae4f58"/><rect width="25" height="16" x="3" y="10" rx="1.25" ry="1.25" opacity=".2"/><rect width="21" height="10" x="5" y="9" rx="1.25" ry="1.25" fill="#e4e4e4"/><rect width="25" height="16" x="3" y="11" rx="1.25" ry="1.25" fill="#bf616a"/><path d="M4.25 5C3.558 5 3 5.558 3 6.25v1C3 6.558 3.558 6 4.25 6h8.5c.693 0 1.25.558 1.25 1.25V8h12.75c.692 0 1.25.557 1.25 1.25v-1C28 7.558 27.442 7 26.75 7H14v-.75C14 5.558 13.443 5 12.75 5z" fill="#fff" opacity=".1"/><path d="M9.99 14.988a1 1 0 0 0-.763 1.645l1.076 1.316c-.743 1.035-1.127 2.469-1.301 4.281-.037.77.775.77.775.77h10.426s.836 0 .795-.809c-.189-1.874-.602-3.337-1.402-4.373l1.111-1.111a1 1 0 0 0-.727-1.717 1 1 0 0 0-.687.303l-1.273 1.273C17.222 16.196 16.234 16 15 16c-1.317 0-2.36.216-3.186.639l-1.04-1.272a1 1 0 0 0-.784-.379z" fill="#974a4d"/><circle cx="12" cy="20" r="1" fill="#bf616a"/><circle cx="-18" cy="20" r="1" transform="scale(-1 1)" fill="#bf616a"/></svg>