<svg xmlns="http://www.w3.org/2000/svg" width="32" height="32" version="1"><rect width="25" height="16" x="3" y="12" rx="1.25" ry="1.25" opacity=".2"/><path d="M3 21.75c0 .692.558 1.25 1.25 1.25h22.5c.692 0 1.25-.558 1.25-1.25V8.25C28 7.558 27.442 7 26.75 7H14v-.75C14 5.558 13.443 5 12.75 5h-8.5C3.558 5 3 5.558 3 6.25" fill="#ae4f58"/><rect width="25" height="16" x="3" y="10" rx="1.25" ry="1.25" opacity=".2"/><rect width="21" height="10" x="5" y="9" rx="1.25" ry="1.25" fill="#e4e4e4"/><rect width="25" height="16" x="3" y="11" rx="1.25" ry="1.25" fill="#bf616a"/><path d="M4.25 5C3.558 5 3 5.558 3 6.25v1C3 6.558 3.558 6 4.25 6h8.5c.693 0 1.25.558 1.25 1.25V8h12.75c.692 0 1.25.557 1.25 1.25v-1C28 7.558 27.442 7 26.75 7H14v-.75C14 5.558 13.443 5 12.75 5h-8.5z" opacity=".1" fill="#fff"/><path d="M16.2 15a3.196 3.196 0 0 0-2.848 1.748 1.998 1.998 0 0 0-2.731 1.584A2.402 2.402 0 0 0 9 20.6a2.4 2.4 0 0 0 2.4 2.4h7.2a2.398 2.398 0 0 0 .795-4.662c.003-.046.004-.093.005-.139A3.2 3.2 0 0 0 16.2 15zm-.001 2a1.17 1.17 0 0 1 1.199 1.195v.006a2.001 2.001 0 0 0 1.334 2.024.386.386 0 0 1 .268.375c0 .244-.156.4-.4.4h-7.2c-.244 0-.399-.155-.4-.398V20.6a.384.384 0 0 1 .27-.375 2.002 2.002 0 0 0 1.332-1.623 2 2 0 0 0 2.533-.946A1.186 1.186 0 0 1 16.199 17z" fill="#974a4d"/></svg>