<svg xmlns="http://www.w3.org/2000/svg" width="32" height="32" version="1"><rect width="25" height="16" x="3" y="12" rx="1.25" ry="1.25" opacity=".2"/><path d="M3 21.75c0 .692.557 1.25 1.25 1.25h22.5c.692 0 1.25-.558 1.25-1.25V8.25C28 7.557 27.442 7 26.75 7H14v-.75C14 5.557 13.443 5 12.75 5h-8.5C3.557 5 3 5.557 3 6.25" fill="#6c9b9a"/><rect width="25" height="16" x="3" y="10" rx="1.25" ry="1.25" opacity=".2"/><rect width="21" height="10" x="5" y="9" rx="1.25" ry="1.25" fill="#e4e4e4"/><rect width="25" height="16" x="3" y="11" rx="1.25" ry="1.25" fill="#82abaa"/><path d="M4.25 5C3.557 5 3 5.557 3 6.25v1C3 6.557 3.557 6 4.25 6h8.5c.693 0 1.25.557 1.25 1.25V8h12.75c.692 0 1.25.557 1.25 1.25v-1C28 7.557 27.442 7 26.75 7H14v-.75C14 5.557 13.443 5 12.75 5h-8.5z" fill="#fff" opacity=".1"/><g fill="#4e6766"><path d="M16.006 12L14 12.399v8.513l1.994-.312V17l2.806 4 2.189-1L18 16.6l3.011-3.6-2.211-1-2.806 4.2V12z"/><path d="M11.281 15.201c-.024.003-.051.009-.07.028l-.854.847a.107.107 0 0 0-.013.133l.908 1.488a4.367 4.367 0 0 0-.49 1.125l-1.674.346a.114.114 0 0 0-.088.111v1.198c0 .05.039.093.088.105l1.623.39c.102.452.275.877.504 1.264l-.945 1.43a.11.11 0 0 0 .013.139l.854.847a.11.11 0 0 0 .134.014l1.477-.89c.365.217.763.384 1.186.49l.345 1.646c.011.05.053.088.106.088h1.207c.05 0 .093-.033.105-.082l.41-1.658c.427-.11.824-.289 1.19-.514l1.482.965a.112.112 0 0 0 .139-.014l.85-.845a.11.11 0 0 0 .017-.135l-.58-.947-.19.058a.068.068 0 0 1-.074-.027l-.322-.438c-.06-.09-.55-.687-.89-1.12A3 3 0 0 1 15 23a3 3 0 0 1-3-3 3 3 0 0 1 1.4-2.535v-1.59c-.223.083-.37.184-.574.3l-1.476-.958a.1.1 0 0 0-.069-.016z"/></g></svg>