<svg xmlns="http://www.w3.org/2000/svg" width="32" height="32" version="1"><rect width="25" height="16" x="3" y="12" rx="1.25" ry="1.25" opacity=".2"/><path d="M3 21.75c0 .692.558 1.25 1.25 1.25h22.5c.692 0 1.25-.558 1.25-1.25V8.25C28 7.558 27.442 7 26.75 7H14v-.75C14 5.558 13.443 5 12.75 5h-8.5C3.558 5 3 5.558 3 6.25" fill="#6c9b9a"/><rect width="25" height="16" x="3" y="10" rx="1.25" ry="1.25" opacity=".2"/><rect width="21" height="10" x="5" y="9" rx="1.25" ry="1.25" fill="#e4e4e4"/><rect width="25" height="16" x="3" y="11" rx="1.25" ry="1.25" fill="#82abaa"/><path d="M4.25 5C3.558 5 3 5.558 3 6.25v1C3 6.558 3.558 6 4.25 6h8.5c.693 0 1.25.558 1.25 1.25V8h12.75c.692 0 1.25.557 1.25 1.25v-1C28 7.558 27.442 7 26.75 7H14v-.75C14 5.558 13.443 5 12.75 5h-8.5z" opacity=".1" fill="#fff"/><path d="M16 13a6 6 0 0 0 0 12h3.75s.703-.301.75-1.051c0-.75-.75-.949-.75-.949H16a3.915 3.915 0 0 1-.582-.047c-.7-.079-1.256-.299-1.676-.652l-.006-.004A4 4 0 1 1 20 19c0 .454-.092.745-.24 1.002L19.75 20h-.934c.112-.314.184-.648.184-1a3 3 0 1 0-3 3h3.75c.542-.05.923-.371 1.27-.576.762-.544.98-1.31.98-2.424a6 6 0 0 0-6-6zm0 5a1 1 0 1 1 0 2 1 1 0 0 1 0-2z" fill="#4e6766"/></svg>