<svg xmlns="http://www.w3.org/2000/svg" width="32" height="32" version="1">
 <rect width="25" height="16" x="3" y="12" rx="1.25" ry="1.25" opacity=".2"/>
 <path d="M3 21.75c0 .692.558 1.25 1.25 1.25h22.5c.692 0 1.25-.558 1.25-1.25V8.25C28 7.558 27.442 7 26.75 7H14v-.75C14 5.558 13.443 5 12.75 5h-8.5C3.558 5 3 5.558 3 6.25" fill="#6c9b9a"/>
 <rect width="25" height="16" x="3" y="10" rx="1.25" ry="1.25" opacity=".2"/>
 <rect width="21" height="10" x="5" y="9" rx="1.25" ry="1.25" fill="#e4e4e4"/>
 <rect width="25" height="16" x="3" y="11" rx="1.25" ry="1.25" fill="#82abaa"/>
 <path d="M4.25 5C3.558 5 3 5.558 3 6.25v1C3 6.558 3.558 6 4.25 6h8.5c.693 0 1.25.558 1.25 1.25V8h12.75c.692 0 1.25.557 1.25 1.25v-1C28 7.558 27.442 7 26.75 7H14v-.75C14 5.558 13.443 5 12.75 5h-8.5z" opacity=".1" fill="#fff"/>
 <path d="M15.008 13s.577.353.17 1.281c-.616 1.399.568 1.719.568 1.719s-.376-.328.125-1.482c.554-1.28-.863-1.518-.863-1.518zm1.592 1.928s-1.049.465-.373 1.738c.446.843-.049 1.262-.049 1.262s1.267-.418.656-1.582c-.549-1.053-.234-1.418-.234-1.418zM13.336 15s-.751.799-.008 1.781c.492.654.17 1.219.17 1.219s.931-.825.258-1.729c-.608-.814-.42-1.271-.42-1.271zm.162 3H11l1.5 6H18l.34-.984c.166.041.338.07.517.07 1.184 0 2.143-.76 2.143-1.943 0-1.005-.693-1.84-1.625-2.073l.197-1.07zm5.705 1.76a.714 1.429 15 0 1 .024.004.714 1.429 15 0 1 .32 1.564.714 1.429 15 0 1-1.035 1.199z" fill="#4e6766"/>
</svg>
