<svg xmlns="http://www.w3.org/2000/svg" width="32" height="32" version="1"><rect width="25" height="16" x="3" y="12" rx="1.25" ry="1.25" opacity=".2"/><path d="M3 21.75c0 .692.558 1.25 1.25 1.25h22.5c.692 0 1.25-.558 1.25-1.25V8.25C28 7.558 27.442 7 26.75 7H14v-.75C14 5.558 13.443 5 12.75 5h-8.5C3.558 5 3 5.558 3 6.25" fill="#ae4f58"/><rect width="25" height="16" x="3" y="10" rx="1.25" ry="1.25" opacity=".2"/><rect width="21" height="10" x="5" y="9" rx="1.25" ry="1.25" fill="#e4e4e4"/><rect width="25" height="16" x="3" y="11" rx="1.25" ry="1.25" fill="#bf616a"/><path d="M4.25 5C3.558 5 3 5.558 3 6.25v1C3 6.558 3.558 6 4.25 6h8.5c.693 0 1.25.558 1.25 1.25V8h12.75c.692 0 1.25.557 1.25 1.25v-1C28 7.558 27.442 7 26.75 7H14v-.75C14 5.558 13.443 5 12.75 5h-8.5z" opacity=".1" fill="#fff"/><g fill="#974a4d" stroke="#bf616a" stroke-width=".5" stroke-linecap="round" stroke-linejoin="round"><circle cx="17.5" cy="18" r="2.25"/><circle cx="22" cy="22" r="1.25"/><circle cx="19.25" cy="20.75" r="2.5"/><circle cx="10" cy="21" r="2.25"/><circle cx="12.25" cy="16.25" r="1.5"/><circle cx="12.5" cy="19" r="2.75"/><circle cx="12.25" cy="22" r="1.25"/><circle cx="14.75" cy="16.75" r="2.5"/><circle cx="15.5" cy="20" r="3.25"/></g></svg>