<svg xmlns="http://www.w3.org/2000/svg" width="32" height="32" version="1"><rect width="25" height="16" x="3" y="12" rx="1.25" ry="1.25" opacity=".2"/><path d="M3 21.75c0 .692.558 1.25 1.25 1.25h22.5c.692 0 1.25-.558 1.25-1.25V8.25C28 7.558 27.442 7 26.75 7H14v-.75C14 5.558 13.443 5 12.75 5h-8.5C3.558 5 3 5.558 3 6.25" fill="#ae4f58"/><rect width="25" height="16" x="3" y="10" rx="1.25" ry="1.25" opacity=".2"/><rect width="21" height="10" x="5" y="9" rx="1.25" ry="1.25" fill="#e4e4e4"/><rect width="25" height="16" x="3" y="11" rx="1.25" ry="1.25" fill="#bf616a"/><path d="M4.25 5C3.558 5 3 5.558 3 6.25v1C3 6.558 3.558 6 4.25 6h8.5c.693 0 1.25.558 1.25 1.25V8h12.75c.692 0 1.25.557 1.25 1.25v-1C28 7.558 27.442 7 26.75 7H14v-.75C14 5.558 13.443 5 12.75 5h-8.5z" opacity=".1" fill="#fff"/><path d="M9 13v12h12V13z" fill="#974a4d"/><g fill="#bf616a"><path d="M16 20h4v1h-4zM12 14h1v7h-1z"/><path d="M11.5 15c-.83 0-1.5.67-1.5 1.5s.67 1.5 1.5 1.5h2c.28 0 .5.22.5.5s-.22.51-.5.5h-3.41c.21.58.76 1 1.41 1h2c.83 0 1.5-.67 1.5-1.5s-.67-1.5-1.5-1.5h-2c-.28 0-.5-.22-.5-.5s.22-.5.5-.5h3.41c-.21-.58-.76-1-1.41-1H13z"/></g></svg>