<svg xmlns="http://www.w3.org/2000/svg" width="32" height="32" version="1"><rect width="25" height="16" x="3" y="12" rx="1.25" ry="1.25" opacity=".2"/><path d="M3 21.75c0 .692.558 1.25 1.25 1.25h22.5c.692 0 1.25-.558 1.25-1.25V8.25C28 7.558 27.442 7 26.75 7H14v-.75C14 5.558 13.443 5 12.75 5h-8.5C3.558 5 3 5.558 3 6.25" fill="#6c9b9a"/><rect width="25" height="16" x="3" y="10" rx="1.25" ry="1.25" opacity=".2"/><rect width="21" height="10" x="5" y="9" rx="1.25" ry="1.25" fill="#e4e4e4"/><rect width="25" height="16" x="3" y="11" rx="1.25" ry="1.25" fill="#82abaa"/><path d="M4.25 5C3.558 5 3 5.558 3 6.25v1C3 6.558 3.558 6 4.25 6h8.5c.693 0 1.25.558 1.25 1.25V8h12.75c.692 0 1.25.557 1.25 1.25v-1C28 7.558 27.442 7 26.75 7H14v-.75C14 5.558 13.443 5 12.75 5h-8.5z" opacity=".1" fill="#fff"/><path d="M19.952 12c-2.539 0-3.015 3.858-1.586 3.858 1.428 0 4.126-3.858 1.586-3.858zm-3.911.594a.966.966 0 0 0-.128.008c-1.44.182-.933 2.617-.167 2.662.741.045 1.553-2.666.294-2.67zm-2.495.899a.663.663 0 0 0-.294.055c-1.156.475-.175 2.436.472 2.304.588-.12.672-2.304-.178-2.359zm-1.887 1.602a.52.52 0 0 0-.325.119c-.926.691.311 2.36.856 2.101.476-.227.172-2.194-.532-2.219zm5.467 1.594c-2.006-.035-4.652.983-5.103 3.029C11.534 21.93 14.035 25 16.643 25c1.284 0 2.764-1.173 3.041-2.658.212-1.133-2.489-.679-2.392.07.116.899-.651 1.343-1.403.764-2.394-1.844 3.963-2.764 3.543-5.283-.13-.784-1.103-1.183-2.306-1.204z" fill="#4e6766"/></svg>