<svg xmlns="http://www.w3.org/2000/svg" width="32" height="32" version="1"><rect width="25" height="16" x="3" y="12" rx="1.25" ry="1.25" opacity=".2"/><path d="M3 21.75c0 .692.557 1.25 1.25 1.25h22.5c.692 0 1.25-.558 1.25-1.25V8.25C28 7.557 27.442 7 26.75 7H14v-.75C14 5.557 13.443 5 12.75 5h-8.5C3.557 5 3 5.557 3 6.25" fill="#ae4f58"/><rect width="25" height="16" x="3" y="10" rx="1.25" ry="1.25" opacity=".2"/><rect width="21" height="10" x="5" y="9" rx="1.25" ry="1.25" fill="#e4e4e4"/><rect width="25" height="16" x="3" y="11" rx="1.25" ry="1.25" fill="#bf616a"/><path d="M4.25 5C3.557 5 3 5.557 3 6.25v1C3 6.557 3.557 6 4.25 6h8.5c.693 0 1.25.557 1.25 1.25V8h12.75c.692 0 1.25.557 1.25 1.25v-1C28 7.557 27.442 7 26.75 7H14v-.75C14 5.557 13.443 5 12.75 5h-8.5z" fill="#fff" opacity=".1"/><path d="M11.408 15c-.444 0-.886.089-1.298.263-.411.173-.787.43-1.104.753-.317.323-.571.71-.744 1.135a3.595 3.595 0 0 0 0 2.694c.173.425.427.812.744 1.136.317.323.693.579 1.105.753.402.17.833.257 1.267.261l.03.001c1.055.05 1.906-.368 2.528-.976.425-.416.76-.906 1.064-1.406.305.5.64.99 1.065 1.406.622.608 1.472 1.026 2.527.976h.03a3.33 3.33 0 0 0 1.267-.262c.411-.174.788-.43 1.105-.753l.002-.004a3.51 3.51 0 0 0 .743-1.132 3.59 3.59 0 0 0 0-2.693l-.004-.006a3.521 3.521 0 0 0-.741-1.13A3.343 3.343 0 0 0 18.592 15c-1.112 0-1.99.456-2.638 1.092-.375.367-.679.787-.954 1.217-.276-.43-.58-.85-.954-1.217-.649-.636-1.527-1.093-2.638-1.093zm-.011 1c.886 0 1.453.318 1.972.844.412.417.773.984 1.13 1.602-.408.723-.802 1.383-1.246 1.83-.49.494-.996.766-1.824.718h-.033c-.315 0-.634-.066-.924-.193a2.412 2.412 0 0 1-.77-.538l-.009-.01A2.524 2.524 0 0 1 9 18.498c0-.322.06-.648.179-.947.117-.299.294-.577.514-.808l.009-.01c.218-.228.483-.413.77-.538.29-.127.608-.193.924-.193zm7.206 0c.316 0 .635.067.925.193.287.125.552.311.77.538l.009.01c.22.232.397.51.514.809a2.608 2.608 0 0 1 0 1.894c-.118.3-.295.578-.515.81l-.008.008a2.412 2.412 0 0 1-.77.539c-.29.126-.609.193-.925.193h-.032c-.828.047-1.335-.225-1.824-.718-.443-.448-.838-1.108-1.247-1.83.358-.619.72-1.186 1.131-1.603.52-.526 1.086-.844 1.973-.844zM18 17v1h-1v1h1v1h1v-1h1v-1h-1v-1zm-8 1v1h3v-1z" fill="#974a4d"/></svg>