<svg xmlns="http://www.w3.org/2000/svg" width="32" height="32" version="1"><rect width="25" height="16" x="3" y="12" rx="1.25" ry="1.25" opacity=".2"/><path d="M3 21.75c0 .692.558 1.25 1.25 1.25h22.5c.692 0 1.25-.558 1.25-1.25V8.25C28 7.558 27.442 7 26.75 7H14v-.75C14 5.558 13.443 5 12.75 5h-8.5C3.558 5 3 5.558 3 6.25" fill="#ae4f58"/><rect width="25" height="16" x="3" y="10" rx="1.25" ry="1.25" opacity=".2"/><rect width="21" height="10" x="5" y="9" rx="1.25" ry="1.25" fill="#e4e4e4"/><rect width="25" height="16" x="3" y="11" rx="1.25" ry="1.25" fill="#bf616a"/><path d="M4.25 5C3.558 5 3 5.558 3 6.25v1C3 6.558 3.558 6 4.25 6h8.5c.693 0 1.25.558 1.25 1.25V8h12.75c.692 0 1.25.557 1.25 1.25v-1C28 7.558 27.442 7 26.75 7H14v-.75C14 5.558 13.443 5 12.75 5h-8.5z" opacity=".1" fill="#fff"/><path d="M15.667 15a3.333 3.636 0 0 0-3.155 2.471A2.667 2.91 0 0 0 11 20.091 2.667 2.91 0 0 0 13.667 23a2.667 2.91 0 0 0 1.772-.74 3.333 3.636 0 0 0 .228.013 3.333 3.636 0 0 0 1.409-.346 2.667 2.91 0 0 0 1.258.346A2.667 2.91 0 0 0 21 19.364a2.667 2.91 0 0 0-2.667-2.909 2.667 2.91 0 0 0-.005 0A3.333 3.636 0 0 0 15.666 15z" fill="#974a4d"/></svg>