<svg xmlns="http://www.w3.org/2000/svg" width="32" height="32" version="1">
 <rect width="25" height="16" x="3" y="12" rx="1.25" ry="1.25" opacity=".2"/>
 <path d="M3 21.75c0 .692.558 1.25 1.25 1.25h22.5c.692 0 1.25-.558 1.25-1.25V8.25C28 7.558 27.442 7 26.75 7H14v-.75C14 5.558 13.443 5 12.75 5h-8.5C3.558 5 3 5.558 3 6.25" fill="#ae4f58"/>
 <rect width="25" height="16" x="3" y="10" rx="1.25" ry="1.25" opacity=".2"/>
 <rect width="21" height="10" x="5" y="9" rx="1.25" ry="1.25" fill="#e4e4e4"/>
 <rect width="25" height="16" x="3" y="11" rx="1.25" ry="1.25" fill="#bf616a"/>
 <path d="M4.25 5C3.558 5 3 5.558 3 6.25v1C3 6.558 3.558 6 4.25 6h8.5c.693 0 1.25.558 1.25 1.25V8h12.75c.692 0 1.25.557 1.25 1.25v-1C28 7.558 27.442 7 26.75 7H14v-.75C14 5.558 13.443 5 12.75 5h-8.5z" opacity=".1" fill="#fff"/>
 <path d="M16 14a5 5 0 1 0 .001 10.001A5 5 0 0 0 16 14zm-.357 1.384c.048-.005.108.003.156 0 .006.023-.035.104-.089.223-.347.758-.367 1.646-.045 2.121.058.086.112.168.112.178 0 .011-.063.023-.134.023-.167 0-.325-.102-.647-.358a1.353 1.353 0 0 0-.402-.223c-.114-.022-.144-.012-.29.134-.137.137-.179.21-.179.335 0 .473.562.85 1.607 1.071 1.419.301 1.769.571 1.808 1.317.049.936-.449 1.642-1.54 2.188-.13.065-.213.09-.268.111-.024-.002-.043.003-.067 0a.805.805 0 0 1-.022-.223c0-.497-.196-1.008-.491-1.294a3.664 3.664 0 0 0-.491-.357c-.19-.118-.382-.255-.424-.313-.071-.097-.077-.156-.023-.335.099-.326.217-.508.447-.714.12-.108.241-.199.268-.201.026-.002-.154-.056-.424-.112a7.536 7.536 0 0 1-.871-.245c-.374-.135-.879-.42-1.071-.625l-.023-.022c.276-1.099 1.05-2 2.076-2.433.215-.091.436-.154.67-.201.116-.024.237-.033.357-.045zm3.348 1.674c.084.052.401.737.491 1.071.117.432.108 1.179 0 1.607a1.65 1.65 0 0 1-.111.335c-.018.019-.082-.09-.157-.223s-.314-.415-.513-.625c-.575-.606-.665-.922-.424-1.406.121-.244.649-.799.714-.759z" fill="#974a4d"/>
</svg>
