<svg xmlns="http://www.w3.org/2000/svg" width="32" height="32" version="1"><rect width="25" height="16" x="3" y="12" rx="1.25" ry="1.25" opacity=".2"/><path d="M3 21.75c0 .692.558 1.25 1.25 1.25h22.5c.692 0 1.25-.558 1.25-1.25V8.25C28 7.558 27.442 7 26.75 7H14v-.75C14 5.558 13.443 5 12.75 5h-8.5C3.558 5 3 5.558 3 6.25" fill="#ae4f58"/><rect width="25" height="16" x="3" y="10" rx="1.25" ry="1.25" opacity=".2"/><rect width="21" height="10" x="5" y="9" rx="1.25" ry="1.25" fill="#e4e4e4"/><rect width="25" height="16" x="3" y="11" rx="1.25" ry="1.25" fill="#bf616a"/><path d="M16 14a5 5 0 0 0-1.438 9.787v-.805c-1.265.28-1.63-.556-1.63-.556-.207-.534-.506-.478-.506-.478-.413-.287.031-.282.031-.282.348.063.659.393.896.634.164.167.185.27.605.3.259.037.496-.016.62-.072.017-.126.02-.577.027-.815C13.62 21.28 13 20.429 13 19.5c.001-.71.365-1.386 1-1.86V16c.326 0 .718.578 1.037 1.135.31-.089.635-.134.963-.135.328 0 .653.046.963.135.319-.557.71-1.135 1.037-1.135v1.639c.636.473 1 1.15 1 1.861-.001 1.053-.795 1.993-1.984 2.35.015.332.037.715.037 1.013 0 .521-.003.36-.004.575v.445A5 5 0 0 0 21 19a5 5 0 0 0-5-5z" fill="#974a4d"/><path d="M4.25 5C3.558 5 3 5.558 3 6.25v1C3 6.558 3.558 6 4.25 6h8.5c.693 0 1.25.558 1.25 1.25V8h12.75c.692 0 1.25.557 1.25 1.25v-1C28 7.558 27.442 7 26.75 7H14v-.75C14 5.558 13.443 5 12.75 5z" opacity=".1" fill="#fff"/></svg>