<svg xmlns="http://www.w3.org/2000/svg" width="32" height="32" version="1"><rect width="25" height="16" x="3" y="12" rx="1.25" ry="1.25" opacity=".2"/><path d="M3 21.75c0 .692.557 1.25 1.25 1.25h22.5c.692 0 1.25-.558 1.25-1.25V8.25C28 7.557 27.442 7 26.75 7H14v-.75C14 5.557 13.443 5 12.75 5h-8.5C3.557 5 3 5.557 3 6.25" fill="#ae4f58"/><rect width="25" height="16" x="3" y="10" rx="1.25" ry="1.25" opacity=".2"/><rect width="21" height="10" x="5" y="9" rx="1.25" ry="1.25" fill="#e4e4e4"/><rect width="25" height="16" x="3" y="11" rx="1.25" ry="1.25" fill="#bf616a"/><path d="M4.25 5C3.557 5 3 5.557 3 6.25v1C3 6.557 3.557 6 4.25 6h8.5c.693 0 1.25.557 1.25 1.25V8h12.75c.692 0 1.25.557 1.25 1.25v-1C28 7.557 27.442 7 26.75 7H14v-.75C14 5.557 13.443 5 12.75 5h-8.5z" opacity=".1" fill="#fff"/><path d="M15.607 13.012A6.01 6.01 0 0 0 10 18.992 1 1 0 0 0 10 19H9l2 2 2-2h-1a1 1 0 0 0 0-.006 3.99 3.99 0 0 1 3.064-3.883 3.99 3.99 0 0 1 4.497 2.065 3.991 3.991 0 0 1-.952 4.855c-1.382 1.19-3.52 1.237-5.025.156a1 1 0 0 0-1.168 1.625c2.246 1.613 5.38 1.557 7.498-.265a6.007 6.007 0 0 0 1.426-7.281 6.011 6.011 0 0 0-5.733-3.254zm.377 2.974A1 1 0 0 0 15 17v2a1 1 0 0 0 .293.707l1 1a1 1 0 1 0 1.414-1.414L17 18.586V17a1 1 0 0 0-1.016-1.014z" fill="#974a4d"/></svg>