<svg xmlns="http://www.w3.org/2000/svg" width="32" height="32" version="1">
 <rect width="25" height="16" x="3" y="12" rx="1.25" ry="1.25" opacity=".2"/>
 <path d="M3 21.75c0 .692.558 1.25 1.25 1.25h22.5c.692 0 1.25-.558 1.25-1.25V8.25C28 7.558 27.442 7 26.75 7H14v-.75C14 5.558 13.443 5 12.75 5h-8.5C3.558 5 3 5.558 3 6.25" fill="#ae4f58"/>
 <rect width="25" height="16" x="3" y="10" rx="1.25" ry="1.25" opacity=".2"/>
 <rect width="21" height="10" x="5" y="9" rx="1.25" ry="1.25" fill="#e4e4e4"/>
 <rect width="25" height="16" x="3" y="11" rx="1.25" ry="1.25" fill="#bf616a"/>
 <path d="M4.25 5C3.558 5 3 5.558 3 6.25v1C3 6.558 3.558 6 4.25 6h8.5c.693 0 1.25.558 1.25 1.25V8h12.75c.692 0 1.25.557 1.25 1.25v-1C28 7.558 27.442 7 26.75 7H14v-.75C14 5.558 13.443 5 12.75 5h-8.5z" opacity=".1" fill="#fff"/>
 <path d="M17.989 14c-.496.018-1.097.29-1.453.656-.319.325-.6.842-.525 1.34.553.038 1.12-.247 1.465-.613.344-.367.577-.875.513-1.383zm-.328 2.006c-.657.052-1.258.484-1.598.484-.387 0-.984-.469-1.619-.457-.834.014-1.604.519-2.033 1.321-.866 1.613-.223 4.002.621 5.31.413.64.968 1.336 1.553 1.336s.857-.434 1.609-.434.954.42 1.621.42 1.093-.652 1.502-1.295c.474-.742.671-1.463.683-1.5-.015-.007-1.306-.536-1.319-2.13-.013-1.335 1.016-1.977 1.062-2.008a2.246 2.246 0 0 0-1.797-1.045 1.43 1.43 0 0 0-.285-.002z" fill="#974a4d"/>
</svg>
