<svg xmlns="http://www.w3.org/2000/svg" width="32" height="32" version="1">
 <rect width="25" height="16" x="3" y="12" rx="1.25" ry="1.25" opacity=".2"/>
 <path d="M3 21.75c0 .692.557 1.25 1.25 1.25h22.5c.692 0 1.25-.558 1.25-1.25V8.25C28 7.557 27.442 7 26.75 7H14v-.75C14 5.557 13.443 5 12.75 5h-8.5C3.557 5 3 5.557 3 6.25" fill="#ae4f58"/>
 <rect width="25" height="16" x="3" y="10" rx="1.25" ry="1.25" opacity=".2"/>
 <rect width="21" height="10" x="5" y="9" rx="1.25" ry="1.25" fill="#e4e4e4"/>
 <rect width="25" height="16" x="3" y="11" rx="1.25" ry="1.25" fill="#bf616a"/>
 <path d="M4.25 5C3.557 5 3 5.557 3 6.25v1C3 6.557 3.557 6 4.25 6h8.5c.693 0 1.25.557 1.25 1.25V8h12.75c.692 0 1.25.557 1.25 1.25v-1C28 7.557 27.442 7 26.75 7H14v-.75C14 5.557 13.443 5 12.75 5h-8.5z" opacity=".1" fill="#fff"/>
 <path d="M12 15c-2 0-2 1-2 1v4s0-1 2-1 3 2 3 2v-4s-1-2-3-2zm7 0c-2 0-3 2-3 2v4s1-2 3-2 2 1 2 1v-4s0-1-2-1zm-7 5c-2 0-2 1-2 1v1s0-1 2-1 3 2 3 2v-1s-1-2-3-2zm7 0c-2 0-3.005 1.993-3 2v1s1-2 3-2 2 1 2 1v-1s0-1-2-1z" fill="#974a4d"/>
</svg>
