<svg xmlns="http://www.w3.org/2000/svg" width="32" height="32" version="1">
 <rect width="25" height="16" x="3" y="12" rx="1.25" ry="1.25" opacity=".2"/>
 <path d="M3 21.75c0 .692.558 1.25 1.25 1.25h22.5c.692 0 1.25-.558 1.25-1.25V8.25C28 7.558 27.442 7 26.75 7H14v-.75C14 5.558 13.443 5 12.75 5h-8.5C3.558 5 3 5.558 3 6.25" fill="#6c9b9a"/>
 <rect width="25" height="16" x="3" y="10" rx="1.25" ry="1.25" opacity=".2"/>
 <rect width="21" height="10" x="5" y="9" rx="1.25" ry="1.25" fill="#e4e4e4"/>
 <rect width="25" height="16" x="3" y="11" rx="1.25" ry="1.25" fill="#82abaa"/>
 <path d="M4.25 5C3.558 5 3 5.558 3 6.25v1C3 6.558 3.558 6 4.25 6h8.5c.693 0 1.25.558 1.25 1.25V8h12.75c.692 0 1.25.557 1.25 1.25v-1C28 7.558 27.442 7 26.75 7H14v-.75C14 5.558 13.443 5 12.75 5h-8.5z" opacity=".1" fill="#fff"/>
 <path d="M7 20.056l3.008 1.737A3 3 0 1 0 16 22a3.089 3.089 0 0 0-.033-.408l3.638-2.598A3.5 3.5 0 0 0 23 15.5a3.5 3.5 0 1 0-7 .014l-2.322 3.568A2.98 2.98 0 0 0 13 19c-.453.001-.9.105-1.307.303L7 16.594M19.5 13a2.5 2.5 0 1 1 0 5 2.5 2.5 0 0 1 0-5zm0 1a1.5 1.5 0 1 0 .001 3.001A1.5 1.5 0 0 0 19.5 14zM13 20a2 2 0 1 1-1.959 2.389l.705.408c.72.415 1.633.171 2.049-.549a1.497 1.497 0 0 0-.549-2.049l-.338-.195A2.83 2.83 0 0 1 13 20z" fill="#4e6766"/>
</svg>
