<svg xmlns="http://www.w3.org/2000/svg" width="32" height="32" version="1"><rect width="25" height="16" x="3" y="12" rx="1.25" ry="1.25" opacity=".2"/><path d="M3 21.75c0 .692.558 1.25 1.25 1.25h22.5c.692 0 1.25-.558 1.25-1.25V8.25C28 7.558 27.442 7 26.75 7H14v-.75C14 5.558 13.443 5 12.75 5h-8.5C3.558 5 3 5.558 3 6.25" fill="#6c9b9a"/><rect width="25" height="16" x="3" y="10" rx="1.25" ry="1.25" opacity=".2"/><rect width="21" height="10" x="5" y="9" rx="1.25" ry="1.25" fill="#e4e4e4"/><rect width="25" height="16" x="3" y="11" rx="1.25" ry="1.25" fill="#82abaa"/><path d="M4.25 5C3.558 5 3 5.558 3 6.25v1C3 6.558 3.558 6 4.25 6h8.5c.693 0 1.25.558 1.25 1.25V8h12.75c.692 0 1.25.557 1.25 1.25v-1C28 7.558 27.442 7 26.75 7H14v-.75C14 5.558 13.443 5 12.75 5h-8.5z" opacity=".1" fill="#fff"/><path d="M14.319 15.035c-2.667 0-2.046 2.236-3.412 2.97-.047.027-.073.051-.115.077.9-.535 2.01-.984 3.189-1.287.998-.257 2.01-.401 2.944-.419h.072c-.901-.256-.999-1.341-2.678-1.341zm2.906 2.016c-.933.018-1.946.162-2.944.419-3.29.847-5.635 2.688-5.237 4.112.23.814 1.333 1.551 2.978 1.649l-.003-.018c-.089-.77.4-1.44.973-1.894.573-.454 1.309-.784 2.137-.959.828-.176 1.602-.168 2.25.027.609.184 1.182.584 1.323 1.27 1.648-.924 2.504-2.238 2.256-3.139-.263-.944-1.694-1.506-3.733-1.467zM16.247 21a4.705 4.705 0 0 0-1.033.107c-1.447.307-2.548 1.18-2.459 1.949.089.77 1.334 1.144 2.781.837 1.447-.308 2.548-1.181 2.458-1.95-.064-.56-.753-.931-1.747-.943z" fill="#4e6766"/></svg>