<svg xmlns="http://www.w3.org/2000/svg" width="32" height="32" version="1">
 <rect width="23" height="26" x="5" y="5" rx="1.5" ry="1.5" opacity=".2"/>
 <rect width="23" height="26" x="5" y="4" rx="1.5" ry="1.5" fill="#7492a2"/>
 <path fill="#9aabb4" d="M12 1h9v3h-9z"/>
 <rect width="27" height="6" x="3" y="3" rx="1.5" ry="1.5" opacity=".2"/>
 <rect width="27" height="6" x="3" y="2" rx="1.5" ry="1.5" fill="#5d7e90"/>
 <path d="M22.5 12.5v12m-6-12v12m-6-12v12" opacity=".3" fill="none" stroke="#000" stroke-width="3" stroke-linecap="round"/>
 <path d="M4.5 2C3.669 2 3 2.669 3 3.5v1C3 3.669 3.669 3 4.5 3h24c.831 0 1.5.669 1.5 1.5v-1c0-.831-.669-1.5-1.5-1.5h-24z" fill="#fff" opacity=".2"/>
</svg>
