<svg xmlns="http://www.w3.org/2000/svg" width="32" height="32"><rect width="25" height="22" x="3" y="6" rx="1.25" ry="1.25" opacity=".2"/><path d="M3 7.9v17.85c0 .692.558 1.25 1.25 1.25h22.5c.692 0 1.25-.558 1.25-1.25V7.9z" fill="#bf616a"/><path d="M4.25 5C3.558 5 3 5.558 3 6.25V8h25V6.25C28 5.558 27.442 5 26.75 5H4.25zM10.5 24c-.831 0-1.5.669-1.5 1.5V27h13v-1.5c0-.831-.669-1.5-1.5-1.5h-10z" fill="#974a4d"/><path d="M4.25 5C3.558 5 3 5.558 3 6.25v1C3 6.558 3.558 6 4.25 6h22.5c.692 0 1.25.558 1.25 1.25v-1C28 5.558 27.442 5 26.75 5H4.25z" opacity=".1" fill="#fff"/></svg>