<svg xmlns="http://www.w3.org/2000/svg" style="isolation:isolate" width="22" height="22"><defs><clipPath clipPathUnits="userSpaceOnUse" id="a"><path fill="none" d="M0 0h48v48H0z"/></clipPath></defs><g clip-path="url(#a)" transform="matrix(.45832 0 0 .45832 -.001 .002)"><linearGradient id="b" x1="-.046" y1=".16" x2=".852" y2=".71" gradientTransform="matrix(45 0 0 30.763 1.229 15.445)" gradientUnits="userSpaceOnUse"><stop offset="3.043%" stop-color="#88c0d0"/><stop offset="98.261%" stop-color="#88c0d0"/></linearGradient><path d="M1.545 46.208l44.378-.01a.306.306 0 0 0 .306-.306v-30.12a.307.307 0 0 0-.306-.307l-25.816-.02-4.221 3.206a.535.535 0 0 1-.276.092l-14.381-.055.009 27.214c0 .169.138.306.307.306z" stroke-miterlimit="3" vector-effect="non-scaling-stroke" fill="url(#b)" stroke="#669eae" stroke-linecap="square"/><linearGradient id="c" x1="0" y1=".5" x2="1" y2=".5" gradientTransform="matrix(18.873 0 0 6.535 1.243 12.208)" gradientUnits="userSpaceOnUse"><stop offset="3.043%" stop-color="#88c0d0"/><stop offset="98.261%" stop-color="#88c0d0"/></linearGradient><path d="M20.116 15.456L15.887 12.3a.538.538 0 0 0-.277-.092H1.554a.308.308 0 0 0-.307.307l-.004 6.168 14.557.06z" stroke-miterlimit="3" vector-effect="non-scaling-stroke" fill="url(#c)" stroke="#669eae" stroke-linecap="square"/><g fill="#46636b"><path d="M26.925 29.708h-11.7a.45.45 0 0 0-.45.45v7.2c0 .249.201.45.45.45h11.7a.45.45 0 0 0 .45-.45v-7.2a.45.45 0 0 0-.45-.45zm-.45 7.2h-10.8v-6.3h10.8z"/><path d="M37.893 28.457a1.343 1.343 0 0 0-1.403.102l-4.305 3.075a.454.454 0 0 0-.31-.126h-1.35v-2.7a2.253 2.253 0 0 0-2.25-2.25h-.9v-3.15a.45.45 0 0 0-.45-.45h-11.7a.45.45 0 0 0-.45.45v3.15h-.9a2.253 2.253 0 0 0-2.25 2.25v9.9a2.252 2.252 0 0 0 2.25 2.25h14.4a2.253 2.253 0 0 0 2.25-2.25v-2.7h1.35a.445.445 0 0 0 .31-.126l4.305 3.076a1.349 1.349 0 0 0 2.135-1.098v-8.203a1.345 1.345 0 0 0-.732-1.2zm-22.218-4.599h10.8v2.7h-10.8zm13.95 14.85a1.35 1.35 0 0 1-1.35 1.35h-14.4a1.35 1.35 0 0 1-1.35-1.35v-9.9c0-.745.604-1.35 1.35-1.35h14.4c.746 0 1.35.605 1.35 1.35zm.9-3.6v-2.7h.9v2.7zm7.2 2.752a.45.45 0 0 1-.712.366l-4.688-3.349V32.64l4.688-3.349a.45.45 0 0 1 .712.366z"/></g></g></svg>