<svg xmlns="http://www.w3.org/2000/svg" style="isolation:isolate" width="32" height="32"><defs><clipPath clipPathUnits="userSpaceOnUse" id="a"><path fill="none" d="M0 0h48v48H0z"/></clipPath></defs><g clip-path="url(#a)" transform="translate(.001) scale(.66667)"><linearGradient id="b" x1="-.046" y1=".16" x2=".852" y2=".71" gradientTransform="matrix(45 0 0 30.763 1.229 15.445)" gradientUnits="userSpaceOnUse"><stop offset="3.043%" stop-color="#a3be8c"/><stop offset="98.261%" stop-color="#a3be8c"/></linearGradient><path d="M1.545 46.208l44.378-.01a.306.306 0 0 0 .306-.306v-30.12a.307.307 0 0 0-.306-.307l-25.816-.02-4.221 3.206a.535.535 0 0 1-.276.092l-14.381-.055.009 27.214c0 .169.138.306.307.306z" stroke-miterlimit="3" vector-effect="non-scaling-stroke" fill="url(#b)" stroke="#72a046" stroke-linecap="square"/><linearGradient id="c" x1="0" y1=".5" x2="1" y2=".5" gradientTransform="matrix(18.873 0 0 6.535 1.243 12.208)" gradientUnits="userSpaceOnUse"><stop offset="3.043%" stop-color="#a3be8c"/><stop offset="98.261%" stop-color="#a3be8c"/></linearGradient><path d="M20.116 15.456L15.887 12.3a.538.538 0 0 0-.277-.092H1.554a.308.308 0 0 0-.307.307l-.004 6.168 14.557.06z" stroke-miterlimit="3" vector-effect="non-scaling-stroke" fill="url(#c)" stroke="#72a046" stroke-linecap="square"/><path d="M24.5 24.268a14.05 14.05 0 0 0-10 4.14l1.526 1.526A11.907 11.907 0 0 1 24.5 26.42a11.9 11.9 0 0 1 8.474 3.513l1.526-1.526a14.05 14.05 0 0 0-10-4.14m0 3.83a10.24 10.24 0 0 0-7.29 3.02l1.524 1.524a8.106 8.106 0 0 1 5.766-2.39c2.178 0 4.226.85 5.766 2.39l1.523-1.524a10.24 10.24 0 0 0-7.289-3.02m0 3.834c-1.73 0-3.357.673-4.58 1.896l1.526 1.526a4.29 4.29 0 0 1 3.052-1.265c1.154 0 2.237.45 3.053 1.265l1.526-1.526a6.433 6.433 0 0 0-4.58-1.896m0 4.285a2.208 2.208 0 0 0-1.599.688l1.593 1.595 1.595-1.59c-.001-.016-.032-.035-.048-.05a2.187 2.187 0 0 0-1.553-.643" fill="#466b46"/></g></svg>