<svg xmlns="http://www.w3.org/2000/svg" width="48" height="48" version="1"><rect width="40" height="26" x="4" y="17" rx="2" ry="2" opacity=".2"/><path d="M4 34c0 1.108.892 2 2 2h36c1.108 0 2-.892 2-2V12c0-1.108-.892-2-2-2H22V8c0-1.108-.892-2-2-2H6c-1.108 0-2 .892-2 2" fill="#ae4f58"/><rect width="40" height="26" x="4" y="15" rx="2" ry="2" opacity=".2"/><rect width="36" height="16" x="6" y="13" rx="2" ry="2" fill="#e4e4e4"/><rect width="40" height="26" x="4" y="16" rx="2" ry="2" fill="#bf616a"/><path d="M6 6c-1.108 0-2 .892-2 2v1c0-1.108.892-2 2-2h14c1.108 0 2 .892 2 2V8c0-1.108-.892-2-2-2zm16 4v1h20c1.108 0 2 .892 2 2v-1c0-1.108-.892-2-2-2z" opacity=".1" fill="#fff"/><g fill="#974a4d" stroke="#bf616a" stroke-width=".5" stroke-linecap="round" stroke-linejoin="round"><circle cx="26.5" cy="27.5" r="3.25"/><circle cx="34" cy="34" r="1.75"/><circle cx="30" cy="32" r="3.75"/><circle cx="15.5" cy="32.5" r="3.25"/><circle cx="18.5" cy="26" r="1.75"/><circle cx="19" cy="30" r="3.75"/><circle cx="19" cy="34" r="1.75"/><circle cx="22.5" cy="25.5" r="3.25"/><circle cx="24" cy="31" r="4.75"/></g></svg>