<svg xmlns="http://www.w3.org/2000/svg" width="48" height="48" version="1"><rect width="40" height="26" x="4" y="17" rx="2" ry="2" opacity=".2"/><path d="M4 34c0 1.108.892 2 2 2h36c1.108 0 2-.892 2-2V12c0-1.108-.892-2-2-2H22V8c0-1.108-.892-2-2-2H6c-1.108 0-2 .892-2 2" fill="#6c9b9a"/><rect width="40" height="26" x="4" y="15" rx="2" ry="2" opacity=".2"/><rect width="36" height="16" x="6" y="13" rx="2" ry="2" fill="#e4e4e4"/><rect width="40" height="26" x="4" y="16" rx="2" ry="2" fill="#82abaa"/><path d="M6 6c-1.108 0-2 .892-2 2v1c0-1.108.892-2 2-2h14c1.108 0 2 .892 2 2V8c0-1.108-.892-2-2-2zm16 4v1h20c1.108 0 2 .892 2 2v-1c0-1.108-.892-2-2-2z" opacity=".1" fill="#fff"/><path d="M20.545 25.452a.57.57 0 0 0-.135.052c-.43.227-.54.936-.246 1.592.237.528.657.854 1.039.844.287 1.753 1.43 3.06 2.79 3.06h.012c1.361 0 2.504-1.307 2.791-3.06.381.01.802-.316 1.039-.844.294-.656.184-1.365-.246-1.592a.588.588 0 0 0-.135-.052C27.399 23.535 25.876 22 24 22c-1.875 0-3.4 1.535-3.455 3.452zM26.394 31c-.289.701-1.274 1.227-2.449 1.227-1.17 0-2.146-.519-2.44-1.215-2.468.258-4.267.89-4.483 1.637-.003.007.002.016 0 .023-.007.027-.007.051-.01.078-.001.013-.012.021-.012.034v1.859a.355.355 0 0 0 .351.357H30.65c.194 0 .35-.16.35-.357v-1.872c-.002-.043-.021-.08-.033-.123-.221-.756-2.059-1.396-4.572-1.648z" fill="#4e6766"/></svg>