<svg xmlns="http://www.w3.org/2000/svg" width="48" height="48" version="1"><rect width="40" height="26" x="4" y="17" rx="2" ry="2" opacity=".2"/><path d="M4 34c0 1.108.892 2 2 2h36c1.108 0 2-.892 2-2V12c0-1.108-.892-2-2-2H22V8c0-1.108-.892-2-2-2H6c-1.108 0-2 .892-2 2" fill="#ae4f58"/><rect width="40" height="26" x="4" y="15" rx="2" ry="2" opacity=".2"/><rect width="36" height="16" x="6" y="13" rx="2" ry="2" fill="#e4e4e4"/><rect width="40" height="26" x="4" y="16" rx="2" ry="2" fill="#bf616a"/><path d="M6 6c-1.108 0-2 .892-2 2v1c0-1.108.892-2 2-2h14c1.108 0 2 .892 2 2V8c0-1.108-.892-2-2-2zm16 4v1h20c1.108 0 2 .892 2 2v-1c0-1.108-.892-2-2-2z" opacity=".1" fill="#fff"/><path d="M27 21c-.35.13-.71.299-1 .539-1.38 1.11-1.299 3.02.051 4.16.28.24.609.401.949.551v2.346a6.405 6.405 0 0 1 2.248 1.615c.304.342.543.72.752 1.111V26.25c.34-.13.659-.321.949-.551 1.38-1.12 1.391-2.949.051-4.099a3.91 3.91 0 0 0-1-.6v2.25c0 .46-.45.75-1 .75h-1c-.56 0-1-.29-1-.75zm-3 8c-4 0-6 3-6 6h-1.75c-.25 0-.25.25-.25.25v1.5c0 .25.25.25.25.25h15.5s.25 0 .25-.25v-1.5s0-.25-.25-.25H30c0-3-2-6-6-6zm0 3c2.35 0 3 1.76 3 3h-6c0-1.2.7-3 3-3z" fill="#974a4d"/></svg>