<svg xmlns="http://www.w3.org/2000/svg" width="48" height="48" version="1"><rect width="40" height="26" x="4" y="17" rx="2" ry="2" opacity=".2"/><path d="M4 34c0 1.108.892 2 2 2h36c1.108 0 2-.892 2-2V12c0-1.108-.892-2-2-2H22V8c0-1.108-.892-2-2-2H6c-1.108 0-2 .892-2 2" fill="#ae4f58"/><rect width="40" height="26" x="4" y="15" rx="2" ry="2" opacity=".2"/><rect width="36" height="16" x="6" y="13" rx="2" ry="2" fill="#e4e4e4"/><rect width="40" height="26" x="4" y="16" rx="2" ry="2" fill="#bf616a"/><path d="M6 6c-1.108 0-2 .892-2 2v1c0-1.108.892-2 2-2h14c1.108 0 2 .892 2 2V8c0-1.108-.892-2-2-2zm16 4v1h20c1.108 0 2 .892 2 2v-1c0-1.108-.892-2-2-2z" opacity=".1" fill="#fff"/><path d="M14 30.623l6.004 2.461A3 3 0 0 0 23 36c1.657 0 3.006-1.402 3-3l4-3c2.227 0 4-1.791 4-4a4 4 0 0 0-4-4 3.987 3.987 0 0 0-4 4l-3 4c-.544 0-1.082.152-1.549.436L14 27.377M30 23a3 3 0 1 1 0 6c-1.656 0-2.969-1.635-3-3a3 3 0 0 1 3-3zm0 1a2 2 0 1 0-.001 3.999A2 2 0 0 0 30 24zm-7 7a2 2 0 1 1-1.932 2.521l.893.366a1.497 1.497 0 0 0 1.957-.819 1.496 1.496 0 0 0-.818-1.957l-.254-.103c.051-.005.103-.007.154-.008z" fill="#974a4d"/></svg>