<svg xmlns="http://www.w3.org/2000/svg" width="48" height="48" version="1"><rect width="40" height="26" x="4" y="17" rx="2" ry="2" opacity=".2"/><path d="M4 34c0 1.108.892 2 2 2h36c1.108 0 2-.892 2-2V12c0-1.108-.892-2-2-2H22V8c0-1.108-.892-2-2-2H6c-1.108 0-2 .892-2 2" fill="#ae4f58"/><rect width="40" height="26" x="4" y="15" rx="2" ry="2" opacity=".2"/><rect width="36" height="16" x="6" y="13" rx="2" ry="2" fill="#e4e4e4"/><rect width="40" height="26" x="4" y="16" rx="2" ry="2" fill="#bf616a"/><path d="M6 6c-1.108 0-2 .892-2 2v1c0-1.108.892-2 2-2h14c1.108 0 2 .892 2 2V8c0-1.108-.892-2-2-2zm16 4v1h20c1.108 0 2 .892 2 2v-1c0-1.108-.892-2-2-2z" opacity=".1" fill="#fff"/><path d="M26.985 21c-.744.035-1.646.581-2.18 1.313-.479.65-.899 1.687-.787 2.682.831.076 1.68-.495 2.197-1.227h-.002c.518-.733.867-1.752.772-2.768zm.215 4.009c-1.068.079-2.042.73-2.594.73-.629 0-1.604-.708-2.635-.689-1.355.02-2.605.78-3.303 1.982-1.407 2.42-.36 6.005 1.012 7.967.671.961 1.489 2.001 2.52 2.001s1.395-.647 2.617-.647 1.556.647 2.635.647c1.079 0 1.777-.998 2.443-1.962.77-1.114 1.086-2.195 1.105-2.25-.025-.011-2.121-.805-2.142-3.197-.02-2.003 1.65-2.962 1.725-3.01-.938-1.359-2.4-1.547-2.92-1.568a2.56 2.56 0 0 0-.463-.004z" fill="#974a4d"/></svg>