<svg xmlns="http://www.w3.org/2000/svg" width="48" height="48" version="1"><rect width="40" height="26" x="4" y="17" rx="2" ry="2" opacity=".2"/><path d="M4 34c0 1.108.892 2 2 2h36c1.108 0 2-.892 2-2V12c0-1.108-.892-2-2-2H22V8c0-1.108-.892-2-2-2H6c-1.108 0-2 .892-2 2" fill="#6c9b9a"/><rect width="40" height="26" x="4" y="15" rx="2" ry="2" opacity=".2"/><rect width="36" height="16" x="6" y="13" rx="2" ry="2" fill="#e4e4e4"/><rect width="40" height="26" x="4" y="16" rx="2" ry="2" fill="#82abaa"/><path d="M6 6c-1.108 0-2 .892-2 2v1c0-1.108.892-2 2-2h14c1.108 0 2 .892 2 2V8c0-1.108-.892-2-2-2zm16 4v1h20c1.108 0 2 .892 2 2v-1c0-1.108-.892-2-2-2z" opacity=".1" fill="#fff"/><path d="M24 21a8 8 0 1 0 0 16 8 8 0 0 0 0-16zm-.571 2.214c.076-.008.172.005.25 0 .009.037-.056.167-.143.357-.556 1.213-.587 2.634-.072 3.393.094.138.179.269.179.286 0 .017-.101.036-.214.036-.267 0-.52-.163-1.036-.572-.23-.181-.528-.333-.644-.356-.18-.037-.229-.021-.464.213-.218.219-.285.336-.285.536 0 .758.899 1.36 2.571 1.715 2.271.481 2.83.913 2.893 2.107.079 1.497-.718 2.626-2.464 3.5-.209.104-.341.145-.429.179-.039-.004-.068.003-.107 0a1.27 1.27 0 0 1-.036-.358c0-.795-.313-1.613-.785-2.071-.127-.123-.482-.383-.786-.571-.304-.189-.61-.407-.679-.5-.113-.155-.122-.25-.035-.536.158-.522.347-.813.714-1.143.192-.173.386-.318.429-.322.042-.003-.246-.09-.679-.178a12.094 12.094 0 0 1-1.393-.393c-.598-.216-1.406-.671-1.714-1l-.036-.036a5.746 5.746 0 0 1 3.322-3.892 5.572 5.572 0 0 1 1.071-.322c.186-.038.379-.052.571-.071zm5.357 2.679c.134.083.641 1.179.785 1.714.187.691.174 1.886 0 2.572-.066.261-.15.505-.178.535-.028.031-.13-.144-.25-.357-.12-.212-.503-.664-.822-1-.919-.97-1.063-1.476-.678-2.25.194-.39 1.039-1.278 1.143-1.214z" fill="#4e6766"/></svg>