<svg xmlns="http://www.w3.org/2000/svg" width="48" height="48" version="1"><rect width="40" height="22" x="4" y="21" rx="2" ry="2" opacity=".2"/><path d="M4 34c0 1.108.892 2 2 2h36c1.108 0 2-.892 2-2V12c0-1.108-.892-2-2-2H22V8c0-1.108-.892-2-2-2H6c-1.108 0-2 .892-2 2" fill="#ae4f58"/><rect width="40" height="22" x="4" y="19" rx="2" ry="2" opacity=".2"/><rect width="40" height="22" x="4" y="20" rx="2" ry="2" fill="#bf616a"/><path d="M6 6c-1.108 0-2 .892-2 2v1c0-1.108.892-2 2-2h14c1.108 0 2 .892 2 2V8c0-1.108-.892-2-2-2zm16 4v1h20c1.108 0 2 .892 2 2v-1c0-1.108-.892-2-2-2z" opacity=".1" fill="#fff"/></svg>