<svg xmlns="http://www.w3.org/2000/svg" width="48" height="48" version="1"><rect width="40" height="26" x="4" y="17" rx="2" ry="2" opacity=".2"/><path d="M4 34c0 1.108.892 2 2 2h36c1.108 0 2-.892 2-2V12c0-1.108-.892-2-2-2H22V8c0-1.108-.892-2-2-2H6c-1.108 0-2 .892-2 2" fill="#6c9b9a"/><rect width="40" height="26" x="4" y="15" rx="2" ry="2" opacity=".2"/><rect width="36" height="16" x="6" y="13" rx="2" ry="2" fill="#e4e4e4"/><rect width="40" height="26" x="4" y="16" rx="2" ry="2" fill="#82abaa"/><path d="M6 6c-1.108 0-2 .892-2 2v1c0-1.108.892-2 2-2h14c1.108 0 2 .892 2 2V8c0-1.108-.892-2-2-2zm16 4v1h20c1.108 0 2 .892 2 2v-1c0-1.108-.892-2-2-2z" opacity=".1" fill="#fff"/><path d="M28.779 22c-2.96 0-3.517 4-1.85 4 1.664 0 4.812-4 1.85-4zm-4.549 1c-.047 0-.099.005-.151.01-1.695.204-1.1 2.939-.197 2.99.873.05 1.829-2.992.349-3zm-3.09 1a1.413 1.413 0 0 0-.405.049c-1.586.401-.241 2.057.647 1.945.806-.101.923-1.947-.242-1.994zm-2.211 2a1.045 1.045 0 0 0-.459.105c-1.304.616.44 2.102 1.207 1.872.671-.202.243-1.954-.748-1.977zm6.082 1c-2.334-.037-5.412 1.065-5.938 3.279C18.505 32.676 21.416 36 24.45 36c1.493 0 3.215-.671 3.537-2.279.245-1.226-3.091-.698-2.978.113.135.973-.563.818-1.438.191-2.57-2.025 4.61-2.991 4.123-5.718-.151-.849-1.283-1.283-2.683-1.305z" fill="#4e6766"/></svg>