<svg xmlns="http://www.w3.org/2000/svg" width="48" height="48" version="1"><rect width="40" height="26" x="4" y="17" rx="2" ry="2" opacity=".2"/><path d="M4 34c0 1.108.892 2 2 2h36c1.108 0 2-.892 2-2V12c0-1.108-.892-2-2-2H22V8c0-1.108-.892-2-2-2H6c-1.108 0-2 .892-2 2" fill="#6c9b9a"/><rect width="40" height="26" x="4" y="15" rx="2" ry="2" opacity=".2"/><rect width="36" height="16" x="6" y="13" rx="2" ry="2" fill="#e4e4e4"/><rect width="40" height="26" x="4" y="16" rx="2" ry="2" fill="#82abaa"/><path d="M6 6c-1.108 0-2 .892-2 2v1c0-1.108.892-2 2-2h14c1.108 0 2 .892 2 2V8c0-1.108-.892-2-2-2zm16 4v1h20c1.108 0 2 .892 2 2v-1c0-1.108-.892-2-2-2z" opacity=".1" fill="#fff"/><path d="M23.092 23.047c-3.556 0-2.729 3.248-4.549 4.226-.063.036-.098.069-.154.104 1.2-.715 2.68-1.312 4.252-1.717a17.3 17.3 0 0 1 3.925-.559h.096c-1.2-.341-1.332-2.054-3.57-2.054zm3.875 2.955a17.36 17.36 0 0 0-3.926.558c-4.386 1.129-7.513 3.584-6.982 5.483.305 1.085 1.777 1.801 3.97 1.931l-.004-.023c-.118-1.027.533-1.92 1.297-2.526.764-.605 1.746-1.045 2.85-1.279 1.103-.234 2.136-.223 3 .037.812.245 1.576.778 1.763 1.694 2.199-1.233 3.339-2.719 3.008-3.92-.35-1.258-2.258-2.008-4.976-1.955zM25.662 31a1.859 3.577 76.001 0 0-1.377.142 1.859 3.577 76.001 0 0-3.279 2.6 1.859 3.577 76.001 0 0 3.709 1.115 1.859 3.577 76.001 0 0 3.277-2.599A1.859 3.577 76.001 0 0 25.662 31z" fill="#4e6766"/></svg>