<svg xmlns="http://www.w3.org/2000/svg" width="48" height="48" version="1"><rect width="40" height="26" x="4" y="17" rx="2" ry="2" opacity=".2"/><path d="M4 34c0 1.108.892 2 2 2h36c1.108 0 2-.892 2-2V12c0-1.108-.892-2-2-2H22V8c0-1.108-.892-2-2-2H6c-1.108 0-2 .892-2 2" fill="#ae4f58"/><rect width="40" height="26" x="4" y="15" rx="2" ry="2" opacity=".2"/><rect width="36" height="16" x="6" y="13" rx="2" ry="2" fill="#e4e4e4"/><rect width="40" height="26" x="4" y="16" rx="2" ry="2" fill="#bf616a"/><path d="M6 6c-1.108 0-2 .892-2 2v1c0-1.108.892-2 2-2h14c1.108 0 2 .892 2 2V8c0-1.108-.892-2-2-2zm16 4v1h20c1.108 0 2 .892 2 2v-1c0-1.108-.892-2-2-2z" fill="#fff" opacity=".1"/><path d="M18.869 24c-.634 0-1.266.127-1.853.375-.588.248-1.125.614-1.579 1.076s-.817 1.015-1.064 1.623A5.12 5.12 0 0 0 14 28.998c0 .66.126 1.316.373 1.924.247.608.611 1.159 1.065 1.62a4.768 4.768 0 0 0 3.389 1.45l.042.002c1.507.072 2.72-.526 3.61-1.394.607-.594 1.085-1.296 1.521-2.01.436.714.914 1.416 1.521 2.01.89.868 2.103 1.466 3.61 1.394l.043-.002a4.76 4.76 0 0 0 1.81-.373 4.864 4.864 0 0 0 1.578-1.076l.004-.006a4.99 4.99 0 0 0 1.061-1.615c.247-.608.373-1.264.373-1.924s-.126-1.316-.373-1.924l-.006-.01a5.02 5.02 0 0 0-1.059-1.613 4.856 4.856 0 0 0-1.578-1.076A4.768 4.768 0 0 0 29.131 24c-1.588 0-2.842.652-3.768 1.561-.535.524-.969 1.124-1.363 1.738-.394-.614-.828-1.214-1.363-1.738-.926-.909-2.18-1.56-3.768-1.56zm.182 2c1.128 0 1.848.38 2.51 1.012.524.5.983 1.181 1.439 1.924-.52.867-1.023 1.66-1.588 2.197-.623.592-1.266.918-2.32.861h-.041a3.076 3.076 0 0 1-2.156-.879l-.012-.01a2.967 2.967 0 0 1-.657-3.246c.15-.358.376-.692.656-.97l.012-.012A3.07 3.07 0 0 1 19.051 26zm9.898 0a3.07 3.07 0 0 1 2.156.877l.012.012a2.957 2.957 0 0 1 0 4.216l-.011.01a3.076 3.076 0 0 1-2.157.878h-.04c-1.055.058-1.698-.269-2.32-.86-.566-.538-1.069-1.33-1.589-2.198.456-.743.915-1.424 1.44-1.924C27.1 26.38 27.82 26 28.95 26zM28 27v1h-1v2h1v1h2v-1h1v-2h-1v-1zm-11 1v2h4v-2z" fill="#974a4d"/></svg>