<svg xmlns="http://www.w3.org/2000/svg" width="48" height="48" version="1"><rect width="40" height="26" x="4" y="17" rx="2" ry="2" opacity=".2"/><path d="M4 34c0 1.108.892 2 2 2h36c1.108 0 2-.892 2-2V12c0-1.108-.892-2-2-2H22V8c0-1.108-.892-2-2-2H6c-1.108 0-2 .892-2 2" fill="#ae4f58"/><rect width="40" height="26" x="4" y="15" rx="2" ry="2" opacity=".2"/><rect width="36" height="16" x="6" y="13" rx="2" ry="2" fill="#e4e4e4"/><rect width="40" height="26" x="4" y="16" rx="2" ry="2" fill="#bf616a"/><path d="M6 6c-1.108 0-2 .892-2 2v1c0-1.108.892-2 2-2h14c1.108 0 2 .892 2 2V8c0-1.108-.892-2-2-2zm16 4v1h20c1.108 0 2 .892 2 2v-1c0-1.108-.892-2-2-2z" fill="#fff" opacity=".1"/><g fill="#974a4d"><path d="M25.006 22L23 22.399v8.513l1.994-.312V27l2.806 4 2.189-1L27 26.6l3.011-3.6-2.211-1-2.806 4.2V22z"/><path d="M20.281 25.201c-.024.003-.051.009-.07.028l-.854.847a.107.107 0 0 0-.013.133l.908 1.488a4.367 4.367 0 0 0-.49 1.125l-1.674.346a.114.114 0 0 0-.088.111v1.198c0 .05.039.093.088.105l1.623.39c.102.452.275.877.504 1.264l-.945 1.43a.11.11 0 0 0 .013.139l.854.847a.11.11 0 0 0 .134.014l1.477-.89c.365.217.763.384 1.186.49l.345 1.646c.011.05.053.088.106.088h1.207c.05 0 .093-.033.105-.082l.41-1.658c.427-.11.824-.289 1.19-.514l1.482.965a.112.112 0 0 0 .139-.014l.85-.845a.11.11 0 0 0 .017-.135l-.58-.947-.19.058a.068.068 0 0 1-.074-.027l-.322-.438c-.06-.09-.55-.687-.89-1.12A3 3 0 0 1 24 33a3 3 0 0 1-3-3 3 3 0 0 1 1.4-2.535v-1.59c-.223.083-.37.184-.574.3l-1.476-.958a.1.1 0 0 0-.069-.016z"/></g></svg>