<svg xmlns="http://www.w3.org/2000/svg" width="48" height="48" version="1"><rect width="40" height="26" x="4" y="17" rx="2" ry="2" opacity=".2"/><path d="M4 34c0 1.108.892 2 2 2h36c1.108 0 2-.892 2-2V12c0-1.108-.892-2-2-2H22V8c0-1.108-.892-2-2-2H6c-1.108 0-2 .892-2 2" fill="#6c9b9a"/><rect width="40" height="26" x="4" y="15" rx="2" ry="2" opacity=".2"/><rect width="36" height="16" x="6" y="13" rx="2" ry="2" fill="#e4e4e4"/><rect width="40" height="26" x="4" y="16" rx="2" ry="2" fill="#82abaa"/><path d="M6 6c-1.108 0-2 .892-2 2v1c0-1.108.892-2 2-2h14c1.108 0 2 .892 2 2V8c0-1.108-.892-2-2-2zm16 4v1h20c1.108 0 2 .892 2 2v-1c0-1.108-.892-2-2-2z" opacity=".1" fill="#fff"/><path d="M19.707 22l-.707.708 1.408 1.409a2.5 2.503 0 0 0-.41 1.371 2.5 2.503 0 0 0 2.001 2.452v4.11a2.5 2.503 0 0 0-2 2.447A2.5 2.503 0 0 0 22.5 37a2.5 2.503 0 0 0 2.5-2.503 2.5 2.503 0 0 0-2-2.451v-4.11a2.5 2.503 0 0 0 .869-.354l1.541 1.543a2.5 2.503 0 0 0-.41 1.368 2.5 2.503 0 0 0 2.501 2.503 2.5 2.503 0 0 0 2.501-2.504 2.5 2.503 0 0 0-2.5-2.503 2.5 2.503 0 0 0-1.388.423l-1.534-1.537a2.5 2.503 0 0 0 .42-1.388 2.5 2.503 0 0 0-2.5-2.503 2.5 2.503 0 0 0-1.386.423L19.708 22z" fill="#4e6766"/></svg>