<svg xmlns="http://www.w3.org/2000/svg" width="48" height="48" version="1"><rect width="40" height="26" x="4" y="17" rx="2" ry="2" opacity=".2"/><path d="M4 34c0 1.108.892 2 2 2h36c1.108 0 2-.892 2-2V12c0-1.108-.892-2-2-2H22V8c0-1.108-.892-2-2-2H6c-1.108 0-2 .892-2 2" fill="#ae4f58"/><rect width="40" height="26" x="4" y="15" rx="2" ry="2" opacity=".2"/><rect width="36" height="16" x="6" y="13" rx="2" ry="2" fill="#e4e4e4"/><rect width="40" height="26" x="4" y="16" rx="2" ry="2" fill="#bf616a"/><path d="M6 6c-1.108 0-2 .892-2 2v1c0-1.108.892-2 2-2h14c1.108 0 2 .892 2 2V8c0-1.108-.892-2-2-2zm16 4v1h20c1.108 0 2 .892 2 2v-1c0-1.108-.892-2-2-2z" opacity=".1" fill="#fff"/><path d="M24 21a8 8 0 0 0 0 16h5s.937 0 1-1c0-1-1-1-1-1h-5a6 6 0 1 1 6-6v1a1 1 0 0 1-2 0v-1a4 4 0 1 0-4 4c1.046 0 1.99-.411 2.703-1.068A3.003 3.003 0 0 0 32 30v-1a8 8 0 0 0-8-8zm0 6a2 2 0 1 1 .001 3.999A2 2 0 0 1 24 27z" fill="#974a4d"/></svg>