<svg xmlns="http://www.w3.org/2000/svg" width="48" height="48" version="1"><rect width="40" height="26" x="4" y="17" rx="2" ry="2" opacity=".2"/><path d="M4 34c0 1.108.892 2 2 2h36c1.108 0 2-.892 2-2V12c0-1.108-.892-2-2-2H22V8c0-1.108-.892-2-2-2H6c-1.108 0-2 .892-2 2" fill="#ae4f58"/><rect width="40" height="26" x="4" y="15" rx="2" ry="2" opacity=".2"/><rect width="36" height="16" x="6" y="13" rx="2" ry="2" fill="#e4e4e4"/><rect width="40" height="26" x="4" y="16" rx="2" ry="2" fill="#bf616a"/><path d="M6 6c-1.108 0-2 .892-2 2v1c0-1.108.892-2 2-2h14c1.108 0 2 .892 2 2V8c0-1.108-.892-2-2-2zm16 4v1h20c1.108 0 2 .892 2 2v-1c0-1.108-.892-2-2-2z" opacity=".1" fill="#fff"/><path d="M18.99 22a.299.299 0 0 0-.29.2L16.925 27h4.129l-1.776-4.8a.297.297 0 0 0-.289-.2zm2.065 5L24 36l2.945-9h-5.89zm5.89 0h4.13L29.3 22.2c-.091-.268-.489-.268-.58 0L26.945 27zm4.13 0L24 36l7.748-5.348a.565.565 0 0 0 .223-.648L31.074 27zM24 36l-7.074-9-.897 3.004c-.081.239.01.5.223.648L24 36z" fill="#974a4d" fill-rule="evenodd"/></svg>