<svg xmlns="http://www.w3.org/2000/svg" width="48" height="48" version="1"><rect width="40" height="26" x="4" y="17" rx="2" ry="2" opacity=".2"/><path d="M4 34c0 1.108.892 2 2 2h36c1.108 0 2-.892 2-2V12c0-1.108-.892-2-2-2H22V8c0-1.108-.892-2-2-2H6c-1.108 0-2 .892-2 2" fill="#6c9b9a"/><rect width="40" height="26" x="4" y="15" rx="2" ry="2" opacity=".2"/><rect width="36" height="16" x="6" y="13" rx="2" ry="2" fill="#e4e4e4"/><rect width="40" height="26" x="4" y="16" rx="2" ry="2" fill="#82abaa"/><path d="M6 6c-1.108 0-2 .892-2 2v1c0-1.108.892-2 2-2h14c1.108 0 2 .892 2 2V8c0-1.108-.892-2-2-2zm16 4v1h20c1.108 0 2 .892 2 2v-1c0-1.108-.892-2-2-2z" opacity=".1" fill="#fff"/><path d="M24.465 22.016A7.008 7.008 0 0 0 17 28.975a1 1 0 0 0 .002.025H16l2 2 2-2h-1a1 1 0 0 0 0-.018 4.992 4.992 0 0 1 3.697-4.81 4.993 4.993 0 0 1 5.615 2.299 4.99 4.99 0 0 1-.734 6.021c-1.536 1.574-4.082 1.749-6.094.633a1 1 0 1 0-.968 1.75c2.717 1.507 6.253 1.31 8.494-.986a7.006 7.006 0 0 0 1.027-8.43 7.009 7.009 0 0 0-5.572-3.443zm-.48 2.97A1 1 0 0 0 23 26v2.863a1 1 0 0 0 .064.498 1 1 0 0 0 .332.45l1.897 1.896a1 1 0 1 0 1.414-1.414L25 28.586V26a1 1 0 0 0-1.016-1.014z" fill="#4e6766"/></svg>