<svg xmlns="http://www.w3.org/2000/svg" width="48" height="48" version="1"><rect width="40" height="26" x="4" y="17" rx="2" ry="2" opacity=".2"/><path d="M4 34c0 1.108.892 2 2 2h36c1.108 0 2-.892 2-2V12c0-1.108-.892-2-2-2H22V8c0-1.108-.892-2-2-2H6c-1.108 0-2 .892-2 2" fill="#ae4f58"/><rect width="40" height="26" x="4" y="15" rx="2" ry="2" opacity=".2"/><rect width="36" height="16" x="6" y="13" rx="2" ry="2" fill="#e4e4e4"/><rect width="40" height="26" x="4" y="16" rx="2" ry="2" fill="#bf616a"/><path d="M6 6c-1.108 0-2 .892-2 2v1c0-1.108.892-2 2-2h14c1.108 0 2 .892 2 2V8c0-1.108-.892-2-2-2zm16 4v1h20c1.108 0 2 .892 2 2v-1c0-1.108-.892-2-2-2z" fill="#fff" opacity=".1"/><path d="M17.793 23.99a.8.8 0 0 0-.611 1.317l1.435 1.756a7.966 7.966 0 0 0-2.615 5.167c-.037.77.775.77.775.77h14.426s.836 0 .795-.809a7.964 7.964 0 0 0-2.613-5.13l1.433-1.754a.8.8 0 0 0-.634-1.315.8.8 0 0 0-.604.301l-1.492 1.826a8.023 8.023 0 0 0-8.176 0l-1.492-1.826a.8.8 0 0 0-.627-.303z" fill="#974a4d"/><circle cx="20" cy="30" r="1" fill="#bf616a"/><circle cx="-28" cy="30" r="1" transform="scale(-1 1)" fill="#bf616a"/></svg>