<svg xmlns="http://www.w3.org/2000/svg" width="48" height="48" version="1"><rect width="40" height="26" x="4" y="17" rx="2" ry="2" opacity=".2"/><path d="M4 34c0 1.108.892 2 2 2h36c1.108 0 2-.892 2-2V12c0-1.108-.892-2-2-2H22V8c0-1.108-.892-2-2-2H6c-1.108 0-2 .892-2 2" fill="#6c9b9a"/><rect width="40" height="26" x="4" y="15" rx="2" ry="2" opacity=".2"/><rect width="36" height="16" x="6" y="13" rx="2" ry="2" fill="#e4e4e4"/><rect width="40" height="26" x="4" y="16" rx="2" ry="2" fill="#82abaa"/><path d="M6 6c-1.108 0-2 .892-2 2v1c0-1.108.892-2 2-2h14c1.108 0 2 .892 2 2V8c0-1.108-.892-2-2-2zm16 4v1h20c1.108 0 2 .892 2 2v-1c0-1.108-.892-2-2-2z" opacity=".1" fill="#fff"/><path d="M24.56 32.076c-1.12.521-1.663.515-2.362.465-.835-.06-1.506-.289-1.801-.489a.397.397 0 0 0-.446.659c.475.321 1.313.56 2.19.623.148.011-.188.017-.013.017.763 0 1.731-.072 2.767-.554a.397.397 0 1 0-.335-.721zm4.419-.589c.038-3.455.394-9.982-6.219-9.455-6.529.526-4.298 7.423-4.396 9.733C18.278 32.986 17.573 34.48 17 36h2.064a10.8 10.8 0 0 0 .373-1.888c.106.074.22.145.341.214.198.117.368.272.548.435.42.383.896.817 1.827.872.063.003-.374.005-.312.005.942 0 1.586-.412 2.103-.743.248-.159.463-.296.664-.362.573-.179 1.074-.469 1.448-.837.058-.058.113-.117.163-.177.209.764.494 1.623.811 2.481h3.968c-.905-1.397-2.038-2.766-2.019-4.513zm-9.983-1.88c-.065-1.127.475-2.076 1.205-2.118.73-.043 1.374.837 1.439 1.964l.001.001c.003.06.004.121.004.18-.231.058-.44.143-.627.241l-.002-.025c-.062-.64-.404-1.123-.763-1.079-.359.043-.6.597-.537 1.238.027.279.107.528.219.717-.028.022-.107.079-.197.145l-.25.184c-.272-.357-.459-.869-.492-1.448zm6.898 2.787c-.026.595-.805 1.156-1.525 1.381l-.004.001c-.299.097-.566.268-.849.449-.475.304-.966.618-1.675.618-.046 0 .405-.001.359-.004-.65-.038-.954-.315-1.338-.666-.203-.184-.413-.375-.684-.534l-.005-.004c-.584-.329-.947-.739-.97-1.096-.011-.177.068-.331.235-.456.364-.273.608-.452.769-.57.18-.131.234-.171.274-.209l.093-.089c.334-.325.394-.869 1.252-.869.525 0 1.106.202 1.725.6.292.19.545.277.866.388.221.077.472.163.807.306l.005.003c.313.128.682.363.665.751zm-.172-1.4a2.964 2.964 0 0 0-.188-.086 11.198 11.198 0 0 0-.746-.287c.111-.217.18-.488.187-.782v-.001c.015-.716-.346-1.297-.807-1.298-.461-.001-.847.578-.862 1.294V29.905a3.96 3.96 0 0 0-.837-.284l-.003-.081v-.001c-.026-1.304.774-2.384 1.788-2.411 1.013-.028 1.856 1.007 1.883 2.312a2.791 2.791 0 0 1-.415 1.554z" fill="#4e6766"/></svg>