<svg xmlns="http://www.w3.org/2000/svg" width="48" height="48" version="1"><rect width="40" height="26" x="4" y="17" rx="2" ry="2" opacity=".2"/><path d="M4 34c0 1.108.892 2 2 2h36c1.108 0 2-.892 2-2V12c0-1.108-.892-2-2-2H22V8c0-1.108-.892-2-2-2H6c-1.108 0-2 .892-2 2" fill="#6c9b9a"/><rect width="40" height="26" x="4" y="15" rx="2" ry="2" opacity=".2"/><rect width="36" height="16" x="6" y="13" rx="2" ry="2" fill="#e4e4e4"/><rect width="40" height="26" x="4" y="16" rx="2" ry="2" fill="#82abaa"/><path d="M6 6c-1.108 0-2 .892-2 2v1c0-1.108.892-2 2-2h14c1.108 0 2 .892 2 2V8c0-1.108-.892-2-2-2zm16 4v1h20c1.108 0 2 .892 2 2v-1c0-1.108-.892-2-2-2z" opacity=".1" fill="#fff"/><path d="M24 21c-4.432 0-8 3.568-8 8 0 3.573 2.32 6.58 5.541 7.613v-1.662c-2.025.447-2.451-.89-2.451-.89-.331-.855-.809-1.082-.809-1.082-.66-.46.05-.452.05-.452.73.053 1.114.764 1.114.764.65 1.13 1.705.805 2.12.615.066-.477.255-.805.462-.99-1.616-.187-3.017-1.22-3.017-4.055 0-.807.586-1.868 1.052-2.384-.075-.188-.326-1.34.07-2.358 0 0 .039-.012.117-.015.237-.012.77.438 1.813 1.156A8.098 8.098 0 0 1 24 24.99a6.42 6.42 0 0 1 1.816.27c1.043-.718 1.709-1.17 1.945-1.158h.002c.079.003.117.015.117.015.397 1.018.147 2.172.072 2.36.467.516 1.048 1.577 1.048 2.384 0 2.842-1.7 3.866-3.322 4.05.26.228.326.68.326 1.37 0 .833-.002 1.375-.004 1.719v.74c3.457-.884 6-4 6-7.74 0-4.432-3.568-8-8-8z" fill="#4e6766"/></svg>