<svg xmlns="http://www.w3.org/2000/svg" width="48" height="48" version="1"><rect width="40" height="26" x="4" y="17" rx="2" ry="2" opacity=".2"/><path d="M4 34c0 1.108.892 2 2 2h36c1.108 0 2-.892 2-2V12c0-1.108-.892-2-2-2H22V8c0-1.108-.892-2-2-2H6c-1.108 0-2 .892-2 2" fill="#ae4f58"/><rect width="40" height="26" x="4" y="15" rx="2" ry="2" opacity=".2"/><rect width="36" height="16" x="6" y="13" rx="2" ry="2" fill="#e4e4e4"/><rect width="40" height="26" x="4" y="16" rx="2" ry="2" fill="#bf616a"/><path d="M6 6c-1.108 0-2 .892-2 2v1c0-1.108.892-2 2-2h14c1.108 0 2 .892 2 2V8c0-1.108-.892-2-2-2zm16 4v1h20c1.108 0 2 .892 2 2v-1c0-1.108-.892-2-2-2z" opacity=".1" fill="#fff"/><path d="M22.251 22l-.155 1.845a5.505 5.505 0 0 0-1.607.929l-1.677-.79-1.75 3.032 1.521 1.056a5.55 5.55 0 0 0-.084.928c0 .312.027.624.08.932l-1.517 1.052 1.75 3.031 1.672-.787c.481.397 1.026.71 1.611.924L22.25 36h3.5l.155-1.844a5.505 5.505 0 0 0 1.607-.929l1.676.789 1.75-3.032-1.522-1.056a5.54 5.54 0 0 0 .085-.927c0-.312-.028-.624-.081-.932l1.518-1.053-1.75-3.031-1.672.787a5.499 5.499 0 0 0-1.611-.923L25.751 22zm1.75 5.001A2 2 0 1 1 24.002 31 2 2 0 0 1 24.001 27z" fill="#974a4d"/></svg>