<svg xmlns="http://www.w3.org/2000/svg" width="48" height="48" version="1"><rect width="40" height="26" x="4" y="17" rx="2" ry="2" opacity=".2"/><path d="M4 34c0 1.108.892 2 2 2h36c1.108 0 2-.892 2-2V12c0-1.108-.892-2-2-2H22V8c0-1.108-.892-2-2-2H6c-1.108 0-2 .892-2 2" fill="#ae4f58"/><rect width="40" height="26" x="4" y="15" rx="2" ry="2" opacity=".2"/><rect width="36" height="16" x="6" y="13" rx="2" ry="2" fill="#e4e4e4"/><rect width="40" height="26" x="4" y="16" rx="2" ry="2" fill="#bf616a"/><path d="M6 6c-1.108 0-2 .892-2 2v1c0-1.108.892-2 2-2h14c1.108 0 2 .892 2 2V8c0-1.108-.892-2-2-2zm16 4v1h20c1.108 0 2 .892 2 2v-1c0-1.108-.892-2-2-2z" opacity=".1" fill="#fff"/><path d="M21.527 25.623A3.019 3.019 0 0 0 20.4 25.4a3 3 0 0 0-2.97 2.6 3.599 3.599 0 0 0 1.17 7h10.8a3.599 3.599 0 0 0 1.19-6.994c.005-.069.007-.136.01-.205a4.796 4.796 0 0 0-9.073-2.178zM25.799 25h.002a2.77 2.77 0 0 1 2.799 2.799l-.004.068a2 2 0 0 0 1.334 2.028c.647.226 1.069.82 1.07 1.505 0 .908-.692 1.6-1.6 1.6H18.6a1.57 1.57 0 0 1-1.6-1.598V31.4a1.586 1.586 0 0 1 1.08-1.509 2 2 0 0 0 1.332-1.625.98.98 0 0 1 .986-.866 1 1 0 0 1 .372.075 2 2 0 0 0 2.539-.944A2.788 2.788 0 0 1 25.799 25z" fill="#974a4d"/></svg>